<svg xmlns="http://www.w3.org/2000/svg" xmlns:xlink="http://www.w3.org/1999/xlink" width="554.333" height="134" viewBox="0 0 415.75 100.5"><path d="M-161 763.25h612v-792h-612z" fill="#fff"/><symbol id="a"><path d="M.469.44A.415.415 0 0 0 .348.434a.459.459 0 0 0-.097.02.554.554 0 0 0-.125.078.344.344 0 0 0-.11.178.677.677 0 0 0-.013.096C0 .842.003.877.012.911a.55.55 0 0 0 .153.257 1.843 1.843 0 0 0 .162.136.194.194 0 0 1-.003.023.33.33 0 0 0-.011.076l-.002.03a.924.924 0 0 0-.001.121.345.345 0 0 0 .031.144.615.615 0 0 0 .039.075.4.4 0 0 0 .048.062c.016.018.032.026.047.026.007 0 .015-.004.024-.014a.405.405 0 0 0 .05-.087.544.544 0 0 0 .042-.168c0-.034-.001-.065-.004-.092a.415.415 0 0 0-.067-.182.402.402 0 0 0-.033-.048 9.105 9.105 0 0 0-.033-.04.22.22 0 0 0-.038-.038.517.517 0 0 1-.038-.03A16.911 16.911 0 0 0 .41.966a.361.361 0 0 0 .14-.02.207.207 0 0 0 .03-.015A.224.224 0 0 0 .657.84.31.31 0 0 0 .684.735.276.276 0 0 0 .643.57.319.319 0 0 0 .494.446 22.623 22.623 0 0 0 .52.272.508.508 0 0 0 .527.174.148.148 0 0 0 .512.111.283.283 0 0 0 .486.072.164.164 0 0 0 .405.013.236.236 0 0 0 .283.006a.234.234 0 0 0-.07.023.175.175 0 0 0-.056.044.116.116 0 0 0-.027.07.175.175 0 0 0 .003.048.14.14 0 0 0 .017.044C.158.248.17.26.183.267a.11.11 0 0 0 .087.01.137.137 0 0 0 .035-.019A.099.099 0 0 0 .343.19.101.101 0 0 0 .32.12.157.157 0 0 0 .232.065.09.09 0 0 1 .27.04a.166.166 0 0 1 .154.013.183.183 0 0 1 .063.065C.496.136.5.158.5.186a.702.702 0 0 1-.02.175L.469.44m.02 1.267c-.025 0-.048-.012-.068-.037a.298.298 0 0 1-.048-.092.567.567 0 0 1-.021-.252.748.748 0 0 1 .134.136.41.41 0 0 1 .048.081.155.155 0 0 1 .002.133.072.072 0 0 1-.018.022.043.043 0 0 1-.028.01M.488.48c.028.01.05.023.067.04A.152.152 0 0 1 .59.57a.155.155 0 0 1 .013.056.433.433 0 0 1 0 .05.332.332 0 0 1-.008.045.132.132 0 0 1-.075.093.172.172 0 0 1-.088.014L.488.48M.406.827A.155.155 0 0 1 .338.81.123.123 0 0 1 .27.691.158.158 0 0 1 .297.62.23.23 0 0 1 .322.59.11.11 0 0 1 .35.57.016.016 0 0 0 .346.564.016.016 0 0 0 .343.561.016.016 0 0 1 .34.557a.245.245 0 0 0-.055.036.257.257 0 0 0-.03.03.747.747 0 0 0-.02.026.119.119 0 0 0-.012.026.25.25 0 0 0-.01.03.278.278 0 0 0 0 .081.226.226 0 0 0 .016.048.247.247 0 0 0 .074.09.248.248 0 0 0 .043.025.868.868 0 0 0 .039.013l-.03.181A1.039 1.039 0 0 1 .142.938.715.715 0 0 1 .086.833.216.216 0 0 1 .07.73.246.246 0 0 1 .109.612.316.316 0 0 1 .32.47a.315.315 0 0 1 .143.003 36.857 36.857 0 0 1-.056.34L.406.826z"/></symbol><use xlink:href="#a" transform="matrix(20.5 0 0 -20.5 6.148 72.735)"/><path stroke-width=".384" stroke-miterlimit="10" fill="none" stroke="#000" d="M94.16 43.188v20.5M96.723 43.188v20.5M243.426 43.188v20.5M245.989 43.188v20.5M414.73 43.188v20.5M412.168 43.188v20.5M1.078 43.188h413.844M1.078 48.313h413.844M1.078 53.438h413.844M1.078 58.563h413.844M1.078 63.688h413.844"/><path stroke-width=".554" stroke-miterlimit="10" fill="none" stroke="#000" d="M109.557 81.198v2.562h39.505v-2.562M186.86 72.016v2.562h41.213v-2.562M257.969 81.625v2.563h17.724v-2.563M277.188 79.49v2.562h18.364V79.49M297.047 77.781v2.563h18.578V77.78M337.193 70.734v2.563h17.083v-2.563M356.198 69.667v2.562h19.432v-2.562"/><symbol id="b"><path d="M.001.135a.08.08 0 0 0 .012.049.14.14 0 0 0 .042.042.239.239 0 0 0 .063.029.276.276 0 0 0 .08.011.402.402 0 0 0 .08-.008.235.235 0 0 0 .07-.025.16.16 0 0 0 .05-.043.108.108 0 0 0 .023-.06.077.077 0 0 0-.013-.049.13.13 0 0 0-.04-.042A.266.266 0 0 0 .226 0a.402.402 0 0 0-.082.008.249.249 0 0 0-.07.025.15.15 0 0 0-.05.042.108.108 0 0 0-.024.06m.125.019a.532.532 0 0 1 .01-.051.173.173 0 0 1 .018-.042.093.093 0 0 1 .028-.028.082.082 0 0 1 .074-.002c.01.005.019.012.025.02a.07.07 0 0 1 .014.027C.3.088.3.097.298.106a.382.382 0 0 1-.01.051.152.152 0 0 1-.02.042.086.086 0 0 1-.072.039A.063.063 0 0 1 .164.23.074.074 0 0 1 .128.183.072.072 0 0 1 .126.154z"/></symbol><use xlink:href="#b" transform="matrix(20.5 0 0 -20.5 40.77 53.581)"/><use xlink:href="#b" transform="matrix(20.5 0 0 -20.5 40.77 63.831)"/><use xlink:href="#b" transform="matrix(20.5 0 0 -20.5 40.77 68.956)"/><path stroke-width=".384" stroke-miterlimit="10" fill="none" stroke="#000" d="M39.516 68.813H50.62"/><use xlink:href="#b" transform="matrix(20.5 0 0 -20.5 40.77 74.081)"/><path stroke-width=".384" stroke-miterlimit="10" fill="none" stroke="#000" d="M39.516 73.938H50.62M39.516 68.813H50.62"/><use xlink:href="#b" transform="matrix(20.5 0 0 -20.5 40.77 79.206)"/><symbol id="c"><path d="M.072.4V.251L.17.283v.149L.072.4M.043.494v.163h.029V.504L.17.536v.146h.029V.545l.039.013V.454L.199.441V.293l.039.012V.202L.199.189V.026H.17V.18L.072.148V0H.043v.138L0 .124v.104l.043.014v.149L0 .377V.48l.043.014z"/></symbol><use xlink:href="#c" transform="matrix(20.5 0 0 -20.5 34.177 57.804)"/><use xlink:href="#c" transform="matrix(20.5 0 0 -20.5 27.557 68.054)"/><symbol id="d"><path d="M.579.692.596.483H.579a.286.286 0 0 1-.067.118.21.21 0 0 1-.152.057.216.216 0 0 1-.193-.1.36.36 0 0 1-.055-.201c0-.063.013-.12.037-.173A.26.26 0 0 1 .245.07.233.233 0 0 1 .438.042.282.282 0 0 1 .502.07V.26a.17.17 0 0 1-.007.065.048.048 0 0 1-.024.024.13.13 0 0 1-.055.008v.018h.256V.358H.66C.635.358.618.349.608.333A.171.171 0 0 1 .598.26V.06A.485.485 0 0 0 .367 0C.238 0 .141.041.075.123A.329.329 0 0 0 0 .336C0 .394.014.45.042.503A.359.359 0 0 0 .179.65.335.335 0 0 0 .35.692.335.335 0 0 0 .416.687.595.595 0 0 0 .5.66.135.135 0 0 1 .537.65c.006 0 .011.002.015.008.005.006.008.017.009.033h.018z"/></symbol><use xlink:href="#d" transform="matrix(10.25 0 0 -10.25 41.157 38.645)"/><symbol id="e"><path d="M.156.365c.032.033.052.052.057.056.015.013.03.022.048.03.017.006.033.01.05.01A.112.112 0 0 0 .383.435a.12.12 0 0 0 .04-.07C.458.403.487.43.51.441A.15.15 0 0 0 .58.46.11.11 0 0 0 .643.442a.12.12 0 0 0 .044-.06.27.27 0 0 0 .01-.089V.101C.698.073.7.054.705.043A.043.043 0 0 1 .722.025.093.093 0 0 1 .765.018V0h-.22v.018h.009c.019 0 .034.003.045.01a.044.044 0 0 1 .016.026A.313.313 0 0 1 .617.1v.192a.163.163 0 0 1-.013.078C.59.39.57.4.542.4A.116.116 0 0 1 .49.39.278.278 0 0 1 .427.34V.1c0-.03.002-.05.005-.057a.044.044 0 0 1 .02-.02A.114.114 0 0 1 .5.019V0H.274v.018c.025 0 .042.003.05.008.01.006.017.015.02.027A.26.26 0 0 1 .347.1v.192C.347.33.34.356.33.373a.069.069 0 0 1-.06.03A.108.108 0 0 1 .218.39.201.201 0 0 1 .156.341V.1c0-.03.002-.048.006-.057A.045.045 0 0 1 .18.024.122.122 0 0 1 .229.018V0H.007v.018c.02 0 .035.002.043.006a.044.044 0 0 1 .019.02c.004.01.006.03.006.057v.171a.62.62 0 0 1-.004.095C.069.377.065.385.06.39A.03.03 0 0 1 .04.396.094.094 0 0 1 .007.388L0 .406.135.46h.02V.365z"/></symbol><use xlink:href="#e" transform="matrix(9.39583 0 0 -9.39583 49.63 38.49)"/><symbol id="f"><path d="M.249.074A.737.737 0 0 0 .163.012.132.132 0 0 0 .106 0C.076 0 .05.01.03.032A.117.117 0 0 0 0 .115c0 .022.005.04.015.057a.194.194 0 0 0 .069.062c.033.02.088.044.165.072v.017c0 .045-.007.075-.021.092C.214.432.193.44.166.44A.07.07 0 0 1 .117.423.05.05 0 0 1 .1.385V.357C.1.342.097.33.089.322A.039.039 0 0 0 .058.31a.039.039 0 0 0-.03.013.05.05 0 0 0-.01.034c0 .028.013.054.042.078A.186.186 0 0 0 .18.47.21.21 0 0 0 .279.45.092.092 0 0 0 .321.402.267.267 0 0 0 .33.316V.165c0-.043 0-.07.002-.08C.334.077.336.07.34.068A.02.02 0 0 1 .353.062c.005 0 .01.001.014.003l.04.036V.074C.37.024.334 0 .301 0a.047.047 0 0 0-.038.017C.254.028.249.047.249.074m0 .031v.17a.964.964 0 0 1-.095-.04.164.164 0 0 1-.055-.046.087.087 0 0 1-.017-.05c0-.024.007-.044.021-.06A.064.064 0 0 1 .151.058C.176.057.21.073.25.105z"/></symbol><use xlink:href="#f" transform="matrix(9.39583 0 0 -9.39583 57.147 38.577)"/><symbol id="g"><path d="M.221.91A.049.049 0 0 0 .257.897.049.049 0 0 0 .27.86.048.048 0 0 0 .257.825.049.049 0 0 0 .22.811a.048.048 0 0 0-.035.014.048.048 0 0 0-.015.035c0 .014.005.026.015.036.01.01.022.015.035.015M.263.676v-.45C.263.15.247.093.214.056A.16.16 0 0 0 .087 0C.057 0 .036.005.021.016.007.026 0 .038 0 .05a.04.04 0 0 0 .012.03A.037.037 0 0 0 .04.09.06.06 0 0 0 .066.084.157.157 0 0 0 .098.06C.114.046.127.04.138.04c.008 0 .015.003.023.009.007.006.013.016.016.03A.475.475 0 0 1 .183.17v.318C.183.538.18.57.178.583.176.593.172.601.168.605a.03.03 0 0 1-.02.006.098.098 0 0 1-.034-.007L.107.622l.135.054h.021z"/></symbol><use xlink:href="#g" transform="matrix(9.39583 0 0 -9.39583 60.363 40.517)"/><symbol id="h"><path d="M.063.676h.355V.657L.198 0H.143l.198.596H.159A.17.17 0 0 1 .08.583a.164.164 0 0 1-.066-.07L0 .52l.063.157z"/></symbol><use xlink:href="#h" transform="matrix(9.39583 0 0 -9.39583 64.208 38.618)"/><symbol id="i"><path d="M.27.018V0a.466.466 0 0 0-.232.254.538.538 0 0 0 .037.475.43.43 0 0 0 .195.18V.887a.28.28 0 0 1-.1-.091A.42.42 0 0 1 .114.65 1.029 1.029 0 0 1 .11.276.498.498 0 0 1 .141.168.35.35 0 0 1 .27.018z"/></symbol><use xlink:href="#i" transform="matrix(9.39583 0 0 -9.39583 69.37 39.858)"/><use xlink:href="#c" transform="matrix(11.95833 0 0 -11.95833 72.615 39.328)"/><symbol id="j"><path d="m0 .597.161.079h.016v-.56C.177.08.18.057.182.048a.037.037 0 0 1 .02-.02A.164.164 0 0 1 .26.017V0H.01v.018c.032 0 .052.003.061.008.01.005.016.011.02.019a.262.262 0 0 1 .005.072v.357c0 .048-.002.08-.005.093A.038.038 0 0 1 .079.59a.032.032 0 0 1-.021.007.13.13 0 0 1-.05-.015L0 .597z"/></symbol><use xlink:href="#j" transform="matrix(9.39583 0 0 -9.39583 77.132 38.49)"/><use xlink:href="#j" transform="matrix(9.39583 0 0 -9.39583 80.976 38.49)"/><symbol id="k"><path d="M0 .888v.02A.456.456 0 0 0 .231.654.535.535 0 0 0 .195.18.427.427 0 0 0 0 0v.018C.04.041.073.071.099.11a.403.403 0 0 1 .057.146A1.034 1.034 0 0 1 .16.63.355.355 0 0 1 0 .888z"/></symbol><use xlink:href="#k" transform="matrix(9.39583 0 0 -9.39583 84.357 39.858)"/><path stroke-width=".384" stroke-miterlimit="10" fill="none" stroke="#000" d="M109.072 75.646v1.281M104.005 73.938h9.183M104.005 68.813h9.183"/><symbol id="l"><path d="M.009.131a.161.161 0 0 0 .03.05.232.232 0 0 0 .106.067c.02.007.042.01.063.01.021 0 .04-.004.056-.011A.091.091 0 0 0 .302.219.078.078 0 0 0 .319.178a.096.096 0 0 0-.006-.05.152.152 0 0 0-.031-.05.217.217 0 0 0-.048-.041A.206.206 0 0 0 .175.01.201.201 0 0 0 .113 0a.133.133 0 0 0-.056.011.101.101 0 0 0-.038.028.084.084 0 0 0-.017.042.105.105 0 0 0 .007.05z"/></symbol><use xlink:href="#l" transform="matrix(20.5 0 0 -20.5 105.266 79.206)"/><path stroke-width=".384" stroke-miterlimit="10" fill="none" stroke="#000" d="M148.15 70.52v1.282M143.51 68.813h9.183"/><use xlink:href="#l" transform="matrix(20.5 0 0 -20.5 144.771 74.081)"/><path stroke-width=".384" stroke-miterlimit="10" fill="none" stroke="#000" d="M167.369 67.958v1.709M163.156 68.813h9.183"/><use xlink:href="#l" transform="matrix(20.5 0 0 -20.5 164.417 71.519)"/><use xlink:href="#c" transform="matrix(20.5 0 0 -20.5 157.818 75.742)"/><path stroke-width=".384" stroke-miterlimit="10" fill="none" stroke="#000" d="M187.442 65.396v1.281"/><use xlink:href="#l" transform="matrix(20.5 0 0 -20.5 184.063 68.956)"/><path stroke-width=".384" stroke-miterlimit="10" fill="none" stroke="#000" d="M226.52 60.27v1.496"/><use xlink:href="#l" transform="matrix(20.5 0 0 -20.5 223.568 63.831)"/><use xlink:href="#c" transform="matrix(20.5 0 0 -20.5 216.969 68.054)"/><path stroke-width=".384" stroke-miterlimit="10" fill="none" stroke="#000" d="M257.483 75.646v1.067M253.27 73.938h9.183M253.27 68.813h9.183"/><use xlink:href="#l" transform="matrix(20.5 0 0 -20.5 254.532 79.206)"/><path stroke-width=".384" stroke-miterlimit="10" fill="none" stroke="#000" d="M277.13 73.083v1.282M272.917 73.938h9.182M272.917 68.813h9.182"/><use xlink:href="#l" transform="matrix(20.5 0 0 -20.5 274.177 76.644)"/><path stroke-width=".384" stroke-miterlimit="10" fill="none" stroke="#000" d="M297.63 70.52v1.496M292.563 68.813h9.182"/><use xlink:href="#l" transform="matrix(20.5 0 0 -20.5 293.823 74.081)"/><path stroke-width=".384" stroke-miterlimit="10" fill="none" stroke="#000" d="M317.275 67.958v.855M312.208 68.813h9.183"/><use xlink:href="#l" transform="matrix(20.5 0 0 -20.5 313.47 71.519)"/><use xlink:href="#c" transform="matrix(20.5 0 0 -20.5 306.87 75.742)"/><path stroke-width=".384" stroke-miterlimit="10" fill="none" stroke="#000" d="M336.28 65.396v1.495"/><use xlink:href="#l" transform="matrix(20.5 0 0 -20.5 333.329 68.956)"/><path stroke-width=".384" stroke-miterlimit="10" fill="none" stroke="#000" d="M356.78 62.833v1.068"/><use xlink:href="#l" transform="matrix(20.5 0 0 -20.5 352.974 66.394)"/><path stroke-width=".384" stroke-miterlimit="10" fill="none" stroke="#000" d="M376.426 60.27v1.282"/><use xlink:href="#l" transform="matrix(20.5 0 0 -20.5 372.62 63.831)"/><use xlink:href="#c" transform="matrix(20.5 0 0 -20.5 366.02 68.054)"/><path stroke-width=".384" stroke-miterlimit="10" fill="none" stroke="#000" d="M395.858 57.708v2.35"/><use xlink:href="#l" transform="matrix(20.5 0 0 -20.5 392.907 61.269)"/><symbol id="m"><path d="M.273.706.136.232c.06.09.106.148.139.178C.308.439.34.454.37.454A.052.052 0 0 0 .41.437.06.06 0 0 0 .424.396.282.282 0 0 0 .41.316L.351.112A.364.364 0 0 1 .342.07C.34.066.34.063.343.06a.014.014 0 0 1 .01-.005c.004 0 .01.002.015.007a.283.283 0 0 1 .055.06l.015-.01a.393.393 0 0 0-.097-.1A.079.079 0 0 0 .304 0a.04.04 0 0 0-.03.012.04.04 0 0 0-.01.029c0 .014.005.041.016.08l.056.195a.22.22 0 0 1 .011.058.02.02 0 0 1-.006.016.021.021 0 0 1-.016.006.065.065 0 0 1-.032-.011.325.325 0 0 1-.077-.076A2.653 2.653 0 0 1 .138.187.363.363 0 0 1 .104.112l-.03-.1H0L.16.57l.018.06a.03.03 0 0 1-.011.023.035.035 0 0 1-.025.01A.186.186 0 0 1 .115.66L.105.66v.019l.168.028z"/></symbol><use xlink:href="#m" transform="matrix(10 0 0 -10 324.153 91.138)"/><use xlink:href="#m" transform="matrix(10 0 0 -10 385.44 85.159)"/><symbol id="n"><path d="M.402.454.436.087A1.3 1.3 0 0 1 .57.274a.18.18 0 0 1 .03.075.037.037 0 0 1-.005.019C.595.37.59.375.581.38a.06.06 0 0 0-.019.018.038.038 0 0 0-.005.02c0 .01.003.018.01.025a.04.04 0 0 0 .03.01A.044.044 0 0 0 .63.439a.054.054 0 0 0 .015-.04.149.149 0 0 0-.008-.046A.557.557 0 0 0 .58.243 1.783 1.783 0 0 0 .392 0H.374L.342.338.14 0H.12C.116.139.109.249.098.33.093.362.085.384.073.394.065.403.053.406.036.406A.284.284 0 0 1 0 .403v.018l.14.033a.94.94 0 0 0 .038-.25L.183.122l.2.33h.019z"/></symbol><use xlink:href="#n" transform="matrix(10 0 0 -10 263.265 91.138)"/><use xlink:href="#n" transform="matrix(10 0 0 -10 283.124 89.643)"/><use xlink:href="#n" transform="matrix(10 0 0 -10 301.489 88.576)"/><use xlink:href="#n" transform="matrix(10 0 0 -10 342.702 82.17)"/><use xlink:href="#n" transform="matrix(10 0 0 -10 362.134 83.664)"/><path stroke-width=".554" stroke-miterlimit="10" fill="none" stroke="#000" d="m316.693 74.151 10.137 6.68 8.555-8.614M378.833 68.599l9.048 6.563 7.043-8.68"/><symbol id="o"><path d="M.284.018V0H0v.018h.023c.028 0 .048.008.06.024.008.01.012.035.012.075v.428A.22.22 0 0 1 .088.61a.044.044 0 0 1-.02.021.093.093 0 0 1-.045.012H0v.018h.284V.644H.26C.233.644.213.636.2.62.194.61.189.585.189.545V.117A.22.22 0 0 1 .195.051.044.044 0 0 1 .215.03.09.09 0 0 1 .26.018h.024z"/></symbol><symbol id="p"><path d="M.314.064A.23.23 0 0 0 .25.014.157.157 0 0 0 .183 0a.167.167 0 0 0-.128.061A.229.229 0 0 0 0 .219C0 .283.02.34.06.395c.04.053.093.08.156.08.04 0 .072-.013.098-.038V.52A.633.633 0 0 1 .31.614C.308.625.304.634.3.638a.03.03 0 0 1-.02.006.103.103 0 0 1-.033-.008L.239.653l.134.055h.022V.191c0-.052 0-.085.003-.096C.4.083.404.075.41.07A.03.03 0 0 1 .429.064c.009 0 .02.003.035.008L.469.055.336 0H.314v.064m0 .034v.23A.156.156 0 0 1 .296.39.1.1 0 0 1 .257.43.092.092 0 0 1 .21.444.1.1 0 0 1 .134.406C.104.372.089.322.089.257.09.192.104.141.132.106.161.071.192.054.228.054c.03 0 .058.015.086.044z"/></symbol><symbol id="q"><path d="M.07.292A.23.23 0 0 1 .117.136.147.147 0 0 1 .232.08c.03 0 .055.008.077.024a.18.18 0 0 1 .054.083l.015-.01a.234.234 0 0 0-.06-.122A.16.16 0 0 0 .196 0c-.053 0-.1.02-.138.063A.242.242 0 0 0 0 .23c0 .077.02.137.059.18.039.042.088.064.148.064.05 0 .09-.017.123-.05A.18.18 0 0 0 .378.292H.07m0 .029h.207a.191.191 0 0 1-.01.06.096.096 0 0 1-.037.043.09.09 0 0 1-.05.016.101.101 0 0 1-.073-.032A.136.136 0 0 1 .07.321z"/></symbol><symbol id="r"><path d="M.156.366C.208.429.258.46.306.46A.107.107 0 0 0 .369.442.121.121 0 0 0 .41.382c.007-.02.01-.05.01-.09v-.19A.16.16 0 0 1 .428.042.04.04 0 0 1 .445.024.1.1 0 0 1 .49.018V0H.269v.018h.009c.02 0 .035.003.043.009A.05.05 0 0 1 .34.055C.34.06.34.075.34.101v.183c0 .04-.006.07-.016.089C.315.39.297.4.27.4.233.4.194.38.156.337V.1c0-.03.002-.049.005-.056A.047.047 0 0 1 .18.024.122.122 0 0 1 .229.018V0H.007v.018h.01c.023 0 .038.005.046.017C.071.046.075.069.075.1v.166a.677.677 0 0 1-.004.098C.07.377.065.385.061.39A.03.03 0 0 1 .04.396.094.094 0 0 1 .007.388L0 .406.135.46h.02V.366z"/></symbol><symbol id="s"><path d="M.151.602V.455h.105V.42H.15V.13c0-.029.004-.048.013-.058A.04.04 0 0 1 .196.057c.01 0 .021.003.031.01.01.006.018.016.023.03h.02A.155.155 0 0 0 .22.023.105.105 0 0 0 .157 0a.088.088 0 0 0-.044.012.077.077 0 0 0-.032.036.19.19 0 0 0-.01.072v.3H0v.017c.018.007.036.019.055.036a.29.29 0 0 1 .081.129h.015z"/></symbol><symbol id="t"><path d="M.116.694A.046.046 0 0 0 .15.68.046.046 0 0 0 .165.645.048.048 0 0 0 .15.61.046.046 0 0 0 .116.595.048.048 0 0 0 .08.61a.048.048 0 0 0-.015.035C.066.659.07.67.08.68c.01.01.022.014.036.014M.156.46V.101c0-.028.002-.047.006-.056A.045.045 0 0 1 .18.025.098.098 0 0 1 .224.017V0H.007v.018C.029.018.043.02.05.024a.042.042 0 0 1 .017.02c.005.01.007.03.007.057v.172a.61.61 0 0 1-.004.095C.069.378.065.385.06.389A.03.03 0 0 1 .04.396.098.098 0 0 1 .007.388L0 .406.135.46h.021z"/></symbol><symbol id="u"><path d="M.167.412V.118C.167.076.172.05.181.04A.06.06 0 0 1 .23.018H.27V0H.003v.018h.02c.013 0 .025.003.036.01A.05.05 0 0 1 .08.053a.213.213 0 0 1 .006.064v.294H0v.035h.087v.03c0 .044.007.082.021.113a.18.18 0 0 0 .165.104A.15.15 0 0 0 .368.66C.387.646.396.63.396.61A.04.04 0 0 0 .383.584.038.038 0 0 0 .356.57a.046.046 0 0 0-.024.008.138.138 0 0 0-.03.035.122.122 0 0 1-.033.036.063.063 0 0 1-.034.01.06.06 0 0 1-.038-.013.066.066 0 0 1-.023-.037.692.692 0 0 1-.007-.13V.447h.116V.412H.167z"/></symbol><symbol id="v"><path d="M0 .663h.208V.645h-.01C.184.645.173.642.165.635a.03.03 0 0 1-.01-.023C.154.599.16.582.17.559L.28.333l.1.248a.103.103 0 0 1 .008.04c0 .005-.001.01-.004.012a.025.025 0 0 1-.012.009.086.086 0 0 1-.03.003v.018h.146V.645A.07.07 0 0 1 .46.637.08.08 0 0 1 .44.615.305.305 0 0 1 .422.578L.24.13A.23.23 0 0 0 .17.033.135.135 0 0 0 .09 0a.068.068 0 0 0-.047.017.05.05 0 0 0-.02.038c0 .013.005.024.014.033C.046.096.058.1.073.1.084.1.1.097.117.09A.105.105 0 0 1 .142.081c.01 0 .02.005.031.015.012.01.024.03.035.059L.24.233.08.571a.27.27 0 0 1-.044.06A.11.11 0 0 1 0 .645v.018z"/></symbol><symbol id="w"><path d="M0 0z"/></symbol><symbol id="x"><path d="M.216.474A.198.198 0 0 0 .38.397.237.237 0 0 0 .432.246c0-.04-.01-.081-.03-.122A.21.21 0 0 0 .324.031.208.208 0 0 0 .211 0a.19.19 0 0 0-.16.08A.25.25 0 0 0 0 .234c0 .04.01.082.03.122a.208.208 0 0 0 .186.12M.201.441A.102.102 0 0 1 .15.427.107.107 0 0 1 .107.373a.26.26 0 0 1-.016-.1C.09.21.104.154.129.106.155.058.19.035.232.035.264.035.29.048.31.074.33.1.34.144.34.208.34.288.325.35.29.396A.106.106 0 0 1 .2.442z"/></symbol><symbol id="y"><path d="M.271.474V.322H.255C.243.37.227.402.208.419a.106.106 0 0 1-.074.026.082.082 0 0 1-.055-.018C.065.415.058.402.058.387.058.37.063.353.073.34A.174.174 0 0 1 .135.298L.206.263c.066-.032.1-.075.1-.127A.12.12 0 0 0 .258.037.16.16 0 0 0 .156 0a.355.355 0 0 0-.094.015.095.095 0 0 1-.026.005C.028.02.022.015.018.007H.002v.16h.016A.182.182 0 0 1 .07.063.126.126 0 0 1 .157.03c.022 0 .04.006.054.02.015.013.022.029.022.047a.075.075 0 0 1-.024.057.407.407 0 0 1-.094.058.28.28 0 0 0-.093.063.11.11 0 0 0-.022.07c0 .038.013.068.038.093a.135.135 0 0 0 .098.037A.23.23 0 0 0 .2.463.151.151 0 0 1 .233.456a.02.02 0 0 1 .012.003.047.047 0 0 1 .01.015h.016z"/></symbol><use xlink:href="#o" transform="matrix(11 0 0 -11 18.774 12)"/><use xlink:href="#p" transform="matrix(11 0 0 -11 22.528 12.15)"/><use xlink:href="#q" transform="matrix(11 0 0 -11 28.071 12.15)"/><use xlink:href="#r" transform="matrix(11 0 0 -11 32.61 12)"/><use xlink:href="#s" transform="matrix(11 0 0 -11 38.152 12.08)"/><use xlink:href="#t" transform="matrix(11 0 0 -11 41.423 12)"/><use xlink:href="#u" transform="matrix(11 0 0 -11 44.58 12)"/><use xlink:href="#v" transform="matrix(11 0 0 -11 47.884 14.374)"/><use xlink:href="#w" transform="matrix(11 0 0 -11 53.32 12)"/><use xlink:href="#r" transform="matrix(11 0 0 -11 56.134 12)"/><use xlink:href="#x" transform="matrix(11 0 0 -11 61.94 12.15)"/><use xlink:href="#s" transform="matrix(11 0 0 -11 67.177 12.08)"/><use xlink:href="#q" transform="matrix(11 0 0 -11 70.533 12.15)"/><use xlink:href="#y" transform="matrix(11 0 0 -11 75.544 12.15)"/><use xlink:href="#w" transform="matrix(11 0 0 -11 79.288 12)"/><symbol id="z"><path d="M.377.184a.244.244 0 0 0-.07-.137A.17.17 0 0 0 .188 0a.172.172 0 0 0-.132.064A.251.251 0 0 0 0 .237c0 .07.02.127.063.171a.201.201 0 0 0 .15.066C.257.474.293.462.322.44.35.416.364.392.364.367a.04.04 0 0 0-.012-.03A.046.046 0 0 0 .32.324c-.02 0-.034.006-.044.019C.27.35.266.364.265.383a.063.063 0 0 1-.02.044.07.07 0 0 1-.048.014A.097.097 0 0 1 .12.405.192.192 0 0 1 .079.28c0-.054.013-.1.04-.142a.121.121 0 0 1 .106-.06c.032 0 .06.01.086.032A.22.22 0 0 1 .363.19L.377.184z"/></symbol><symbol id="A"><path d="M.156.694V.367a.37.37 0 0 0 .086.076.133.133 0 0 0 .064.017A.104.104 0 0 0 .37.44a.124.124 0 0 0 .04-.066.467.467 0 0 0 .01-.115V.101C.42.073.423.053.428.043A.038.038 0 0 1 .444.024.094.094 0 0 1 .487.018V0h-.22v.018h.01C.3.018.314.02.322.027a.052.052 0 0 1 .017.028C.34.06.34.075.34.101V.26C.34.31.337.34.332.355a.062.062 0 0 1-.064.046.113.113 0 0 1-.05-.012.238.238 0 0 1-.062-.052V.101c0-.03.002-.05.005-.057a.045.045 0 0 1 .02-.02.114.114 0 0 1 .048-.006V0H.007v.018c.02 0 .035.003.047.009.006.003.011.01.015.018.004.01.006.028.006.056v.405A.633.633 0 0 1 .071.6C.07.612.065.62.061.624A.03.03 0 0 1 .04.63.12.12 0 0 1 .007.623L0 .64l.134.054h.022z"/></symbol><symbol id="B"><path d="M.156.46v-.1c.037.067.076.1.115.1A.062.062 0 0 0 .315.444.05.05 0 0 0 .333.406.045.045 0 0 0 .32.374.04.04 0 0 0 .29.361C.279.36.266.366.251.377.237.39.227.395.221.395.213.395.207.39.2.385A.235.235 0 0 1 .156.319V.104C.156.08.159.061.165.048A.05.05 0 0 1 .187.026.099.099 0 0 1 .234.018V0h-.23v.018c.024 0 .04.003.052.01a.042.042 0 0 1 .017.025.251.251 0 0 1 .002.048v.173a.663.663 0 0 1-.003.093.035.035 0 0 1-.012.022.032.032 0 0 1-.02.007.097.097 0 0 1-.035-.008L0 .406.135.46h.02z"/></symbol><use xlink:href="#w" transform="matrix(11 0 0 -11 18.5 24.75)"/><use xlink:href="#w" transform="matrix(11 0 0 -11 21.25 24.75)"/><use xlink:href="#w" transform="matrix(11 0 0 -11 24 24.75)"/><use xlink:href="#w" transform="matrix(11 0 0 -11 26.75 24.75)"/><use xlink:href="#t" transform="matrix(11 0 0 -11 29.822 24.75)"/><use xlink:href="#r" transform="matrix(11 0 0 -11 32.62 24.75)"/><use xlink:href="#w" transform="matrix(11 0 0 -11 38.056 24.75)"/><use xlink:href="#z" transform="matrix(11 0 0 -11 41.182 24.9)"/><use xlink:href="#A" transform="matrix(11 0 0 -11 45.757 24.75)"/><use xlink:href="#x" transform="matrix(11 0 0 -11 51.558 24.9)"/><use xlink:href="#B" transform="matrix(11 0 0 -11 56.757 24.75)"/><use xlink:href="#p" transform="matrix(11 0 0 -11 60.716 24.9)"/><symbol id="C"><path d="M.923.677V.66A.084.084 0 0 1 .88.65.091.091 0 0 1 .85.616.566.566 0 0 1 .818.534L.635 0h-.02l-.15.423L.314 0H.296L.1.55a.92.92 0 0 1-.028.073.062.062 0 0 1-.027.027A.094.094 0 0 1 0 .66v.017h.245V.66H.233C.216.66.203.655.193.647A.036.036 0 0 1 .18.62C.18.608.187.582.202.541l.13-.372.11.316-.02.056-.015.044a.242.242 0 0 1-.023.043.06.06 0 0 1-.016.016.088.088 0 0 1-.024.012.106.106 0 0 1-.03.003v.018h.258V.66H.555C.536.66.523.655.515.647A.041.041 0 0 1 .502.616C.502.599.509.57.524.529L.65.169l.126.365c.014.04.021.068.021.084a.034.034 0 0 1-.007.02.036.036 0 0 1-.018.014.142.142 0 0 1-.048.007v.018h.198z"/></symbol><symbol id="D"><path d="M.155.694V.101c0-.028.002-.046.006-.056a.046.046 0 0 1 .02-.02.112.112 0 0 1 .047-.007V0h-.22v.018c.02 0 .035.002.042.006a.042.042 0 0 1 .018.02c.004.01.006.03.006.057v.406c0 .05 0 .082-.003.093C.069.612.065.62.06.624A.028.028 0 0 1 .04.63.091.091 0 0 1 .009.623L0 .64l.133.054h.022z"/></symbol><use xlink:href="#C" transform="matrix(11 0 0 -11 123.145 22.167)"/><use xlink:href="#B" transform="matrix(11 0 0 -11 133.012 22)"/><use xlink:href="#t" transform="matrix(11 0 0 -11 136.927 22)"/><use xlink:href="#s" transform="matrix(11 0 0 -11 139.768 22.08)"/><use xlink:href="#q" transform="matrix(11 0 0 -11 143.125 22.15)"/><use xlink:href="#w" transform="matrix(11 0 0 -11 147.598 22)"/><use xlink:href="#r" transform="matrix(11 0 0 -11 150.413 22)"/><use xlink:href="#x" transform="matrix(11 0 0 -11 156.219 22.15)"/><use xlink:href="#s" transform="matrix(11 0 0 -11 161.456 22.08)"/><use xlink:href="#q" transform="matrix(11 0 0 -11 164.812 22.15)"/><use xlink:href="#y" transform="matrix(11 0 0 -11 169.823 22.15)"/><use xlink:href="#w" transform="matrix(11 0 0 -11 173.567 22)"/><use xlink:href="#f" transform="matrix(11 0 0 -11 176.71 22.102)"/><use xlink:href="#y" transform="matrix(11 0 0 -11 181.736 22.15)"/><use xlink:href="#w" transform="matrix(11 0 0 -11 185.48 22)"/><use xlink:href="#y" transform="matrix(11 0 0 -11 188.767 22.15)"/><use xlink:href="#z" transform="matrix(11 0 0 -11 192.887 22.15)"/><use xlink:href="#f" transform="matrix(11 0 0 -11 197.785 22.102)"/><use xlink:href="#D" transform="matrix(11 0 0 -11 202.602 22)"/><use xlink:href="#q" transform="matrix(11 0 0 -11 205.739 22.15)"/><use xlink:href="#w" transform="matrix(11 0 0 -11 210.212 22)"/><symbol id="E"><path d="M0 .46h.188V.444C.17.442.158.438.152.433.148.43.146.423.146.414c0-.01.002-.023.008-.037L.25.119l.096.21L.32.393a.079.079 0 0 1-.03.04.09.09 0 0 1-.04.009V.46h.212V.443C.44.442.422.438.412.43.407.425.403.417.403.405.403.4.405.392.408.385L.508.128l.095.248a.13.13 0 0 1 .01.042c0 .006-.004.012-.01.017C.596.439.584.442.565.443V.46h.142V.443C.678.439.657.419.644.385L.494 0h-.02L.364.286.233 0H.213L.071.376a.132.132 0 0 1-.028.048A.091.091 0 0 1 0 .443V.46z"/></symbol><symbol id="F"><path d="M.131.345A.463.463 0 0 0 .03.45a.16.16 0 0 0-.023.08c0 .044.017.08.05.112A.185.185 0 0 0 .19.687.187.187 0 0 0 .32.644a.13.13 0 0 0 .048-.1A.134.134 0 0 0 .341.47.383.383 0 0 0 .23.38.623.623 0 0 0 .345.273.173.173 0 0 0 .382.169a.158.158 0 0 0-.053-.12A.197.197 0 0 0 .189 0a.187.187 0 0 0-.147.06A.153.153 0 0 0 0 .162C0 .192.01.22.03.25.05.278.082.31.13.345m.077.052A.35.35 0 0 1 .282.48a.15.15 0 0 1 .016.07c0 .034-.01.06-.029.08A.105.105 0 0 1 .19.66.115.115 0 0 1 .11.63.089.089 0 0 1 .077.563c0-.017.004-.034.013-.05a.187.187 0 0 1 .037-.05l.08-.066M.154.327a.228.228 0 0 1-.06-.075.196.196 0 0 1-.02-.087C.075.123.087.089.11.064A.114.114 0 0 1 .197.026c.035 0 .063.01.084.03.021.02.032.044.032.072a.111.111 0 0 1-.019.063.699.699 0 0 1-.14.136z"/></symbol><symbol id="G"><path d="M0 .46h.21V.444H.197C.184.443.174.44.167.433A.033.033 0 0 1 .157.41c0-.012.004-.025.011-.04L.272.12l.104.256A.122.122 0 0 1 .388.42.016.016 0 0 1 .384.43.026.026 0 0 1 .37.44a.123.123 0 0 1-.034.003V.46h.146V.443C.465.442.454.438.447.433a.125.125 0 0 1-.03-.05L.257 0h-.02L.079.377a.14.14 0 0 1-.02.038.08.08 0 0 1-.025.02A.122.122 0 0 1 0 .443V.46z"/></symbol><symbol id="H"><path d="M.002.617.14.672H.16V.568c.023.04.046.067.069.082a.13.13 0 0 0 .074.024.142.142 0 0 0 .112-.052A.25.25 0 0 0 .47.454.28.28 0 0 0 .403.262.176.176 0 0 0 .265.2a.172.172 0 0 0-.062.01.146.146 0 0 0-.044.03V.104c0-.031.001-.05.005-.059a.043.043 0 0 1 .02-.02.122.122 0 0 1 .05-.007V0H0v.018h.012c.018 0 .033.003.046.01.006.004.011.01.014.018a.196.196 0 0 1 .006.06V.53a.23.23 0 0 1-.004.055.033.033 0 0 1-.013.018.04.04 0 0 1-.023.006A.088.088 0 0 1 .008.6L.002.617M.16.539V.372c0-.036.001-.06.004-.071A.092.092 0 0 1 .196.25.104.104 0 0 1 .264.229c.032 0 .059.013.079.039a.22.22 0 0 1 .04.14c0 .068-.016.12-.046.157a.093.093 0 0 1-.12.027.272.272 0 0 1-.058-.053z"/></symbol><use xlink:href="#w" transform="matrix(11 0 0 -11 123 34.75)"/><use xlink:href="#E" transform="matrix(11 0 0 -11 125.82 34.9)"/><use xlink:href="#t" transform="matrix(11 0 0 -11 134.016 34.75)"/><use xlink:href="#s" transform="matrix(11 0 0 -11 136.857 34.83)"/><use xlink:href="#A" transform="matrix(11 0 0 -11 139.876 34.75)"/><use xlink:href="#t" transform="matrix(11 0 0 -11 145.628 34.75)"/><use xlink:href="#r" transform="matrix(11 0 0 -11 148.426 34.75)"/><use xlink:href="#w" transform="matrix(11 0 0 -11 153.862 34.75)"/><use xlink:href="#f" transform="matrix(11 0 0 -11 157.004 34.852)"/><use xlink:href="#r" transform="matrix(11 0 0 -11 161.558 34.75)"/><use xlink:href="#w" transform="matrix(11 0 0 -11 166.993 34.75)"/><use xlink:href="#F" transform="matrix(11 0 0 -11 170.41 34.879)"/><use xlink:href="#G" transform="matrix(11 0 0 -11 175.335 34.9)"/><use xlink:href="#q" transform="matrix(11 0 0 -11 181.152 34.9)"/><use xlink:href="#w" transform="matrix(11 0 0 -11 185.625 34.75)"/><use xlink:href="#y" transform="matrix(11 0 0 -11 188.912 34.9)"/><use xlink:href="#H" transform="matrix(11 0 0 -11 192.619 37.103)"/><use xlink:href="#f" transform="matrix(11 0 0 -11 198.548 34.852)"/><use xlink:href="#r" transform="matrix(11 0 0 -11 203.103 34.75)"/><symbol id="I"><path d="M.188.626v-.26H.31c.028 0 .048.006.06.018.014.012.022.036.027.073h.018V.232H.396a.128.128 0 0 1-.01.057.06.06 0 0 1-.027.027.105.105 0 0 1-.05.01H.19V.116A.22.22 0 0 1 .194.051.044.044 0 0 1 .215.03.093.093 0 0 1 .26.018h.024V0H0v.018h.023c.028 0 .048.008.06.024.008.01.012.035.012.075v.428A.22.22 0 0 1 .088.61a.044.044 0 0 1-.02.021.09.09 0 0 1-.045.012H0v.018h.493L.499.517H.482a.194.194 0 0 1-.03.067.094.094 0 0 1-.041.032.22.22 0 0 1-.077.01H.188z"/></symbol><symbol id="J"><path d="M.121.379a.148.148 0 0 0-.085.135c0 .044.017.083.05.114a.179.179 0 0 0 .128.048c.043 0 .08-.01.111-.031H.42L.444.644A.007.007 0 0 0 .45.64C.451.637.452.632.452.624S.452.61.45.606A.01.01 0 0 0 .444.603.104.104 0 0 0 .42.6H.362a.142.142 0 0 0 .027-.09.14.14 0 0 0-.048-.107A.181.181 0 0 0 .213.36a.25.25 0 0 0-.068.01.131.131 0 0 1-.03-.033.052.052 0 0 1-.007-.024c0-.005.003-.01.008-.016C.122.292.132.288.148.287A.841.841 0 0 1 .216.282C.283.28.326.279.346.276A.121.121 0 0 0 .42.242.092.092 0 0 0 .446.175C.446.138.43.104.395.07A.28.28 0 0 0 .195 0a.285.285 0 0 0-.158.042C.012.06 0 .076 0 .093 0 .101.002.11.005.117a.273.273 0 0 0 .035.05L.09.22a.166.166 0 0 0-.037.027.041.041 0 0 0-.01.027c0 .011.005.025.014.04.01.015.03.037.064.065m.085.274a.076.076 0 0 1-.06-.029C.129.604.12.575.12.536a.19.19 0 0 1 .033-.12A.079.079 0 0 1 .22.384c.024 0 .045.01.06.028.017.018.025.047.025.087A.196.196 0 0 1 .27.621a.077.077 0 0 1-.064.032M.116.216A.24.24 0 0 1 .082.169.084.084 0 0 1 .07.13C.07.115.08.102.098.09A.27.27 0 0 1 .24.059c.059 0 .102.01.13.03C.397.11.41.133.41.157.41.173.402.185.386.192a.326.326 0 0 1-.1.013C.211.207.155.21.115.215z"/></symbol><symbol id="K"><path d="M0 0v.021C.034.033.06.05.078.073a.116.116 0 0 1 .027.074.027.027 0 0 1-.004.016C.1.166.097.167.094.167a.071.071 0 0 1-.023-.01.04.04 0 0 0-.019-.004.051.051 0 0 0-.038.014.053.053 0 0 0-.014.04c0 .015.006.029.018.04a.064.064 0 0 0 .045.017c.021 0 .04-.01.057-.028A.106.106 0 0 0 .146.162.144.144 0 0 0 .11.068.228.228 0 0 0 0 0z"/></symbol><symbol id="L"><path d="M.422.46V.19c0-.052.002-.084.004-.095C.428.083.432.075.438.07A.03.03 0 0 1 .457.064c.01 0 .021.003.034.008L.498.055.364 0H.342v.095A.407.407 0 0 0 .254.016.134.134 0 0 0 .19 0a.104.104 0 0 0-.065.021.114.114 0 0 0-.039.057.338.338 0 0 0-.01.096v.2a.098.098 0 0 1-.007.044.044.044 0 0 1-.02.019A.113.113 0 0 1 0 .443V.46h.157v-.3C.157.12.164.094.178.08A.077.077 0 0 1 .231.06c.014 0 .03.004.047.013.018.009.04.026.064.05v.254c0 .025-.005.042-.014.051C.318.438.299.442.27.443V.46h.152z"/></symbol><symbol id="M"><path d="M.054.108A.052.052 0 0 0 .093.092.052.052 0 0 0 .108.054.053.053 0 0 0 .092.016.052.052 0 0 0 .054 0 .053.053 0 0 0 0 .054C0 .07.005.082.016.093c.01.01.023.015.038.015z"/></symbol><symbol id="N"><path d="M.437.127.391 0H0v.018c.115.105.196.19.243.257.047.066.07.127.07.182a.144.144 0 0 1-.039.104.123.123 0 0 1-.092.04.144.144 0 0 1-.088-.029A.165.165 0 0 1 .037.49H.02c.008.06.029.106.063.138a.176.176 0 0 0 .126.049.186.186 0 0 0 .134-.052.163.163 0 0 0 .054-.122.236.236 0 0 0-.023-.1.663.663 0 0 0-.117-.168 3.477 3.477 0 0 0-.152-.16h.173c.035 0 .06.001.074.004a.099.099 0 0 1 .038.015c.012.008.021.02.03.034h.018z"/></symbol><use xlink:href="#I" transform="matrix(11 0 0 -11 257.177 21)"/><use xlink:href="#t" transform="matrix(11 0 0 -11 263.44 21)"/><use xlink:href="#D" transform="matrix(11 0 0 -11 266.502 21)"/><use xlink:href="#D" transform="matrix(11 0 0 -11 269.557 21)"/><use xlink:href="#w" transform="matrix(11 0 0 -11 272.286 21)"/><use xlink:href="#t" transform="matrix(11 0 0 -11 275.358 21)"/><use xlink:href="#r" transform="matrix(11 0 0 -11 278.156 21)"/><use xlink:href="#w" transform="matrix(11 0 0 -11 283.591 21)"/><use xlink:href="#J" transform="matrix(11 0 0 -11 286.67 23.374)"/><use xlink:href="#f" transform="matrix(11 0 0 -11 292.233 21.102)"/><use xlink:href="#H" transform="matrix(11 0 0 -11 296.686 23.353)"/><use xlink:href="#y" transform="matrix(11 0 0 -11 302.76 21.15)"/><use xlink:href="#K" transform="matrix(11 0 0 -11 307.095 22.832)"/><use xlink:href="#w" transform="matrix(11 0 0 -11 309.254 21)"/><use xlink:href="#f" transform="matrix(11 0 0 -11 312.396 21.102)"/><use xlink:href="#G" transform="matrix(11 0 0 -11 316.978 21.15)"/><use xlink:href="#x" transform="matrix(11 0 0 -11 322.757 21.15)"/><use xlink:href="#t" transform="matrix(11 0 0 -11 328.208 21)"/><use xlink:href="#p" transform="matrix(11 0 0 -11 331.307 21.15)"/><use xlink:href="#t" transform="matrix(11 0 0 -11 336.764 21)"/><use xlink:href="#r" transform="matrix(11 0 0 -11 339.562 21)"/><use xlink:href="#J" transform="matrix(11 0 0 -11 345.325 23.374)"/><use xlink:href="#w" transform="matrix(11 0 0 -11 350.498 21)"/><use xlink:href="#f" transform="matrix(11 0 0 -11 353.64 21.102)"/><use xlink:href="#L" transform="matrix(11 0 0 -11 358.14 21.15)"/><use xlink:href="#J" transform="matrix(11 0 0 -11 363.957 23.374)"/><use xlink:href="#M" transform="matrix(11 0 0 -11 369.908 21.15)"/><use xlink:href="#w" transform="matrix(11 0 0 -11 371.88 21)"/><use xlink:href="#N" transform="matrix(11 0 0 -11 374.866 21)"/><use xlink:href="#r" transform="matrix(11 0 0 -11 380.194 21)"/><use xlink:href="#p" transform="matrix(11 0 0 -11 385.995 21.15)"/><use xlink:href="#y" transform="matrix(11 0 0 -11 391.667 21.15)"/><use xlink:href="#w" transform="matrix(11 0 0 -11 395.41 21)"/><use xlink:href="#w" transform="matrix(11 0 0 -11 257 33.75)"/><use xlink:href="#w" transform="matrix(11 0 0 -11 259.75 33.75)"/><use xlink:href="#w" transform="matrix(11 0 0 -11 262.5 33.75)"/><use xlink:href="#w" transform="matrix(11 0 0 -11 265.25 33.75)"/><use xlink:href="#f" transform="matrix(11 0 0 -11 268.392 33.852)"/><use xlink:href="#r" transform="matrix(11 0 0 -11 272.946 33.75)"/><use xlink:href="#p" transform="matrix(11 0 0 -11 278.747 33.9)"/><use xlink:href="#w" transform="matrix(11 0 0 -11 283.882 33.75)"/><use xlink:href="#z" transform="matrix(11 0 0 -11 287.008 33.9)"/><use xlink:href="#x" transform="matrix(11 0 0 -11 291.884 33.9)"/><use xlink:href="#r" transform="matrix(11 0 0 -11 297.078 33.75)"/><use xlink:href="#y" transform="matrix(11 0 0 -11 303.05 33.9)"/><use xlink:href="#q" transform="matrix(11 0 0 -11 307.203 33.9)"/><use xlink:href="#z" transform="matrix(11 0 0 -11 312.053 33.9)"/><use xlink:href="#L" transform="matrix(11 0 0 -11 316.57 33.9)"/><use xlink:href="#s" transform="matrix(11 0 0 -11 322.166 33.83)"/><use xlink:href="#t" transform="matrix(11 0 0 -11 325.436 33.75)"/><use xlink:href="#G" transform="matrix(11 0 0 -11 328.261 33.9)"/><use xlink:href="#q" transform="matrix(11 0 0 -11 334.078 33.9)"/><use xlink:href="#w" transform="matrix(11 0 0 -11 338.552 33.75)"/><use xlink:href="#A" transform="matrix(11 0 0 -11 341.372 33.75)"/><use xlink:href="#f" transform="matrix(11 0 0 -11 347.194 33.852)"/><use xlink:href="#D" transform="matrix(11 0 0 -11 352.011 33.75)"/><use xlink:href="#u" transform="matrix(11 0 0 -11 355.164 33.75)"/><use xlink:href="#w" transform="matrix(11 0 0 -11 358.402 33.75)"/><use xlink:href="#y" transform="matrix(11 0 0 -11 361.69 33.9)"/><use xlink:href="#s" transform="matrix(11 0 0 -11 365.541 33.83)"/><use xlink:href="#q" transform="matrix(11 0 0 -11 368.898 33.9)"/><use xlink:href="#H" transform="matrix(11 0 0 -11 373.334 36.103)"/><use xlink:href="#y" transform="matrix(11 0 0 -11 379.408 33.9)"/><use xlink:href="#B" transform="matrix(10 0 0 -10 101.063 61.75)"/><use xlink:href="#x" transform="matrix(10 0 0 -10 104.667 61.887)"/><use xlink:href="#x" transform="matrix(10 0 0 -10 109.667 61.887)"/><use xlink:href="#s" transform="matrix(10 0 0 -10 114.428 61.823)"/><symbol id="O"><path d="M.01.548A.268.268 0 0 0 .082.65a.162.162 0 0 0 .107.036.149.149 0 0 0 .123-.051.127.127 0 0 0 .032-.083c0-.048-.03-.098-.091-.15A.197.197 0 0 0 .345.336.177.177 0 0 0 .376.231.22.22 0 0 0 .322.082C.274.027.205 0 .115 0 .071 0 .04.006.024.017.008.027 0 .04 0 .052c0 .01.004.018.011.025a.04.04 0 0 0 .028.01.084.084 0 0 0 .025-.003.285.285 0 0 0 .038-.018.245.245 0 0 1 .04-.018.135.135 0 0 1 .039-.006c.033 0 .062.013.086.04a.127.127 0 0 1 .037.09A.176.176 0 0 1 .26.29a.199.199 0 0 1-.057.035.184.184 0 0 1-.075.016H.111v.015a.2.2 0 0 1 .077.028.147.147 0 0 1 .057.055.145.145 0 0 1 .018.07.108.108 0 0 1-.11.113C.103.621.06.594.026.54L.01.548z"/></symbol><use xlink:href="#O" transform="matrix(10 0 0 -10 142.405 61.367)"/><use xlink:href="#B" transform="matrix(10 0 0 -10 147.063 61.25)"/><use xlink:href="#p" transform="matrix(10 0 0 -10 150.662 61.387)"/><symbol id="P"><path d="M.17.432.072.4V.251L.17.283v.149M0 .48l.043.014v.163h.029V.504L.17.536v.146h.029V.545l.039.013V.454L.199.441V.293l.039.012V.202L.199.189V.026H.17V.18L.072.148V0H.043v.138L0 .124v.104l.043.014v.149L0 .377V.48z"/></symbol><use xlink:href="#P" transform="matrix(14 0 0 -14 158.42 59.482)"/><use xlink:href="#j" transform="matrix(10 0 0 -10 164.086 59.5)"/><use xlink:href="#j" transform="matrix(10 0 0 -10 168.715 59.5)"/><symbol id="Q"><path d="M.386.674.348.59h-.2L.106.502A.349.349 0 0 0 .311.406.216.216 0 0 0 .375.25.22.22 0 0 0 .354.153.257.257 0 0 0 .229.027.264.264 0 0 0 .114 0C.074 0 .045.007.027.02.009.034 0 .049 0 .065c0 .01.004.017.011.024a.04.04 0 0 0 .029.01.056.056 0 0 0 .022-.003.198.198 0 0 0 .032-.02A.13.13 0 0 1 .168.05c.039 0 .072.015.1.043A.144.144 0 0 1 .313.2c0 .04-.013.077-.039.112a.247.247 0 0 1-.106.08.432.432 0 0 1-.145.026l.127.257h.237z"/></symbol><use xlink:href="#Q" transform="matrix(10 0 0 -10 180.979 56.367)"/><use xlink:href="#s" transform="matrix(10 0 0 -10 185.598 56.323)"/><use xlink:href="#A" transform="matrix(10 0 0 -10 188.341 56.25)"/><use xlink:href="#h" transform="matrix(10 0 0 -10 221.871 51.887)"/><use xlink:href="#s" transform="matrix(10 0 0 -10 226.598 51.823)"/><use xlink:href="#A" transform="matrix(10 0 0 -10 229.341 51.75)"/><use xlink:href="#i" transform="matrix(11 0 0 -11 115.951 98.353)"/><use xlink:href="#J" transform="matrix(11 0 0 -11 119.49 98.374)"/><use xlink:href="#f" transform="matrix(11 0 0 -11 125.055 96.102)"/><use xlink:href="#H" transform="matrix(11 0 0 -11 129.507 98.353)"/><use xlink:href="#k" transform="matrix(11 0 0 -11 135.292 98.353)"/><use xlink:href="#i" transform="matrix(11 0 0 -11 195.951 88.853)"/><use xlink:href="#J" transform="matrix(11 0 0 -11 199.49 88.874)"/><use xlink:href="#f" transform="matrix(11 0 0 -11 205.055 86.602)"/><use xlink:href="#H" transform="matrix(11 0 0 -11 209.507 88.853)"/><use xlink:href="#k" transform="matrix(11 0 0 -11 215.292 88.853)"/></svg>