<svg xmlns="http://www.w3.org/2000/svg" xmlns:xlink="http://www.w3.org/1999/xlink" width="562.333" height="245" viewBox="0 0 421.75 183.75"><path d="M-156.25 305.75h612v-792h-612z" fill="#fff"/><path stroke-width=".384" stroke-miterlimit="10" fill="none" stroke="#000" d="M6.874 33.911v122.914"/><symbol id="a"><path d="M.469.44A.415.415 0 0 0 .348.434a.459.459 0 0 0-.097.02.554.554 0 0 0-.125.078.344.344 0 0 0-.11.178.677.677 0 0 0-.013.096C0 .842.003.877.012.911a.55.55 0 0 0 .153.257 1.843 1.843 0 0 0 .162.136.194.194 0 0 1-.003.023.33.33 0 0 0-.011.076l-.002.03a.924.924 0 0 0-.001.121.345.345 0 0 0 .031.144.615.615 0 0 0 .039.075.4.4 0 0 0 .048.062c.016.018.032.026.047.026.007 0 .015-.004.024-.014a.405.405 0 0 0 .05-.087.544.544 0 0 0 .042-.168c0-.034-.001-.065-.004-.092a.415.415 0 0 0-.067-.182.402.402 0 0 0-.033-.048 9.105 9.105 0 0 0-.033-.04.22.22 0 0 0-.038-.038.517.517 0 0 1-.038-.03A16.911 16.911 0 0 0 .41.966a.361.361 0 0 0 .14-.02.207.207 0 0 0 .03-.015A.224.224 0 0 0 .657.84.31.31 0 0 0 .684.735.276.276 0 0 0 .643.57.319.319 0 0 0 .494.446 22.623 22.623 0 0 0 .52.272.508.508 0 0 0 .527.174.148.148 0 0 0 .512.111.283.283 0 0 0 .486.072.164.164 0 0 0 .405.013.236.236 0 0 0 .283.006a.234.234 0 0 0-.07.023.175.175 0 0 0-.056.044.116.116 0 0 0-.027.07.175.175 0 0 0 .003.048.14.14 0 0 0 .017.044C.158.248.17.26.183.267a.11.11 0 0 0 .087.01.137.137 0 0 0 .035-.019A.099.099 0 0 0 .343.19.101.101 0 0 0 .32.12.157.157 0 0 0 .232.065.09.09 0 0 1 .27.04a.166.166 0 0 1 .154.013.183.183 0 0 1 .063.065C.496.136.5.158.5.186a.702.702 0 0 1-.02.175L.469.44m.02 1.267c-.025 0-.048-.012-.068-.037a.298.298 0 0 1-.048-.092.567.567 0 0 1-.021-.252.748.748 0 0 1 .134.136.41.41 0 0 1 .048.081.155.155 0 0 1 .002.133.072.072 0 0 1-.018.022.043.043 0 0 1-.028.01M.488.48c.028.01.05.023.067.04A.152.152 0 0 1 .59.57a.155.155 0 0 1 .013.056.433.433 0 0 1 0 .05.332.332 0 0 1-.008.045.132.132 0 0 1-.075.093.172.172 0 0 1-.088.014L.488.48M.406.827A.155.155 0 0 1 .338.81.123.123 0 0 1 .27.691.158.158 0 0 1 .297.62.23.23 0 0 1 .322.59.11.11 0 0 1 .35.57.016.016 0 0 0 .346.564.016.016 0 0 0 .343.561.016.016 0 0 1 .34.557a.245.245 0 0 0-.055.036.257.257 0 0 0-.03.03.747.747 0 0 0-.02.026.119.119 0 0 0-.012.026.25.25 0 0 0-.01.03.278.278 0 0 0 0 .081.226.226 0 0 0 .016.048.247.247 0 0 0 .074.09.248.248 0 0 0 .043.025.868.868 0 0 0 .039.013l-.03.181A1.039 1.039 0 0 1 .142.938.715.715 0 0 1 .086.833.216.216 0 0 1 .07.73.246.246 0 0 1 .109.612.316.316 0 0 1 .32.47a.315.315 0 0 1 .143.003 36.857 36.857 0 0 1-.056.34L.406.826z"/></symbol><use xlink:href="#a" transform="matrix(17.425 0 0 -17.425 12.145 58.963)"/><use xlink:href="#a" transform="matrix(17.425 0 0 -17.425 12.145 123.943)"/><symbol id="b"><path d="M.497.324A.426.426 0 0 0 .462.266.625.625 0 0 0 .007 0L0 .015a.839.839 0 0 1 .176.081c.03.017.055.036.076.058.054.057.095.12.123.19a.594.594 0 0 1 .033.304.258.258 0 0 1-.023.074.168.168 0 0 1-.046.06.112.112 0 0 1-.076.025.174.174 0 0 1-.058-.011.21.21 0 0 1-.055-.03.152.152 0 0 1-.041-.044.082.082 0 0 1-.013-.054c0-.003.003-.004.006-.003a.58.58 0 0 0 .042.011.16.16 0 0 0 .037.002.063.063 0 0 0 .038-.014.091.091 0 0 0 .026-.031.124.124 0 0 0 .011-.085.096.096 0 0 0-.03-.052.082.082 0 0 0-.059-.02.128.128 0 0 0-.114.071.122.122 0 0 0-.01.051c0 .029.002.054.009.076a.199.199 0 0 0 .092.121c.025.015.05.026.075.031A.234.234 0 0 0 .367.823.285.285 0 0 0 .501.731.267.267 0 0 0 .559.564a.47.47 0 0 0-.062-.24m.101.385c0 .015.004.028.015.038.01.01.024.016.039.016A.051.051 0 0 0 .691.749.048.048 0 0 0 .708.711.053.053 0 0 0 .654.655a.053.053 0 0 0-.056.054m0-.252a.05.05 0 0 0 .016.038c.01.01.024.015.039.016A.057.057 0 0 0 .692.497.048.048 0 0 0 .709.459.05.05 0 0 0 .694.42.052.052 0 0 0 .655.403a.053.053 0 0 0-.04.015.057.057 0 0 0-.017.039z"/></symbol><use xlink:href="#b" transform="matrix(17.425 0 0 -17.425 12.279 154.054)"/><symbol id="c"><path d="M.026.512V.271c.01.009.018.016.026.021a.11.11 0 0 0 .023.012.092.092 0 0 0 .023.007.192.192 0 0 0 .029.002.071.071 0 0 0 .034-.008.088.088 0 0 0 .026-.021.098.098 0 0 0 .023-.06c0-.01 0-.021-.003-.032a.173.173 0 0 0-.01-.028.08.08 0 0 0-.022-.03.518.518 0 0 1-.027-.025A1.082 1.082 0 0 0 .009.008L0 0v.591h.026V.512M.107.249a.038.038 0 0 1-.014.01.04.04 0 0 1-.038-.002.052.052 0 0 1-.018-.021.11.11 0 0 1-.011-.048V.051l.006.005a.097.097 0 0 1 .014.012l.018.016L.082.1c.01.009.017.018.024.028a.11.11 0 0 1 .015.038c.004.015.005.03.003.045a.07.07 0 0 1-.017.038z"/></symbol><use xlink:href="#c" transform="matrix(17.425 0 0 -17.425 29.798 45.313)"/><use xlink:href="#c" transform="matrix(17.425 0 0 -17.425 34.154 38.779)"/><use xlink:href="#c" transform="matrix(17.425 0 0 -17.425 29.798 110.294)"/><use xlink:href="#c" transform="matrix(17.425 0 0 -17.425 34.154 103.76)"/><use xlink:href="#c" transform="matrix(17.425 0 0 -17.425 29.798 155.308)"/><use xlink:href="#c" transform="matrix(17.425 0 0 -17.425 34.154 148.774)"/><symbol id="d"><path d="M.325.131V.065c0-.01.002-.018.007-.023A.046.046 0 0 1 .348.03.07.07 0 0 1 .372.026V0H.155v.026A.07.07 0 0 1 .179.03a.037.037 0 0 1 .016.011C.2.046.203.053.203.063v.068H.018L0 .15a2.475 2.475 0 0 1 .086.128.402.402 0 0 1 .052.147l.013.066h.173A.439.439 0 0 0 .277.422 2.59 2.59 0 0 0 .126.247 3.761 3.761 0 0 1 .048.159h.155v.123l.122.134V.159h.072V.131H.325z"/></symbol><use xlink:href="#d" transform="matrix(17.425 0 0 -17.425 46.273 51.116)"/><use xlink:href="#d" transform="matrix(17.425 0 0 -17.425 46.273 42.403)"/><use xlink:href="#d" transform="matrix(17.425 0 0 -17.425 46.273 116.096)"/><use xlink:href="#d" transform="matrix(17.425 0 0 -17.425 46.273 107.384)"/><use xlink:href="#d" transform="matrix(17.425 0 0 -17.425 46.273 156.755)"/><use xlink:href="#d" transform="matrix(17.425 0 0 -17.425 46.273 148.042)"/><path stroke-width=".384" stroke-miterlimit="10" fill="none" stroke="#000" d="M80.76 98.828v57.997M80.76 33.911v17.424M155.926 98.828v57.997M155.926 33.911v17.424M246.895 98.828v57.997M246.895 33.911v17.424M340.64 98.828v57.997M340.64 33.911v17.424M419.48 98.828v57.997M416.918 98.828v57.997M419.48 33.911v17.424M416.918 33.911v17.424"/><path stroke-width=".327" stroke-miterlimit="10" fill="none" stroke="#000" d="M6.682 33.911h412.99M6.682 38.269h412.99M6.682 42.623h412.99M6.682 46.98h412.99M6.682 51.335h412.99M6.682 98.828h412.99M6.682 103.186h412.99M6.682 107.54h412.99M6.682 111.898h412.99M6.682 116.252h412.99M6.682 139.401h412.99M6.682 143.759h412.99M6.682 148.113h412.99M6.682 152.47h412.99M6.682 156.825h412.99"/><path d="M4.12 98.828c-9.624 20.5 4.812 18.792-3.844 29.042h.854c7.887-8.314-2.676-12.414 3.075-27.504M4.12 156.911c-9.624-20.5 4.812-18.791-3.844-29.041h.854c7.887 8.314-2.676 12.414 3.075 27.504"/><path stroke-width=".522" stroke-miterlimit="10" fill="none" stroke="#000" d="M65.406 21.868V19.69h27.547v2.178M95.516 21.868V19.69h36.302v2.178M220.01 21.868V19.69h26.48v2.178M138.438 21.868V19.69h26.052v2.178M166.411 21.868V19.69h47.407v2.178M255.458 21.868V19.69h13.88v2.178M273.396 21.868V19.69h14.094v2.178M293.896 21.868V19.69h13.026v2.178M311.833 21.868V19.69h26.052v2.178M351.339 21.868V19.69h15.588v2.178M371.412 21.868V19.69h35.447v2.178"/><symbol id="e"><path d="M.009.131a.161.161 0 0 0 .03.05.232.232 0 0 0 .106.067c.02.007.042.01.063.01.021 0 .04-.004.056-.011A.091.091 0 0 0 .302.219.078.078 0 0 0 .319.178a.096.096 0 0 0-.006-.05.152.152 0 0 0-.031-.05.217.217 0 0 0-.048-.041A.206.206 0 0 0 .175.01.201.201 0 0 0 .113 0a.133.133 0 0 0-.056.011.101.101 0 0 0-.038.028.084.084 0 0 0-.017.042.105.105 0 0 0 .007.05z"/></symbol><use xlink:href="#e" transform="matrix(17.425 0 0 -17.425 64.086 44.86)"/><path stroke-width=".326" stroke-miterlimit="10" fill="none" stroke="#000" d="M69.5 41.834V28.402"/><use xlink:href="#e" transform="matrix(17.425 0 0 -17.425 72.436 47.038)"/><path stroke-width=".326" stroke-miterlimit="10" fill="none" stroke="#000" d="M77.849 44.012V30.58"/><path d="m78.012 29.491-8.676-2.178v2.178l8.676 2.178"/><symbol id="f"><path d="M.37.222H.178L.143.123A3.203 3.203 0 0 1 .125.062C.125.045.133.034.15.027A.16.16 0 0 1 .188.018V0H0v.018c.022.003.04.01.053.022a.196.196 0 0 1 .044.079l.195.558h.029l.173-.54a.357.357 0 0 1 .02-.052.244.244 0 0 1 .019-.029C.553.031.574.019.598.018V0H.352v.018c.02.001.036.006.047.013a.036.036 0 0 1 .017.032 2.393 2.393 0 0 1-.02.076L.37.222M.359.258.278.511.19.258h.169z"/></symbol><symbol id="g"><path d="M.395.085C.395.058.401.039.412.03A.059.059 0 0 1 .441.018V0H.263v.018a.06.06 0 0 1 .019.003.04.04 0 0 1 .017.01.058.058 0 0 1 .011.02c.003.009.004.02.004.034v.207C.314.365.29.401.243.401.216.401.182.38.141.337V.085C.141.058.147.039.158.03A.065.065 0 0 1 .192.018V0H.009v.018a.06.06 0 0 1 .019.003.04.04 0 0 1 .017.01.058.058 0 0 1 .011.02C.059.06.06.071.06.085v.477C.06.607.049.631.027.633a.114.114 0 0 1-.02-.006L0 .644l.119.05h.022V.367a.64.64 0 0 0 .075.071c.02.015.04.023.062.023A.1.1 0 0 0 .369.414.191.191 0 0 0 .395.31V.085z"/></symbol><use xlink:href="#f" transform="matrix(8.7125 0 0 -8.7125 64.182 72.88)"/><use xlink:href="#g" transform="matrix(8.7125 0 0 -8.7125 69.54 72.872)"/><path stroke-width=".326" stroke-miterlimit="10" fill="none" stroke="#000" d="M69.5 122.061V98.828"/><use xlink:href="#e" transform="matrix(17.425 0 0 -17.425 64.086 116.375)"/><use xlink:href="#e" transform="matrix(17.425 0 0 -17.425 64.086 120.731)"/><path stroke-width=".326" stroke-miterlimit="10" fill="none" stroke="#000" d="M63.015 120.61h7.805"/><use xlink:href="#e" transform="matrix(17.425 0 0 -17.425 64.086 125.088)"/><path stroke-width=".326" stroke-miterlimit="10" fill="none" stroke="#000" d="M69.5 151.83v-14.522"/><use xlink:href="#e" transform="matrix(17.425 0 0 -17.425 64.086 154.855)"/><symbol id="h"><path d="M.27.018V0a.466.466 0 0 0-.232.254.538.538 0 0 0 .037.475.43.43 0 0 0 .195.18V.887a.28.28 0 0 1-.1-.091A.42.42 0 0 1 .114.65 1.029 1.029 0 0 1 .11.276.498.498 0 0 1 .141.168.35.35 0 0 1 .27.018z"/></symbol><symbol id="i"><path d="M0 0z"/></symbol><symbol id="j"><path d="M0 .888v.02A.456.456 0 0 0 .231.654.535.535 0 0 0 .195.18.427.427 0 0 0 0 0v.018C.04.041.073.071.099.11a.403.403 0 0 1 .057.146A1.034 1.034 0 0 1 .16.63.355.355 0 0 1 0 .888z"/></symbol><use xlink:href="#h" transform="matrix(7.98646 0 0 -7.98646 70.603 48.624)"/><use xlink:href="#i" transform="matrix(7.98646 0 0 -7.98646 72.934 46.916)"/><use xlink:href="#i" transform="matrix(7.98646 0 0 -7.98646 74.931 46.916)"/><use xlink:href="#j" transform="matrix(7.98646 0 0 -7.98646 77.107 48.624)"/><symbol id="k"><path d="M.393 0 .137.557V.115C.137.075.14.049.15.039.162.025.18.019.207.019H.23V0H0v.018h.023c.028 0 .048.009.06.025.007.01.01.035.01.072v.432c0 .03-.003.05-.009.064a.053.053 0 0 1-.025.023.13.13 0 0 1-.059.01v.018h.188l.24-.518.236.518h.188V.644H.829C.8.644.78.636.769.619.76.609.758.584.758.547V.115c0-.04.004-.066.013-.076C.784.025.803.019.83.019h.023V0H.57v.018h.024c.028 0 .048.009.06.025.006.01.01.035.01.072v.442L.41 0H.393z"/></symbol><symbol id="l"><path d="M.216.474A.198.198 0 0 0 .38.397.237.237 0 0 0 .432.246c0-.04-.01-.081-.03-.122A.21.21 0 0 0 .324.031.208.208 0 0 0 .211 0a.19.19 0 0 0-.16.08A.25.25 0 0 0 0 .234c0 .04.01.082.03.122a.208.208 0 0 0 .186.12M.201.441A.102.102 0 0 1 .15.427.107.107 0 0 1 .107.373a.26.26 0 0 1-.016-.1C.09.21.104.154.129.106.155.058.19.035.232.035.264.035.29.048.31.074.33.1.34.144.34.208.34.288.325.35.29.396A.106.106 0 0 1 .2.442z"/></symbol><symbol id="m"><path d="M.151.602V.455h.105V.42H.15V.13c0-.029.004-.048.013-.058A.04.04 0 0 1 .196.057c.01 0 .021.003.031.01.01.006.018.016.023.03h.02A.155.155 0 0 0 .22.023.105.105 0 0 0 .157 0a.088.088 0 0 0-.044.012.077.077 0 0 0-.032.036.19.19 0 0 0-.01.072v.3H0v.017c.018.007.036.019.055.036a.29.29 0 0 1 .081.129h.015z"/></symbol><symbol id="n"><path d="M.116.694A.046.046 0 0 0 .15.68.046.046 0 0 0 .165.645.048.048 0 0 0 .15.61.046.046 0 0 0 .116.595.048.048 0 0 0 .08.61a.048.048 0 0 0-.015.035C.066.659.07.67.08.68c.01.01.022.014.036.014M.156.46V.101c0-.028.002-.047.006-.056A.045.045 0 0 1 .18.025.098.098 0 0 1 .224.017V0H.007v.018C.029.018.043.02.05.024a.042.042 0 0 1 .017.02c.005.01.007.03.007.057v.172a.61.61 0 0 1-.004.095C.069.378.065.385.06.389A.03.03 0 0 1 .04.396.098.098 0 0 1 .007.388L0 .406.135.46h.021z"/></symbol><symbol id="o"><path d="M0 .46h.21V.444H.197C.184.443.174.44.167.433A.033.033 0 0 1 .157.41c0-.012.004-.025.011-.04L.272.12l.104.256A.122.122 0 0 1 .388.42.016.016 0 0 1 .384.43.026.026 0 0 1 .37.44a.123.123 0 0 1-.034.003V.46h.146V.443C.465.442.454.438.447.433a.125.125 0 0 1-.03-.05L.257 0h-.02L.079.377a.14.14 0 0 1-.02.038.08.08 0 0 1-.025.02A.122.122 0 0 1 0 .443V.46z"/></symbol><symbol id="p"><path d="M.07.292A.23.23 0 0 1 .117.136.147.147 0 0 1 .232.08c.03 0 .055.008.077.024a.18.18 0 0 1 .054.083l.015-.01a.234.234 0 0 0-.06-.122A.16.16 0 0 0 .196 0c-.053 0-.1.02-.138.063A.242.242 0 0 0 0 .23c0 .077.02.137.059.18.039.042.088.064.148.064.05 0 .09-.017.123-.05A.18.18 0 0 0 .378.292H.07m0 .029h.207a.191.191 0 0 1-.01.06.096.096 0 0 1-.037.043.09.09 0 0 1-.05.016.101.101 0 0 1-.073-.032A.136.136 0 0 1 .07.321z"/></symbol><symbol id="q"><path d="M.271.474V.322H.255C.243.37.227.402.208.419a.106.106 0 0 1-.074.026.082.082 0 0 1-.055-.018C.065.415.058.402.058.387.058.37.063.353.073.34A.174.174 0 0 1 .135.298L.206.263c.066-.032.1-.075.1-.127A.12.12 0 0 0 .258.037.16.16 0 0 0 .156 0a.355.355 0 0 0-.094.015.095.095 0 0 1-.026.005C.028.02.022.015.018.007H.002v.16h.016A.182.182 0 0 1 .07.063.126.126 0 0 1 .157.03c.022 0 .04.006.054.02.015.013.022.029.022.047a.075.075 0 0 1-.024.057.407.407 0 0 1-.094.058.28.28 0 0 0-.093.063.11.11 0 0 0-.022.07c0 .038.013.068.038.093a.135.135 0 0 0 .098.037A.23.23 0 0 0 .2.463.151.151 0 0 1 .233.456a.02.02 0 0 1 .012.003.047.047 0 0 1 .01.015h.016z"/></symbol><symbol id="r"><path d="M.055.475A.051.051 0 0 0 .093.458.051.051 0 0 0 .11.42.053.053 0 0 0 .093.382.052.052 0 0 0 .055.366.053.053 0 0 0 .001.42c0 .015.005.028.016.038.01.011.023.017.038.017m0-.366A.052.052 0 0 0 .092.093.053.053 0 0 0 .109.054.053.053 0 0 0 .093.016.053.053 0 0 0 .054 0 .053.053 0 0 0 0 .054C0 .07.005.082.016.093c.01.01.023.016.038.016z"/></symbol><use xlink:href="#k" transform="matrix(11 0 0 -11 .576 14.789)"/><use xlink:href="#l" transform="matrix(11 0 0 -11 10.545 14.94)"/><use xlink:href="#m" transform="matrix(11 0 0 -11 15.782 14.87)"/><use xlink:href="#n" transform="matrix(11 0 0 -11 19.053 14.789)"/><use xlink:href="#o" transform="matrix(11 0 0 -11 21.878 14.94)"/><use xlink:href="#p" transform="matrix(11 0 0 -11 27.695 14.94)"/><use xlink:href="#q" transform="matrix(11 0 0 -11 32.705 14.94)"/><use xlink:href="#r" transform="matrix(11 0 0 -11 37.395 14.94)"/><symbol id="s"><path d="M0 .051c0 .014.005.026.015.035a.05.05 0 0 0 .037.015.05.05 0 0 0 .037-.015.046.046 0 0 0 .015-.035.05.05 0 0 0-.015-.036A.05.05 0 0 0 .052 0a.05.05 0 0 0-.037.015A.05.05 0 0 0 0 .051z"/></symbol><use xlink:href="#s" transform="matrix(17.425 0 0 -17.425 96.771 45.641)"/><path stroke-width=".326" stroke-miterlimit="10" fill="none" stroke="#000" d="M94.548 46.19V31.67"/><use xlink:href="#e" transform="matrix(17.425 0 0 -17.425 89.135 49.216)"/><symbol id="t"><path d="M.014.786c0-.025.006-.05.018-.077a.42.42 0 0 1 .04-.071L.126.563A1.008 1.008 0 0 0 .207.429a1.002 1.002 0 0 0 .034-.1A.658.658 0 0 0 .258.17.517.517 0 0 0 .227 0L.215.002a.605.605 0 0 1 .021.25.413.413 0 0 1-.074.186.27.27 0 0 1-.055.054.173.173 0 0 1-.033.017.176.176 0 0 1-.06.015H0v.262h.014z"/></symbol><use xlink:href="#t" transform="matrix(17.425 0 0 -17.425 111.283 46.899)"/><path stroke-width=".326" stroke-miterlimit="10" fill="none" stroke="#000" d="M111.428 48.368v-14.52"/><use xlink:href="#e" transform="matrix(17.425 0 0 -17.425 106.015 51.394)"/><path stroke-width=".326" stroke-miterlimit="10" fill="none" stroke="#000" d="M131.213 48.368v-14.52"/><use xlink:href="#e" transform="matrix(17.425 0 0 -17.425 125.8 51.394)"/><use xlink:href="#e" transform="matrix(17.425 0 0 -17.425 137.598 44.86)"/><path stroke-width=".326" stroke-miterlimit="10" fill="none" stroke="#000" d="M143.011 41.834V28.402"/><use xlink:href="#e" transform="matrix(17.425 0 0 -17.425 146.492 47.038)"/><path stroke-width=".326" stroke-miterlimit="10" fill="none" stroke="#000" d="M151.905 44.012V30.58"/><path d="m152.068 29.491-9.22-2.178v2.178l9.22 2.178"/><use xlink:href="#f" transform="matrix(8.7125 0 0 -8.7125 137.694 72.88)"/><use xlink:href="#g" transform="matrix(8.7125 0 0 -8.7125 143.052 72.872)"/><use xlink:href="#s" transform="matrix(17.425 0 0 -17.425 96.771 110.622)"/><use xlink:href="#s" transform="matrix(17.425 0 0 -17.425 96.771 119.334)"/><use xlink:href="#s" transform="matrix(17.425 0 0 -17.425 96.771 123.69)"/><path stroke-width=".326" stroke-miterlimit="10" fill="none" stroke="#000" d="M94.548 122.061V96.65"/><use xlink:href="#e" transform="matrix(17.425 0 0 -17.425 89.135 114.197)"/><use xlink:href="#e" transform="matrix(17.425 0 0 -17.425 89.135 120.731)"/><path stroke-width=".326" stroke-miterlimit="10" fill="none" stroke="#000" d="M88.063 120.61h7.805"/><use xlink:href="#e" transform="matrix(17.425 0 0 -17.425 89.135 125.088)"/><use xlink:href="#t" transform="matrix(17.425 0 0 -17.425 111.283 111.88)"/><path stroke-width=".326" stroke-miterlimit="10" fill="none" stroke="#000" d="M111.428 122.061V98.828"/><use xlink:href="#e" transform="matrix(17.425 0 0 -17.425 106.015 116.375)"/><use xlink:href="#e" transform="matrix(17.425 0 0 -17.425 106.015 120.731)"/><path stroke-width=".326" stroke-miterlimit="10" fill="none" stroke="#000" d="M104.943 120.61h7.805"/><use xlink:href="#e" transform="matrix(17.425 0 0 -17.425 106.015 125.088)"/><path stroke-width=".326" stroke-miterlimit="10" fill="none" stroke="#000" d="M131.369 122.061V98.828"/><symbol id="u"><path d="M.32.226A.06.06 0 0 0 .327.201.15.15 0 0 0 .317.13.19.19 0 0 0 .275.063a.188.188 0 0 0-.051-.04.212.212 0 0 0-.117-.019.585.585 0 0 0-.051.01.158.158 0 0 0-.026.013A.07.07 0 0 0 0 .074.17.17 0 0 0 0 .1a.233.233 0 0 0 .01.041c.01.025.023.046.04.063a.29.29 0 0 0 .05.039.218.218 0 0 0 .2.003.05.05 0 0 0 .019-.02M.297.209a.039.039 0 0 1-.02.016.06.06 0 0 1-.025.003.104.104 0 0 1-.027-.006A.442.442 0 0 1 .14.179.825.825 0 0 1 .058.127a.108.108 0 0 1-.02-.02.066.066 0 0 1-.01-.023.037.037 0 0 1 .005-.025.034.034 0 0 1 .019-.016.053.053 0 0 1 .025-.002c.009 0 .018.003.028.006L.13.058c.011.005.021.01.03.016l.03.016a.524.524 0 0 1 .1.071.054.054 0 0 1 .01.023.033.033 0 0 1-.004.025z"/></symbol><use xlink:href="#u" transform="matrix(17.425 0 0 -17.425 125.823 116.462)"/><use xlink:href="#u" transform="matrix(17.425 0 0 -17.425 125.823 120.818)"/><path stroke-width=".326" stroke-miterlimit="10" fill="none" stroke="#000" d="M124.728 120.61h7.805"/><use xlink:href="#u" transform="matrix(17.425 0 0 -17.425 125.823 125.175)"/><use xlink:href="#s" transform="matrix(17.425 0 0 -17.425 96.771 155.637)"/><path stroke-width=".326" stroke-miterlimit="10" fill="none" stroke="#000" d="M94.548 156.185v-14.52"/><use xlink:href="#e" transform="matrix(17.425 0 0 -17.425 89.135 159.212)"/><use xlink:href="#t" transform="matrix(17.425 0 0 -17.425 111.283 150.36)"/><path stroke-width=".326" stroke-miterlimit="10" fill="none" stroke="#000" d="M111.428 151.83v-14.522"/><use xlink:href="#e" transform="matrix(17.425 0 0 -17.425 106.015 154.855)"/><path stroke-width=".326" stroke-miterlimit="10" fill="none" stroke="#000" d="M131.369 151.83v-14.522"/><use xlink:href="#u" transform="matrix(17.425 0 0 -17.425 125.823 154.942)"/><use xlink:href="#h" transform="matrix(7.98646 0 0 -7.98646 144.296 48.987)"/><use xlink:href="#i" transform="matrix(7.98646 0 0 -7.98646 146.628 47.28)"/><use xlink:href="#i" transform="matrix(7.98646 0 0 -7.98646 148.624 47.28)"/><use xlink:href="#i" transform="matrix(7.98646 0 0 -7.98646 150.62 47.28)"/><use xlink:href="#j" transform="matrix(7.98646 0 0 -7.98646 152.797 48.987)"/><use xlink:href="#s" transform="matrix(17.425 0 0 -17.425 171.916 45.641)"/><use xlink:href="#e" transform="matrix(17.425 0 0 -17.425 164.28 49.216)"/><path stroke-width=".326" stroke-miterlimit="10" fill="none" stroke="#000" d="M169.693 46.19V32.758"/><use xlink:href="#e" transform="matrix(17.425 0 0 -17.425 175.17 47.038)"/><path stroke-width=".326" stroke-miterlimit="10" fill="none" stroke="#000" d="M180.584 44.012V30.58"/><path d="M180.747 29.491 169.53 31.67v2.178l11.217-2.178M180.747 32.758l-3.594.654v2.178l3.594-.653"/><use xlink:href="#e" transform="matrix(17.425 0 0 -17.425 182.612 49.216)"/><path stroke-width=".326" stroke-miterlimit="10" fill="none" stroke="#000" d="M188.026 46.19V32.758"/><use xlink:href="#e" transform="matrix(17.425 0 0 -17.425 190.054 51.394)"/><path stroke-width=".326" stroke-miterlimit="10" fill="none" stroke="#000" d="M195.468 48.368v-14.52"/><path d="m195.63 32.758-7.767-1.089v2.178l7.768 1.09"/><path stroke-width=".326" stroke-miterlimit="10" fill="none" stroke="#000" d="M214.526 52.725V38.204"/><use xlink:href="#e" transform="matrix(17.425 0 0 -17.425 209.113 55.75)"/><use xlink:href="#e" transform="matrix(17.425 0 0 -17.425 216.555 51.394)"/><path stroke-width=".326" stroke-miterlimit="10" fill="none" stroke="#000" d="M221.968 48.368V28.402"/><use xlink:href="#e" transform="matrix(17.425 0 0 -17.425 223.997 49.216)"/><path stroke-width=".326" stroke-miterlimit="10" fill="none" stroke="#000" d="M229.41 46.19V27.688"/><use xlink:href="#e" transform="matrix(17.425 0 0 -17.425 231.802 44.86)"/><path stroke-width=".326" stroke-miterlimit="10" fill="none" stroke="#000" d="M237.215 41.834V26.938"/><use xlink:href="#e" transform="matrix(17.425 0 0 -17.425 239.244 42.682)"/><path stroke-width=".326" stroke-miterlimit="10" fill="none" stroke="#000" d="M244.657 39.656V26.224"/><path d="m244.82 25.135-23.015 2.178v2.178l23.015-2.178M244.82 28.402l-23.015 2.178v2.178l23.015-2.178"/><symbol id="v"><path d="M.274 0C.204 0 .139.035.081.105A.363.363 0 0 0 0 .346c0 .095.027.176.081.241.06.071.124.107.193.107.07 0 .133-.036.192-.108A.36.36 0 0 0 .547.345.363.363 0 0 0 .466.104C.409.034.345 0 .274 0m0 .658C.224.658.181.624.146.556a.452.452 0 0 1-.042-.21.45.45 0 0 1 .044-.212C.182.069.224.036.274.036c.049 0 .09.032.125.097a.45.45 0 0 1 .044.212.452.452 0 0 1-.042.21.237.237 0 0 1-.058.076.11.11 0 0 1-.069.027z"/></symbol><symbol id="w"><path d="M.193.442A.085.085 0 0 1 .152.43.146.146 0 0 1 .097.352.272.272 0 0 1 .088.277C.088.251.09.224.094.196A.318.318 0 0 1 .116.121.198.198 0 0 1 .16.056.082.082 0 0 1 .215.033C.232.033.247.039.26.05a.13.13 0 0 1 .031.043.246.246 0 0 1 .018.058.363.363 0 0 1 .004.104.3.3 0 0 1-.039.134.134.134 0 0 1-.034.038.076.076 0 0 1-.047.015M.203 0a.19.19 0 0 0-.141.064.21.21 0 0 0-.046.071.25.25 0 0 0-.016.09c0 .032.005.063.014.093.01.03.024.057.043.082a.191.191 0 0 0 .146.075.179.179 0 0 0 .142-.062.2.2 0 0 0 .046-.079.311.311 0 0 0 .014-.093A.291.291 0 0 0 .346.07.177.177 0 0 0 .28.016.183.183 0 0 0 .203 0z"/></symbol><use xlink:href="#v" transform="matrix(8.7125 0 0 -8.7125 209.418 73.003)"/><use xlink:href="#w" transform="matrix(8.7125 0 0 -8.7125 214.646 72.994)"/><use xlink:href="#g" transform="matrix(8.7125 0 0 -8.7125 218.505 72.872)"/><use xlink:href="#s" transform="matrix(17.425 0 0 -17.425 171.916 110.622)"/><use xlink:href="#s" transform="matrix(17.425 0 0 -17.425 171.916 114.978)"/><use xlink:href="#s" transform="matrix(17.425 0 0 -17.425 171.916 123.69)"/><path stroke-width=".326" stroke-miterlimit="10" fill="none" stroke="#000" d="M169.693 122.061V96.65"/><use xlink:href="#e" transform="matrix(17.425 0 0 -17.425 164.28 114.197)"/><use xlink:href="#e" transform="matrix(17.425 0 0 -17.425 164.28 118.553)"/><path stroke-width=".326" stroke-miterlimit="10" fill="none" stroke="#000" d="M163.208 120.61h7.805"/><use xlink:href="#e" transform="matrix(17.425 0 0 -17.425 164.28 125.088)"/><use xlink:href="#t" transform="matrix(17.425 0 0 -17.425 195.322 111.88)"/><path stroke-width=".326" stroke-miterlimit="10" fill="none" stroke="#000" d="M195.468 122.061V98.828"/><use xlink:href="#e" transform="matrix(17.425 0 0 -17.425 190.054 116.375)"/><use xlink:href="#e" transform="matrix(17.425 0 0 -17.425 190.054 120.731)"/><path stroke-width=".326" stroke-miterlimit="10" fill="none" stroke="#000" d="M188.983 120.61h7.805"/><use xlink:href="#e" transform="matrix(17.425 0 0 -17.425 190.054 125.088)"/><path stroke-width=".326" stroke-miterlimit="10" fill="none" stroke="#000" d="M214.682 122.061V98.828"/><use xlink:href="#u" transform="matrix(17.425 0 0 -17.425 209.136 116.462)"/><use xlink:href="#u" transform="matrix(17.425 0 0 -17.425 209.136 120.818)"/><path stroke-width=".326" stroke-miterlimit="10" fill="none" stroke="#000" d="M208.041 120.61h7.805"/><use xlink:href="#u" transform="matrix(17.425 0 0 -17.425 209.136 125.175)"/><use xlink:href="#s" transform="matrix(17.425 0 0 -17.425 171.916 159.993)"/><path stroke-width=".326" stroke-miterlimit="10" fill="none" stroke="#000" d="M169.693 160.542V146.02M163.208 161.268h7.805"/><use xlink:href="#e" transform="matrix(17.425 0 0 -17.425 164.28 163.568)"/><use xlink:href="#t" transform="matrix(17.425 0 0 -17.425 195.322 150.36)"/><path stroke-width=".326" stroke-miterlimit="10" fill="none" stroke="#000" d="M195.468 151.83v-14.522"/><use xlink:href="#e" transform="matrix(17.425 0 0 -17.425 190.054 154.855)"/><path stroke-width=".326" stroke-miterlimit="10" fill="none" stroke="#000" d="M214.682 151.83v-14.522"/><use xlink:href="#u" transform="matrix(17.425 0 0 -17.425 209.136 154.942)"/><use xlink:href="#h" transform="matrix(7.98646 0 0 -7.98646 174.245 48.624)"/><use xlink:href="#i" transform="matrix(7.98646 0 0 -7.98646 176.577 46.916)"/><use xlink:href="#i" transform="matrix(7.98646 0 0 -7.98646 178.573 46.916)"/><use xlink:href="#j" transform="matrix(7.98646 0 0 -7.98646 180.75 48.624)"/><use xlink:href="#h" transform="matrix(7.98646 0 0 -7.98646 222.708 50.44)"/><use xlink:href="#i" transform="matrix(7.98646 0 0 -7.98646 225.04 48.731)"/><use xlink:href="#i" transform="matrix(7.98646 0 0 -7.98646 227.037 48.731)"/><use xlink:href="#j" transform="matrix(7.98646 0 0 -7.98646 229.213 50.44)"/><use xlink:href="#h" transform="matrix(7.98646 0 0 -7.98646 238.318 43.905)"/><use xlink:href="#i" transform="matrix(7.98646 0 0 -7.98646 240.65 42.197)"/><use xlink:href="#i" transform="matrix(7.98646 0 0 -7.98646 242.647 42.197)"/><use xlink:href="#j" transform="matrix(7.98646 0 0 -7.98646 244.823 43.905)"/><use xlink:href="#s" transform="matrix(17.425 0 0 -17.425 262.853 36.929)"/><use xlink:href="#e" transform="matrix(17.425 0 0 -17.425 255.217 40.504)"/><path stroke-width=".326" stroke-miterlimit="10" fill="none" stroke="#000" d="M255.397 38.93v13.432"/><use xlink:href="#e" transform="matrix(17.425 0 0 -17.425 266.107 42.682)"/><path stroke-width=".326" stroke-miterlimit="10" fill="none" stroke="#000" d="M266.288 41.108V54.54"/><path d="m266.45 53.45-11.216-2.178v2.179l11.217 2.178M266.45 50.183l-3.919-.653v2.178l3.92.654"/><use xlink:href="#s" transform="matrix(17.425 0 0 -17.425 281.186 36.929)"/><use xlink:href="#e" transform="matrix(17.425 0 0 -17.425 273.55 40.504)"/><path stroke-width=".326" stroke-miterlimit="10" fill="none" stroke="#000" d="M273.73 38.93v13.432"/><use xlink:href="#e" transform="matrix(17.425 0 0 -17.425 284.44 42.682)"/><path stroke-width=".326" stroke-miterlimit="10" fill="none" stroke="#000" d="M284.62 41.108V54.54"/><path d="m284.783 53.45-11.216-2.178v2.179l11.216 2.178M284.783 50.183l-3.919-.653v2.178l3.92.654"/><use xlink:href="#s" transform="matrix(17.425 0 0 -17.425 299.7 36.929)"/><use xlink:href="#e" transform="matrix(17.425 0 0 -17.425 292.063 40.504)"/><path stroke-width=".326" stroke-miterlimit="10" fill="none" stroke="#000" d="M292.244 38.93v13.432"/><use xlink:href="#e" transform="matrix(17.425 0 0 -17.425 302.954 42.682)"/><path stroke-width=".326" stroke-miterlimit="10" fill="none" stroke="#000" d="M303.134 41.108V54.54"/><path d="m303.298 53.45-11.217-2.178v2.179l11.216 2.178M303.298 50.183l-3.92-.653v2.178l3.92.654"/><use xlink:href="#e" transform="matrix(17.425 0 0 -17.425 310.396 40.504)"/><path stroke-width=".326" stroke-miterlimit="10" fill="none" stroke="#000" d="M310.576 38.93v13.432"/><use xlink:href="#e" transform="matrix(17.425 0 0 -17.425 318.02 36.148)"/><path stroke-width=".326" stroke-miterlimit="10" fill="none" stroke="#000" d="M318.2 34.573V53.1"/><use xlink:href="#e" transform="matrix(17.425 0 0 -17.425 325.461 40.504)"/><path stroke-width=".326" stroke-miterlimit="10" fill="none" stroke="#000" d="M325.642 38.93v14.89"/><use xlink:href="#e" transform="matrix(17.425 0 0 -17.425 332.903 42.682)"/><path stroke-width=".326" stroke-miterlimit="10" fill="none" stroke="#000" d="M333.084 41.108V54.54"/><path d="m333.247 53.45-22.834-2.178v2.179l22.834 2.178M333.247 50.183l-22.834-2.178v2.178l22.834 2.179"/><use xlink:href="#s" transform="matrix(17.425 0 0 -17.425 262.853 110.622)"/><use xlink:href="#s" transform="matrix(17.425 0 0 -17.425 262.853 119.334)"/><use xlink:href="#s" transform="matrix(17.425 0 0 -17.425 262.853 123.69)"/><path stroke-width=".326" stroke-miterlimit="10" fill="none" stroke="#000" d="M260.63 122.061V96.65"/><use xlink:href="#e" transform="matrix(17.425 0 0 -17.425 255.217 114.197)"/><use xlink:href="#e" transform="matrix(17.425 0 0 -17.425 255.217 120.731)"/><path stroke-width=".326" stroke-miterlimit="10" fill="none" stroke="#000" d="M254.145 120.61h7.805"/><use xlink:href="#e" transform="matrix(17.425 0 0 -17.425 255.217 125.088)"/><use xlink:href="#t" transform="matrix(17.425 0 0 -17.425 278.817 111.88)"/><path stroke-width=".326" stroke-miterlimit="10" fill="none" stroke="#000" d="M278.962 122.061V98.828"/><use xlink:href="#e" transform="matrix(17.425 0 0 -17.425 273.55 116.375)"/><use xlink:href="#e" transform="matrix(17.425 0 0 -17.425 273.55 120.731)"/><path stroke-width=".326" stroke-miterlimit="10" fill="none" stroke="#000" d="M272.478 120.61h7.805"/><use xlink:href="#e" transform="matrix(17.425 0 0 -17.425 273.55 125.088)"/><path stroke-width=".326" stroke-miterlimit="10" fill="none" stroke="#000" d="M297.632 122.061V98.828"/><use xlink:href="#u" transform="matrix(17.425 0 0 -17.425 292.087 116.462)"/><use xlink:href="#u" transform="matrix(17.425 0 0 -17.425 292.087 120.818)"/><path stroke-width=".326" stroke-miterlimit="10" fill="none" stroke="#000" d="M290.992 120.61h7.805"/><use xlink:href="#u" transform="matrix(17.425 0 0 -17.425 292.087 125.175)"/><use xlink:href="#s" transform="matrix(17.425 0 0 -17.425 262.853 155.637)"/><path stroke-width=".326" stroke-miterlimit="10" fill="none" stroke="#000" d="M260.63 156.185v-14.52"/><use xlink:href="#e" transform="matrix(17.425 0 0 -17.425 255.217 159.212)"/><use xlink:href="#t" transform="matrix(17.425 0 0 -17.425 278.817 150.36)"/><path stroke-width=".326" stroke-miterlimit="10" fill="none" stroke="#000" d="M278.962 151.83v-14.522"/><use xlink:href="#e" transform="matrix(17.425 0 0 -17.425 273.55 154.855)"/><path stroke-width=".326" stroke-miterlimit="10" fill="none" stroke="#000" d="M297.632 151.83v-14.522"/><use xlink:href="#u" transform="matrix(17.425 0 0 -17.425 292.087 154.942)"/><use xlink:href="#h" transform="matrix(7.98646 0 0 -7.98646 264.274 44.086)"/><use xlink:href="#i" transform="matrix(7.98646 0 0 -7.98646 266.606 42.378)"/><use xlink:href="#i" transform="matrix(7.98646 0 0 -7.98646 268.603 42.378)"/><use xlink:href="#j" transform="matrix(7.98646 0 0 -7.98646 270.779 44.086)"/><use xlink:href="#h" transform="matrix(7.98646 0 0 -7.98646 283.333 44.45)"/><use xlink:href="#i" transform="matrix(7.98646 0 0 -7.98646 285.665 42.741)"/><use xlink:href="#i" transform="matrix(7.98646 0 0 -7.98646 287.661 42.741)"/><use xlink:href="#j" transform="matrix(7.98646 0 0 -7.98646 289.837 44.45)"/><use xlink:href="#h" transform="matrix(7.98646 0 0 -7.98646 301.302 44.45)"/><use xlink:href="#i" transform="matrix(7.98646 0 0 -7.98646 303.634 42.741)"/><use xlink:href="#i" transform="matrix(7.98646 0 0 -7.98646 305.63 42.741)"/><use xlink:href="#j" transform="matrix(7.98646 0 0 -7.98646 307.807 44.45)"/><use xlink:href="#h" transform="matrix(7.98646 0 0 -7.98646 331.796 44.45)"/><use xlink:href="#i" transform="matrix(7.98646 0 0 -7.98646 334.128 42.741)"/><use xlink:href="#i" transform="matrix(7.98646 0 0 -7.98646 336.125 42.741)"/><use xlink:href="#j" transform="matrix(7.98646 0 0 -7.98646 338.3 44.45)"/><use xlink:href="#s" transform="matrix(17.425 0 0 -17.425 356.694 41.285)"/><use xlink:href="#e" transform="matrix(17.425 0 0 -17.425 349.058 44.86)"/><path stroke-width=".326" stroke-miterlimit="10" fill="none" stroke="#000" d="M354.47 41.834V28.402"/><use xlink:href="#e" transform="matrix(17.425 0 0 -17.425 361.582 49.216)"/><path stroke-width=".326" stroke-miterlimit="10" fill="none" stroke="#000" d="M366.995 46.19V30.58"/><path d="m367.158 29.491-12.85-2.178v2.178l12.85 2.178M367.158 32.758l-3.593-.568v2.178l3.593.569"/><use xlink:href="#e" transform="matrix(17.425 0 0 -17.425 369.568 44.86)"/><path stroke-width=".326" stroke-miterlimit="10" fill="none" stroke="#000" d="M369.749 43.286v13.432"/><use xlink:href="#e" transform="matrix(17.425 0 0 -17.425 378.462 42.682)"/><path stroke-width=".326" stroke-miterlimit="10" fill="none" stroke="#000" d="M378.643 41.108v15.61"/><use xlink:href="#e" transform="matrix(17.425 0 0 -17.425 386.267 44.86)"/><path stroke-width=".326" stroke-miterlimit="10" fill="none" stroke="#000" d="M386.448 43.286v13.432"/><path d="M386.61 55.629h-17.024v2.178h17.025M386.61 52.362h-8.13v2.178h8.13"/><path stroke-width=".326" stroke-miterlimit="10" fill="none" stroke="#000" d="M400.968 43.286v14.52"/><use xlink:href="#u" transform="matrix(17.425 0 0 -17.425 400.811 44.947)"/><use xlink:href="#s" transform="matrix(17.425 0 0 -17.425 356.694 110.622)"/><use xlink:href="#s" transform="matrix(17.425 0 0 -17.425 356.694 114.978)"/><use xlink:href="#s" transform="matrix(17.425 0 0 -17.425 356.694 123.69)"/><path stroke-width=".326" stroke-miterlimit="10" fill="none" stroke="#000" d="M354.47 122.061V96.65"/><use xlink:href="#e" transform="matrix(17.425 0 0 -17.425 349.058 114.197)"/><use xlink:href="#e" transform="matrix(17.425 0 0 -17.425 349.058 118.553)"/><path stroke-width=".326" stroke-miterlimit="10" fill="none" stroke="#000" d="M347.986 120.61h7.805"/><use xlink:href="#e" transform="matrix(17.425 0 0 -17.425 349.058 125.088)"/><use xlink:href="#t" transform="matrix(17.425 0 0 -17.425 383.73 111.88)"/><path stroke-width=".326" stroke-miterlimit="10" fill="none" stroke="#000" d="M383.875 122.061V98.828"/><use xlink:href="#e" transform="matrix(17.425 0 0 -17.425 378.462 116.375)"/><use xlink:href="#e" transform="matrix(17.425 0 0 -17.425 378.462 120.731)"/><path stroke-width=".326" stroke-miterlimit="10" fill="none" stroke="#000" d="M377.39 120.61h7.806"/><use xlink:href="#e" transform="matrix(17.425 0 0 -17.425 378.462 125.088)"/><path stroke-width=".326" stroke-miterlimit="10" fill="none" stroke="#000" d="M406.357 122.061V98.828"/><use xlink:href="#u" transform="matrix(17.425 0 0 -17.425 400.811 116.462)"/><use xlink:href="#u" transform="matrix(17.425 0 0 -17.425 400.811 120.818)"/><path stroke-width=".326" stroke-miterlimit="10" fill="none" stroke="#000" d="M399.716 120.61h7.805"/><use xlink:href="#u" transform="matrix(17.425 0 0 -17.425 400.811 125.175)"/><use xlink:href="#s" transform="matrix(17.425 0 0 -17.425 356.694 159.993)"/><path stroke-width=".326" stroke-miterlimit="10" fill="none" stroke="#000" d="M354.47 160.542V146.02M347.986 161.268h7.805"/><use xlink:href="#e" transform="matrix(17.425 0 0 -17.425 349.058 163.568)"/><use xlink:href="#t" transform="matrix(17.425 0 0 -17.425 383.73 150.36)"/><path stroke-width=".326" stroke-miterlimit="10" fill="none" stroke="#000" d="M383.875 151.83v-14.522"/><use xlink:href="#e" transform="matrix(17.425 0 0 -17.425 378.462 154.855)"/><path stroke-width=".326" stroke-miterlimit="10" fill="none" stroke="#000" d="M406.357 151.83v-14.522"/><use xlink:href="#u" transform="matrix(17.425 0 0 -17.425 400.811 154.942)"/><use xlink:href="#h" transform="matrix(7.98646 0 0 -7.98646 377.355 44.45)"/><use xlink:href="#i" transform="matrix(7.98646 0 0 -7.98646 379.687 42.741)"/><use xlink:href="#i" transform="matrix(7.98646 0 0 -7.98646 381.684 42.741)"/><use xlink:href="#j" transform="matrix(7.98646 0 0 -7.98646 383.86 44.45)"/><path d="M110.677 52.362c3.203 3.267 12.599 3.267 15.802 0l-.164-.117c-3.039 2.295-12.435 2.295-15.474 0l-.164.117M115.375 110.626c2.135-2.722 8.969-2.722 11.104 0l-.178.101c-1.957-1.734-8.79-1.734-10.748 0l-.178-.1M115.375 119.52c1.281 3.267 5.552 3.267 6.833 0l-.202-.057c-1.079 2.235-5.35 2.235-6.428 0l-.203.057M110.677 126.055c3.203 3.267 12.599 3.267 15.802 0l-.164-.117c-3.039 2.295-12.435 2.295-15.474 0l-.164.117M110.677 155.822c3.203 3.994 12.599 3.994 15.802 0l-.176-.102c-3.027 3.007-12.423 3.007-15.45 0l-.176.102M199.297 110.626c2.135-2.722 8.542-2.722 10.677 0l-.178.101c-1.957-1.734-8.364-1.734-10.321 0l-.178-.1M199.297 119.52c1.281 3.267 5.125 3.267 6.406 0l-.203-.057c-1.078 2.235-4.922 2.235-6 0l-.203.057M194.599 126.055c2.99 3.267 12.385 3.267 15.375 0l-.169-.112c-2.82 2.29-12.216 2.29-15.038 0l-.168.112M194.599 155.822c2.99 3.994 12.385 3.994 15.375 0l-.18-.097c-2.81 3.002-12.206 3.002-15.015 0l-.18.097M282.792 110.626c1.922-2.722 8.114-2.722 10.036 0l-.183.094c-1.739-1.727-7.931-1.727-9.67 0l-.183-.094M282.792 119.52c1.067 3.267 4.484 3.267 5.552 0l-.206-.048c-.862 2.226-4.279 2.226-5.14 0l-.206.048M278.094 126.055c2.99 3.267 11.745 3.267 14.734 0l-.168-.112c-2.822 2.29-11.577 2.29-14.398 0l-.168.112M278.094 155.822c2.99 3.994 11.745 3.994 14.734 0l-.18-.097c-2.81 3.002-11.565 3.002-14.374 0l-.18.097M390.844 39.111c2.135-3.63 8.541-3.63 10.677 0l-.191.081c-1.945-2.622-8.35-2.622-10.295 0l-.191-.08M387.64 110.626c2.777-2.722 11.105-2.722 13.88 0l-.16.12c-2.615-1.753-10.943-1.753-13.558 0l-.161-.12M387.64 119.52c1.923 3.267 7.475 3.267 9.397 0l-.191-.08c-1.731 2.258-7.284 2.258-9.014 0l-.191.08M383.156 126.055c3.63 3.267 14.735 3.267 18.365 0l-.155-.125c-3.475 2.303-14.58 2.303-18.054 0l-.156.125M383.156 155.822c3.63 3.994 14.735 3.994 18.365 0l-.17-.11c-3.46 3.015-14.564 3.015-18.026 0l-.169.11"/><path stroke-width=".326" stroke-miterlimit="10" fill="none" stroke="#000" d="M75.23 72.69h56.374M148.688 72.69h46.979M224.281 72.69h182.151"/><path d="M66.901 48.368c14.094 12.161 45.057 14.703 61.5 5.083-16.319 8.536-47.282 5.995-61.5-5.083M140.573 48.368c15.375 13.25 51.677 18.151 71.323 9.62-19.445 7.456-55.747 2.555-71.323-9.62M222.146 51.635C257.38 62.89 363.724 66.701 400.24 57.988c-36.462 7.625-142.806 3.813-178.094-6.353"/><symbol id="x"><path d="M.445.338A.212.212 0 0 0 .548.29a.146.146 0 0 0 .048-.11.165.165 0 0 0-.032-.095A.18.18 0 0 0 .48.021.5.5 0 0 0 .313 0H0v.018h.025c.028 0 .047.009.06.026.007.012.01.036.01.073v.428c0 .04-.004.067-.013.078C.069.637.05.644.025.644H0v.018h.286A.565.565 0 0 0 .415.65.205.205 0 0 0 .526.588.152.152 0 0 0 .535.396a.178.178 0 0 0-.09-.058M.19.364A.409.409 0 0 1 .282.357c.047 0 .083.005.107.016.024.01.042.026.055.047a.132.132 0 0 1 .019.07.127.127 0 0 1-.047.098C.384.616.338.63.277.63A.332.332 0 0 1 .19.62V.364m0-.316A.492.492 0 0 1 .301.035c.06 0 .104.013.135.04C.467.1.482.133.482.172c0 .026-.007.05-.02.074a.14.14 0 0 1-.069.056.295.295 0 0 1-.117.02A1.165 1.165 0 0 1 .189.32V.048z"/></symbol><use xlink:href="#x" transform="matrix(12 0 0 -12 40.95 179)"/><symbol id="y"><path d="M.288.322C.288.283.27.245.234.207A1.322 1.322 0 0 0 .116.109.705.705 0 0 1 0 0v.823h.046V.378c.035.03.077.046.126.046.033 0 .06-.008.081-.025A.092.092 0 0 0 .288.322M.222.313c0 .042-.021.063-.063.063C.124.376.086.359.046.324V.103a.939.939 0 0 1 .097.088c.053.054.079.095.079.122z"/></symbol><use xlink:href="#y" transform="matrix(12 0 0 -12 49.426 179.48)"/><symbol id="z"><path d="M.517 0H0v.041h.517V0z"/></symbol><use xlink:href="#r" transform="matrix(12 0 0 -12 54.285 179.164)"/><use xlink:href="#i" transform="matrix(12 0 0 -12 56.588 179)"/><use xlink:href="#z" transform="matrix(12 0 0 -12 59.488 181.59)"/><use xlink:href="#z" transform="matrix(12 0 0 -12 65.488 181.59)"/><use xlink:href="#i" transform="matrix(12 0 0 -12 71.588 179)"/><use xlink:href="#i" transform="matrix(12 0 0 -12 74.588 179)"/><use xlink:href="#i" transform="matrix(12 0 0 -12 77.588 179)"/><use xlink:href="#i" transform="matrix(12 0 0 -12 80.588 179)"/><use xlink:href="#z" transform="matrix(12 0 0 -12 83.488 181.59)"/><use xlink:href="#z" transform="matrix(12 0 0 -12 89.488 181.59)"/><use xlink:href="#i" transform="matrix(12 0 0 -12 95.588 179)"/><use xlink:href="#i" transform="matrix(12 0 0 -12 98.588 179)"/><use xlink:href="#z" transform="matrix(12 0 0 -12 101.488 181.59)"/><use xlink:href="#z" transform="matrix(12 0 0 -12 107.488 181.59)"/><use xlink:href="#i" transform="matrix(12 0 0 -12 113.588 179)"/><use xlink:href="#i" transform="matrix(12 0 0 -12 116.588 179)"/><use xlink:href="#i" transform="matrix(12 0 0 -12 119.588 179)"/><use xlink:href="#i" transform="matrix(12 0 0 -12 122.588 179)"/><use xlink:href="#i" transform="matrix(12 0 0 -12 125.588 179)"/><use xlink:href="#i" transform="matrix(12 0 0 -12 128.588 179)"/><use xlink:href="#i" transform="matrix(12 0 0 -12 131.588 179)"/><use xlink:href="#i" transform="matrix(12 0 0 -12 134.588 179)"/><use xlink:href="#i" transform="matrix(12 0 0 -12 137.588 179)"/><use xlink:href="#i" transform="matrix(12 0 0 -12 140.588 179)"/><use xlink:href="#i" transform="matrix(12 0 0 -12 143.588 179)"/><use xlink:href="#i" transform="matrix(12 0 0 -12 146.588 179)"/><use xlink:href="#i" transform="matrix(12 0 0 -12 149.588 179)"/><use xlink:href="#i" transform="matrix(12 0 0 -12 152.588 179)"/><use xlink:href="#i" transform="matrix(12 0 0 -12 155.588 179)"/><use xlink:href="#i" transform="matrix(12 0 0 -12 158.588 179)"/><use xlink:href="#z" transform="matrix(12 0 0 -12 161.488 181.59)"/><use xlink:href="#z" transform="matrix(12 0 0 -12 167.488 181.59)"/><use xlink:href="#i" transform="matrix(12 0 0 -12 173.588 179)"/><use xlink:href="#i" transform="matrix(12 0 0 -12 176.588 179)"/><use xlink:href="#i" transform="matrix(12 0 0 -12 179.588 179)"/><use xlink:href="#i" transform="matrix(12 0 0 -12 182.588 179)"/><use xlink:href="#z" transform="matrix(12 0 0 -12 185.488 181.59)"/><use xlink:href="#z" transform="matrix(12 0 0 -12 191.488 181.59)"/><use xlink:href="#i" transform="matrix(12 0 0 -12 197.588 179)"/><use xlink:href="#i" transform="matrix(12 0 0 -12 200.588 179)"/><use xlink:href="#i" transform="matrix(12 0 0 -12 203.588 179)"/><use xlink:href="#i" transform="matrix(12 0 0 -12 206.588 179)"/><use xlink:href="#i" transform="matrix(12 0 0 -12 209.588 179)"/><use xlink:href="#i" transform="matrix(12 0 0 -12 212.588 179)"/><use xlink:href="#i" transform="matrix(12 0 0 -12 215.588 179)"/><use xlink:href="#i" transform="matrix(12 0 0 -12 218.588 179)"/><use xlink:href="#i" transform="matrix(12 0 0 -12 221.588 179)"/><use xlink:href="#i" transform="matrix(12 0 0 -12 224.588 179)"/><use xlink:href="#i" transform="matrix(12 0 0 -12 227.588 179)"/><use xlink:href="#i" transform="matrix(12 0 0 -12 230.588 179)"/><use xlink:href="#i" transform="matrix(12 0 0 -12 233.588 179)"/><use xlink:href="#i" transform="matrix(12 0 0 -12 236.588 179)"/><use xlink:href="#i" transform="matrix(12 0 0 -12 239.588 179)"/><use xlink:href="#i" transform="matrix(12 0 0 -12 242.588 179)"/><use xlink:href="#i" transform="matrix(12 0 0 -12 245.588 179)"/><use xlink:href="#i" transform="matrix(12 0 0 -12 248.588 179)"/><use xlink:href="#z" transform="matrix(12 0 0 -12 251.488 181.59)"/><use xlink:href="#z" transform="matrix(12 0 0 -12 257.488 181.59)"/><use xlink:href="#i" transform="matrix(12 0 0 -12 263.588 179)"/><use xlink:href="#i" transform="matrix(12 0 0 -12 266.588 179)"/><use xlink:href="#z" transform="matrix(12 0 0 -12 269.488 181.59)"/><use xlink:href="#z" transform="matrix(12 0 0 -12 275.488 181.59)"/><use xlink:href="#i" transform="matrix(12 0 0 -12 281.588 179)"/><use xlink:href="#i" transform="matrix(12 0 0 -12 284.588 179)"/><use xlink:href="#i" transform="matrix(12 0 0 -12 287.588 179)"/><use xlink:href="#i" transform="matrix(12 0 0 -12 290.588 179)"/><use xlink:href="#i" transform="matrix(12 0 0 -12 293.588 179)"/><use xlink:href="#i" transform="matrix(12 0 0 -12 296.588 179)"/><use xlink:href="#i" transform="matrix(12 0 0 -12 299.588 179)"/><use xlink:href="#i" transform="matrix(12 0 0 -12 302.588 179)"/><use xlink:href="#i" transform="matrix(12 0 0 -12 305.588 179)"/><use xlink:href="#i" transform="matrix(12 0 0 -12 308.588 179)"/><use xlink:href="#i" transform="matrix(12 0 0 -12 311.588 179)"/><use xlink:href="#i" transform="matrix(12 0 0 -12 314.588 179)"/><use xlink:href="#i" transform="matrix(12 0 0 -12 317.588 179)"/><use xlink:href="#i" transform="matrix(12 0 0 -12 320.588 179)"/><use xlink:href="#i" transform="matrix(12 0 0 -12 323.588 179)"/><use xlink:href="#i" transform="matrix(12 0 0 -12 326.588 179)"/><use xlink:href="#i" transform="matrix(12 0 0 -12 329.588 179)"/><use xlink:href="#i" transform="matrix(12 0 0 -12 332.588 179)"/><use xlink:href="#i" transform="matrix(12 0 0 -12 335.588 179)"/><use xlink:href="#i" transform="matrix(12 0 0 -12 338.588 179)"/><use xlink:href="#i" transform="matrix(12 0 0 -12 341.588 179)"/><use xlink:href="#i" transform="matrix(12 0 0 -12 344.588 179)"/><use xlink:href="#z" transform="matrix(12 0 0 -12 347.488 181.59)"/><use xlink:href="#z" transform="matrix(12 0 0 -12 353.488 181.59)"/><use xlink:href="#i" transform="matrix(12 0 0 -12 359.588 179)"/><use xlink:href="#i" transform="matrix(12 0 0 -12 362.588 179)"/><use xlink:href="#i" transform="matrix(12 0 0 -12 365.588 179)"/><use xlink:href="#i" transform="matrix(12 0 0 -12 368.588 179)"/><use xlink:href="#i" transform="matrix(12 0 0 -12 371.588 179)"/><use xlink:href="#z" transform="matrix(12 0 0 -12 374.488 181.59)"/><use xlink:href="#z" transform="matrix(12 0 0 -12 380.488 181.59)"/><use xlink:href="#i" transform="matrix(12 0 0 -12 386.588 179)"/><use xlink:href="#i" transform="matrix(12 0 0 -12 389.588 179)"/><use xlink:href="#i" transform="matrix(12 0 0 -12 392.588 179)"/><use xlink:href="#i" transform="matrix(12 0 0 -12 395.588 179)"/><symbol id="A"><path d="M0 0v.716h.095V.084h.352V0H0z"/></symbol><symbol id="B"><path d="M.384.179.475.167a.222.222 0 0 0-.08-.123A.24.24 0 0 0 .248 0a.238.238 0 0 0-.18.07A.275.275 0 0 0 0 .267C0 .354.022.422.067.47a.228.228 0 0 0 .175.072c.07 0 .126-.024.17-.07a.281.281 0 0 0 .066-.2.82.82 0 0 0 0-.023H.09A.2.2 0 0 1 .139.118.144.144 0 0 1 .248.072c.032 0 .06.009.082.026.023.017.04.044.054.08M.096.322h.29a.176.176 0 0 1-.034.098.135.135 0 0 1-.109.05.14.14 0 0 1-.102-.04.161.161 0 0 1-.045-.108z"/></symbol><symbol id="C"><path d="M.368.076A.27.27 0 0 0 .178 0C.12 0 .075.014.045.042A.139.139 0 0 0 0 .148a.142.142 0 0 0 .063.12c.018.013.04.023.063.03A.628.628 0 0 0 .204.31a.803.803 0 0 1 .157.03v.023C.361.4.353.424.336.439.314.46.281.47.236.47.195.47.164.462.145.447.125.433.11.407.1.371L.015.382a.21.21 0 0 0 .039.09c.018.022.043.04.077.051A.342.342 0 0 0 .25.542c.044 0 .08-.005.108-.016a.141.141 0 0 0 .061-.04.136.136 0 0 0 .027-.059.495.495 0 0 0 .005-.08V.228C.45.147.45.096.455.074A.2.2 0 0 1 .478.012H.386a.186.186 0 0 0-.018.064M.361.272A.645.645 0 0 0 .217.239.332.332 0 0 1 .141.22a.076.076 0 0 1-.047-.07C.094.127.103.108.12.092.138.077.164.07.198.07s.064.007.09.022a.138.138 0 0 1 .059.06c.01.02.014.05.014.089v.032z"/></symbol><symbol id="D"><path d="M.368.012v.065A.161.161 0 0 0 .223 0 .205.205 0 0 0 .11.034a.227.227 0 0 0-.08.095A.334.334 0 0 0 0 .271c0 .051.009.098.026.14a.204.204 0 0 0 .193.131.171.171 0 0 0 .143-.071v.257H.45V.012H.368M.09.27C.09.204.104.154.132.12a.127.127 0 0 1 .1-.049c.038 0 .07.016.097.047.027.032.04.08.04.144C.37.334.357.386.33.42a.126.126 0 0 1-.2.002C.103.39.09.34.09.271z"/></symbol><symbol id="E"><path d="M0 0v.088h.27V0H0z"/></symbol><symbol id="F"><path d="M0 .167.087.18A.122.122 0 0 1 .127.1.143.143 0 0 1 .221.072c.04 0 .07.008.09.025.02.016.03.036.03.058C.34.175.33.19.313.202a.381.381 0 0 1-.09.03.854.854 0 0 0-.134.041.134.134 0 0 0-.056.05.133.133 0 0 0-.02.07c0 .023.006.044.016.064.011.02.026.036.044.049.013.01.032.018.055.025A.298.298 0 0 0 .312.524.145.145 0 0 0 .382.477a.184.184 0 0 0 .03-.08L.325.384a.094.094 0 0 1-.034.062.123.123 0 0 1-.08.023C.172.47.144.463.126.45.108.436.1.42.1.403.1.39.103.38.11.373A.078.078 0 0 1 .144.348C.153.345.179.338.222.326.284.31.327.296.352.286A.13.13 0 0 0 .41.238.148.148 0 0 0 .405.081.166.166 0 0 0 .33.021.272.272 0 0 0 .221 0a.245.245 0 0 0-.154.042A.196.196 0 0 0 0 .167z"/></symbol><symbol id="G"><path d="M0 0v.716h.088V.459A.196.196 0 0 0 .243.53a.208.208 0 0 0 .1-.023.13.13 0 0 0 .06-.062.286.286 0 0 0 .02-.116V0H.333v.329c0 .044-.01.075-.028.095-.02.02-.046.03-.08.03A.142.142 0 0 1 .15.435.113.113 0 0 1 .103.38.252.252 0 0 1 .088.284V0H0z"/></symbol><symbol id="H"><path d="M.24.085.253.008A.326.326 0 0 0 .187 0a.15.15 0 0 0-.075.015.085.085 0 0 0-.037.04.317.317 0 0 0-.01.104v.298H0v.068h.064v.129l.088.053V.525H.24V.457H.152V.154c0-.025.001-.041.004-.049A.038.038 0 0 1 .171.088a.06.06 0 0 1 .03-.006l.04.003z"/></symbol><symbol id="I"><path d="M0 .418v.1h.1v-.1H0M0 0v.1h.1V0H0z"/></symbol><use xlink:href="#A" transform="matrix(9 0 0 -9 9.41 88.5)"/><use xlink:href="#B" transform="matrix(9 0 0 -9 14.085 88.605)"/><use xlink:href="#C" transform="matrix(9 0 0 -9 19.087 88.605)"/><use xlink:href="#D" transform="matrix(9 0 0 -9 24.075 88.605)"/><use xlink:href="#E" transform="matrix(9 0 0 -9 29.059 86.566)"/><use xlink:href="#F" transform="matrix(9 0 0 -9 32.047 88.605)"/><use xlink:href="#G" transform="matrix(9 0 0 -9 36.863 88.5)"/><use xlink:href="#B" transform="matrix(9 0 0 -9 41.606 88.605)"/><use xlink:href="#B" transform="matrix(9 0 0 -9 46.611 88.605)"/><use xlink:href="#H" transform="matrix(9 0 0 -9 51.446 88.562)"/><use xlink:href="#I" transform="matrix(9 0 0 -9 54.6 88.5)"/><use xlink:href="#i" transform="matrix(12 0 0 -12 56.285 88.5)"/><use xlink:href="#i" transform="matrix(12 0 0 -12 59.285 88.5)"/><use xlink:href="#z" transform="matrix(12 0 0 -12 62.186 91.09)"/><use xlink:href="#z" transform="matrix(12 0 0 -12 68.186 91.09)"/><use xlink:href="#i" transform="matrix(12 0 0 -12 74.285 88.5)"/><use xlink:href="#i" transform="matrix(12 0 0 -12 77.285 88.5)"/><use xlink:href="#i" transform="matrix(12 0 0 -12 80.285 88.5)"/><use xlink:href="#i" transform="matrix(12 0 0 -12 83.285 88.5)"/><use xlink:href="#z" transform="matrix(12 0 0 -12 86.186 91.09)"/><use xlink:href="#z" transform="matrix(12 0 0 -12 92.186 91.09)"/><use xlink:href="#i" transform="matrix(12 0 0 -12 98.285 88.5)"/><use xlink:href="#i" transform="matrix(12 0 0 -12 101.285 88.5)"/><use xlink:href="#z" transform="matrix(12 0 0 -12 104.186 91.09)"/><use xlink:href="#z" transform="matrix(12 0 0 -12 110.186 91.09)"/><use xlink:href="#i" transform="matrix(12 0 0 -12 116.285 88.5)"/><use xlink:href="#i" transform="matrix(12 0 0 -12 119.285 88.5)"/><use xlink:href="#i" transform="matrix(12 0 0 -12 122.285 88.5)"/><use xlink:href="#i" transform="matrix(12 0 0 -12 125.285 88.5)"/><use xlink:href="#i" transform="matrix(12 0 0 -12 128.285 88.5)"/><use xlink:href="#i" transform="matrix(12 0 0 -12 131.285 88.5)"/><use xlink:href="#i" transform="matrix(12 0 0 -12 134.285 88.5)"/><use xlink:href="#i" transform="matrix(12 0 0 -12 137.285 88.5)"/><use xlink:href="#i" transform="matrix(12 0 0 -12 140.285 88.5)"/><use xlink:href="#i" transform="matrix(12 0 0 -12 143.285 88.5)"/><use xlink:href="#i" transform="matrix(12 0 0 -12 146.285 88.5)"/><use xlink:href="#i" transform="matrix(12 0 0 -12 149.285 88.5)"/><use xlink:href="#i" transform="matrix(12 0 0 -12 152.285 88.5)"/><use xlink:href="#i" transform="matrix(12 0 0 -12 155.285 88.5)"/><use xlink:href="#i" transform="matrix(12 0 0 -12 158.285 88.5)"/><use xlink:href="#i" transform="matrix(12 0 0 -12 161.285 88.5)"/><use xlink:href="#z" transform="matrix(12 0 0 -12 164.186 91.09)"/><use xlink:href="#z" transform="matrix(12 0 0 -12 170.186 91.09)"/><use xlink:href="#i" transform="matrix(12 0 0 -12 176.285 88.5)"/><use xlink:href="#i" transform="matrix(12 0 0 -12 179.285 88.5)"/><use xlink:href="#i" transform="matrix(12 0 0 -12 182.285 88.5)"/><use xlink:href="#i" transform="matrix(12 0 0 -12 185.285 88.5)"/><use xlink:href="#z" transform="matrix(12 0 0 -12 188.186 91.09)"/><use xlink:href="#z" transform="matrix(12 0 0 -12 194.186 91.09)"/><use xlink:href="#i" transform="matrix(12 0 0 -12 200.285 88.5)"/><use xlink:href="#i" transform="matrix(12 0 0 -12 203.285 88.5)"/><use xlink:href="#i" transform="matrix(12 0 0 -12 206.285 88.5)"/><use xlink:href="#i" transform="matrix(12 0 0 -12 209.285 88.5)"/><use xlink:href="#i" transform="matrix(12 0 0 -12 212.285 88.5)"/><use xlink:href="#i" transform="matrix(12 0 0 -12 215.285 88.5)"/><use xlink:href="#i" transform="matrix(12 0 0 -12 218.285 88.5)"/><use xlink:href="#i" transform="matrix(12 0 0 -12 221.285 88.5)"/><use xlink:href="#i" transform="matrix(12 0 0 -12 224.285 88.5)"/><use xlink:href="#i" transform="matrix(12 0 0 -12 227.285 88.5)"/><use xlink:href="#i" transform="matrix(12 0 0 -12 230.285 88.5)"/><use xlink:href="#i" transform="matrix(12 0 0 -12 233.285 88.5)"/><use xlink:href="#i" transform="matrix(12 0 0 -12 236.285 88.5)"/><use xlink:href="#i" transform="matrix(12 0 0 -12 239.285 88.5)"/><use xlink:href="#i" transform="matrix(12 0 0 -12 242.285 88.5)"/><use xlink:href="#i" transform="matrix(12 0 0 -12 245.285 88.5)"/><use xlink:href="#i" transform="matrix(12 0 0 -12 248.285 88.5)"/><use xlink:href="#i" transform="matrix(12 0 0 -12 251.285 88.5)"/><use xlink:href="#z" transform="matrix(12 0 0 -12 254.186 91.09)"/><use xlink:href="#z" transform="matrix(12 0 0 -12 260.186 91.09)"/><use xlink:href="#i" transform="matrix(12 0 0 -12 266.285 88.5)"/><use xlink:href="#i" transform="matrix(12 0 0 -12 269.285 88.5)"/><use xlink:href="#z" transform="matrix(12 0 0 -12 272.186 91.09)"/><use xlink:href="#z" transform="matrix(12 0 0 -12 278.186 91.09)"/><use xlink:href="#i" transform="matrix(12 0 0 -12 284.285 88.5)"/><use xlink:href="#i" transform="matrix(12 0 0 -12 287.285 88.5)"/><use xlink:href="#i" transform="matrix(12 0 0 -12 290.285 88.5)"/><use xlink:href="#i" transform="matrix(12 0 0 -12 293.285 88.5)"/><use xlink:href="#i" transform="matrix(12 0 0 -12 296.285 88.5)"/><use xlink:href="#i" transform="matrix(12 0 0 -12 299.285 88.5)"/><use xlink:href="#i" transform="matrix(12 0 0 -12 302.285 88.5)"/><use xlink:href="#i" transform="matrix(12 0 0 -12 305.285 88.5)"/><use xlink:href="#i" transform="matrix(12 0 0 -12 308.285 88.5)"/><use xlink:href="#i" transform="matrix(12 0 0 -12 311.285 88.5)"/><use xlink:href="#i" transform="matrix(12 0 0 -12 314.285 88.5)"/><use xlink:href="#i" transform="matrix(12 0 0 -12 317.285 88.5)"/><use xlink:href="#i" transform="matrix(12 0 0 -12 320.285 88.5)"/><use xlink:href="#i" transform="matrix(12 0 0 -12 323.285 88.5)"/><use xlink:href="#i" transform="matrix(12 0 0 -12 326.285 88.5)"/><use xlink:href="#i" transform="matrix(12 0 0 -12 329.285 88.5)"/><use xlink:href="#i" transform="matrix(12 0 0 -12 332.285 88.5)"/><use xlink:href="#i" transform="matrix(12 0 0 -12 335.285 88.5)"/><use xlink:href="#i" transform="matrix(12 0 0 -12 338.285 88.5)"/><use xlink:href="#i" transform="matrix(12 0 0 -12 341.285 88.5)"/><use xlink:href="#i" transform="matrix(12 0 0 -12 344.285 88.5)"/><use xlink:href="#i" transform="matrix(12 0 0 -12 347.285 88.5)"/><use xlink:href="#z" transform="matrix(12 0 0 -12 350.186 91.09)"/><use xlink:href="#z" transform="matrix(12 0 0 -12 356.186 91.09)"/><use xlink:href="#i" transform="matrix(12 0 0 -12 362.285 88.5)"/><use xlink:href="#i" transform="matrix(12 0 0 -12 365.285 88.5)"/><use xlink:href="#i" transform="matrix(12 0 0 -12 368.285 88.5)"/><use xlink:href="#i" transform="matrix(12 0 0 -12 371.285 88.5)"/><use xlink:href="#i" transform="matrix(12 0 0 -12 374.285 88.5)"/><use xlink:href="#z" transform="matrix(12 0 0 -12 377.186 91.09)"/><use xlink:href="#z" transform="matrix(12 0 0 -12 383.186 91.09)"/><symbol id="J"><path d="m0 .597.161.079h.016v-.56C.177.08.18.057.182.048a.037.037 0 0 1 .02-.02A.164.164 0 0 1 .26.017V0H.01v.018c.032 0 .052.003.061.008.01.005.016.011.02.019a.262.262 0 0 1 .005.072v.357c0 .048-.002.08-.005.093A.038.038 0 0 1 .079.59a.032.032 0 0 1-.021.007.13.13 0 0 1-.05-.015L0 .597z"/></symbol><symbol id="K"><path d="M.437.127.391 0H0v.018c.115.105.196.19.243.257.047.066.07.127.07.182a.144.144 0 0 1-.039.104.123.123 0 0 1-.092.04.144.144 0 0 1-.088-.029A.165.165 0 0 1 .037.49H.02c.008.06.029.106.063.138a.176.176 0 0 0 .126.049.186.186 0 0 0 .134-.052.163.163 0 0 0 .054-.122.236.236 0 0 0-.023-.1.663.663 0 0 0-.117-.168 3.477 3.477 0 0 0-.152-.16h.173c.035 0 .06.001.074.004a.099.099 0 0 1 .038.015c.012.008.021.02.03.034h.018z"/></symbol><symbol id="L"><path d="M.156.46v-.1c.037.067.076.1.115.1A.062.062 0 0 0 .315.444.05.05 0 0 0 .333.406.045.045 0 0 0 .32.374.04.04 0 0 0 .29.361C.279.36.266.366.251.377.237.39.227.395.221.395.213.395.207.39.2.385A.235.235 0 0 1 .156.319V.104C.156.08.159.061.165.048A.05.05 0 0 1 .187.026.099.099 0 0 1 .234.018V0h-.23v.018c.024 0 .04.003.052.01a.042.042 0 0 1 .017.025.251.251 0 0 1 .002.048v.173a.663.663 0 0 1-.003.093.035.035 0 0 1-.012.022.032.032 0 0 1-.02.007.097.097 0 0 1-.035-.008L0 .406.135.46h.02z"/></symbol><symbol id="M"><path d="M.156.366C.208.429.258.46.306.46A.107.107 0 0 0 .369.442.121.121 0 0 0 .41.382c.007-.02.01-.05.01-.09v-.19A.16.16 0 0 1 .428.042.04.04 0 0 1 .445.024.1.1 0 0 1 .49.018V0H.269v.018h.009c.02 0 .035.003.043.009A.05.05 0 0 1 .34.055C.34.06.34.075.34.101v.183c0 .04-.006.07-.016.089C.315.39.297.4.27.4.233.4.194.38.156.337V.1c0-.03.002-.049.005-.056A.047.047 0 0 1 .18.024.122.122 0 0 1 .229.018V0H.007v.018h.01c.023 0 .038.005.046.017C.071.046.075.069.075.1v.166a.677.677 0 0 1-.004.098C.07.377.065.385.061.39A.03.03 0 0 1 .04.396.094.094 0 0 1 .007.388L0 .406.135.46h.02V.366z"/></symbol><symbol id="N"><path d="M.474.441h.205V.423A.12.12 0 0 1 .616.404.36.36 0 0 1 .553.312 1.04 1.04 0 0 0 .456.167.343.343 0 0 1 .534.095a.135.135 0 0 1 .069-.02.09.09 0 0 1 .057.018.1.1 0 0 1 .033.054L.71.134A.188.188 0 0 0 .653.033.143.143 0 0 0 .56 0a.177.177 0 0 0-.082.021.372.372 0 0 0-.09.074.428.428 0 0 0-.11-.074A.262.262 0 0 0 .176 0a.183.183 0 0 0-.128.043A.134.134 0 0 0 0 .146a.2.2 0 0 0 .042.117c.029.04.082.08.16.122a.54.54 0 0 0-.031.083.254.254 0 0 0-.008.063c0 .055.02.098.061.127a.183.183 0 0 0 .109.034c.039 0 .07-.011.095-.034A.11.11 0 0 0 .464.573.13.13 0 0 0 .43.483.453.453 0 0 0 .304.396C.345.323.388.256.434.195.49.263.518.32.518.368a.06.06 0 0 1-.015.04.045.045 0 0 1-.03.015v.018M.287.43c.04.019.07.04.09.065.02.025.03.052.03.082a.08.08 0 0 1-.021.058.07.07 0 0 1-.054.023.075.075 0 0 1-.064-.03.098.098 0 0 1-.022-.058C.246.553.25.535.254.516A.82.82 0 0 1 .287.429M.363.124a1.292 1.292 0 0 0-.144.229A.282.282 0 0 1 .13.278.147.147 0 0 1 .101.19C.101.156.112.125.135.1a.113.113 0 0 1 .09-.04c.021 0 .04.004.06.012C.304.08.33.097.363.124z"/></symbol><symbol id="O"><path d="M0 .447h.21V.43C.197.43.188.427.182.422A.023.023 0 0 1 .174.404c0-.008.006-.02.017-.036L.208.344.239.293l.037.05C.299.377.31.397.31.406a.021.021 0 0 1-.008.017C.297.427.288.429.276.429v.018h.151V.43A.082.082 0 0 1 .386.416.346.346 0 0 1 .32.344L.26.262l.11-.16A.339.339 0 0 1 .43.031.09.09 0 0 1 .474.018V0H.264v.018c.014 0 .026.003.034.01.006.004.01.01.01.017 0 .008-.011.027-.032.057L.21.198.14.102A.188.188 0 0 1 .105.05C.105.042.11.034.116.028A.055.055 0 0 1 .15.018V0H.003v.018A.066.066 0 0 1 .034.03c.013.01.033.033.063.072L.19.227.105.35A.267.267 0 0 1 .05.416.084.084 0 0 1 0 .429v.018z"/></symbol><symbol id="P"><path d="M.01.548A.268.268 0 0 0 .082.65a.162.162 0 0 0 .107.036.149.149 0 0 0 .123-.051.127.127 0 0 0 .032-.083c0-.048-.03-.098-.091-.15A.197.197 0 0 0 .345.336.177.177 0 0 0 .376.231.22.22 0 0 0 .322.082C.274.027.205 0 .115 0 .071 0 .04.006.024.017.008.027 0 .04 0 .052c0 .01.004.018.011.025a.04.04 0 0 0 .028.01.084.084 0 0 0 .025-.003.285.285 0 0 0 .038-.018.245.245 0 0 1 .04-.018.135.135 0 0 1 .039-.006c.033 0 .062.013.086.04a.127.127 0 0 1 .037.09A.176.176 0 0 1 .26.29a.199.199 0 0 1-.057.035.184.184 0 0 1-.075.016H.111v.015a.2.2 0 0 1 .077.028.147.147 0 0 1 .057.055.145.145 0 0 1 .018.07.108.108 0 0 1-.11.113C.103.621.06.594.026.54L.01.548z"/></symbol><symbol id="Q"><path d="M.45.244v-.07H.36V0H.28v.175H0v.062l.307.439h.054V.244H.45m-.17 0v.329L.048.244H.28z"/></symbol><symbol id="R"><path d="M.377.184a.244.244 0 0 0-.07-.137A.17.17 0 0 0 .188 0a.172.172 0 0 0-.132.064A.251.251 0 0 0 0 .237c0 .07.02.127.063.171a.201.201 0 0 0 .15.066C.257.474.293.462.322.44.35.416.364.392.364.367a.04.04 0 0 0-.012-.03A.046.046 0 0 0 .32.324c-.02 0-.034.006-.044.019C.27.35.266.364.265.383a.063.063 0 0 1-.02.044.07.07 0 0 1-.048.014A.097.097 0 0 1 .12.405.192.192 0 0 1 .079.28c0-.054.013-.1.04-.142a.121.121 0 0 1 .106-.06c.032 0 .06.01.086.032A.22.22 0 0 1 .363.19L.377.184z"/></symbol><symbol id="S"><path d="M.156.694V.367a.37.37 0 0 0 .086.076.133.133 0 0 0 .064.017A.104.104 0 0 0 .37.44a.124.124 0 0 0 .04-.066.467.467 0 0 0 .01-.115V.101C.42.073.423.053.428.043A.038.038 0 0 1 .444.024.094.094 0 0 1 .487.018V0h-.22v.018h.01C.3.018.314.02.322.027a.052.052 0 0 1 .017.028C.34.06.34.075.34.101V.26C.34.31.337.34.332.355a.062.062 0 0 1-.064.046.113.113 0 0 1-.05-.012.238.238 0 0 1-.062-.052V.101c0-.03.002-.05.005-.057a.045.045 0 0 1 .02-.02.114.114 0 0 1 .048-.006V0H.007v.018c.02 0 .035.003.047.009.006.003.011.01.015.018.004.01.006.028.006.056v.405A.633.633 0 0 1 .071.6C.07.612.065.62.061.624A.03.03 0 0 1 .04.63.12.12 0 0 1 .007.623L0 .64l.134.054h.022z"/></symbol><symbol id="T"><path d="M.386.674.348.59h-.2L.106.502A.349.349 0 0 0 .311.406.216.216 0 0 0 .375.25.22.22 0 0 0 .354.153.257.257 0 0 0 .229.027.264.264 0 0 0 .114 0C.074 0 .045.007.027.02.009.034 0 .049 0 .065c0 .01.004.017.011.024a.04.04 0 0 0 .029.01.056.056 0 0 0 .022-.003.198.198 0 0 0 .032-.02A.13.13 0 0 1 .168.05c.039 0 .072.015.1.043A.144.144 0 0 1 .313.2c0 .04-.013.077-.039.112a.247.247 0 0 1-.106.08.432.432 0 0 1-.145.026l.127.257h.237z"/></symbol><use xlink:href="#J" transform="matrix(11 0 0 -11 77.79 16.25)"/><use xlink:href="#i" transform="matrix(11 0 0 -11 82 16.25)"/><use xlink:href="#i" transform="matrix(11 0 0 -11 84.75 16.25)"/><use xlink:href="#i" transform="matrix(11 0 0 -11 87.5 16.25)"/><use xlink:href="#i" transform="matrix(11 0 0 -11 90.25 16.25)"/><use xlink:href="#i" transform="matrix(11 0 0 -11 93 16.25)"/><use xlink:href="#i" transform="matrix(11 0 0 -11 95.75 16.25)"/><use xlink:href="#i" transform="matrix(11 0 0 -11 98.5 16.25)"/><use xlink:href="#i" transform="matrix(11 0 0 -11 101.25 16.25)"/><use xlink:href="#i" transform="matrix(11 0 0 -11 104 16.25)"/><use xlink:href="#i" transform="matrix(11 0 0 -11 106.75 16.25)"/><use xlink:href="#K" transform="matrix(11 0 0 -11 109.736 16.25)"/><use xlink:href="#i" transform="matrix(11 0 0 -11 115 16.25)"/><use xlink:href="#i" transform="matrix(11 0 0 -11 117.75 16.25)"/><use xlink:href="#i" transform="matrix(11 0 0 -11 120.5 16.25)"/><use xlink:href="#i" transform="matrix(11 0 0 -11 123.25 16.25)"/><use xlink:href="#i" transform="matrix(11 0 0 -11 126 16.25)"/><use xlink:href="#i" transform="matrix(11 0 0 -11 128.75 16.25)"/><use xlink:href="#i" transform="matrix(11 0 0 -11 131.5 16.25)"/><use xlink:href="#i" transform="matrix(11 0 0 -11 134.25 16.25)"/><use xlink:href="#i" transform="matrix(11 0 0 -11 137 16.25)"/><use xlink:href="#i" transform="matrix(11 0 0 -11 139.75 16.25)"/><use xlink:href="#i" transform="matrix(11 0 0 -11 142.5 16.25)"/><use xlink:href="#i" transform="matrix(11 0 0 -11 145.25 16.25)"/><use xlink:href="#J" transform="matrix(11 0 0 -11 149.29 16.25)"/><use xlink:href="#i" transform="matrix(11 0 0 -11 153.5 16.25)"/><use xlink:href="#i" transform="matrix(11 0 0 -11 156.25 16.25)"/><use xlink:href="#i" transform="matrix(11 0 0 -11 159 16.25)"/><use xlink:href="#i" transform="matrix(11 0 0 -11 161.75 16.25)"/><use xlink:href="#K" transform="matrix(11 0 0 -11 164.736 16.25)"/><use xlink:href="#i" transform="matrix(11 0 0 -11 170 16.25)"/><use xlink:href="#l" transform="matrix(11 0 0 -11 173.12 16.4)"/><use xlink:href="#L" transform="matrix(11 0 0 -11 178.32 16.25)"/><use xlink:href="#M" transform="matrix(11 0 0 -11 181.977 16.25)"/><use xlink:href="#i" transform="matrix(11 0 0 -11 187.413 16.25)"/><use xlink:href="#N" transform="matrix(11 0 0 -11 190.566 16.417)"/><use xlink:href="#i" transform="matrix(11 0 0 -11 198.719 16.25)"/><use xlink:href="#p" transform="matrix(11 0 0 -11 201.877 16.4)"/><use xlink:href="#O" transform="matrix(11 0 0 -11 206.496 16.25)"/><use xlink:href="#m" transform="matrix(11 0 0 -11 211.958 16.33)"/><use xlink:href="#i" transform="matrix(11 0 0 -11 214.906 16.25)"/><use xlink:href="#i" transform="matrix(11 0 0 -11 217.656 16.25)"/><use xlink:href="#i" transform="matrix(11 0 0 -11 220.406 16.25)"/><use xlink:href="#i" transform="matrix(11 0 0 -11 223.156 16.25)"/><use xlink:href="#i" transform="matrix(11 0 0 -11 225.906 16.25)"/><use xlink:href="#P" transform="matrix(11 0 0 -11 229.102 16.379)"/><use xlink:href="#i" transform="matrix(11 0 0 -11 234.156 16.25)"/><use xlink:href="#i" transform="matrix(11 0 0 -11 236.906 16.25)"/><use xlink:href="#i" transform="matrix(11 0 0 -11 239.656 16.25)"/><use xlink:href="#i" transform="matrix(11 0 0 -11 242.406 16.25)"/><use xlink:href="#i" transform="matrix(11 0 0 -11 245.156 16.25)"/><use xlink:href="#i" transform="matrix(11 0 0 -11 247.906 16.25)"/><use xlink:href="#i" transform="matrix(11 0 0 -11 250.656 16.25)"/><use xlink:href="#i" transform="matrix(11 0 0 -11 253.406 16.25)"/><use xlink:href="#i" transform="matrix(11 0 0 -11 256.156 16.25)"/><use xlink:href="#Q" transform="matrix(11 0 0 -11 259.078 16.25)"/><use xlink:href="#i" transform="matrix(11 0 0 -11 264.406 16.25)"/><use xlink:href="#i" transform="matrix(11 0 0 -11 267.156 16.25)"/><use xlink:href="#i" transform="matrix(11 0 0 -11 269.906 16.25)"/><use xlink:href="#i" transform="matrix(11 0 0 -11 272.656 16.25)"/><use xlink:href="#i" transform="matrix(11 0 0 -11 275.406 16.25)"/><use xlink:href="#Q" transform="matrix(11 0 0 -11 278.328 16.25)"/><use xlink:href="#i" transform="matrix(11 0 0 -11 283.656 16.25)"/><use xlink:href="#i" transform="matrix(11 0 0 -11 286.406 16.25)"/><use xlink:href="#i" transform="matrix(11 0 0 -11 289.156 16.25)"/><use xlink:href="#i" transform="matrix(11 0 0 -11 291.906 16.25)"/><use xlink:href="#i" transform="matrix(11 0 0 -11 294.656 16.25)"/><use xlink:href="#Q" transform="matrix(11 0 0 -11 297.578 16.25)"/><use xlink:href="#i" transform="matrix(11 0 0 -11 302.906 16.25)"/><use xlink:href="#i" transform="matrix(11 0 0 -11 305.656 16.25)"/><use xlink:href="#i" transform="matrix(11 0 0 -11 308.406 16.25)"/><use xlink:href="#Q" transform="matrix(11 0 0 -11 311.328 16.25)"/><use xlink:href="#i" transform="matrix(11 0 0 -11 316.656 16.25)"/><use xlink:href="#l" transform="matrix(11 0 0 -11 319.777 16.4)"/><use xlink:href="#L" transform="matrix(11 0 0 -11 324.976 16.25)"/><use xlink:href="#M" transform="matrix(11 0 0 -11 328.634 16.25)"/><use xlink:href="#i" transform="matrix(11 0 0 -11 334.07 16.25)"/><use xlink:href="#i" transform="matrix(11 0 0 -11 336.82 16.25)"/><use xlink:href="#i" transform="matrix(11 0 0 -11 339.57 16.25)"/><use xlink:href="#Q" transform="matrix(11 0 0 -11 342.491 16.25)"/><use xlink:href="#i" transform="matrix(11 0 0 -11 347.82 16.25)"/><use xlink:href="#n" transform="matrix(11 0 0 -11 350.892 16.25)"/><use xlink:href="#M" transform="matrix(11 0 0 -11 353.69 16.25)"/><use xlink:href="#m" transform="matrix(11 0 0 -11 359.233 16.33)"/><use xlink:href="#i" transform="matrix(11 0 0 -11 362.181 16.25)"/><use xlink:href="#R" transform="matrix(11 0 0 -11 365.307 16.4)"/><use xlink:href="#S" transform="matrix(11 0 0 -11 369.883 16.25)"/><use xlink:href="#i" transform="matrix(11 0 0 -11 375.313 16.25)"/><use xlink:href="#i" transform="matrix(11 0 0 -11 378.063 16.25)"/><use xlink:href="#i" transform="matrix(11 0 0 -11 380.813 16.25)"/><use xlink:href="#i" transform="matrix(11 0 0 -11 383.563 16.25)"/><use xlink:href="#T" transform="matrix(11 0 0 -11 386.84 16.379)"/><symbol id="U"><path d="M.284.018V0H0v.018h.023c.028 0 .048.008.06.024.008.01.012.035.012.075v.428A.22.22 0 0 1 .088.61a.044.044 0 0 1-.02.021.093.093 0 0 1-.045.012H0v.018h.284V.644H.26C.233.644.213.636.2.62.194.61.189.585.189.545V.117A.22.22 0 0 1 .195.051.044.044 0 0 1 .215.03.09.09 0 0 1 .26.018h.024z"/></symbol><symbol id="V"><path d="M.701.677V.66A.108.108 0 0 1 .648.637.203.203 0 0 1 .602.563L.372 0H.352L.105.57a.315.315 0 0 1-.027.055.083.083 0 0 1-.03.023A.133.133 0 0 1 0 .659v.018h.27V.66C.24.656.22.651.21.644a.036.036 0 0 1-.013-.03A.22.22 0 0 1 .22.54L.388.15l.156.384a.258.258 0 0 1 .023.078c0 .01-.004.019-.014.027a.092.092 0 0 1-.048.019L.497.659v.018h.204z"/></symbol><use xlink:href="#U" transform="matrix(10 0 0 -10 64.999 178.5)"/><use xlink:href="#i" transform="matrix(10 0 0 -10 68.08 178.5)"/><use xlink:href="#i" transform="matrix(10 0 0 -10 70.58 178.5)"/><use xlink:href="#i" transform="matrix(10 0 0 -10 73.08 178.5)"/><use xlink:href="#i" transform="matrix(10 0 0 -10 75.58 178.5)"/><use xlink:href="#i" transform="matrix(10 0 0 -10 78.08 178.5)"/><use xlink:href="#i" transform="matrix(10 0 0 -10 80.58 178.5)"/><use xlink:href="#i" transform="matrix(10 0 0 -10 83.08 178.5)"/><use xlink:href="#o" transform="matrix(10 0 0 -10 85.663 178.637)"/><use xlink:href="#n" transform="matrix(10 0 0 -10 90.873 178.5)"/><use xlink:href="#i" transform="matrix(10 0 0 -10 93.358 178.5)"/><use xlink:href="#i" transform="matrix(10 0 0 -10 95.858 178.5)"/><use xlink:href="#i" transform="matrix(10 0 0 -10 98.358 178.5)"/><use xlink:href="#i" transform="matrix(10 0 0 -10 100.858 178.5)"/><use xlink:href="#i" transform="matrix(10 0 0 -10 103.358 178.5)"/><use xlink:href="#U" transform="matrix(10 0 0 -10 106.107 178.5)"/><use xlink:href="#i" transform="matrix(10 0 0 -10 109.188 178.5)"/><use xlink:href="#i" transform="matrix(10 0 0 -10 111.688 178.5)"/><use xlink:href="#i" transform="matrix(10 0 0 -10 114.188 178.5)"/><use xlink:href="#i" transform="matrix(10 0 0 -10 116.688 178.5)"/><use xlink:href="#i" transform="matrix(10 0 0 -10 119.188 178.5)"/><use xlink:href="#i" transform="matrix(10 0 0 -10 121.688 178.5)"/><use xlink:href="#i" transform="matrix(10 0 0 -10 124.188 178.5)"/><use xlink:href="#i" transform="matrix(10 0 0 -10 126.688 178.5)"/><use xlink:href="#i" transform="matrix(10 0 0 -10 129.188 178.5)"/><use xlink:href="#i" transform="matrix(10 0 0 -10 131.688 178.5)"/><use xlink:href="#i" transform="matrix(10 0 0 -10 134.188 178.5)"/><use xlink:href="#i" transform="matrix(10 0 0 -10 136.688 178.5)"/><use xlink:href="#i" transform="matrix(10 0 0 -10 139.188 178.5)"/><use xlink:href="#i" transform="matrix(10 0 0 -10 141.688 178.5)"/><use xlink:href="#i" transform="matrix(10 0 0 -10 144.188 178.5)"/><use xlink:href="#i" transform="matrix(10 0 0 -10 146.688 178.5)"/><use xlink:href="#i" transform="matrix(10 0 0 -10 149.188 178.5)"/><use xlink:href="#i" transform="matrix(10 0 0 -10 151.688 178.5)"/><use xlink:href="#i" transform="matrix(10 0 0 -10 154.188 178.5)"/><use xlink:href="#i" transform="matrix(10 0 0 -10 156.688 178.5)"/><use xlink:href="#i" transform="matrix(10 0 0 -10 159.188 178.5)"/><use xlink:href="#i" transform="matrix(10 0 0 -10 161.688 178.5)"/><use xlink:href="#U" transform="matrix(10 0 0 -10 164.437 178.5)"/><use xlink:href="#V" transform="matrix(10 0 0 -10 167.606 178.651)"/><use xlink:href="#i" transform="matrix(10 0 0 -10 174.559 178.5)"/><use xlink:href="#i" transform="matrix(10 0 0 -10 177.059 178.5)"/><use xlink:href="#i" transform="matrix(10 0 0 -10 179.559 178.5)"/><use xlink:href="#i" transform="matrix(10 0 0 -10 182.059 178.5)"/><use xlink:href="#i" transform="matrix(10 0 0 -10 184.559 178.5)"/><use xlink:href="#i" transform="matrix(10 0 0 -10 187.059 178.5)"/><use xlink:href="#U" transform="matrix(10 0 0 -10 189.808 178.5)"/><use xlink:href="#i" transform="matrix(10 0 0 -10 192.889 178.5)"/><use xlink:href="#i" transform="matrix(10 0 0 -10 195.389 178.5)"/><use xlink:href="#i" transform="matrix(10 0 0 -10 197.889 178.5)"/><use xlink:href="#i" transform="matrix(10 0 0 -10 200.389 178.5)"/><use xlink:href="#i" transform="matrix(10 0 0 -10 202.889 178.5)"/><use xlink:href="#i" transform="matrix(10 0 0 -10 205.389 178.5)"/><use xlink:href="#i" transform="matrix(10 0 0 -10 207.889 178.5)"/><use xlink:href="#i" transform="matrix(10 0 0 -10 210.389 178.5)"/><use xlink:href="#i" transform="matrix(10 0 0 -10 212.889 178.5)"/><use xlink:href="#i" transform="matrix(10 0 0 -10 215.389 178.5)"/><use xlink:href="#i" transform="matrix(10 0 0 -10 217.889 178.5)"/><use xlink:href="#i" transform="matrix(10 0 0 -10 220.389 178.5)"/><use xlink:href="#i" transform="matrix(10 0 0 -10 222.889 178.5)"/><use xlink:href="#i" transform="matrix(10 0 0 -10 225.389 178.5)"/><use xlink:href="#i" transform="matrix(10 0 0 -10 227.889 178.5)"/><use xlink:href="#i" transform="matrix(10 0 0 -10 230.389 178.5)"/><use xlink:href="#i" transform="matrix(10 0 0 -10 232.889 178.5)"/><use xlink:href="#i" transform="matrix(10 0 0 -10 235.389 178.5)"/><use xlink:href="#i" transform="matrix(10 0 0 -10 237.889 178.5)"/><use xlink:href="#i" transform="matrix(10 0 0 -10 240.389 178.5)"/><use xlink:href="#i" transform="matrix(10 0 0 -10 242.889 178.5)"/><use xlink:href="#i" transform="matrix(10 0 0 -10 245.389 178.5)"/><use xlink:href="#i" transform="matrix(10 0 0 -10 247.889 178.5)"/><use xlink:href="#i" transform="matrix(10 0 0 -10 250.389 178.5)"/><use xlink:href="#i" transform="matrix(10 0 0 -10 252.889 178.5)"/><use xlink:href="#o" transform="matrix(10 0 0 -10 255.472 178.637)"/><use xlink:href="#n" transform="matrix(10 0 0 -10 260.682 178.5)"/><use xlink:href="#i" transform="matrix(10 0 0 -10 263.167 178.5)"/><use xlink:href="#i" transform="matrix(10 0 0 -10 265.667 178.5)"/><use xlink:href="#i" transform="matrix(10 0 0 -10 268.167 178.5)"/><use xlink:href="#i" transform="matrix(10 0 0 -10 270.667 178.5)"/><use xlink:href="#U" transform="matrix(10 0 0 -10 273.416 178.5)"/><use xlink:href="#i" transform="matrix(10 0 0 -10 276.497 178.5)"/><use xlink:href="#i" transform="matrix(10 0 0 -10 278.997 178.5)"/><use xlink:href="#i" transform="matrix(10 0 0 -10 281.497 178.5)"/><use xlink:href="#i" transform="matrix(10 0 0 -10 283.997 178.5)"/><use xlink:href="#i" transform="matrix(10 0 0 -10 286.497 178.5)"/><use xlink:href="#i" transform="matrix(10 0 0 -10 288.997 178.5)"/><use xlink:href="#i" transform="matrix(10 0 0 -10 291.497 178.5)"/><use xlink:href="#i" transform="matrix(10 0 0 -10 293.997 178.5)"/><use xlink:href="#i" transform="matrix(10 0 0 -10 296.497 178.5)"/><use xlink:href="#i" transform="matrix(10 0 0 -10 298.997 178.5)"/><use xlink:href="#i" transform="matrix(10 0 0 -10 301.497 178.5)"/><use xlink:href="#i" transform="matrix(10 0 0 -10 303.997 178.5)"/><use xlink:href="#i" transform="matrix(10 0 0 -10 306.497 178.5)"/><use xlink:href="#i" transform="matrix(10 0 0 -10 308.997 178.5)"/><use xlink:href="#i" transform="matrix(10 0 0 -10 311.497 178.5)"/><use xlink:href="#i" transform="matrix(10 0 0 -10 313.997 178.5)"/><use xlink:href="#i" transform="matrix(10 0 0 -10 316.497 178.5)"/><use xlink:href="#i" transform="matrix(10 0 0 -10 318.997 178.5)"/><use xlink:href="#i" transform="matrix(10 0 0 -10 321.497 178.5)"/><use xlink:href="#i" transform="matrix(10 0 0 -10 323.997 178.5)"/><use xlink:href="#i" transform="matrix(10 0 0 -10 326.497 178.5)"/><use xlink:href="#i" transform="matrix(10 0 0 -10 328.997 178.5)"/><use xlink:href="#i" transform="matrix(10 0 0 -10 331.497 178.5)"/><use xlink:href="#i" transform="matrix(10 0 0 -10 333.997 178.5)"/><use xlink:href="#i" transform="matrix(10 0 0 -10 336.497 178.5)"/><use xlink:href="#i" transform="matrix(10 0 0 -10 338.997 178.5)"/><use xlink:href="#i" transform="matrix(10 0 0 -10 341.497 178.5)"/><use xlink:href="#i" transform="matrix(10 0 0 -10 343.997 178.5)"/><use xlink:href="#i" transform="matrix(10 0 0 -10 346.497 178.5)"/><use xlink:href="#U" transform="matrix(10 0 0 -10 349.246 178.5)"/><use xlink:href="#V" transform="matrix(10 0 0 -10 352.415 178.651)"/><use xlink:href="#i" transform="matrix(10 0 0 -10 359.368 178.5)"/><use xlink:href="#i" transform="matrix(10 0 0 -10 361.868 178.5)"/><use xlink:href="#i" transform="matrix(10 0 0 -10 364.368 178.5)"/><use xlink:href="#i" transform="matrix(10 0 0 -10 366.868 178.5)"/><use xlink:href="#i" transform="matrix(10 0 0 -10 369.368 178.5)"/><use xlink:href="#i" transform="matrix(10 0 0 -10 371.868 178.5)"/><use xlink:href="#i" transform="matrix(10 0 0 -10 374.368 178.5)"/><use xlink:href="#i" transform="matrix(10 0 0 -10 376.868 178.5)"/><use xlink:href="#U" transform="matrix(10 0 0 -10 379.617 178.5)"/><use xlink:href="#x" transform="matrix(10 0 0 -10 64.166 88.75)"/><use xlink:href="#y" transform="matrix(11 0 0 -11 71.288 89.19)"/><symbol id="W"><path d="M.579.692.596.483H.579a.286.286 0 0 1-.067.118.21.21 0 0 1-.152.057.216.216 0 0 1-.193-.1.36.36 0 0 1-.055-.201c0-.063.013-.12.037-.173A.26.26 0 0 1 .245.07.233.233 0 0 1 .438.042.282.282 0 0 1 .502.07V.26a.17.17 0 0 1-.007.065.048.048 0 0 1-.024.024.13.13 0 0 1-.055.008v.018h.256V.358H.66C.635.358.618.349.608.333A.171.171 0 0 1 .598.26V.06A.485.485 0 0 0 .367 0C.238 0 .141.041.075.123A.329.329 0 0 0 0 .336C0 .394.014.45.042.503A.359.359 0 0 0 .179.65.335.335 0 0 0 .35.692.335.335 0 0 0 .416.687.595.595 0 0 0 .5.66.135.135 0 0 1 .537.65c.006 0 .011.002.015.008.005.006.008.017.009.033h.018z"/></symbol><symbol id="X"><path d="M.156.365c.032.033.052.052.057.056.015.013.03.022.048.03.017.006.033.01.05.01A.112.112 0 0 0 .383.435a.12.12 0 0 0 .04-.07C.458.403.487.43.51.441A.15.15 0 0 0 .58.46.11.11 0 0 0 .643.442a.12.12 0 0 0 .044-.06.27.27 0 0 0 .01-.089V.101C.698.073.7.054.705.043A.043.043 0 0 1 .722.025.093.093 0 0 1 .765.018V0h-.22v.018h.009c.019 0 .034.003.045.01a.044.044 0 0 1 .016.026A.313.313 0 0 1 .617.1v.192a.163.163 0 0 1-.013.078C.59.39.57.4.542.4A.116.116 0 0 1 .49.39.278.278 0 0 1 .427.34V.1c0-.03.002-.05.005-.057a.044.044 0 0 1 .02-.02A.114.114 0 0 1 .5.019V0H.274v.018c.025 0 .042.003.05.008.01.006.017.015.02.027A.26.26 0 0 1 .347.1v.192C.347.33.34.356.33.373a.069.069 0 0 1-.06.03A.108.108 0 0 1 .218.39.201.201 0 0 1 .156.341V.1c0-.03.002-.048.006-.057A.045.045 0 0 1 .18.024.122.122 0 0 1 .229.018V0H.007v.018c.02 0 .035.002.043.006a.044.044 0 0 1 .019.02c.004.01.006.03.006.057v.171a.62.62 0 0 1-.004.095C.069.377.065.385.06.39A.03.03 0 0 1 .04.396.094.094 0 0 1 .007.388L0 .406.135.46h.02V.365z"/></symbol><use xlink:href="#i" transform="matrix(10 0 0 -10 74.797 88.75)"/><use xlink:href="#i" transform="matrix(10 0 0 -10 77.297 88.75)"/><use xlink:href="#i" transform="matrix(10 0 0 -10 79.797 88.75)"/><use xlink:href="#i" transform="matrix(10 0 0 -10 82.297 88.75)"/><use xlink:href="#W" transform="matrix(10 0 0 -10 85.148 88.901)"/><use xlink:href="#X" transform="matrix(10 0 0 -10 92.102 88.75)"/><use xlink:href="#i" transform="matrix(10 0 0 -10 99.797 88.75)"/><use xlink:href="#i" transform="matrix(10 0 0 -10 102.297 88.75)"/><use xlink:href="#i" transform="matrix(10 0 0 -10 104.797 88.75)"/><use xlink:href="#x" transform="matrix(10 0 0 -10 107.463 88.75)"/><use xlink:href="#y" transform="matrix(11 0 0 -11 114.585 89.19)"/><symbol id="Y"><path d="M.188.626V.364h.146C.372.364.397.37.41.381c.017.015.026.042.028.08h.018V.23H.438a.252.252 0 0 1-.014.062.061.061 0 0 1-.028.027.147.147 0 0 1-.062.01H.188V.11C.188.081.19.063.192.057A.032.032 0 0 1 .206.042.086.086 0 0 1 .243.036h.112C.393.036.42.04.437.044a.122.122 0 0 1 .049.03c.02.02.04.051.062.092h.02L.51 0H0v.018h.023c.016 0 .03.004.045.011a.04.04 0 0 1 .02.024.22.22 0 0 1 .007.064v.43C.095.589.09.615.082.625.07.638.051.644.023.644H0v.018h.51L.518.517h-.02A.223.223 0 0 1 .477.59a.077.077 0 0 1-.037.03.221.221 0 0 1-.069.007H.188z"/></symbol><use xlink:href="#i" transform="matrix(10 0 0 -10 118.094 88.75)"/><use xlink:href="#i" transform="matrix(10 0 0 -10 120.594 88.75)"/><use xlink:href="#i" transform="matrix(10 0 0 -10 123.094 88.75)"/><use xlink:href="#i" transform="matrix(10 0 0 -10 125.594 88.75)"/><use xlink:href="#i" transform="matrix(10 0 0 -10 128.094 88.75)"/><use xlink:href="#i" transform="matrix(10 0 0 -10 130.594 88.75)"/><use xlink:href="#i" transform="matrix(10 0 0 -10 133.094 88.75)"/><use xlink:href="#i" transform="matrix(10 0 0 -10 135.594 88.75)"/><use xlink:href="#i" transform="matrix(10 0 0 -10 138.094 88.75)"/><use xlink:href="#i" transform="matrix(10 0 0 -10 140.594 88.75)"/><use xlink:href="#i" transform="matrix(10 0 0 -10 143.094 88.75)"/><use xlink:href="#i" transform="matrix(10 0 0 -10 145.594 88.75)"/><use xlink:href="#i" transform="matrix(10 0 0 -10 148.094 88.75)"/><use xlink:href="#i" transform="matrix(10 0 0 -10 150.594 88.75)"/><use xlink:href="#i" transform="matrix(10 0 0 -10 153.094 88.75)"/><use xlink:href="#i" transform="matrix(10 0 0 -10 155.594 88.75)"/><use xlink:href="#i" transform="matrix(10 0 0 -10 158.094 88.75)"/><use xlink:href="#i" transform="matrix(10 0 0 -10 160.594 88.75)"/><use xlink:href="#Y" transform="matrix(10 0 0 -10 163.299 88.75)"/><use xlink:href="#y" transform="matrix(11 0 0 -11 169.82 89.19)"/><use xlink:href="#i" transform="matrix(10 0 0 -10 173.328 88.75)"/><use xlink:href="#i" transform="matrix(10 0 0 -10 175.828 88.75)"/><use xlink:href="#i" transform="matrix(10 0 0 -10 178.328 88.75)"/><use xlink:href="#i" transform="matrix(10 0 0 -10 180.828 88.75)"/><use xlink:href="#i" transform="matrix(10 0 0 -10 183.328 88.75)"/><use xlink:href="#i" transform="matrix(10 0 0 -10 185.828 88.75)"/><use xlink:href="#i" transform="matrix(10 0 0 -10 188.328 88.75)"/><use xlink:href="#x" transform="matrix(10 0 0 -10 190.994 88.75)"/><use xlink:href="#y" transform="matrix(11 0 0 -11 198.116 89.19)"/><use xlink:href="#i" transform="matrix(10 0 0 -10 201.625 88.75)"/><use xlink:href="#i" transform="matrix(10 0 0 -10 204.125 88.75)"/><use xlink:href="#i" transform="matrix(10 0 0 -10 206.625 88.75)"/><use xlink:href="#i" transform="matrix(10 0 0 -10 209.125 88.75)"/><use xlink:href="#i" transform="matrix(10 0 0 -10 211.625 88.75)"/><use xlink:href="#i" transform="matrix(10 0 0 -10 214.125 88.75)"/><use xlink:href="#i" transform="matrix(10 0 0 -10 216.625 88.75)"/><use xlink:href="#i" transform="matrix(10 0 0 -10 219.125 88.75)"/><use xlink:href="#i" transform="matrix(10 0 0 -10 221.625 88.75)"/><use xlink:href="#i" transform="matrix(10 0 0 -10 224.125 88.75)"/><use xlink:href="#i" transform="matrix(10 0 0 -10 226.625 88.75)"/><use xlink:href="#i" transform="matrix(10 0 0 -10 229.125 88.75)"/><use xlink:href="#i" transform="matrix(10 0 0 -10 231.625 88.75)"/><use xlink:href="#i" transform="matrix(10 0 0 -10 234.125 88.75)"/><use xlink:href="#i" transform="matrix(10 0 0 -10 236.625 88.75)"/><use xlink:href="#i" transform="matrix(10 0 0 -10 239.125 88.75)"/><use xlink:href="#i" transform="matrix(10 0 0 -10 241.625 88.75)"/><use xlink:href="#i" transform="matrix(10 0 0 -10 244.125 88.75)"/><use xlink:href="#i" transform="matrix(10 0 0 -10 246.625 88.75)"/><use xlink:href="#i" transform="matrix(10 0 0 -10 249.125 88.75)"/><use xlink:href="#W" transform="matrix(10 0 0 -10 251.977 88.901)"/><use xlink:href="#X" transform="matrix(10 0 0 -10 258.93 88.75)"/><use xlink:href="#i" transform="matrix(10 0 0 -10 266.625 88.75)"/><use xlink:href="#i" transform="matrix(10 0 0 -10 269.125 88.75)"/><use xlink:href="#i" transform="matrix(10 0 0 -10 271.625 88.75)"/><use xlink:href="#x" transform="matrix(10 0 0 -10 274.291 88.75)"/><use xlink:href="#y" transform="matrix(11 0 0 -11 281.413 89.19)"/><use xlink:href="#i" transform="matrix(10 0 0 -10 284.922 88.75)"/><use xlink:href="#i" transform="matrix(10 0 0 -10 287.422 88.75)"/><use xlink:href="#i" transform="matrix(10 0 0 -10 289.922 88.75)"/><use xlink:href="#i" transform="matrix(10 0 0 -10 292.422 88.75)"/><use xlink:href="#i" transform="matrix(10 0 0 -10 294.922 88.75)"/><use xlink:href="#i" transform="matrix(10 0 0 -10 297.422 88.75)"/><use xlink:href="#i" transform="matrix(10 0 0 -10 299.922 88.75)"/><use xlink:href="#i" transform="matrix(10 0 0 -10 302.422 88.75)"/><use xlink:href="#i" transform="matrix(10 0 0 -10 304.922 88.75)"/><use xlink:href="#i" transform="matrix(10 0 0 -10 307.422 88.75)"/><use xlink:href="#i" transform="matrix(10 0 0 -10 309.922 88.75)"/><use xlink:href="#i" transform="matrix(10 0 0 -10 312.422 88.75)"/><use xlink:href="#i" transform="matrix(10 0 0 -10 314.922 88.75)"/><use xlink:href="#i" transform="matrix(10 0 0 -10 317.422 88.75)"/><use xlink:href="#i" transform="matrix(10 0 0 -10 319.922 88.75)"/><use xlink:href="#i" transform="matrix(10 0 0 -10 322.422 88.75)"/><use xlink:href="#i" transform="matrix(10 0 0 -10 324.922 88.75)"/><use xlink:href="#i" transform="matrix(10 0 0 -10 327.422 88.75)"/><use xlink:href="#i" transform="matrix(10 0 0 -10 329.922 88.75)"/><use xlink:href="#i" transform="matrix(10 0 0 -10 332.422 88.75)"/><use xlink:href="#i" transform="matrix(10 0 0 -10 334.922 88.75)"/><use xlink:href="#i" transform="matrix(10 0 0 -10 337.422 88.75)"/><use xlink:href="#i" transform="matrix(10 0 0 -10 339.922 88.75)"/><use xlink:href="#i" transform="matrix(10 0 0 -10 342.422 88.75)"/><use xlink:href="#i" transform="matrix(10 0 0 -10 344.922 88.75)"/><use xlink:href="#i" transform="matrix(10 0 0 -10 347.422 88.75)"/><use xlink:href="#Y" transform="matrix(10 0 0 -10 350.127 88.75)"/><use xlink:href="#y" transform="matrix(11 0 0 -11 356.647 89.19)"/><use xlink:href="#i" transform="matrix(10 0 0 -10 360.156 88.75)"/><use xlink:href="#i" transform="matrix(10 0 0 -10 362.656 88.75)"/><use xlink:href="#i" transform="matrix(10 0 0 -10 365.156 88.75)"/><use xlink:href="#i" transform="matrix(10 0 0 -10 367.656 88.75)"/><use xlink:href="#i" transform="matrix(10 0 0 -10 370.156 88.75)"/><use xlink:href="#i" transform="matrix(10 0 0 -10 372.656 88.75)"/><use xlink:href="#i" transform="matrix(10 0 0 -10 375.156 88.75)"/><use xlink:href="#x" transform="matrix(10 0 0 -10 377.822 88.75)"/><use xlink:href="#y" transform="matrix(11 0 0 -11 384.944 89.19)"/></svg>