<svg xmlns="http://www.w3.org/2000/svg" xmlns:xlink="http://www.w3.org/1999/xlink" width="438.5pt" height="235.667" viewBox="0 0 438.5 176.75"><path d="M-139.5 479.75h612v-792h-612z" fill="#fff"/><path stroke-width=".384" stroke-miterlimit="10" fill="none" stroke="#000" d="M23.624 50.531v78.584"/><symbol id="a"><path d="M.469.44A.415.415 0 0 0 .348.434a.459.459 0 0 0-.097.02.554.554 0 0 0-.125.078.344.344 0 0 0-.11.178.677.677 0 0 0-.013.096C0 .842.003.877.012.911a.55.55 0 0 0 .153.257 1.843 1.843 0 0 0 .162.136.194.194 0 0 1-.003.023.33.33 0 0 0-.011.076l-.002.03a.924.924 0 0 0-.001.121.345.345 0 0 0 .031.144.615.615 0 0 0 .039.075.4.4 0 0 0 .048.062c.016.018.032.026.047.026.007 0 .015-.004.024-.014a.405.405 0 0 0 .05-.087.544.544 0 0 0 .042-.168c0-.034-.001-.065-.004-.092a.415.415 0 0 0-.067-.182.402.402 0 0 0-.033-.048 9.105 9.105 0 0 0-.033-.04.22.22 0 0 0-.038-.038.517.517 0 0 1-.038-.03A16.911 16.911 0 0 0 .41.966a.361.361 0 0 0 .14-.02.207.207 0 0 0 .03-.015A.224.224 0 0 0 .657.84.31.31 0 0 0 .684.735.276.276 0 0 0 .643.57.319.319 0 0 0 .494.446 22.623 22.623 0 0 0 .52.272.508.508 0 0 0 .527.174.148.148 0 0 0 .512.111.283.283 0 0 0 .486.072.164.164 0 0 0 .405.013.236.236 0 0 0 .283.006a.234.234 0 0 0-.07.023.175.175 0 0 0-.056.044.116.116 0 0 0-.027.07.175.175 0 0 0 .003.048.14.14 0 0 0 .017.044C.158.248.17.26.183.267a.11.11 0 0 0 .087.01.137.137 0 0 0 .035-.019A.099.099 0 0 0 .343.19.101.101 0 0 0 .32.12.157.157 0 0 0 .232.065.09.09 0 0 1 .27.04a.166.166 0 0 1 .154.013.183.183 0 0 1 .063.065C.496.136.5.158.5.186a.702.702 0 0 1-.02.175L.469.44m.02 1.267c-.025 0-.048-.012-.068-.037a.298.298 0 0 1-.048-.092.567.567 0 0 1-.021-.252.748.748 0 0 1 .134.136.41.41 0 0 1 .048.081.155.155 0 0 1 .002.133.072.072 0 0 1-.018.022.043.043 0 0 1-.028.01M.488.48c.028.01.05.023.067.04A.152.152 0 0 1 .59.57a.155.155 0 0 1 .013.056.433.433 0 0 1 0 .05.332.332 0 0 1-.008.045.132.132 0 0 1-.075.093.172.172 0 0 1-.088.014L.488.48M.406.827A.155.155 0 0 1 .338.81.123.123 0 0 1 .27.691.158.158 0 0 1 .297.62.23.23 0 0 1 .322.59.11.11 0 0 1 .35.57.016.016 0 0 0 .346.564.016.016 0 0 0 .343.561.016.016 0 0 1 .34.557a.245.245 0 0 0-.055.036.257.257 0 0 0-.03.03.747.747 0 0 0-.02.026.119.119 0 0 0-.012.026.25.25 0 0 0-.01.03.278.278 0 0 0 0 .081.226.226 0 0 0 .016.048.247.247 0 0 0 .074.09.248.248 0 0 0 .043.025.868.868 0 0 0 .039.013l-.03.181A1.039 1.039 0 0 1 .142.938.715.715 0 0 1 .086.833.216.216 0 0 1 .07.73.246.246 0 0 1 .109.612.316.316 0 0 1 .32.47a.315.315 0 0 1 .143.003 36.857 36.857 0 0 1-.056.34L.406.826z"/></symbol><use xlink:href="#a" transform="matrix(20.5 0 0 -20.5 28.93 80.079)"/><symbol id="b"><path d="M.497.324A.426.426 0 0 0 .462.266.625.625 0 0 0 .007 0L0 .015a.839.839 0 0 1 .176.081c.03.017.055.036.076.058.054.057.095.12.123.19a.594.594 0 0 1 .033.304.258.258 0 0 1-.023.074.168.168 0 0 1-.046.06.112.112 0 0 1-.076.025.174.174 0 0 1-.058-.011.21.21 0 0 1-.055-.03.152.152 0 0 1-.041-.044.082.082 0 0 1-.013-.054c0-.003.003-.004.006-.003a.58.58 0 0 0 .042.011.16.16 0 0 0 .037.002.063.063 0 0 0 .038-.014.091.091 0 0 0 .026-.031.124.124 0 0 0 .011-.085.096.096 0 0 0-.03-.052.082.082 0 0 0-.059-.02.128.128 0 0 0-.114.071.122.122 0 0 0-.01.051c0 .029.002.054.009.076a.199.199 0 0 0 .092.121c.025.015.05.026.075.031A.234.234 0 0 0 .367.823.285.285 0 0 0 .501.731.267.267 0 0 0 .559.564a.47.47 0 0 0-.062-.24m.101.385c0 .015.004.028.015.038.01.01.024.016.039.016A.051.051 0 0 0 .691.749.048.048 0 0 0 .708.711.053.053 0 0 0 .654.655a.053.053 0 0 0-.056.054m0-.252a.05.05 0 0 0 .016.038c.01.01.024.015.039.016A.057.057 0 0 0 .692.497.048.048 0 0 0 .709.459.05.05 0 0 0 .694.42.052.052 0 0 0 .655.403a.053.053 0 0 0-.04.015.057.057 0 0 0-.017.039z"/></symbol><use xlink:href="#b" transform="matrix(20.5 0 0 -20.5 29.087 125.753)"/><symbol id="c"><path d="M.026.512V.271c.01.009.018.016.026.021a.11.11 0 0 0 .023.012.092.092 0 0 0 .023.007.192.192 0 0 0 .029.002.071.071 0 0 0 .034-.008.088.088 0 0 0 .026-.021.098.098 0 0 0 .023-.06c0-.01 0-.021-.003-.032a.173.173 0 0 0-.01-.028.08.08 0 0 0-.022-.03.518.518 0 0 1-.027-.025A1.082 1.082 0 0 0 .009.008L0 0v.591h.026V.512M.107.249a.038.038 0 0 1-.014.01.04.04 0 0 1-.038-.002.052.052 0 0 1-.018-.021.11.11 0 0 1-.011-.048V.051l.006.005a.097.097 0 0 1 .014.012l.018.016L.082.1c.01.009.017.018.024.028a.11.11 0 0 1 .015.038c.004.015.005.03.003.045a.07.07 0 0 1-.017.038z"/></symbol><use xlink:href="#c" transform="matrix(20.5 0 0 -20.5 48.844 64.02)"/><use xlink:href="#c" transform="matrix(20.5 0 0 -20.5 53.969 56.333)"/><use xlink:href="#c" transform="matrix(20.5 0 0 -20.5 48.844 127.229)"/><use xlink:href="#c" transform="matrix(20.5 0 0 -20.5 53.969 119.541)"/><path stroke-width=".384" stroke-miterlimit="10" fill="none" stroke="#000" d="M151.963 50.531v78.584M242.504 50.531v78.584M333.046 50.531v78.584"/><path stroke-width="2.563" stroke-miterlimit="10" fill="none" stroke="#000" d="M435.14 50.531v78.584"/><path stroke-width=".384" stroke-miterlimit="10" fill="none" stroke="#000" d="M431.105 50.531v78.584M23.432 50.531h412.99M23.432 55.656h412.99M23.432 60.781h412.99M23.432 65.906h412.99M23.432 71.031h412.99M23.432 108.615h412.99M23.432 113.74h412.99M23.432 118.865h412.99M23.432 123.99h412.99M23.432 129.115h412.99"/><path d="M20.87 50.531c-12.813 20.5 6.406 29.042-5.125 39.292h.854c10.763-7.688-3.331-23.917 4.356-37.754M20.87 129.115c-12.813-20.5 6.406-29.042-5.125-39.292h.854c10.763 7.687-3.331 23.917 4.356 37.754"/><path stroke-width=".614" stroke-miterlimit="10" fill="none" stroke="#000" d="M68.063 40.281V37.72h65.557v2.562M159.885 40.281V37.72h65.985v2.562M248.932 40.281V37.72h65.771v2.562M345.026 40.281V37.72h66.839v2.562"/><path stroke-width=".384" stroke-miterlimit="10" fill="none" stroke="#000" d="M74.837 65.052V47.97"/><symbol id="d"><path d="M.009.131a.161.161 0 0 0 .03.05.232.232 0 0 0 .106.067c.02.007.042.01.063.01.021 0 .04-.004.056-.011A.091.091 0 0 0 .302.219.078.078 0 0 0 .319.178a.096.096 0 0 0-.006-.05.152.152 0 0 0-.031-.05.217.217 0 0 0-.048-.041A.206.206 0 0 0 .175.01.201.201 0 0 0 .113 0a.133.133 0 0 0-.056.011.101.101 0 0 0-.038.028.084.084 0 0 0-.017.042.105.105 0 0 0 .007.05z"/></symbol><use xlink:href="#d" transform="matrix(20.5 0 0 -20.5 68.47 68.612)"/><use xlink:href="#d" transform="matrix(20.5 0 0 -20.5 90.037 63.487)"/><path stroke-width=".384" stroke-miterlimit="10" fill="none" stroke="#000" d="M90.25 61.635v15.803"/><use xlink:href="#d" transform="matrix(20.5 0 0 -20.5 103.49 60.925)"/><path stroke-width=".384" stroke-miterlimit="10" fill="none" stroke="#000" d="M103.702 59.073v15.802"/><path d="m103.894 73.594-13.837 2.562v2.563l13.837-2.563"/><path stroke-width=".384" stroke-miterlimit="10" fill="none" stroke="#000" d="M116.942 56.51v17.084"/><symbol id="e"><path d="M.32.226A.06.06 0 0 0 .327.201.15.15 0 0 0 .317.13.19.19 0 0 0 .275.063a.188.188 0 0 0-.051-.04.212.212 0 0 0-.117-.019.585.585 0 0 0-.051.01.158.158 0 0 0-.026.013A.07.07 0 0 0 0 .074.17.17 0 0 0 0 .1a.233.233 0 0 0 .01.041c.01.025.023.046.04.063a.29.29 0 0 0 .05.039.218.218 0 0 0 .2.003.05.05 0 0 0 .019-.02M.297.209a.039.039 0 0 1-.02.016.06.06 0 0 1-.025.003.104.104 0 0 1-.027-.006A.442.442 0 0 1 .14.179.825.825 0 0 1 .058.127a.108.108 0 0 1-.02-.02.066.066 0 0 1-.01-.023.037.037 0 0 1 .005-.025.034.034 0 0 1 .019-.016.053.053 0 0 1 .025-.002c.009 0 .018.003.028.006L.13.058c.011.005.021.01.03.016l.03.016a.524.524 0 0 1 .1.071.054.054 0 0 1 .01.023.033.033 0 0 1-.004.025z"/></symbol><use xlink:href="#e" transform="matrix(20.5 0 0 -20.5 116.757 58.465)"/><symbol id="f"><path d="M.001.135a.08.08 0 0 0 .012.049.14.14 0 0 0 .042.042.239.239 0 0 0 .063.029.276.276 0 0 0 .08.011.402.402 0 0 0 .08-.008.235.235 0 0 0 .07-.025.16.16 0 0 0 .05-.043.108.108 0 0 0 .023-.06.077.077 0 0 0-.013-.049.13.13 0 0 0-.04-.042A.266.266 0 0 0 .226 0a.402.402 0 0 0-.082.008.249.249 0 0 0-.07.025.15.15 0 0 0-.05.042.108.108 0 0 0-.024.06m.125.019a.532.532 0 0 1 .01-.051.173.173 0 0 1 .018-.042.093.093 0 0 1 .028-.028.082.082 0 0 1 .074-.002c.01.005.019.012.025.02a.07.07 0 0 1 .014.027C.3.088.3.097.298.106a.382.382 0 0 1-.01.051.152.152 0 0 1-.02.042.086.086 0 0 1-.072.039A.063.063 0 0 1 .164.23.074.074 0 0 1 .128.183.072.072 0 0 1 .126.154z"/></symbol><use xlink:href="#f" transform="matrix(20.5 0 0 -20.5 68.462 121.57)"/><use xlink:href="#f" transform="matrix(20.5 0 0 -20.5 68.462 126.696)"/><use xlink:href="#f" transform="matrix(20.5 0 0 -20.5 68.462 131.82)"/><path d="M-2.086 36.758h42.922V25.44H-2.086z" fill="#fff"/><symbol id="g"><path d="M.393 0 .137.557V.115C.137.075.14.049.15.039.162.025.18.019.207.019H.23V0H0v.018h.023c.028 0 .048.009.06.025.007.01.01.035.01.072v.432c0 .03-.003.05-.009.064a.053.053 0 0 1-.025.023.13.13 0 0 1-.059.01v.018h.188l.24-.518.236.518h.188V.644H.829C.8.644.78.636.769.619.76.609.758.584.758.547V.115c0-.04.004-.066.013-.076C.784.025.803.019.83.019h.023V0H.57v.018h.024c.028 0 .048.009.06.025.006.01.01.035.01.072v.442L.41 0H.393z"/></symbol><symbol id="h"><path d="M.216.474A.198.198 0 0 0 .38.397.237.237 0 0 0 .432.246c0-.04-.01-.081-.03-.122A.21.21 0 0 0 .324.031.208.208 0 0 0 .211 0a.19.19 0 0 0-.16.08A.25.25 0 0 0 0 .234c0 .04.01.082.03.122a.208.208 0 0 0 .186.12M.201.441A.102.102 0 0 1 .15.427.107.107 0 0 1 .107.373a.26.26 0 0 1-.016-.1C.09.21.104.154.129.106.155.058.19.035.232.035.264.035.29.048.31.074.33.1.34.144.34.208.34.288.325.35.29.396A.106.106 0 0 1 .2.442z"/></symbol><symbol id="i"><path d="M.151.602V.455h.105V.42H.15V.13c0-.029.004-.048.013-.058A.04.04 0 0 1 .196.057c.01 0 .021.003.031.01.01.006.018.016.023.03h.02A.155.155 0 0 0 .22.023.105.105 0 0 0 .157 0a.088.088 0 0 0-.044.012.077.077 0 0 0-.032.036.19.19 0 0 0-.01.072v.3H0v.017c.018.007.036.019.055.036a.29.29 0 0 1 .081.129h.015z"/></symbol><symbol id="j"><path d="M.116.694A.046.046 0 0 0 .15.68.046.046 0 0 0 .165.645.048.048 0 0 0 .15.61.046.046 0 0 0 .116.595.048.048 0 0 0 .08.61a.048.048 0 0 0-.015.035C.066.659.07.67.08.68c.01.01.022.014.036.014M.156.46V.101c0-.028.002-.047.006-.056A.045.045 0 0 1 .18.025.098.098 0 0 1 .224.017V0H.007v.018C.029.018.043.02.05.024a.042.042 0 0 1 .017.02c.005.01.007.03.007.057v.172a.61.61 0 0 1-.004.095C.069.378.065.385.06.389A.03.03 0 0 1 .04.396.098.098 0 0 1 .007.388L0 .406.135.46h.021z"/></symbol><symbol id="k"><path d="M0 .46h.21V.444H.197C.184.443.174.44.167.433A.033.033 0 0 1 .157.41c0-.012.004-.025.011-.04L.272.12l.104.256A.122.122 0 0 1 .388.42.016.016 0 0 1 .384.43.026.026 0 0 1 .37.44a.123.123 0 0 1-.034.003V.46h.146V.443C.465.442.454.438.447.433a.125.125 0 0 1-.03-.05L.257 0h-.02L.079.377a.14.14 0 0 1-.02.038.08.08 0 0 1-.025.02A.122.122 0 0 1 0 .443V.46z"/></symbol><symbol id="l"><path d="M.07.292A.23.23 0 0 1 .117.136.147.147 0 0 1 .232.08c.03 0 .055.008.077.024a.18.18 0 0 1 .054.083l.015-.01a.234.234 0 0 0-.06-.122A.16.16 0 0 0 .196 0c-.053 0-.1.02-.138.063A.242.242 0 0 0 0 .23c0 .077.02.137.059.18.039.042.088.064.148.064.05 0 .09-.017.123-.05A.18.18 0 0 0 .378.292H.07m0 .029h.207a.191.191 0 0 1-.01.06.096.096 0 0 1-.037.043.09.09 0 0 1-.05.016.101.101 0 0 1-.073-.032A.136.136 0 0 1 .07.321z"/></symbol><symbol id="m"><path d="M.271.474V.322H.255C.243.37.227.402.208.419a.106.106 0 0 1-.074.026.082.082 0 0 1-.055-.018C.065.415.058.402.058.387.058.37.063.353.073.34A.174.174 0 0 1 .135.298L.206.263c.066-.032.1-.075.1-.127A.12.12 0 0 0 .258.037.16.16 0 0 0 .156 0a.355.355 0 0 0-.094.015.095.095 0 0 1-.026.005C.028.02.022.015.018.007H.002v.16h.016A.182.182 0 0 1 .07.063.126.126 0 0 1 .157.03c.022 0 .04.006.054.02.015.013.022.029.022.047a.075.075 0 0 1-.024.057.407.407 0 0 1-.094.058.28.28 0 0 0-.093.063.11.11 0 0 0-.022.07c0 .038.013.068.038.093a.135.135 0 0 0 .098.037A.23.23 0 0 0 .2.463.151.151 0 0 1 .233.456a.02.02 0 0 1 .012.003.047.047 0 0 1 .01.015h.016z"/></symbol><symbol id="n"><path d="M.055.475A.051.051 0 0 0 .093.458.051.051 0 0 0 .11.42.053.053 0 0 0 .093.382.052.052 0 0 0 .055.366.053.053 0 0 0 .001.42c0 .015.005.028.016.038.01.011.023.017.038.017m0-.366A.052.052 0 0 0 .092.093.053.053 0 0 0 .109.054.053.053 0 0 0 .093.016.053.053 0 0 0 .054 0 .053.053 0 0 0 0 .054C0 .07.005.082.016.093c.01.01.023.016.038.016z"/></symbol><use xlink:href="#g" transform="matrix(11 0 0 -11 .125 34.516)"/><use xlink:href="#h" transform="matrix(11 0 0 -11 10.095 34.666)"/><use xlink:href="#i" transform="matrix(11 0 0 -11 15.331 34.596)"/><use xlink:href="#j" transform="matrix(11 0 0 -11 18.602 34.516)"/><use xlink:href="#k" transform="matrix(11 0 0 -11 21.427 34.666)"/><use xlink:href="#l" transform="matrix(11 0 0 -11 27.244 34.666)"/><use xlink:href="#m" transform="matrix(11 0 0 -11 32.254 34.666)"/><use xlink:href="#n" transform="matrix(11 0 0 -11 36.944 34.666)"/><path d="M94.435 36.33h11.318V25.014H94.435z" fill="#fff"/><symbol id="o"><path d="m0 .597.161.079h.016v-.56C.177.08.18.057.182.048a.037.037 0 0 1 .02-.02A.164.164 0 0 1 .26.017V0H.01v.018c.032 0 .052.003.061.008.01.005.016.011.02.019a.262.262 0 0 1 .005.072v.357c0 .048-.002.08-.005.093A.038.038 0 0 1 .079.59a.032.032 0 0 1-.021.007.13.13 0 0 1-.05-.015L0 .597z"/></symbol><use xlink:href="#o" transform="matrix(11 0 0 -11 98.607 34.089)"/><symbol id="p"><path d="M.27.018V0a.466.466 0 0 0-.232.254.538.538 0 0 0 .037.475.43.43 0 0 0 .195.18V.887a.28.28 0 0 1-.1-.091A.42.42 0 0 1 .114.65 1.029 1.029 0 0 1 .11.276.498.498 0 0 1 .141.168.35.35 0 0 1 .27.018z"/></symbol><symbol id="q"><path d="M0 0z"/></symbol><symbol id="r"><path d="M0 .888v.02A.456.456 0 0 0 .231.654.535.535 0 0 0 .195.18.427.427 0 0 0 0 0v.018C.04.041.073.071.099.11a.403.403 0 0 1 .057.146A1.034 1.034 0 0 1 .16.63.355.355 0 0 1 0 .888z"/></symbol><use xlink:href="#p" transform="matrix(9.39583 0 0 -9.39583 101.76 62.577)"/><use xlink:href="#q" transform="matrix(9.39583 0 0 -9.39583 104.504 60.568)"/><use xlink:href="#q" transform="matrix(9.39583 0 0 -9.39583 106.853 60.568)"/><use xlink:href="#r" transform="matrix(9.39583 0 0 -9.39583 109.413 62.577)"/><path stroke-width=".384" stroke-miterlimit="10" fill="none" stroke="#000" d="M165.38 65.052V47.97"/><use xlink:href="#d" transform="matrix(20.5 0 0 -20.5 159.01 68.612)"/><use xlink:href="#d" transform="matrix(20.5 0 0 -20.5 180.578 60.925)"/><path stroke-width=".384" stroke-miterlimit="10" fill="none" stroke="#000" d="M180.79 59.073v15.802"/><use xlink:href="#d" transform="matrix(20.5 0 0 -20.5 194.032 58.362)"/><path stroke-width=".384" stroke-miterlimit="10" fill="none" stroke="#000" d="M194.244 56.51v15.803"/><path d="m194.436 71.031-13.837 2.563v2.562l13.837-2.562"/><path stroke-width=".384" stroke-miterlimit="10" fill="none" stroke="#000" d="M207.483 53.948V71.03"/><use xlink:href="#e" transform="matrix(20.5 0 0 -20.5 207.299 55.902)"/><use xlink:href="#f" transform="matrix(20.5 0 0 -20.5 159.004 113.883)"/><use xlink:href="#f" transform="matrix(20.5 0 0 -20.5 159.004 119.008)"/><use xlink:href="#f" transform="matrix(20.5 0 0 -20.5 159.004 124.133)"/><path d="M170.563 37.185h42.28V25.867h-42.28z" fill="#fff"/><symbol id="s"><path d="M.156.366C.208.429.258.46.306.46A.107.107 0 0 0 .369.442.121.121 0 0 0 .41.382c.007-.02.01-.05.01-.09v-.19A.16.16 0 0 1 .428.042.04.04 0 0 1 .445.024.1.1 0 0 1 .49.018V0H.269v.018h.009c.02 0 .035.003.043.009A.05.05 0 0 1 .34.055C.34.06.34.075.34.101v.183c0 .04-.006.07-.016.089C.315.39.297.4.27.4.233.4.194.38.156.337V.1c0-.03.002-.049.005-.056A.047.047 0 0 1 .18.024.122.122 0 0 1 .229.018V0H.007v.018h.01c.023 0 .038.005.046.017C.071.046.075.069.075.1v.166a.677.677 0 0 1-.004.098C.07.377.065.385.061.39A.03.03 0 0 1 .04.396.094.094 0 0 1 .007.388L0 .406.135.46h.02V.366z"/></symbol><symbol id="t"><path d="M.054.108A.052.052 0 0 0 .093.092.052.052 0 0 0 .108.054.053.053 0 0 0 .092.016.052.052 0 0 0 .054 0 .053.053 0 0 0 0 .054C0 .07.005.082.016.093c.01.01.023.015.038.015z"/></symbol><symbol id="u"><path d="M.377.184a.244.244 0 0 0-.07-.137A.17.17 0 0 0 .188 0a.172.172 0 0 0-.132.064A.251.251 0 0 0 0 .237c0 .07.02.127.063.171a.201.201 0 0 0 .15.066C.257.474.293.462.322.44.35.416.364.392.364.367a.04.04 0 0 0-.012-.03A.046.046 0 0 0 .32.324c-.02 0-.034.006-.044.019C.27.35.266.364.265.383a.063.063 0 0 1-.02.044.07.07 0 0 1-.048.014A.097.097 0 0 1 .12.405.192.192 0 0 1 .079.28c0-.054.013-.1.04-.142a.121.121 0 0 1 .106-.06c.032 0 .06.01.086.032A.22.22 0 0 1 .363.19L.377.184z"/></symbol><symbol id="v"><path d="M.156.694V.367a.37.37 0 0 0 .086.076.133.133 0 0 0 .064.017A.104.104 0 0 0 .37.44a.124.124 0 0 0 .04-.066.467.467 0 0 0 .01-.115V.101C.42.073.423.053.428.043A.038.038 0 0 1 .444.024.094.094 0 0 1 .487.018V0h-.22v.018h.01C.3.018.314.02.322.027a.052.052 0 0 1 .017.028C.34.06.34.075.34.101V.26C.34.31.337.34.332.355a.062.062 0 0 1-.064.046.113.113 0 0 1-.05-.012.238.238 0 0 1-.062-.052V.101c0-.03.002-.05.005-.057a.045.045 0 0 1 .02-.02.114.114 0 0 1 .048-.006V0H.007v.018c.02 0 .035.003.047.009.006.003.011.01.015.018.004.01.006.028.006.056v.405A.633.633 0 0 1 .071.6C.07.612.065.62.061.624A.03.03 0 0 1 .04.63.12.12 0 0 1 .007.623L0 .64l.134.054h.022z"/></symbol><use xlink:href="#o" transform="matrix(11 0 0 -11 173.773 34.943)"/><use xlink:href="#q" transform="matrix(11 0 0 -11 177.984 34.943)"/><use xlink:href="#j" transform="matrix(11 0 0 -11 181.057 34.943)"/><use xlink:href="#s" transform="matrix(11 0 0 -11 183.855 34.943)"/><use xlink:href="#i" transform="matrix(11 0 0 -11 189.398 35.023)"/><use xlink:href="#t" transform="matrix(11 0 0 -11 193.125 35.093)"/><use xlink:href="#q" transform="matrix(11 0 0 -11 195.096 34.943)"/><use xlink:href="#u" transform="matrix(11 0 0 -11 198.222 35.093)"/><use xlink:href="#v" transform="matrix(11 0 0 -11 202.798 34.943)"/><use xlink:href="#t" transform="matrix(11 0 0 -11 209.007 35.093)"/><path stroke-width=".384" stroke-miterlimit="10" fill="none" stroke="#000" d="M249.765 56.51v17.084"/><use xlink:href="#d" transform="matrix(20.5 0 0 -20.5 249.552 58.362)"/><use xlink:href="#d" transform="matrix(20.5 0 0 -20.5 271.12 63.487)"/><path stroke-width=".384" stroke-miterlimit="10" fill="none" stroke="#000" d="M277.488 59.927V44.125"/><use xlink:href="#d" transform="matrix(20.5 0 0 -20.5 284.573 66.05)"/><path stroke-width=".384" stroke-miterlimit="10" fill="none" stroke="#000" d="M290.942 62.49V46.687"/><path d="m291.134 45.406-13.837-2.562v2.562l13.837 2.563"/><path stroke-width=".384" stroke-miterlimit="10" fill="none" stroke="#000" d="M304.365 65.052V47.97"/><use xlink:href="#e" transform="matrix(20.5 0 0 -20.5 297.84 68.715)"/><use xlink:href="#f" transform="matrix(20.5 0 0 -20.5 249.546 121.57)"/><use xlink:href="#f" transform="matrix(20.5 0 0 -20.5 249.546 126.696)"/><use xlink:href="#f" transform="matrix(20.5 0 0 -20.5 249.546 131.82)"/><path d="M267.51 37.185h28.188V25.867H267.51z" fill="#fff"/><use xlink:href="#o" transform="matrix(11 0 0 -11 270.721 34.943)"/><use xlink:href="#q" transform="matrix(11 0 0 -11 274.932 34.943)"/><use xlink:href="#j" transform="matrix(11 0 0 -11 278.005 34.943)"/><use xlink:href="#s" transform="matrix(11 0 0 -11 280.803 34.943)"/><use xlink:href="#k" transform="matrix(11 0 0 -11 286.33 35.093)"/><use xlink:href="#t" transform="matrix(11 0 0 -11 291.803 35.093)"/><path stroke-width=".384" stroke-miterlimit="10" fill="none" stroke="#000" d="M353.082 62.49V45.406"/><use xlink:href="#d" transform="matrix(20.5 0 0 -20.5 346.714 66.05)"/><use xlink:href="#d" transform="matrix(20.5 0 0 -20.5 368.709 71.175)"/><symbol id="w"><path d="M.072.4V.251L.17.283v.149L.072.4M.043.494v.163h.029V.504L.17.536v.146h.029V.545l.039.013V.454L.199.441V.293l.039.012V.202L.199.189V.026H.17V.18L.072.148V0H.043v.138L0 .124v.104l.043.014v.149L0 .377V.48l.043.014z"/></symbol><use xlink:href="#w" transform="matrix(20.5 0 0 -20.5 362.11 75.398)"/><path stroke-width=".384" stroke-miterlimit="10" fill="none" stroke="#000" d="M375.077 67.615v-13.24"/><use xlink:href="#d" transform="matrix(20.5 0 0 -20.5 382.162 73.737)"/><path stroke-width=".384" stroke-miterlimit="10" fill="none" stroke="#000" d="M388.53 70.177v-14.52"/><path d="m388.722 54.375-13.837-1.281v2.562l13.837 1.282"/><path stroke-width=".384" stroke-miterlimit="10" fill="none" stroke="#000" d="M402.38 72.74V55.656"/><use xlink:href="#e" transform="matrix(20.5 0 0 -20.5 395.856 76.402)"/><path stroke-width=".384" stroke-miterlimit="10" fill="none" stroke="#000" d="M345.453 103.49h11.104"/><use xlink:href="#f" transform="matrix(20.5 0 0 -20.5 346.707 106.196)"/><use xlink:href="#f" transform="matrix(20.5 0 0 -20.5 346.707 111.32)"/><use xlink:href="#f" transform="matrix(20.5 0 0 -20.5 346.707 116.446)"/><use xlink:href="#f" transform="matrix(20.5 0 0 -20.5 346.707 121.57)"/><use xlink:href="#w" transform="matrix(20.5 0 0 -20.5 340.115 120.669)"/><path d="M362.323 36.33h28.187V25.014h-28.187z" fill="#fff"/><use xlink:href="#o" transform="matrix(11 0 0 -11 365.534 34.089)"/><use xlink:href="#q" transform="matrix(11 0 0 -11 369.745 34.089)"/><use xlink:href="#j" transform="matrix(11 0 0 -11 372.817 34.089)"/><use xlink:href="#s" transform="matrix(11 0 0 -11 375.615 34.089)"/><use xlink:href="#k" transform="matrix(11 0 0 -11 381.142 34.239)"/><use xlink:href="#t" transform="matrix(11 0 0 -11 386.615 34.239)"/><symbol id="x"><path d="M.121.379a.148.148 0 0 0-.085.135c0 .044.017.083.05.114a.179.179 0 0 0 .128.048c.043 0 .08-.01.111-.031H.42L.444.644A.007.007 0 0 0 .45.64C.451.637.452.632.452.624S.452.61.45.606A.01.01 0 0 0 .444.603.104.104 0 0 0 .42.6H.362a.142.142 0 0 0 .027-.09.14.14 0 0 0-.048-.107A.181.181 0 0 0 .213.36a.25.25 0 0 0-.068.01.131.131 0 0 1-.03-.033.052.052 0 0 1-.007-.024c0-.005.003-.01.008-.016C.122.292.132.288.148.287A.841.841 0 0 1 .216.282C.283.28.326.279.346.276A.121.121 0 0 0 .42.242.092.092 0 0 0 .446.175C.446.138.43.104.395.07A.28.28 0 0 0 .195 0a.285.285 0 0 0-.158.042C.012.06 0 .076 0 .093 0 .101.002.11.005.117a.273.273 0 0 0 .035.05L.09.22a.166.166 0 0 0-.037.027.041.041 0 0 0-.01.027c0 .011.005.025.014.04.01.015.03.037.064.065m.085.274a.076.076 0 0 1-.06-.029C.129.604.12.575.12.536a.19.19 0 0 1 .033-.12A.079.079 0 0 1 .22.384c.024 0 .045.01.06.028.017.018.025.047.025.087A.196.196 0 0 1 .27.621a.077.077 0 0 1-.064.032M.116.216A.24.24 0 0 1 .082.169.084.084 0 0 1 .07.13C.07.115.08.102.098.09A.27.27 0 0 1 .24.059c.059 0 .102.01.13.03C.397.11.41.133.41.157.41.173.402.185.386.192a.326.326 0 0 1-.1.013C.211.207.155.21.115.215z"/></symbol><symbol id="y"><path d="M.701.677V.66A.108.108 0 0 1 .648.637.203.203 0 0 1 .602.563L.372 0H.352L.105.57a.315.315 0 0 1-.027.055.083.083 0 0 1-.03.023A.133.133 0 0 1 0 .659v.018h.27V.66C.24.656.22.651.21.644a.036.036 0 0 1-.013-.03A.22.22 0 0 1 .22.54L.388.15l.156.384a.258.258 0 0 1 .023.078c0 .01-.004.019-.014.027a.092.092 0 0 1-.048.019L.497.659v.018h.204z"/></symbol><use xlink:href="#x" transform="matrix(12 0 0 -12 56.107 151.09)"/><use xlink:href="#n" transform="matrix(12 0 0 -12 62.781 148.664)"/><use xlink:href="#q" transform="matrix(12 0 0 -12 65.084 148.5)"/><use xlink:href="#q" transform="matrix(12 0 0 -12 68.084 148.5)"/><use xlink:href="#j" transform="matrix(12 0 0 -12 71.435 148.5)"/><use xlink:href="#q" transform="matrix(12 0 0 -12 74.417 148.5)"/><use xlink:href="#q" transform="matrix(12 0 0 -12 77.417 148.5)"/><use xlink:href="#q" transform="matrix(12 0 0 -12 80.417 148.5)"/><use xlink:href="#q" transform="matrix(12 0 0 -12 83.417 148.5)"/><use xlink:href="#q" transform="matrix(12 0 0 -12 86.417 148.5)"/><use xlink:href="#q" transform="matrix(12 0 0 -12 89.417 148.5)"/><use xlink:href="#q" transform="matrix(12 0 0 -12 92.417 148.5)"/><use xlink:href="#q" transform="matrix(12 0 0 -12 95.417 148.5)"/><use xlink:href="#q" transform="matrix(12 0 0 -12 98.417 148.5)"/><use xlink:href="#q" transform="matrix(12 0 0 -12 101.417 148.5)"/><use xlink:href="#q" transform="matrix(12 0 0 -12 104.417 148.5)"/><use xlink:href="#q" transform="matrix(12 0 0 -12 107.417 148.5)"/><use xlink:href="#q" transform="matrix(12 0 0 -12 110.417 148.5)"/><use xlink:href="#q" transform="matrix(12 0 0 -12 113.417 148.5)"/><use xlink:href="#q" transform="matrix(12 0 0 -12 116.417 148.5)"/><use xlink:href="#q" transform="matrix(12 0 0 -12 119.417 148.5)"/><use xlink:href="#q" transform="matrix(12 0 0 -12 122.417 148.5)"/><use xlink:href="#q" transform="matrix(12 0 0 -12 125.417 148.5)"/><use xlink:href="#q" transform="matrix(12 0 0 -12 128.417 148.5)"/><use xlink:href="#q" transform="matrix(12 0 0 -12 131.417 148.5)"/><use xlink:href="#q" transform="matrix(12 0 0 -12 134.417 148.5)"/><use xlink:href="#q" transform="matrix(12 0 0 -12 137.417 148.5)"/><use xlink:href="#q" transform="matrix(12 0 0 -12 140.417 148.5)"/><use xlink:href="#q" transform="matrix(12 0 0 -12 143.417 148.5)"/><use xlink:href="#q" transform="matrix(12 0 0 -12 146.417 148.5)"/><use xlink:href="#q" transform="matrix(12 0 0 -12 149.417 148.5)"/><use xlink:href="#q" transform="matrix(12 0 0 -12 152.417 148.5)"/><use xlink:href="#q" transform="matrix(12 0 0 -12 155.417 148.5)"/><use xlink:href="#q" transform="matrix(12 0 0 -12 158.417 148.5)"/><use xlink:href="#q" transform="matrix(12 0 0 -12 161.417 148.5)"/><use xlink:href="#j" transform="matrix(12 0 0 -12 164.769 148.5)"/><use xlink:href="#k" transform="matrix(12 0 0 -12 167.85 148.664)"/><use xlink:href="#q" transform="matrix(12 0 0 -12 173.75 148.5)"/><use xlink:href="#q" transform="matrix(12 0 0 -12 176.75 148.5)"/><use xlink:href="#q" transform="matrix(12 0 0 -12 179.75 148.5)"/><use xlink:href="#q" transform="matrix(12 0 0 -12 182.75 148.5)"/><use xlink:href="#q" transform="matrix(12 0 0 -12 185.75 148.5)"/><use xlink:href="#q" transform="matrix(12 0 0 -12 188.75 148.5)"/><use xlink:href="#q" transform="matrix(12 0 0 -12 191.75 148.5)"/><use xlink:href="#q" transform="matrix(12 0 0 -12 194.75 148.5)"/><use xlink:href="#q" transform="matrix(12 0 0 -12 197.75 148.5)"/><use xlink:href="#q" transform="matrix(12 0 0 -12 200.75 148.5)"/><use xlink:href="#q" transform="matrix(12 0 0 -12 203.75 148.5)"/><use xlink:href="#q" transform="matrix(12 0 0 -12 206.75 148.5)"/><use xlink:href="#q" transform="matrix(12 0 0 -12 209.75 148.5)"/><use xlink:href="#q" transform="matrix(12 0 0 -12 212.75 148.5)"/><use xlink:href="#q" transform="matrix(12 0 0 -12 215.75 148.5)"/><use xlink:href="#q" transform="matrix(12 0 0 -12 218.75 148.5)"/><use xlink:href="#q" transform="matrix(12 0 0 -12 221.75 148.5)"/><use xlink:href="#q" transform="matrix(12 0 0 -12 224.75 148.5)"/><use xlink:href="#q" transform="matrix(12 0 0 -12 227.75 148.5)"/><use xlink:href="#q" transform="matrix(12 0 0 -12 230.75 148.5)"/><use xlink:href="#q" transform="matrix(12 0 0 -12 233.75 148.5)"/><use xlink:href="#q" transform="matrix(12 0 0 -12 236.75 148.5)"/><use xlink:href="#q" transform="matrix(12 0 0 -12 239.75 148.5)"/><use xlink:href="#q" transform="matrix(12 0 0 -12 242.75 148.5)"/><use xlink:href="#q" transform="matrix(12 0 0 -12 245.75 148.5)"/><use xlink:href="#q" transform="matrix(12 0 0 -12 248.75 148.5)"/><use xlink:href="#j" transform="matrix(12 0 0 -12 252.102 148.5)"/><use xlink:href="#q" transform="matrix(12 0 0 -12 255.084 148.5)"/><use xlink:href="#q" transform="matrix(12 0 0 -12 258.084 148.5)"/><use xlink:href="#q" transform="matrix(12 0 0 -12 261.084 148.5)"/><use xlink:href="#q" transform="matrix(12 0 0 -12 264.084 148.5)"/><use xlink:href="#q" transform="matrix(12 0 0 -12 267.084 148.5)"/><use xlink:href="#q" transform="matrix(12 0 0 -12 270.084 148.5)"/><use xlink:href="#q" transform="matrix(12 0 0 -12 273.084 148.5)"/><use xlink:href="#q" transform="matrix(12 0 0 -12 276.084 148.5)"/><use xlink:href="#q" transform="matrix(12 0 0 -12 279.084 148.5)"/><use xlink:href="#q" transform="matrix(12 0 0 -12 282.084 148.5)"/><use xlink:href="#q" transform="matrix(12 0 0 -12 285.084 148.5)"/><use xlink:href="#q" transform="matrix(12 0 0 -12 288.084 148.5)"/><use xlink:href="#q" transform="matrix(12 0 0 -12 291.084 148.5)"/><use xlink:href="#q" transform="matrix(12 0 0 -12 294.084 148.5)"/><use xlink:href="#q" transform="matrix(12 0 0 -12 297.084 148.5)"/><use xlink:href="#q" transform="matrix(12 0 0 -12 300.084 148.5)"/><use xlink:href="#q" transform="matrix(12 0 0 -12 303.084 148.5)"/><use xlink:href="#q" transform="matrix(12 0 0 -12 306.084 148.5)"/><use xlink:href="#q" transform="matrix(12 0 0 -12 309.084 148.5)"/><use xlink:href="#q" transform="matrix(12 0 0 -12 312.084 148.5)"/><use xlink:href="#q" transform="matrix(12 0 0 -12 315.084 148.5)"/><use xlink:href="#q" transform="matrix(12 0 0 -12 318.084 148.5)"/><use xlink:href="#q" transform="matrix(12 0 0 -12 321.084 148.5)"/><use xlink:href="#q" transform="matrix(12 0 0 -12 324.084 148.5)"/><use xlink:href="#q" transform="matrix(12 0 0 -12 327.084 148.5)"/><use xlink:href="#q" transform="matrix(12 0 0 -12 330.084 148.5)"/><use xlink:href="#q" transform="matrix(12 0 0 -12 333.084 148.5)"/><use xlink:href="#q" transform="matrix(12 0 0 -12 336.084 148.5)"/><use xlink:href="#y" transform="matrix(12 0 0 -12 338.973 148.682)"/><symbol id="z"><path d="M.063.676h.355V.657L.198 0H.143l.198.596H.159A.17.17 0 0 1 .08.583a.164.164 0 0 1-.066-.07L0 .52l.063.157z"/></symbol><use xlink:href="#z" transform="matrix(10 0 0 -10 347.906 146.387)"/><symbol id="A"><path d="M0 0v.716h.095V.084h.352V0H0z"/></symbol><symbol id="B"><path d="M.384.179.475.167a.222.222 0 0 0-.08-.123A.24.24 0 0 0 .248 0a.238.238 0 0 0-.18.07A.275.275 0 0 0 0 .267C0 .354.022.422.067.47a.228.228 0 0 0 .175.072c.07 0 .126-.024.17-.07a.281.281 0 0 0 .066-.2.82.82 0 0 0 0-.023H.09A.2.2 0 0 1 .139.118.144.144 0 0 1 .248.072c.032 0 .06.009.082.026.023.017.04.044.054.08M.096.322h.29a.176.176 0 0 1-.034.098.135.135 0 0 1-.109.05.14.14 0 0 1-.102-.04.161.161 0 0 1-.045-.108z"/></symbol><symbol id="C"><path d="M.368.076A.27.27 0 0 0 .178 0C.12 0 .075.014.045.042A.139.139 0 0 0 0 .148a.142.142 0 0 0 .063.12c.018.013.04.023.063.03A.628.628 0 0 0 .204.31a.803.803 0 0 1 .157.03v.023C.361.4.353.424.336.439.314.46.281.47.236.47.195.47.164.462.145.447.125.433.11.407.1.371L.015.382a.21.21 0 0 0 .039.09c.018.022.043.04.077.051A.342.342 0 0 0 .25.542c.044 0 .08-.005.108-.016a.141.141 0 0 0 .061-.04.136.136 0 0 0 .027-.059.495.495 0 0 0 .005-.08V.228C.45.147.45.096.455.074A.2.2 0 0 1 .478.012H.386a.186.186 0 0 0-.018.064M.361.272A.645.645 0 0 0 .217.239.332.332 0 0 1 .141.22a.076.076 0 0 1-.047-.07C.094.127.103.108.12.092.138.077.164.07.198.07s.064.007.09.022a.138.138 0 0 1 .059.06c.01.02.014.05.014.089v.032z"/></symbol><symbol id="D"><path d="M.368.012v.065A.161.161 0 0 0 .223 0 .205.205 0 0 0 .11.034a.227.227 0 0 0-.08.095A.334.334 0 0 0 0 .271c0 .051.009.098.026.14a.204.204 0 0 0 .193.131.171.171 0 0 0 .143-.071v.257H.45V.012H.368M.09.27C.09.204.104.154.132.12a.127.127 0 0 1 .1-.049c.038 0 .07.016.097.047.027.032.04.08.04.144C.37.334.357.386.33.42a.126.126 0 0 1-.2.002C.103.39.09.34.09.271z"/></symbol><symbol id="E"><path d="M0 0z"/></symbol><symbol id="F"><path d="M0 .167.087.18A.122.122 0 0 1 .127.1.143.143 0 0 1 .221.072c.04 0 .07.008.09.025.02.016.03.036.03.058C.34.175.33.19.313.202a.381.381 0 0 1-.09.03.854.854 0 0 0-.134.041.134.134 0 0 0-.056.05.133.133 0 0 0-.02.07c0 .023.006.044.016.064.011.02.026.036.044.049.013.01.032.018.055.025A.298.298 0 0 0 .312.524.145.145 0 0 0 .382.477a.184.184 0 0 0 .03-.08L.325.384a.094.094 0 0 1-.034.062.123.123 0 0 1-.08.023C.172.47.144.463.126.45.108.436.1.42.1.403.1.39.103.38.11.373A.078.078 0 0 1 .144.348C.153.345.179.338.222.326.284.31.327.296.352.286A.13.13 0 0 0 .41.238.148.148 0 0 0 .405.081.166.166 0 0 0 .33.021.272.272 0 0 0 .221 0a.245.245 0 0 0-.154.042A.196.196 0 0 0 0 .167z"/></symbol><symbol id="G"><path d="M0 0v.716h.088V.459A.196.196 0 0 0 .243.53a.208.208 0 0 0 .1-.023.13.13 0 0 0 .06-.062.286.286 0 0 0 .02-.116V0H.333v.329c0 .044-.01.075-.028.095-.02.02-.046.03-.08.03A.142.142 0 0 1 .15.435.113.113 0 0 1 .103.38.252.252 0 0 1 .088.284V0H0z"/></symbol><symbol id="H"><path d="M.24.085.253.008A.326.326 0 0 0 .187 0a.15.15 0 0 0-.075.015.085.085 0 0 0-.037.04.317.317 0 0 0-.01.104v.298H0v.068h.064v.129l.088.053V.525H.24V.457H.152V.154c0-.025.001-.041.004-.049A.038.038 0 0 1 .171.088a.06.06 0 0 1 .03-.006l.04.003z"/></symbol><symbol id="I"><path d="M0 .418v.1h.1v-.1H0M0 0v.1h.1V0H0z"/></symbol><use xlink:href="#A" transform="matrix(9 0 0 -9 2.66 15.75)"/><use xlink:href="#B" transform="matrix(9 0 0 -9 7.335 15.855)"/><use xlink:href="#C" transform="matrix(9 0 0 -9 12.337 15.855)"/><use xlink:href="#D" transform="matrix(9 0 0 -9 17.325 15.855)"/><use xlink:href="#E" transform="matrix(9 0 0 -9 22.023 15.75)"/><use xlink:href="#F" transform="matrix(9 0 0 -9 24.8 15.855)"/><use xlink:href="#G" transform="matrix(9 0 0 -9 29.617 15.75)"/><use xlink:href="#B" transform="matrix(9 0 0 -9 34.359 15.855)"/><use xlink:href="#B" transform="matrix(9 0 0 -9 39.365 15.855)"/><use xlink:href="#H" transform="matrix(9 0 0 -9 44.199 15.812)"/><use xlink:href="#I" transform="matrix(9 0 0 -9 47.354 15.75)"/><symbol id="J"><path d="M.517 0H0v.041h.517V0z"/></symbol><use xlink:href="#q" transform="matrix(12 0 0 -12 49.04 15.75)"/><use xlink:href="#q" transform="matrix(12 0 0 -12 52.04 15.75)"/><use xlink:href="#q" transform="matrix(12 0 0 -12 55.04 15.75)"/><use xlink:href="#q" transform="matrix(12 0 0 -12 58.04 15.75)"/><use xlink:href="#q" transform="matrix(12 0 0 -12 61.04 15.75)"/><use xlink:href="#q" transform="matrix(12 0 0 -12 64.04 15.75)"/><use xlink:href="#J" transform="matrix(12 0 0 -12 66.94 18.34)"/><use xlink:href="#J" transform="matrix(12 0 0 -12 72.94 18.34)"/><use xlink:href="#J" transform="matrix(12 0 0 -12 78.94 18.34)"/><use xlink:href="#q" transform="matrix(12 0 0 -12 85.04 15.75)"/><use xlink:href="#q" transform="matrix(12 0 0 -12 88.04 15.75)"/><use xlink:href="#q" transform="matrix(12 0 0 -12 91.04 15.75)"/><use xlink:href="#q" transform="matrix(12 0 0 -12 94.04 15.75)"/><use xlink:href="#q" transform="matrix(12 0 0 -12 97.04 15.75)"/><use xlink:href="#q" transform="matrix(12 0 0 -12 100.04 15.75)"/><use xlink:href="#q" transform="matrix(12 0 0 -12 103.04 15.75)"/><use xlink:href="#q" transform="matrix(12 0 0 -12 106.04 15.75)"/><use xlink:href="#q" transform="matrix(12 0 0 -12 109.04 15.75)"/><use xlink:href="#q" transform="matrix(12 0 0 -12 112.04 15.75)"/><use xlink:href="#q" transform="matrix(12 0 0 -12 115.04 15.75)"/><use xlink:href="#q" transform="matrix(12 0 0 -12 118.04 15.75)"/><use xlink:href="#q" transform="matrix(12 0 0 -12 121.04 15.75)"/><use xlink:href="#q" transform="matrix(12 0 0 -12 124.04 15.75)"/><use xlink:href="#q" transform="matrix(12 0 0 -12 127.04 15.75)"/><use xlink:href="#q" transform="matrix(12 0 0 -12 130.04 15.75)"/><use xlink:href="#q" transform="matrix(12 0 0 -12 133.04 15.75)"/><use xlink:href="#q" transform="matrix(12 0 0 -12 136.04 15.75)"/><use xlink:href="#q" transform="matrix(12 0 0 -12 139.04 15.75)"/><use xlink:href="#q" transform="matrix(12 0 0 -12 142.04 15.75)"/><use xlink:href="#q" transform="matrix(12 0 0 -12 145.04 15.75)"/><use xlink:href="#q" transform="matrix(12 0 0 -12 148.04 15.75)"/><use xlink:href="#q" transform="matrix(12 0 0 -12 151.04 15.75)"/><use xlink:href="#q" transform="matrix(12 0 0 -12 154.04 15.75)"/><use xlink:href="#J" transform="matrix(12 0 0 -12 156.94 18.34)"/><use xlink:href="#J" transform="matrix(12 0 0 -12 162.94 18.34)"/><use xlink:href="#J" transform="matrix(12 0 0 -12 168.94 18.34)"/><use xlink:href="#q" transform="matrix(12 0 0 -12 175.04 15.75)"/><use xlink:href="#q" transform="matrix(12 0 0 -12 178.04 15.75)"/><use xlink:href="#q" transform="matrix(12 0 0 -12 181.04 15.75)"/><use xlink:href="#q" transform="matrix(12 0 0 -12 184.04 15.75)"/><use xlink:href="#q" transform="matrix(12 0 0 -12 187.04 15.75)"/><use xlink:href="#q" transform="matrix(12 0 0 -12 190.04 15.75)"/><use xlink:href="#q" transform="matrix(12 0 0 -12 193.04 15.75)"/><use xlink:href="#q" transform="matrix(12 0 0 -12 196.04 15.75)"/><use xlink:href="#q" transform="matrix(12 0 0 -12 199.04 15.75)"/><use xlink:href="#q" transform="matrix(12 0 0 -12 202.04 15.75)"/><use xlink:href="#q" transform="matrix(12 0 0 -12 205.04 15.75)"/><use xlink:href="#q" transform="matrix(12 0 0 -12 208.04 15.75)"/><use xlink:href="#q" transform="matrix(12 0 0 -12 211.04 15.75)"/><use xlink:href="#q" transform="matrix(12 0 0 -12 214.04 15.75)"/><use xlink:href="#q" transform="matrix(12 0 0 -12 217.04 15.75)"/><use xlink:href="#q" transform="matrix(12 0 0 -12 220.04 15.75)"/><use xlink:href="#q" transform="matrix(12 0 0 -12 223.04 15.75)"/><use xlink:href="#q" transform="matrix(12 0 0 -12 226.04 15.75)"/><use xlink:href="#q" transform="matrix(12 0 0 -12 229.04 15.75)"/><use xlink:href="#q" transform="matrix(12 0 0 -12 232.04 15.75)"/><use xlink:href="#q" transform="matrix(12 0 0 -12 235.04 15.75)"/><use xlink:href="#q" transform="matrix(12 0 0 -12 238.04 15.75)"/><use xlink:href="#q" transform="matrix(12 0 0 -12 241.04 15.75)"/><use xlink:href="#J" transform="matrix(12 0 0 -12 243.94 18.34)"/><use xlink:href="#J" transform="matrix(12 0 0 -12 249.94 18.34)"/><use xlink:href="#J" transform="matrix(12 0 0 -12 255.94 18.34)"/><use xlink:href="#q" transform="matrix(12 0 0 -12 262.04 15.75)"/><use xlink:href="#q" transform="matrix(12 0 0 -12 265.04 15.75)"/><use xlink:href="#q" transform="matrix(12 0 0 -12 268.04 15.75)"/><use xlink:href="#q" transform="matrix(12 0 0 -12 271.04 15.75)"/><use xlink:href="#q" transform="matrix(12 0 0 -12 274.04 15.75)"/><use xlink:href="#q" transform="matrix(12 0 0 -12 277.04 15.75)"/><use xlink:href="#q" transform="matrix(12 0 0 -12 280.04 15.75)"/><use xlink:href="#q" transform="matrix(12 0 0 -12 283.04 15.75)"/><use xlink:href="#q" transform="matrix(12 0 0 -12 286.04 15.75)"/><use xlink:href="#q" transform="matrix(12 0 0 -12 289.04 15.75)"/><use xlink:href="#q" transform="matrix(12 0 0 -12 292.04 15.75)"/><use xlink:href="#q" transform="matrix(12 0 0 -12 295.04 15.75)"/><use xlink:href="#q" transform="matrix(12 0 0 -12 298.04 15.75)"/><use xlink:href="#q" transform="matrix(12 0 0 -12 301.04 15.75)"/><use xlink:href="#q" transform="matrix(12 0 0 -12 304.04 15.75)"/><use xlink:href="#q" transform="matrix(12 0 0 -12 307.04 15.75)"/><use xlink:href="#q" transform="matrix(12 0 0 -12 310.04 15.75)"/><use xlink:href="#q" transform="matrix(12 0 0 -12 313.04 15.75)"/><use xlink:href="#q" transform="matrix(12 0 0 -12 316.04 15.75)"/><use xlink:href="#q" transform="matrix(12 0 0 -12 319.04 15.75)"/><use xlink:href="#q" transform="matrix(12 0 0 -12 322.04 15.75)"/><use xlink:href="#q" transform="matrix(12 0 0 -12 325.04 15.75)"/><use xlink:href="#q" transform="matrix(12 0 0 -12 328.04 15.75)"/><use xlink:href="#q" transform="matrix(12 0 0 -12 331.04 15.75)"/><use xlink:href="#J" transform="matrix(12 0 0 -12 333.94 18.34)"/><use xlink:href="#J" transform="matrix(12 0 0 -12 339.94 18.34)"/><use xlink:href="#J" transform="matrix(12 0 0 -12 345.94 18.34)"/><use xlink:href="#q" transform="matrix(12 0 0 -12 352.04 15.75)"/><symbol id="K"><path d="M.566.692.58.467H.566a.283.283 0 0 1-.087.146.21.21 0 0 1-.134.044.218.218 0 0 1-.12-.033.221.221 0 0 1-.083-.107.479.479 0 0 1-.03-.182C.111.275.12.223.14.179a.216.216 0 0 1 .087-.1.25.25 0 0 1 .132-.036c.043 0 .08.01.114.027A.379.379 0 0 1 .58.18L.596.17A.348.348 0 0 0 .48.041.294.294 0 0 0 .322 0C.212 0 .128.04.067.122A.349.349 0 0 0 0 .336a.38.38 0 0 0 .044.182.33.33 0 0 0 .292.174A.312.312 0 0 0 .48.657a.077.077 0 0 1 .029-.01C.517.646.524.65.53.655a.076.076 0 0 1 .018.036h.017z"/></symbol><symbol id="L"><path d="M.249.074A.737.737 0 0 0 .163.012.132.132 0 0 0 .106 0C.076 0 .05.01.03.032A.117.117 0 0 0 0 .115c0 .022.005.04.015.057a.194.194 0 0 0 .069.062c.033.02.088.044.165.072v.017c0 .045-.007.075-.021.092C.214.432.193.44.166.44A.07.07 0 0 1 .117.423.05.05 0 0 1 .1.385V.357C.1.342.097.33.089.322A.039.039 0 0 0 .058.31a.039.039 0 0 0-.03.013.05.05 0 0 0-.01.034c0 .028.013.054.042.078A.186.186 0 0 0 .18.47.21.21 0 0 0 .279.45.092.092 0 0 0 .321.402.267.267 0 0 0 .33.316V.165c0-.043 0-.07.002-.08C.334.077.336.07.34.068A.02.02 0 0 1 .353.062c.005 0 .01.001.014.003l.04.036V.074C.37.024.334 0 .301 0a.047.047 0 0 0-.038.017C.254.028.249.047.249.074m0 .031v.17a.964.964 0 0 1-.095-.04.164.164 0 0 1-.055-.046.087.087 0 0 1-.017-.05c0-.024.007-.044.021-.06A.064.064 0 0 1 .151.058C.176.057.21.073.25.105z"/></symbol><symbol id="M"><path d="M.314.064A.23.23 0 0 0 .25.014.157.157 0 0 0 .183 0a.167.167 0 0 0-.128.061A.229.229 0 0 0 0 .219C0 .283.02.34.06.395c.04.053.093.08.156.08.04 0 .072-.013.098-.038V.52A.633.633 0 0 1 .31.614C.308.625.304.634.3.638a.03.03 0 0 1-.02.006.103.103 0 0 1-.033-.008L.239.653l.134.055h.022V.191c0-.052 0-.085.003-.096C.4.083.404.075.41.07A.03.03 0 0 1 .429.064c.009 0 .02.003.035.008L.469.055.336 0H.314v.064m0 .034v.23A.156.156 0 0 1 .296.39.1.1 0 0 1 .257.43.092.092 0 0 1 .21.444.1.1 0 0 1 .134.406C.104.372.089.322.089.257.09.192.104.141.132.106.161.071.192.054.228.054c.03 0 .058.015.086.044z"/></symbol><use xlink:href="#K" transform="matrix(11 0 0 -11 315.647 170.417)"/><use xlink:href="#L" transform="matrix(11 0 0 -11 322.98 170.352)"/><use xlink:href="#M" transform="matrix(11 0 0 -11 327.834 170.4)"/><use xlink:href="#l" transform="matrix(11 0 0 -11 333.377 170.4)"/><use xlink:href="#s" transform="matrix(11 0 0 -11 337.915 170.25)"/><use xlink:href="#u" transform="matrix(11 0 0 -11 343.727 170.4)"/><use xlink:href="#l" transform="matrix(11 0 0 -11 348.64 170.4)"/><use xlink:href="#n" transform="matrix(11 0 0 -11 354.06 170.4)"/><use xlink:href="#q" transform="matrix(12 0 0 -12 356.172 170.25)"/><use xlink:href="#J" transform="matrix(12 0 0 -12 359.072 172.84)"/><use xlink:href="#J" transform="matrix(12 0 0 -12 365.072 172.84)"/><use xlink:href="#J" transform="matrix(12 0 0 -12 371.072 172.84)"/><use xlink:href="#J" transform="matrix(12 0 0 -12 377.072 172.84)"/><use xlink:href="#J" transform="matrix(12 0 0 -12 383.072 172.84)"/><use xlink:href="#J" transform="matrix(12 0 0 -12 389.072 172.84)"/><use xlink:href="#J" transform="matrix(12 0 0 -12 395.072 172.84)"/><use xlink:href="#J" transform="matrix(12 0 0 -12 401.072 172.84)"/><use xlink:href="#J" transform="matrix(12 0 0 -12 407.072 172.84)"/><use xlink:href="#J" transform="matrix(12 0 0 -12 413.072 172.84)"/><use xlink:href="#J" transform="matrix(12 0 0 -12 419.072 172.84)"/><use xlink:href="#J" transform="matrix(12 0 0 -12 425.072 172.84)"/><symbol id="N"><path d="M.188.355h.308v.19A.222.222 0 0 1 .49.61a.044.044 0 0 1-.02.021.09.09 0 0 1-.045.012H.4v.018h.284V.644H.66A.093.093 0 0 1 .617.633.042.042 0 0 1 .595.609.243.243 0 0 1 .59.544V.117A.22.22 0 0 1 .596.051.044.044 0 0 1 .616.03.093.093 0 0 1 .661.018h.024V0H.4v.018h.024c.027 0 .047.008.059.024.008.01.012.035.012.075V.32H.188V.117A.22.22 0 0 1 .195.051.044.044 0 0 1 .215.03.09.09 0 0 1 .26.018h.024V0H0v.018h.023c.028 0 .048.008.06.024.008.01.012.035.012.075v.427a.222.222 0 0 1-.007.067.044.044 0 0 1-.02.021.093.093 0 0 1-.045.012H0v.018h.284V.644H.26A.093.093 0 0 1 .215.633a.042.042 0 0 1-.02-.024.223.223 0 0 1-.007-.065V.355z"/></symbol><symbol id="O"><path d="M.155.694V.101c0-.028.002-.046.006-.056a.046.046 0 0 1 .02-.02.112.112 0 0 1 .047-.007V0h-.22v.018c.02 0 .035.002.042.006a.042.042 0 0 1 .018.02c.004.01.006.03.006.057v.406c0 .05 0 .082-.003.093C.069.612.065.62.06.624A.028.028 0 0 1 .04.63.091.091 0 0 1 .009.623L0 .64l.133.054h.022z"/></symbol><symbol id="P"><path d="M.167.412V.118C.167.076.172.05.181.04A.06.06 0 0 1 .23.018H.27V0H.003v.018h.02c.013 0 .025.003.036.01A.05.05 0 0 1 .08.053a.213.213 0 0 1 .006.064v.294H0v.035h.087v.03c0 .044.007.082.021.113a.18.18 0 0 0 .165.104A.15.15 0 0 0 .368.66C.387.646.396.63.396.61A.04.04 0 0 0 .383.584.038.038 0 0 0 .356.57a.046.046 0 0 0-.024.008.138.138 0 0 0-.03.035.122.122 0 0 1-.033.036.063.063 0 0 1-.034.01.06.06 0 0 1-.038-.013.066.066 0 0 1-.023-.037.692.692 0 0 1-.007-.13V.447h.116V.412H.167z"/></symbol><use xlink:href="#N" transform="matrix(11 0 0 -11 363.688 167)"/><use xlink:href="#L" transform="matrix(11 0 0 -11 371.836 167.102)"/><use xlink:href="#O" transform="matrix(11 0 0 -11 376.654 167)"/><use xlink:href="#P" transform="matrix(11 0 0 -11 379.806 167)"/><use xlink:href="#q" transform="matrix(11 0 0 -11 383.045 167)"/><use xlink:href="#K" transform="matrix(11 0 0 -11 386.192 167.167)"/><use xlink:href="#L" transform="matrix(11 0 0 -11 393.524 167.102)"/><use xlink:href="#M" transform="matrix(11 0 0 -11 398.379 167.15)"/><use xlink:href="#l" transform="matrix(11 0 0 -11 403.922 167.15)"/><use xlink:href="#s" transform="matrix(11 0 0 -11 408.46 167)"/><use xlink:href="#u" transform="matrix(11 0 0 -11 414.271 167.15)"/><use xlink:href="#l" transform="matrix(11 0 0 -11 419.185 167.15)"/><symbol id="Q"><path d="M.579.692.596.483H.579a.286.286 0 0 1-.067.118.21.21 0 0 1-.152.057.216.216 0 0 1-.193-.1.36.36 0 0 1-.055-.201c0-.063.013-.12.037-.173A.26.26 0 0 1 .245.07.233.233 0 0 1 .438.042.282.282 0 0 1 .502.07V.26a.17.17 0 0 1-.007.065.048.048 0 0 1-.024.024.13.13 0 0 1-.055.008v.018h.256V.358H.66C.635.358.618.349.608.333A.171.171 0 0 1 .598.26V.06A.485.485 0 0 0 .367 0C.238 0 .141.041.075.123A.329.329 0 0 0 0 .336C0 .394.014.45.042.503A.359.359 0 0 0 .179.65.335.335 0 0 0 .35.692.335.335 0 0 0 .416.687.595.595 0 0 0 .5.66.135.135 0 0 1 .537.65c.006 0 .011.002.015.008.005.006.008.017.009.033h.018z"/></symbol><symbol id="R"><path d="M.156.365c.032.033.052.052.057.056.015.013.03.022.048.03.017.006.033.01.05.01A.112.112 0 0 0 .383.435a.12.12 0 0 0 .04-.07C.458.403.487.43.51.441A.15.15 0 0 0 .58.46.11.11 0 0 0 .643.442a.12.12 0 0 0 .044-.06.27.27 0 0 0 .01-.089V.101C.698.073.7.054.705.043A.043.043 0 0 1 .722.025.093.093 0 0 1 .765.018V0h-.22v.018h.009c.019 0 .034.003.045.01a.044.044 0 0 1 .016.026A.313.313 0 0 1 .617.1v.192a.163.163 0 0 1-.013.078C.59.39.57.4.542.4A.116.116 0 0 1 .49.39.278.278 0 0 1 .427.34V.1c0-.03.002-.05.005-.057a.044.044 0 0 1 .02-.02A.114.114 0 0 1 .5.019V0H.274v.018c.025 0 .042.003.05.008.01.006.017.015.02.027A.26.26 0 0 1 .347.1v.192C.347.33.34.356.33.373a.069.069 0 0 1-.06.03A.108.108 0 0 1 .218.39.201.201 0 0 1 .156.341V.1c0-.03.002-.048.006-.057A.045.045 0 0 1 .18.024.122.122 0 0 1 .229.018V0H.007v.018c.02 0 .035.002.043.006a.044.044 0 0 1 .019.02c.004.01.006.03.006.057v.171a.62.62 0 0 1-.004.095C.069.377.065.385.06.39A.03.03 0 0 1 .04.396.094.094 0 0 1 .007.388L0 .406.135.46h.02V.365z"/></symbol><symbol id="S"><path d="M0 0v.018h.025c.028 0 .048.009.06.027.007.01.01.035.01.072v.428c0 .041-.004.067-.013.078C.069.637.05.644.025.644H0v.018h.27A.587.587 0 0 0 .495.628.267.267 0 0 0 .62.516.345.345 0 0 0 .667.334a.331.331 0 0 0-.084-.23C.52.034.424 0 .296 0H0m.189.048A.499.499 0 0 1 .293.034c.075 0 .138.027.188.08.05.053.075.125.075.216A.302.302 0 0 1 .48.546a.252.252 0 0 1-.192.079.415.415 0 0 1-.1-.014V.048z"/></symbol><use xlink:href="#Q" transform="matrix(12 0 0 -12 67.422 14.432)"/><use xlink:href="#R" transform="matrix(12 0 0 -12 75.766 14.25)"/><use xlink:href="#q" transform="matrix(12 0 0 -12 85 14.25)"/><use xlink:href="#q" transform="matrix(12 0 0 -12 88 14.25)"/><use xlink:href="#q" transform="matrix(12 0 0 -12 91 14.25)"/><use xlink:href="#q" transform="matrix(12 0 0 -12 94 14.25)"/><use xlink:href="#q" transform="matrix(12 0 0 -12 97 14.25)"/><use xlink:href="#q" transform="matrix(12 0 0 -12 100 14.25)"/><use xlink:href="#q" transform="matrix(12 0 0 -12 103 14.25)"/><use xlink:href="#q" transform="matrix(12 0 0 -12 106 14.25)"/><use xlink:href="#q" transform="matrix(12 0 0 -12 109 14.25)"/><use xlink:href="#q" transform="matrix(12 0 0 -12 112 14.25)"/><use xlink:href="#q" transform="matrix(12 0 0 -12 115 14.25)"/><use xlink:href="#q" transform="matrix(12 0 0 -12 118 14.25)"/><use xlink:href="#q" transform="matrix(12 0 0 -12 121 14.25)"/><use xlink:href="#q" transform="matrix(12 0 0 -12 124 14.25)"/><use xlink:href="#q" transform="matrix(12 0 0 -12 127 14.25)"/><use xlink:href="#q" transform="matrix(12 0 0 -12 130 14.25)"/><use xlink:href="#q" transform="matrix(12 0 0 -12 133 14.25)"/><use xlink:href="#q" transform="matrix(12 0 0 -12 136 14.25)"/><use xlink:href="#q" transform="matrix(12 0 0 -12 139 14.25)"/><use xlink:href="#q" transform="matrix(12 0 0 -12 142 14.25)"/><use xlink:href="#q" transform="matrix(12 0 0 -12 145 14.25)"/><use xlink:href="#q" transform="matrix(12 0 0 -12 148 14.25)"/><use xlink:href="#q" transform="matrix(12 0 0 -12 151 14.25)"/><use xlink:href="#q" transform="matrix(12 0 0 -12 154 14.25)"/><use xlink:href="#K" transform="matrix(12 0 0 -12 157.434 14.432)"/><use xlink:href="#R" transform="matrix(12 0 0 -12 165.104 14.25)"/><use xlink:href="#q" transform="matrix(12 0 0 -12 174.338 14.25)"/><use xlink:href="#q" transform="matrix(12 0 0 -12 177.338 14.25)"/><use xlink:href="#q" transform="matrix(12 0 0 -12 180.338 14.25)"/><use xlink:href="#q" transform="matrix(12 0 0 -12 183.338 14.25)"/><use xlink:href="#q" transform="matrix(12 0 0 -12 186.338 14.25)"/><use xlink:href="#q" transform="matrix(12 0 0 -12 189.338 14.25)"/><use xlink:href="#q" transform="matrix(12 0 0 -12 192.338 14.25)"/><use xlink:href="#q" transform="matrix(12 0 0 -12 195.338 14.25)"/><use xlink:href="#q" transform="matrix(12 0 0 -12 198.338 14.25)"/><use xlink:href="#q" transform="matrix(12 0 0 -12 201.338 14.25)"/><use xlink:href="#q" transform="matrix(12 0 0 -12 204.338 14.25)"/><use xlink:href="#q" transform="matrix(12 0 0 -12 207.338 14.25)"/><use xlink:href="#q" transform="matrix(12 0 0 -12 210.338 14.25)"/><use xlink:href="#q" transform="matrix(12 0 0 -12 213.338 14.25)"/><use xlink:href="#q" transform="matrix(12 0 0 -12 216.338 14.25)"/><use xlink:href="#q" transform="matrix(12 0 0 -12 219.338 14.25)"/><use xlink:href="#q" transform="matrix(12 0 0 -12 222.338 14.25)"/><use xlink:href="#q" transform="matrix(12 0 0 -12 225.338 14.25)"/><use xlink:href="#q" transform="matrix(12 0 0 -12 228.338 14.25)"/><use xlink:href="#q" transform="matrix(12 0 0 -12 231.338 14.25)"/><use xlink:href="#q" transform="matrix(12 0 0 -12 234.338 14.25)"/><use xlink:href="#q" transform="matrix(12 0 0 -12 237.338 14.25)"/><use xlink:href="#q" transform="matrix(12 0 0 -12 240.338 14.25)"/><use xlink:href="#Q" transform="matrix(12 0 0 -12 243.76 14.432)"/><use xlink:href="#R" transform="matrix(12 0 0 -12 252.104 14.25)"/><use xlink:href="#q" transform="matrix(12 0 0 -12 261.338 14.25)"/><use xlink:href="#q" transform="matrix(12 0 0 -12 264.338 14.25)"/><use xlink:href="#q" transform="matrix(12 0 0 -12 267.338 14.25)"/><use xlink:href="#q" transform="matrix(12 0 0 -12 270.338 14.25)"/><use xlink:href="#q" transform="matrix(12 0 0 -12 273.338 14.25)"/><use xlink:href="#q" transform="matrix(12 0 0 -12 276.338 14.25)"/><use xlink:href="#q" transform="matrix(12 0 0 -12 279.338 14.25)"/><use xlink:href="#q" transform="matrix(12 0 0 -12 282.338 14.25)"/><use xlink:href="#q" transform="matrix(12 0 0 -12 285.338 14.25)"/><use xlink:href="#q" transform="matrix(12 0 0 -12 288.338 14.25)"/><use xlink:href="#q" transform="matrix(12 0 0 -12 291.338 14.25)"/><use xlink:href="#q" transform="matrix(12 0 0 -12 294.338 14.25)"/><use xlink:href="#q" transform="matrix(12 0 0 -12 297.338 14.25)"/><use xlink:href="#q" transform="matrix(12 0 0 -12 300.338 14.25)"/><use xlink:href="#q" transform="matrix(12 0 0 -12 303.338 14.25)"/><use xlink:href="#q" transform="matrix(12 0 0 -12 306.338 14.25)"/><use xlink:href="#q" transform="matrix(12 0 0 -12 309.338 14.25)"/><use xlink:href="#q" transform="matrix(12 0 0 -12 312.338 14.25)"/><use xlink:href="#q" transform="matrix(12 0 0 -12 315.338 14.25)"/><use xlink:href="#q" transform="matrix(12 0 0 -12 318.338 14.25)"/><use xlink:href="#q" transform="matrix(12 0 0 -12 321.338 14.25)"/><use xlink:href="#q" transform="matrix(12 0 0 -12 324.338 14.25)"/><use xlink:href="#q" transform="matrix(12 0 0 -12 327.338 14.25)"/><use xlink:href="#q" transform="matrix(12 0 0 -12 330.338 14.25)"/><use xlink:href="#S" transform="matrix(12 0 0 -12 333.543 14.25)"/><use xlink:href="#z" transform="matrix(9 0 0 -9 342.338 9.373)"/></svg>