<svg xmlns="http://www.w3.org/2000/svg" xmlns:xlink="http://www.w3.org/1999/xlink" width="424pt" height="201.667" viewBox="0 0 424 151.25"><path d="M-153.5 640.25h612v-792h-612z" fill="#fff"/><path stroke-width=".384" stroke-miterlimit="10" fill="none" stroke="#000" d="M9.624 45.75v78.583"/><symbol id="a"><path d="M.469.44A.415.415 0 0 0 .348.434a.459.459 0 0 0-.097.02.554.554 0 0 0-.125.078.344.344 0 0 0-.11.178.677.677 0 0 0-.013.096C0 .842.003.877.012.911a.55.55 0 0 0 .153.257 1.843 1.843 0 0 0 .162.136.194.194 0 0 1-.003.023.33.33 0 0 0-.011.076l-.002.03a.924.924 0 0 0-.001.121.345.345 0 0 0 .031.144.615.615 0 0 0 .039.075.4.4 0 0 0 .048.062c.016.018.032.026.047.026.007 0 .015-.004.024-.014a.405.405 0 0 0 .05-.087.544.544 0 0 0 .042-.168c0-.034-.001-.065-.004-.092a.415.415 0 0 0-.067-.182.402.402 0 0 0-.033-.048 9.105 9.105 0 0 0-.033-.04.22.22 0 0 0-.038-.038.517.517 0 0 1-.038-.03A16.911 16.911 0 0 0 .41.966a.361.361 0 0 0 .14-.02.207.207 0 0 0 .03-.015A.224.224 0 0 0 .657.84.31.31 0 0 0 .684.735.276.276 0 0 0 .643.57.319.319 0 0 0 .494.446 22.623 22.623 0 0 0 .52.272.508.508 0 0 0 .527.174.148.148 0 0 0 .512.111.283.283 0 0 0 .486.072.164.164 0 0 0 .405.013.236.236 0 0 0 .283.006a.234.234 0 0 0-.07.023.175.175 0 0 0-.056.044.116.116 0 0 0-.027.07.175.175 0 0 0 .003.048.14.14 0 0 0 .017.044C.158.248.17.26.183.267a.11.11 0 0 0 .087.01.137.137 0 0 0 .035-.019A.099.099 0 0 0 .343.19.101.101 0 0 0 .32.12.157.157 0 0 0 .232.065.09.09 0 0 1 .27.04a.166.166 0 0 1 .154.013.183.183 0 0 1 .063.065C.496.136.5.158.5.186a.702.702 0 0 1-.02.175L.469.44m.02 1.267c-.025 0-.048-.012-.068-.037a.298.298 0 0 1-.048-.092.567.567 0 0 1-.021-.252.748.748 0 0 1 .134.136.41.41 0 0 1 .048.081.155.155 0 0 1 .002.133.072.072 0 0 1-.018.022.043.043 0 0 1-.028.01M.488.48c.028.01.05.023.067.04A.152.152 0 0 1 .59.57a.155.155 0 0 1 .013.056.433.433 0 0 1 0 .05.332.332 0 0 1-.008.045.132.132 0 0 1-.075.093.172.172 0 0 1-.088.014L.488.48M.406.827A.155.155 0 0 1 .338.81.123.123 0 0 1 .27.691.158.158 0 0 1 .297.62.23.23 0 0 1 .322.59.11.11 0 0 1 .35.57.016.016 0 0 0 .346.564.016.016 0 0 0 .343.561.016.016 0 0 1 .34.557a.245.245 0 0 0-.055.036.257.257 0 0 0-.03.03.747.747 0 0 0-.02.026.119.119 0 0 0-.012.026.25.25 0 0 0-.01.03.278.278 0 0 0 0 .081.226.226 0 0 0 .016.048.247.247 0 0 0 .074.09.248.248 0 0 0 .043.025.868.868 0 0 0 .039.013l-.03.181A1.039 1.039 0 0 1 .142.938.715.715 0 0 1 .086.833.216.216 0 0 1 .07.73.246.246 0 0 1 .109.612.316.316 0 0 1 .32.47a.315.315 0 0 1 .143.003 36.857 36.857 0 0 1-.056.34L.406.826z"/></symbol><use xlink:href="#a" transform="matrix(20.5 0 0 -20.5 14.93 75.297)"/><symbol id="b"><path d="M.497.324A.426.426 0 0 0 .462.266.625.625 0 0 0 .007 0L0 .015a.839.839 0 0 1 .176.081c.03.017.055.036.076.058.054.057.095.12.123.19a.594.594 0 0 1 .033.304.258.258 0 0 1-.023.074.168.168 0 0 1-.046.06.112.112 0 0 1-.076.025.174.174 0 0 1-.058-.011.21.21 0 0 1-.055-.03.152.152 0 0 1-.041-.044.082.082 0 0 1-.013-.054c0-.003.003-.004.006-.003a.58.58 0 0 0 .042.011.16.16 0 0 0 .037.002.063.063 0 0 0 .038-.014.091.091 0 0 0 .026-.031.124.124 0 0 0 .011-.085.096.096 0 0 0-.03-.052.082.082 0 0 0-.059-.02.128.128 0 0 0-.114.071.122.122 0 0 0-.01.051c0 .029.002.054.009.076a.199.199 0 0 0 .092.121c.025.015.05.026.075.031A.234.234 0 0 0 .367.823.285.285 0 0 0 .501.731.267.267 0 0 0 .559.564a.47.47 0 0 0-.062-.24m.101.385c0 .015.004.028.015.038.01.01.024.016.039.016A.051.051 0 0 0 .691.749.048.048 0 0 0 .708.711.053.053 0 0 0 .654.655a.053.053 0 0 0-.056.054m0-.252a.05.05 0 0 0 .016.038c.01.01.024.015.039.016A.057.057 0 0 0 .692.497.048.048 0 0 0 .709.459.05.05 0 0 0 .694.42.052.052 0 0 0 .655.403a.053.053 0 0 0-.04.015.057.057 0 0 0-.017.039z"/></symbol><use xlink:href="#b" transform="matrix(20.5 0 0 -20.5 15.087 120.971)"/><symbol id="c"><path d="M.216.496a.283.283 0 0 0 .076-.01.187.187 0 0 0 .063-.028.127.127 0 0 0 .059-.11c0-.01-.003-.02-.008-.029a.113.113 0 0 0-.02-.024A.105.105 0 0 0 .36.279.056.056 0 0 0 .337.273a.132.132 0 0 0-.025.003.127.127 0 0 0-.028.012.08.08 0 0 0-.023.022.073.073 0 0 0-.009.038c0 .02.006.035.018.048a.06.06 0 0 0 .045.02c.012 0 .018.003.019.008A.02.02 0 0 1 .329.44a.11.11 0 0 1-.046.026.108.108 0 0 1-.065 0A.099.099 0 0 1 .169.437.167.167 0 0 1 .14.387.302.302 0 0 1 .126.322.634.634 0 0 1 .143.099.123.123 0 0 1 .178.05.09.09 0 0 1 .237.031a.144.144 0 0 1 .097.042.135.135 0 0 1 .033.046.125.125 0 0 1 .012.059h.028a.129.129 0 0 0-.023-.08.117.117 0 0 0-.012-.021.19.19 0 0 0-.031-.03.196.196 0 0 0-.037-.024A.176.176 0 0 0 .226 0a.22.22 0 0 0-.163.076.251.251 0 0 0-.047.08.278.278 0 0 0 .043.265c.02.023.042.04.069.054a.186.186 0 0 0 .088.021z"/></symbol><use xlink:href="#c" transform="matrix(20.5 0 0 -20.5 34.926 61.105)"/><use xlink:href="#c" transform="matrix(20.5 0 0 -20.5 34.926 119.188)"/><path stroke-width=".384" stroke-miterlimit="10" fill="none" stroke="#000" d="M155.473 45.75v78.583M234.483 45.75v78.583M310.504 45.75v78.583"/><path stroke-width="2.563" stroke-miterlimit="10" fill="none" stroke="#000" d="M421.14 45.75v78.583"/><path stroke-width=".384" stroke-miterlimit="10" fill="none" stroke="#000" d="M417.105 45.75v78.583M9.432 45.75h412.99M9.432 50.875h412.99M9.432 56h412.99M9.432 61.125h412.99M9.432 66.25h412.99M9.432 103.833h412.99M9.432 108.958h412.99M9.432 114.083h412.99M9.432 119.208h412.99M9.432 124.333h412.99"/><path d="M6.87 45.75c-12.813 20.5 6.406 29.042-5.125 39.292h.854c10.763-7.688-3.331-23.917 4.356-37.754M6.87 124.333c-12.813-20.5 6.406-29.041-5.125-39.291h.854c10.763 7.687-3.331 23.916 4.356 37.754"/><path stroke-width=".614" stroke-miterlimit="10" fill="none" stroke="#000" d="M54.276 35.073V32.51h47.833v2.563M108.943 35.073V32.51h35.661v2.563M162.542 35.073V32.51h65.13v2.563M243.047 35.073V32.51h54.88v2.563M317.573 35.073V32.51h47.193v2.563M370.318 35.073V32.51h36.729v2.563"/><path stroke-width=".384" stroke-miterlimit="10" fill="none" stroke="#000" d="M52.995 71.375h9.182"/><symbol id="d"><path d="M.009.131a.161.161 0 0 0 .03.05.232.232 0 0 0 .106.067c.02.007.042.01.063.01.021 0 .04-.004.056-.011A.091.091 0 0 0 .302.219.078.078 0 0 0 .319.178a.096.096 0 0 0-.006-.05.152.152 0 0 0-.031-.05.217.217 0 0 0-.048-.041A.206.206 0 0 0 .175.01.201.201 0 0 0 .113 0a.133.133 0 0 0-.056.011.101.101 0 0 0-.038.028.084.084 0 0 0-.017.042.105.105 0 0 0 .007.05z"/></symbol><use xlink:href="#d" transform="matrix(20.5 0 0 -20.5 54.255 74.081)"/><path stroke-width=".384" stroke-miterlimit="10" fill="none" stroke="#000" d="M60.624 70.52V52.157"/><use xlink:href="#d" transform="matrix(20.5 0 0 -20.5 64.72 71.519)"/><path stroke-width=".384" stroke-miterlimit="10" fill="none" stroke="#000" d="M71.087 67.958V51.691"/><use xlink:href="#d" transform="matrix(20.5 0 0 -20.5 73.901 68.956)"/><path stroke-width=".384" stroke-miterlimit="10" fill="none" stroke="#000" d="M80.27 65.396V51.283"/><use xlink:href="#d" transform="matrix(20.5 0 0 -20.5 83.084 66.394)"/><path stroke-width=".384" stroke-miterlimit="10" fill="none" stroke="#000" d="M89.452 62.833V50.875"/><path d="m89.644 49.594-29.212 1.281v2.563l29.212-1.282M89.644 53.438l-29.212 1.28v2.563L89.644 56"/><path stroke-width=".384" stroke-miterlimit="10" fill="none" stroke="#000" d="M98.634 60.27V43.188"/><use xlink:href="#d" transform="matrix(20.5 0 0 -20.5 92.266 63.831)"/><use xlink:href="#d" transform="matrix(20.5 0 0 -20.5 109.136 56.144)"/><path stroke-width=".384" stroke-miterlimit="10" fill="none" stroke="#000" d="M109.348 54.292v18.364"/><use xlink:href="#d" transform="matrix(20.5 0 0 -20.5 120.026 58.706)"/><path stroke-width=".384" stroke-miterlimit="10" fill="none" stroke="#000" d="M120.239 56.854v15.802"/><use xlink:href="#d" transform="matrix(20.5 0 0 -20.5 129.209 53.581)"/><path stroke-width=".384" stroke-miterlimit="10" fill="none" stroke="#000" d="M129.421 51.73v20.926"/><path d="M129.613 71.375h-20.457v2.563h20.457M129.613 67.531h-9.566v2.563h9.566"/><path stroke-width=".384" stroke-miterlimit="10" fill="none" stroke="#000" d="M138.603 54.292v17.083"/><use xlink:href="#d" transform="matrix(20.5 0 0 -20.5 138.391 56.144)"/><symbol id="e"><path d="M.001.135a.08.08 0 0 0 .012.049.14.14 0 0 0 .042.042.239.239 0 0 0 .063.029.276.276 0 0 0 .08.011.402.402 0 0 0 .08-.008.235.235 0 0 0 .07-.025.16.16 0 0 0 .05-.043.108.108 0 0 0 .023-.06.077.077 0 0 0-.013-.049.13.13 0 0 0-.04-.042A.266.266 0 0 0 .226 0a.402.402 0 0 0-.082.008.249.249 0 0 0-.07.025.15.15 0 0 0-.05.042.108.108 0 0 0-.024.06m.125.019a.532.532 0 0 1 .01-.051.173.173 0 0 1 .018-.042.093.093 0 0 1 .028-.028.082.082 0 0 1 .074-.002c.01.005.019.012.025.02a.07.07 0 0 1 .014.027C.3.088.3.097.298.106a.382.382 0 0 1-.01.051.152.152 0 0 1-.02.042.086.086 0 0 1-.072.039A.063.063 0 0 1 .164.23.074.074 0 0 1 .128.183.072.072 0 0 1 .126.154z"/></symbol><use xlink:href="#e" transform="matrix(20.5 0 0 -20.5 54.249 109.102)"/><use xlink:href="#e" transform="matrix(20.5 0 0 -20.5 54.249 114.227)"/><use xlink:href="#e" transform="matrix(20.5 0 0 -20.5 54.249 119.352)"/><path d="M-.284 31.977h42.922V20.659H-.284z" fill="#fff"/><symbol id="f"><path d="M.393 0 .137.557V.115C.137.075.14.049.15.039.162.025.18.019.207.019H.23V0H0v.018h.023c.028 0 .048.009.06.025.007.01.01.035.01.072v.432c0 .03-.003.05-.009.064a.053.053 0 0 1-.025.023.13.13 0 0 1-.059.01v.018h.188l.24-.518.236.518h.188V.644H.829C.8.644.78.636.769.619.76.609.758.584.758.547V.115c0-.04.004-.066.013-.076C.784.025.803.019.83.019h.023V0H.57v.018h.024c.028 0 .048.009.06.025.006.01.01.035.01.072v.442L.41 0H.393z"/></symbol><symbol id="g"><path d="M.216.474A.198.198 0 0 0 .38.397.237.237 0 0 0 .432.246c0-.04-.01-.081-.03-.122A.21.21 0 0 0 .324.031.208.208 0 0 0 .211 0a.19.19 0 0 0-.16.08A.25.25 0 0 0 0 .234c0 .04.01.082.03.122a.208.208 0 0 0 .186.12M.201.441A.102.102 0 0 1 .15.427.107.107 0 0 1 .107.373a.26.26 0 0 1-.016-.1C.09.21.104.154.129.106.155.058.19.035.232.035.264.035.29.048.31.074.33.1.34.144.34.208.34.288.325.35.29.396A.106.106 0 0 1 .2.442z"/></symbol><symbol id="h"><path d="M.151.602V.455h.105V.42H.15V.13c0-.029.004-.048.013-.058A.04.04 0 0 1 .196.057c.01 0 .021.003.031.01.01.006.018.016.023.03h.02A.155.155 0 0 0 .22.023.105.105 0 0 0 .157 0a.088.088 0 0 0-.044.012.077.077 0 0 0-.032.036.19.19 0 0 0-.01.072v.3H0v.017c.018.007.036.019.055.036a.29.29 0 0 1 .081.129h.015z"/></symbol><symbol id="i"><path d="M.116.694A.046.046 0 0 0 .15.68.046.046 0 0 0 .165.645.048.048 0 0 0 .15.61.046.046 0 0 0 .116.595.048.048 0 0 0 .08.61a.048.048 0 0 0-.015.035C.066.659.07.67.08.68c.01.01.022.014.036.014M.156.46V.101c0-.028.002-.047.006-.056A.045.045 0 0 1 .18.025.098.098 0 0 1 .224.017V0H.007v.018C.029.018.043.02.05.024a.042.042 0 0 1 .017.02c.005.01.007.03.007.057v.172a.61.61 0 0 1-.004.095C.069.378.065.385.06.389A.03.03 0 0 1 .04.396.098.098 0 0 1 .007.388L0 .406.135.46h.021z"/></symbol><symbol id="j"><path d="M0 .46h.21V.444H.197C.184.443.174.44.167.433A.033.033 0 0 1 .157.41c0-.012.004-.025.011-.04L.272.12l.104.256A.122.122 0 0 1 .388.42.016.016 0 0 1 .384.43.026.026 0 0 1 .37.44a.123.123 0 0 1-.034.003V.46h.146V.443C.465.442.454.438.447.433a.125.125 0 0 1-.03-.05L.257 0h-.02L.079.377a.14.14 0 0 1-.02.038.08.08 0 0 1-.025.02A.122.122 0 0 1 0 .443V.46z"/></symbol><symbol id="k"><path d="M.07.292A.23.23 0 0 1 .117.136.147.147 0 0 1 .232.08c.03 0 .055.008.077.024a.18.18 0 0 1 .054.083l.015-.01a.234.234 0 0 0-.06-.122A.16.16 0 0 0 .196 0c-.053 0-.1.02-.138.063A.242.242 0 0 0 0 .23c0 .077.02.137.059.18.039.042.088.064.148.064.05 0 .09-.017.123-.05A.18.18 0 0 0 .378.292H.07m0 .029h.207a.191.191 0 0 1-.01.06.096.096 0 0 1-.037.043.09.09 0 0 1-.05.016.101.101 0 0 1-.073-.032A.136.136 0 0 1 .07.321z"/></symbol><symbol id="l"><path d="M.271.474V.322H.255C.243.37.227.402.208.419a.106.106 0 0 1-.074.026.082.082 0 0 1-.055-.018C.065.415.058.402.058.387.058.37.063.353.073.34A.174.174 0 0 1 .135.298L.206.263c.066-.032.1-.075.1-.127A.12.12 0 0 0 .258.037.16.16 0 0 0 .156 0a.355.355 0 0 0-.094.015.095.095 0 0 1-.026.005C.028.02.022.015.018.007H.002v.16h.016A.182.182 0 0 1 .07.063.126.126 0 0 1 .157.03c.022 0 .04.006.054.02.015.013.022.029.022.047a.075.075 0 0 1-.024.057.407.407 0 0 1-.094.058.28.28 0 0 0-.093.063.11.11 0 0 0-.022.07c0 .038.013.068.038.093a.135.135 0 0 0 .098.037A.23.23 0 0 0 .2.463.151.151 0 0 1 .233.456a.02.02 0 0 1 .012.003.047.047 0 0 1 .01.015h.016z"/></symbol><symbol id="m"><path d="M.055.475A.051.051 0 0 0 .093.458.051.051 0 0 0 .11.42.053.053 0 0 0 .093.382.052.052 0 0 0 .055.366.053.053 0 0 0 .001.42c0 .015.005.028.016.038.01.011.023.017.038.017m0-.366A.052.052 0 0 0 .092.093.053.053 0 0 0 .109.054.053.053 0 0 0 .093.016.053.053 0 0 0 .054 0 .053.053 0 0 0 0 .054C0 .07.005.082.016.093c.01.01.023.016.038.016z"/></symbol><use xlink:href="#f" transform="matrix(11 0 0 -11 1.927 29.734)"/><use xlink:href="#g" transform="matrix(11 0 0 -11 11.897 29.885)"/><use xlink:href="#h" transform="matrix(11 0 0 -11 17.133 29.815)"/><use xlink:href="#i" transform="matrix(11 0 0 -11 20.404 29.734)"/><use xlink:href="#j" transform="matrix(11 0 0 -11 23.229 29.885)"/><use xlink:href="#k" transform="matrix(11 0 0 -11 29.046 29.885)"/><use xlink:href="#l" transform="matrix(11 0 0 -11 34.057 29.885)"/><use xlink:href="#m" transform="matrix(11 0 0 -11 38.746 29.885)"/><path d="M71.68 30.482h11.317V19.164H71.68z" fill="#fff"/><symbol id="n"><path d="m0 .597.161.079h.016v-.56C.177.08.18.057.182.048a.037.037 0 0 1 .02-.02A.164.164 0 0 1 .26.017V0H.01v.018c.032 0 .052.003.061.008.01.005.016.011.02.019a.262.262 0 0 1 .005.072v.357c0 .048-.002.08-.005.093A.038.038 0 0 1 .079.59a.032.032 0 0 1-.021.007.13.13 0 0 1-.05-.015L0 .597z"/></symbol><use xlink:href="#n" transform="matrix(11 0 0 -11 75.852 28.24)"/><path d="M119.3 29.841h11.317V18.523H119.3z" fill="#fff"/><symbol id="o"><path d="M.437.127.391 0H0v.018c.115.105.196.19.243.257.047.066.07.127.07.182a.144.144 0 0 1-.039.104.123.123 0 0 1-.092.04.144.144 0 0 1-.088-.029A.165.165 0 0 1 .037.49H.02c.008.06.029.106.063.138a.176.176 0 0 0 .126.049.186.186 0 0 0 .134-.052.163.163 0 0 0 .054-.122.236.236 0 0 0-.023-.1.663.663 0 0 0-.117-.168 3.477 3.477 0 0 0-.152-.16h.173c.035 0 .06.001.074.004a.099.099 0 0 1 .038.015c.012.008.021.02.03.034h.018z"/></symbol><use xlink:href="#o" transform="matrix(11 0 0 -11 122.419 27.599)"/><symbol id="p"><path d="M.27.018V0a.466.466 0 0 0-.232.254.538.538 0 0 0 .037.475.43.43 0 0 0 .195.18V.887a.28.28 0 0 1-.1-.091A.42.42 0 0 1 .114.65 1.029 1.029 0 0 1 .11.276.498.498 0 0 1 .141.168.35.35 0 0 1 .27.018z"/></symbol><symbol id="q"><path d="M0 0z"/></symbol><symbol id="r"><path d="M0 .888v.02A.456.456 0 0 0 .231.654.535.535 0 0 0 .195.18.427.427 0 0 0 0 0v.018C.04.041.073.071.099.11a.403.403 0 0 1 .057.146A1.034 1.034 0 0 1 .16.63.355.355 0 0 1 0 .888z"/></symbol><use xlink:href="#p" transform="matrix(9.39583 0 0 -9.39583 62.99 73.171)"/><use xlink:href="#q" transform="matrix(9.39583 0 0 -9.39583 65.733 71.162)"/><use xlink:href="#q" transform="matrix(9.39583 0 0 -9.39583 68.082 71.162)"/><use xlink:href="#r" transform="matrix(9.39583 0 0 -9.39583 70.642 73.171)"/><use xlink:href="#p" transform="matrix(9.39583 0 0 -9.39583 81.354 68.26)"/><use xlink:href="#q" transform="matrix(9.39583 0 0 -9.39583 84.098 66.25)"/><use xlink:href="#q" transform="matrix(9.39583 0 0 -9.39583 86.447 66.25)"/><use xlink:href="#r" transform="matrix(9.39583 0 0 -9.39583 89.007 68.26)"/><use xlink:href="#p" transform="matrix(9.39583 0 0 -9.39583 118.083 60.145)"/><use xlink:href="#q" transform="matrix(9.39583 0 0 -9.39583 120.827 58.135)"/><use xlink:href="#q" transform="matrix(9.39583 0 0 -9.39583 123.176 58.135)"/><use xlink:href="#r" transform="matrix(9.39583 0 0 -9.39583 125.736 60.145)"/><use xlink:href="#p" transform="matrix(9.39583 0 0 -9.39583 127.693 54.593)"/><use xlink:href="#q" transform="matrix(9.39583 0 0 -9.39583 130.436 52.583)"/><use xlink:href="#q" transform="matrix(9.39583 0 0 -9.39583 132.785 52.583)"/><use xlink:href="#r" transform="matrix(9.39583 0 0 -9.39583 135.345 54.593)"/><use xlink:href="#d" transform="matrix(20.5 0 0 -20.5 162.521 68.956)"/><path stroke-width=".384" stroke-miterlimit="10" fill="none" stroke="#000" d="M168.89 65.396V44.469"/><use xlink:href="#d" transform="matrix(20.5 0 0 -20.5 173.412 66.394)"/><path stroke-width=".384" stroke-miterlimit="10" fill="none" stroke="#000" d="M179.78 62.833V43.61"/><use xlink:href="#d" transform="matrix(20.5 0 0 -20.5 184.302 63.831)"/><path stroke-width=".384" stroke-miterlimit="10" fill="none" stroke="#000" d="M190.67 60.27V42.75"/><use xlink:href="#d" transform="matrix(20.5 0 0 -20.5 194.98 61.269)"/><path stroke-width=".384" stroke-miterlimit="10" fill="none" stroke="#000" d="M201.348 57.708V41.906"/><path d="m201.54 40.625-32.842 2.563v2.562l32.842-2.563"/><path stroke-width=".384" stroke-miterlimit="10" fill="none" stroke="#000" d="M206.082 56.854v17.084"/><symbol id="s"><path d="M.32.226A.06.06 0 0 0 .327.201.15.15 0 0 0 .317.13.19.19 0 0 0 .275.063a.188.188 0 0 0-.051-.04.212.212 0 0 0-.117-.019.585.585 0 0 0-.051.01.158.158 0 0 0-.026.013A.07.07 0 0 0 0 .074.17.17 0 0 0 0 .1a.233.233 0 0 0 .01.041c.01.025.023.046.04.063a.29.29 0 0 0 .05.039.218.218 0 0 0 .2.003.05.05 0 0 0 .019-.02M.297.209a.039.039 0 0 1-.02.016.06.06 0 0 1-.025.003.104.104 0 0 1-.027-.006A.442.442 0 0 1 .14.179.825.825 0 0 1 .058.127a.108.108 0 0 1-.02-.02.066.066 0 0 1-.01-.023.037.037 0 0 1 .005-.025.034.034 0 0 1 .019-.016.053.053 0 0 1 .025-.002c.009 0 .018.003.028.006L.13.058c.011.005.021.01.03.016l.03.016a.524.524 0 0 1 .1.071.054.054 0 0 1 .01.023.033.033 0 0 1-.004.025z"/></symbol><use xlink:href="#s" transform="matrix(20.5 0 0 -20.5 205.897 58.809)"/><use xlink:href="#e" transform="matrix(20.5 0 0 -20.5 162.514 103.977)"/><use xlink:href="#e" transform="matrix(20.5 0 0 -20.5 162.514 109.102)"/><use xlink:href="#e" transform="matrix(20.5 0 0 -20.5 162.514 114.227)"/><path d="M180.906 29.841h30.75V18.523h-30.75z" fill="#fff"/><symbol id="t"><path d="M.249.074A.737.737 0 0 0 .163.012.132.132 0 0 0 .106 0C.076 0 .05.01.03.032A.117.117 0 0 0 0 .115c0 .022.005.04.015.057a.194.194 0 0 0 .069.062c.033.02.088.044.165.072v.017c0 .045-.007.075-.021.092C.214.432.193.44.166.44A.07.07 0 0 1 .117.423.05.05 0 0 1 .1.385V.357C.1.342.097.33.089.322A.039.039 0 0 0 .058.31a.039.039 0 0 0-.03.013.05.05 0 0 0-.01.034c0 .028.013.054.042.078A.186.186 0 0 0 .18.47.21.21 0 0 0 .279.45.092.092 0 0 0 .321.402.267.267 0 0 0 .33.316V.165c0-.043 0-.07.002-.08C.334.077.336.07.34.068A.02.02 0 0 1 .353.062c.005 0 .01.001.014.003l.04.036V.074C.37.024.334 0 .301 0a.047.047 0 0 0-.038.017C.254.028.249.047.249.074m0 .031v.17a.964.964 0 0 1-.095-.04.164.164 0 0 1-.055-.046.087.087 0 0 1-.017-.05c0-.024.007-.044.021-.06A.064.064 0 0 1 .151.058C.176.057.21.073.25.105z"/></symbol><symbol id="u"><path d="M.422.46V.19c0-.052.002-.084.004-.095C.428.083.432.075.438.07A.03.03 0 0 1 .457.064c.01 0 .021.003.034.008L.498.055.364 0H.342v.095A.407.407 0 0 0 .254.016.134.134 0 0 0 .19 0a.104.104 0 0 0-.065.021.114.114 0 0 0-.039.057.338.338 0 0 0-.01.096v.2a.098.098 0 0 1-.007.044.044.044 0 0 1-.02.019A.113.113 0 0 1 0 .443V.46h.157v-.3C.157.12.164.094.178.08A.077.077 0 0 1 .231.06c.014 0 .03.004.047.013.018.009.04.026.064.05v.254c0 .025-.005.042-.014.051C.318.438.299.442.27.443V.46h.152z"/></symbol><symbol id="v"><path d="M.121.379a.148.148 0 0 0-.085.135c0 .044.017.083.05.114a.179.179 0 0 0 .128.048c.043 0 .08-.01.111-.031H.42L.444.644A.007.007 0 0 0 .45.64C.451.637.452.632.452.624S.452.61.45.606A.01.01 0 0 0 .444.603.104.104 0 0 0 .42.6H.362a.142.142 0 0 0 .027-.09.14.14 0 0 0-.048-.107A.181.181 0 0 0 .213.36a.25.25 0 0 0-.068.01.131.131 0 0 1-.03-.033.052.052 0 0 1-.007-.024c0-.005.003-.01.008-.016C.122.292.132.288.148.287A.841.841 0 0 1 .216.282C.283.28.326.279.346.276A.121.121 0 0 0 .42.242.092.092 0 0 0 .446.175C.446.138.43.104.395.07A.28.28 0 0 0 .195 0a.285.285 0 0 0-.158.042C.012.06 0 .076 0 .093 0 .101.002.11.005.117a.273.273 0 0 0 .035.05L.09.22a.166.166 0 0 0-.037.027.041.041 0 0 0-.01.027c0 .011.005.025.014.04.01.015.03.037.064.065m.085.274a.076.076 0 0 1-.06-.029C.129.604.12.575.12.536a.19.19 0 0 1 .033-.12A.079.079 0 0 1 .22.384c.024 0 .045.01.06.028.017.018.025.047.025.087A.196.196 0 0 1 .27.621a.077.077 0 0 1-.064.032M.116.216A.24.24 0 0 1 .082.169.084.084 0 0 1 .07.13C.07.115.08.102.098.09A.27.27 0 0 1 .24.059c.059 0 .102.01.13.03C.397.11.41.133.41.157.41.173.402.185.386.192a.326.326 0 0 1-.1.013C.211.207.155.21.115.215z"/></symbol><symbol id="w"><path d="M.054.108A.052.052 0 0 0 .093.092.052.052 0 0 0 .108.054.053.053 0 0 0 .092.016.052.052 0 0 0 .054 0 .053.053 0 0 0 0 .054C0 .07.005.082.016.093c.01.01.023.015.038.015z"/></symbol><use xlink:href="#n" transform="matrix(11 0 0 -11 184.117 27.599)"/><use xlink:href="#q" transform="matrix(11 0 0 -11 188.328 27.599)"/><use xlink:href="#t" transform="matrix(11 0 0 -11 191.47 27.701)"/><use xlink:href="#u" transform="matrix(11 0 0 -11 195.97 27.75)"/><use xlink:href="#v" transform="matrix(11 0 0 -11 201.788 29.973)"/><use xlink:href="#w" transform="matrix(11 0 0 -11 207.739 27.75)"/><path stroke-width=".384" stroke-miterlimit="10" fill="none" stroke="#000" d="M249.181 57.708V40.625"/><use xlink:href="#d" transform="matrix(20.5 0 0 -20.5 242.813 61.269)"/><use xlink:href="#d" transform="matrix(20.5 0 0 -20.5 260.323 63.831)"/><path stroke-width=".384" stroke-miterlimit="10" fill="none" stroke="#000" d="M266.692 60.27V41.907"/><use xlink:href="#d" transform="matrix(20.5 0 0 -20.5 271.214 58.706)"/><path stroke-width=".384" stroke-miterlimit="10" fill="none" stroke="#000" d="M277.582 55.146V39.344"/><path d="M277.774 38.063 266.5 40.624v2.563l11.274-2.563"/><path stroke-width=".384" stroke-miterlimit="10" fill="none" stroke="#000" d="M288.443 57.708V40.625"/><use xlink:href="#s" transform="matrix(20.5 0 0 -20.5 281.918 61.371)"/><path stroke-width=".384" stroke-miterlimit="10" fill="none" stroke="#000" d="M241.552 98.708h11.104"/><use xlink:href="#e" transform="matrix(20.5 0 0 -20.5 242.806 101.414)"/><use xlink:href="#e" transform="matrix(20.5 0 0 -20.5 242.806 106.54)"/><use xlink:href="#e" transform="matrix(20.5 0 0 -20.5 242.806 111.664)"/><path d="M253.938 30.482h30.75V19.164h-30.75z" fill="#fff"/><use xlink:href="#o" transform="matrix(11 0 0 -11 256.096 28.24)"/><use xlink:href="#q" transform="matrix(11 0 0 -11 261.36 28.24)"/><use xlink:href="#t" transform="matrix(11 0 0 -11 264.502 28.342)"/><use xlink:href="#u" transform="matrix(11 0 0 -11 269.002 28.39)"/><use xlink:href="#v" transform="matrix(11 0 0 -11 274.819 30.614)"/><use xlink:href="#w" transform="matrix(11 0 0 -11 280.77 28.39)"/><use xlink:href="#d" transform="matrix(20.5 0 0 -20.5 317.552 63.831)"/><path stroke-width=".384" stroke-miterlimit="10" fill="none" stroke="#000" d="M323.92 60.27V39.345"/><use xlink:href="#d" transform="matrix(20.5 0 0 -20.5 326.735 61.269)"/><path stroke-width=".384" stroke-miterlimit="10" fill="none" stroke="#000" d="M333.103 57.708V38.49"/><use xlink:href="#d" transform="matrix(20.5 0 0 -20.5 335.917 58.706)"/><path stroke-width=".384" stroke-miterlimit="10" fill="none" stroke="#000" d="M342.285 55.146v-17.51"/><use xlink:href="#d" transform="matrix(20.5 0 0 -20.5 345.1 56.144)"/><path stroke-width=".384" stroke-miterlimit="10" fill="none" stroke="#000" d="M351.468 52.583V36.781"/><path d="m351.66 35.5-27.931 2.563v2.562l27.93-2.563M351.66 39.344l-27.931 2.562v2.563l27.93-2.563"/><path stroke-width=".384" stroke-miterlimit="10" fill="none" stroke="#000" d="M354.494 51.73v17.083"/><use xlink:href="#d" transform="matrix(20.5 0 0 -20.5 354.282 53.581)"/><use xlink:href="#d" transform="matrix(20.5 0 0 -20.5 371.151 56.144)"/><path stroke-width=".384" stroke-miterlimit="10" fill="none" stroke="#000" d="M371.364 54.292v15.802"/><use xlink:href="#d" transform="matrix(20.5 0 0 -20.5 382.042 53.581)"/><path stroke-width=".384" stroke-miterlimit="10" fill="none" stroke="#000" d="M382.254 51.73v19.754"/><use xlink:href="#d" transform="matrix(20.5 0 0 -20.5 391.224 58.706)"/><path stroke-width=".384" stroke-miterlimit="10" fill="none" stroke="#000" d="M391.437 56.854v15.802"/><path d="m391.629 71.375-20.457-2.563v2.563l20.457 2.563M391.629 67.531l-9.567-1.172v2.563l9.567 1.172"/><path stroke-width=".384" stroke-miterlimit="10" fill="none" stroke="#000" d="M400.619 54.292v17.083"/><use xlink:href="#d" transform="matrix(20.5 0 0 -20.5 400.407 56.144)"/><path stroke-width=".384" stroke-miterlimit="10" fill="none" stroke="#000" d="M317.765 107.25v26.48"/><use xlink:href="#s" transform="matrix(20.5 0 0 -20.5 317.58 109.204)"/><use xlink:href="#s" transform="matrix(20.5 0 0 -20.5 317.58 116.892)"/><use xlink:href="#s" transform="matrix(20.5 0 0 -20.5 317.58 122.017)"/><path stroke-width=".384" stroke-miterlimit="10" fill="none" stroke="#000" d="M371.364 107.25v23.917"/><use xlink:href="#s" transform="matrix(20.5 0 0 -20.5 371.179 109.204)"/><use xlink:href="#s" transform="matrix(20.5 0 0 -20.5 371.179 114.33)"/><use xlink:href="#s" transform="matrix(20.5 0 0 -20.5 371.179 119.454)"/><path d="M345.654 30.909h11.317V19.59h-11.317z" fill="#fff"/><use xlink:href="#n" transform="matrix(11 0 0 -11 349.826 28.667)"/><path d="M377.792 30.909h28.187V19.59h-28.187z" fill="#fff"/><symbol id="x"><path d="M.156.366C.208.429.258.46.306.46A.107.107 0 0 0 .369.442.121.121 0 0 0 .41.382c.007-.02.01-.05.01-.09v-.19A.16.16 0 0 1 .428.042.04.04 0 0 1 .445.024.1.1 0 0 1 .49.018V0H.269v.018h.009c.02 0 .035.003.043.009A.05.05 0 0 1 .34.055C.34.06.34.075.34.101v.183c0 .04-.006.07-.016.089C.315.39.297.4.27.4.233.4.194.38.156.337V.1c0-.03.002-.049.005-.056A.047.047 0 0 1 .18.024.122.122 0 0 1 .229.018V0H.007v.018h.01c.023 0 .038.005.046.017C.071.046.075.069.075.1v.166a.677.677 0 0 1-.004.098C.07.377.065.385.061.39A.03.03 0 0 1 .04.396.094.094 0 0 1 .007.388L0 .406.135.46h.02V.366z"/></symbol><use xlink:href="#o" transform="matrix(11 0 0 -11 379.95 28.667)"/><use xlink:href="#q" transform="matrix(11 0 0 -11 385.214 28.667)"/><use xlink:href="#i" transform="matrix(11 0 0 -11 388.286 28.667)"/><use xlink:href="#x" transform="matrix(11 0 0 -11 391.084 28.667)"/><use xlink:href="#j" transform="matrix(11 0 0 -11 396.61 28.817)"/><use xlink:href="#w" transform="matrix(11 0 0 -11 402.084 28.817)"/><symbol id="y"><path d="M.566.692.58.467H.566a.283.283 0 0 1-.087.146.21.21 0 0 1-.134.044.218.218 0 0 1-.12-.033.221.221 0 0 1-.083-.107.479.479 0 0 1-.03-.182C.111.275.12.223.14.179a.216.216 0 0 1 .087-.1.25.25 0 0 1 .132-.036c.043 0 .08.01.114.027A.379.379 0 0 1 .58.18L.596.17A.348.348 0 0 0 .48.041.294.294 0 0 0 .322 0C.212 0 .128.04.067.122A.349.349 0 0 0 0 .336a.38.38 0 0 0 .044.182.33.33 0 0 0 .292.174A.312.312 0 0 0 .48.657a.077.077 0 0 1 .029-.01C.517.646.524.65.53.655a.076.076 0 0 1 .018.036h.017z"/></symbol><symbol id="z"><path d="M.517 0H0v.041h.517V0z"/></symbol><use xlink:href="#y" transform="matrix(12 0 0 -12 35.934 145.182)"/><use xlink:href="#m" transform="matrix(12 0 0 -12 44.535 145.164)"/><use xlink:href="#q" transform="matrix(12 0 0 -12 46.838 145)"/><use xlink:href="#q" transform="matrix(12 0 0 -12 49.838 145)"/><use xlink:href="#z" transform="matrix(12 0 0 -12 52.738 147.59)"/><use xlink:href="#z" transform="matrix(12 0 0 -12 58.738 147.59)"/><use xlink:href="#z" transform="matrix(12 0 0 -12 64.738 147.59)"/><use xlink:href="#q" transform="matrix(12 0 0 -12 70.838 145)"/><use xlink:href="#q" transform="matrix(12 0 0 -12 73.838 145)"/><use xlink:href="#q" transform="matrix(12 0 0 -12 76.838 145)"/><use xlink:href="#q" transform="matrix(12 0 0 -12 79.838 145)"/><use xlink:href="#q" transform="matrix(12 0 0 -12 82.838 145)"/><use xlink:href="#q" transform="matrix(12 0 0 -12 85.838 145)"/><use xlink:href="#q" transform="matrix(12 0 0 -12 88.838 145)"/><use xlink:href="#q" transform="matrix(12 0 0 -12 91.838 145)"/><use xlink:href="#q" transform="matrix(12 0 0 -12 94.838 145)"/><use xlink:href="#q" transform="matrix(12 0 0 -12 97.838 145)"/><use xlink:href="#q" transform="matrix(12 0 0 -12 100.838 145)"/><use xlink:href="#q" transform="matrix(12 0 0 -12 103.838 145)"/><use xlink:href="#q" transform="matrix(12 0 0 -12 106.838 145)"/><use xlink:href="#q" transform="matrix(12 0 0 -12 109.838 145)"/><use xlink:href="#q" transform="matrix(12 0 0 -12 112.838 145)"/><use xlink:href="#q" transform="matrix(12 0 0 -12 115.838 145)"/><use xlink:href="#q" transform="matrix(12 0 0 -12 118.838 145)"/><use xlink:href="#q" transform="matrix(12 0 0 -12 121.838 145)"/><use xlink:href="#q" transform="matrix(12 0 0 -12 124.838 145)"/><use xlink:href="#q" transform="matrix(12 0 0 -12 127.838 145)"/><use xlink:href="#q" transform="matrix(12 0 0 -12 130.838 145)"/><use xlink:href="#q" transform="matrix(12 0 0 -12 133.838 145)"/><use xlink:href="#q" transform="matrix(12 0 0 -12 136.838 145)"/><use xlink:href="#q" transform="matrix(12 0 0 -12 139.838 145)"/><use xlink:href="#q" transform="matrix(12 0 0 -12 142.838 145)"/><use xlink:href="#q" transform="matrix(12 0 0 -12 145.838 145)"/><use xlink:href="#q" transform="matrix(12 0 0 -12 148.838 145)"/><use xlink:href="#q" transform="matrix(12 0 0 -12 151.838 145)"/><use xlink:href="#q" transform="matrix(12 0 0 -12 154.838 145)"/><use xlink:href="#z" transform="matrix(12 0 0 -12 157.738 147.59)"/><use xlink:href="#z" transform="matrix(12 0 0 -12 163.738 147.59)"/><use xlink:href="#z" transform="matrix(12 0 0 -12 169.738 147.59)"/><use xlink:href="#q" transform="matrix(12 0 0 -12 175.838 145)"/><use xlink:href="#q" transform="matrix(12 0 0 -12 178.838 145)"/><use xlink:href="#q" transform="matrix(12 0 0 -12 181.838 145)"/><use xlink:href="#q" transform="matrix(12 0 0 -12 184.838 145)"/><use xlink:href="#q" transform="matrix(12 0 0 -12 187.838 145)"/><use xlink:href="#q" transform="matrix(12 0 0 -12 190.838 145)"/><use xlink:href="#q" transform="matrix(12 0 0 -12 193.838 145)"/><use xlink:href="#q" transform="matrix(12 0 0 -12 196.838 145)"/><use xlink:href="#q" transform="matrix(12 0 0 -12 199.838 145)"/><use xlink:href="#q" transform="matrix(12 0 0 -12 202.838 145)"/><use xlink:href="#q" transform="matrix(12 0 0 -12 205.838 145)"/><use xlink:href="#q" transform="matrix(12 0 0 -12 208.838 145)"/><use xlink:href="#q" transform="matrix(12 0 0 -12 211.838 145)"/><use xlink:href="#q" transform="matrix(12 0 0 -12 214.838 145)"/><use xlink:href="#q" transform="matrix(12 0 0 -12 217.838 145)"/><use xlink:href="#q" transform="matrix(12 0 0 -12 220.838 145)"/><use xlink:href="#q" transform="matrix(12 0 0 -12 223.838 145)"/><use xlink:href="#q" transform="matrix(12 0 0 -12 226.838 145)"/><use xlink:href="#q" transform="matrix(12 0 0 -12 229.838 145)"/><use xlink:href="#q" transform="matrix(12 0 0 -12 232.838 145)"/><use xlink:href="#q" transform="matrix(12 0 0 -12 235.838 145)"/><use xlink:href="#q" transform="matrix(12 0 0 -12 238.838 145)"/><use xlink:href="#z" transform="matrix(12 0 0 -12 241.738 147.59)"/><use xlink:href="#z" transform="matrix(12 0 0 -12 247.738 147.59)"/><use xlink:href="#z" transform="matrix(12 0 0 -12 253.738 147.59)"/><use xlink:href="#q" transform="matrix(12 0 0 -12 259.838 145)"/><use xlink:href="#q" transform="matrix(12 0 0 -12 262.838 145)"/><use xlink:href="#q" transform="matrix(12 0 0 -12 265.838 145)"/><use xlink:href="#q" transform="matrix(12 0 0 -12 268.838 145)"/><use xlink:href="#q" transform="matrix(12 0 0 -12 271.838 145)"/><use xlink:href="#q" transform="matrix(12 0 0 -12 274.838 145)"/><use xlink:href="#q" transform="matrix(12 0 0 -12 277.838 145)"/><use xlink:href="#q" transform="matrix(12 0 0 -12 280.838 145)"/><use xlink:href="#q" transform="matrix(12 0 0 -12 283.838 145)"/><use xlink:href="#q" transform="matrix(12 0 0 -12 286.838 145)"/><use xlink:href="#q" transform="matrix(12 0 0 -12 289.838 145)"/><use xlink:href="#q" transform="matrix(12 0 0 -12 292.838 145)"/><use xlink:href="#q" transform="matrix(12 0 0 -12 295.838 145)"/><use xlink:href="#q" transform="matrix(12 0 0 -12 298.838 145)"/><use xlink:href="#q" transform="matrix(12 0 0 -12 301.838 145)"/><use xlink:href="#q" transform="matrix(12 0 0 -12 304.838 145)"/><use xlink:href="#q" transform="matrix(12 0 0 -12 307.838 145)"/><use xlink:href="#q" transform="matrix(12 0 0 -12 310.838 145)"/><use xlink:href="#z" transform="matrix(12 0 0 -12 313.738 147.59)"/><use xlink:href="#z" transform="matrix(12 0 0 -12 319.738 147.59)"/><use xlink:href="#z" transform="matrix(12 0 0 -12 325.738 147.59)"/><use xlink:href="#q" transform="matrix(12 0 0 -12 331.838 145)"/><use xlink:href="#q" transform="matrix(12 0 0 -12 334.838 145)"/><use xlink:href="#q" transform="matrix(12 0 0 -12 337.838 145)"/><use xlink:href="#q" transform="matrix(12 0 0 -12 340.838 145)"/><use xlink:href="#q" transform="matrix(12 0 0 -12 343.838 145)"/><use xlink:href="#q" transform="matrix(12 0 0 -12 346.838 145)"/><use xlink:href="#q" transform="matrix(12 0 0 -12 349.838 145)"/><use xlink:href="#q" transform="matrix(12 0 0 -12 352.838 145)"/><use xlink:href="#q" transform="matrix(12 0 0 -12 355.838 145)"/><use xlink:href="#q" transform="matrix(12 0 0 -12 358.838 145)"/><use xlink:href="#q" transform="matrix(12 0 0 -12 361.838 145)"/><use xlink:href="#z" transform="matrix(12 0 0 -12 364.738 147.59)"/><use xlink:href="#z" transform="matrix(12 0 0 -12 370.738 147.59)"/><use xlink:href="#z" transform="matrix(12 0 0 -12 376.738 147.59)"/><symbol id="A"><path d="M0 0v.716h.095V.084h.352V0H0z"/></symbol><symbol id="B"><path d="M.384.179.475.167a.222.222 0 0 0-.08-.123A.24.24 0 0 0 .248 0a.238.238 0 0 0-.18.07A.275.275 0 0 0 0 .267C0 .354.022.422.067.47a.228.228 0 0 0 .175.072c.07 0 .126-.024.17-.07a.281.281 0 0 0 .066-.2.82.82 0 0 0 0-.023H.09A.2.2 0 0 1 .139.118.144.144 0 0 1 .248.072c.032 0 .06.009.082.026.023.017.04.044.054.08M.096.322h.29a.176.176 0 0 1-.034.098.135.135 0 0 1-.109.05.14.14 0 0 1-.102-.04.161.161 0 0 1-.045-.108z"/></symbol><symbol id="C"><path d="M.368.076A.27.27 0 0 0 .178 0C.12 0 .075.014.045.042A.139.139 0 0 0 0 .148a.142.142 0 0 0 .063.12c.018.013.04.023.063.03A.628.628 0 0 0 .204.31a.803.803 0 0 1 .157.03v.023C.361.4.353.424.336.439.314.46.281.47.236.47.195.47.164.462.145.447.125.433.11.407.1.371L.015.382a.21.21 0 0 0 .039.09c.018.022.043.04.077.051A.342.342 0 0 0 .25.542c.044 0 .08-.005.108-.016a.141.141 0 0 0 .061-.04.136.136 0 0 0 .027-.059.495.495 0 0 0 .005-.08V.228C.45.147.45.096.455.074A.2.2 0 0 1 .478.012H.386a.186.186 0 0 0-.018.064M.361.272A.645.645 0 0 0 .217.239.332.332 0 0 1 .141.22a.076.076 0 0 1-.047-.07C.094.127.103.108.12.092.138.077.164.07.198.07s.064.007.09.022a.138.138 0 0 1 .059.06c.01.02.014.05.014.089v.032z"/></symbol><symbol id="D"><path d="M.368.012v.065A.161.161 0 0 0 .223 0 .205.205 0 0 0 .11.034a.227.227 0 0 0-.08.095A.334.334 0 0 0 0 .271c0 .051.009.098.026.14a.204.204 0 0 0 .193.131.171.171 0 0 0 .143-.071v.257H.45V.012H.368M.09.27C.09.204.104.154.132.12a.127.127 0 0 1 .1-.049c.038 0 .07.016.097.047.027.032.04.08.04.144C.37.334.357.386.33.42a.126.126 0 0 1-.2.002C.103.39.09.34.09.271z"/></symbol><symbol id="E"><path d="M0 0z"/></symbol><symbol id="F"><path d="M0 .167.087.18A.122.122 0 0 1 .127.1.143.143 0 0 1 .221.072c.04 0 .07.008.09.025.02.016.03.036.03.058C.34.175.33.19.313.202a.381.381 0 0 1-.09.03.854.854 0 0 0-.134.041.134.134 0 0 0-.056.05.133.133 0 0 0-.02.07c0 .023.006.044.016.064.011.02.026.036.044.049.013.01.032.018.055.025A.298.298 0 0 0 .312.524.145.145 0 0 0 .382.477a.184.184 0 0 0 .03-.08L.325.384a.094.094 0 0 1-.034.062.123.123 0 0 1-.08.023C.172.47.144.463.126.45.108.436.1.42.1.403.1.39.103.38.11.373A.078.078 0 0 1 .144.348C.153.345.179.338.222.326.284.31.327.296.352.286A.13.13 0 0 0 .41.238.148.148 0 0 0 .405.081.166.166 0 0 0 .33.021.272.272 0 0 0 .221 0a.245.245 0 0 0-.154.042A.196.196 0 0 0 0 .167z"/></symbol><symbol id="G"><path d="M0 0v.716h.088V.459A.196.196 0 0 0 .243.53a.208.208 0 0 0 .1-.023.13.13 0 0 0 .06-.062.286.286 0 0 0 .02-.116V0H.333v.329c0 .044-.01.075-.028.095-.02.02-.046.03-.08.03A.142.142 0 0 1 .15.435.113.113 0 0 1 .103.38.252.252 0 0 1 .088.284V0H0z"/></symbol><symbol id="H"><path d="M.24.085.253.008A.326.326 0 0 0 .187 0a.15.15 0 0 0-.075.015.085.085 0 0 0-.037.04.317.317 0 0 0-.01.104v.298H0v.068h.064v.129l.088.053V.525H.24V.457H.152V.154c0-.025.001-.041.004-.049A.038.038 0 0 1 .171.088a.06.06 0 0 1 .03-.006l.04.003z"/></symbol><symbol id="I"><path d="M0 .418v.1h.1v-.1H0M0 0v.1h.1V0H0z"/></symbol><use xlink:href="#A" transform="matrix(9 0 0 -9 7.16 11)"/><use xlink:href="#B" transform="matrix(9 0 0 -9 11.835 11.105)"/><use xlink:href="#C" transform="matrix(9 0 0 -9 16.837 11.105)"/><use xlink:href="#D" transform="matrix(9 0 0 -9 21.825 11.105)"/><use xlink:href="#E" transform="matrix(9 0 0 -9 26.523 11)"/><use xlink:href="#F" transform="matrix(9 0 0 -9 29.3 11.105)"/><use xlink:href="#G" transform="matrix(9 0 0 -9 34.117 11)"/><use xlink:href="#B" transform="matrix(9 0 0 -9 38.859 11.105)"/><use xlink:href="#B" transform="matrix(9 0 0 -9 43.865 11.105)"/><use xlink:href="#H" transform="matrix(9 0 0 -9 48.699 11.062)"/><use xlink:href="#I" transform="matrix(9 0 0 -9 51.854 11)"/><use xlink:href="#q" transform="matrix(12 0 0 -12 53.54 11)"/><use xlink:href="#z" transform="matrix(12 0 0 -12 56.44 13.59)"/><use xlink:href="#z" transform="matrix(12 0 0 -12 62.44 13.59)"/><use xlink:href="#z" transform="matrix(12 0 0 -12 68.44 13.59)"/><use xlink:href="#q" transform="matrix(12 0 0 -12 74.54 11)"/><use xlink:href="#q" transform="matrix(12 0 0 -12 77.54 11)"/><use xlink:href="#q" transform="matrix(12 0 0 -12 80.54 11)"/><use xlink:href="#q" transform="matrix(12 0 0 -12 83.54 11)"/><use xlink:href="#q" transform="matrix(12 0 0 -12 86.54 11)"/><use xlink:href="#q" transform="matrix(12 0 0 -12 89.54 11)"/><use xlink:href="#q" transform="matrix(12 0 0 -12 92.54 11)"/><use xlink:href="#q" transform="matrix(12 0 0 -12 95.54 11)"/><use xlink:href="#q" transform="matrix(12 0 0 -12 98.54 11)"/><use xlink:href="#q" transform="matrix(12 0 0 -12 101.54 11)"/><use xlink:href="#q" transform="matrix(12 0 0 -12 104.54 11)"/><use xlink:href="#q" transform="matrix(12 0 0 -12 107.54 11)"/><use xlink:href="#q" transform="matrix(12 0 0 -12 110.54 11)"/><use xlink:href="#q" transform="matrix(12 0 0 -12 113.54 11)"/><use xlink:href="#q" transform="matrix(12 0 0 -12 116.54 11)"/><use xlink:href="#q" transform="matrix(12 0 0 -12 119.54 11)"/><use xlink:href="#q" transform="matrix(12 0 0 -12 122.54 11)"/><use xlink:href="#q" transform="matrix(12 0 0 -12 125.54 11)"/><use xlink:href="#q" transform="matrix(12 0 0 -12 128.54 11)"/><use xlink:href="#q" transform="matrix(12 0 0 -12 131.54 11)"/><use xlink:href="#q" transform="matrix(12 0 0 -12 134.54 11)"/><use xlink:href="#q" transform="matrix(12 0 0 -12 137.54 11)"/><use xlink:href="#q" transform="matrix(12 0 0 -12 140.54 11)"/><use xlink:href="#q" transform="matrix(12 0 0 -12 143.54 11)"/><use xlink:href="#q" transform="matrix(12 0 0 -12 146.54 11)"/><use xlink:href="#q" transform="matrix(12 0 0 -12 149.54 11)"/><use xlink:href="#q" transform="matrix(12 0 0 -12 152.54 11)"/><use xlink:href="#q" transform="matrix(12 0 0 -12 155.54 11)"/><use xlink:href="#z" transform="matrix(12 0 0 -12 158.44 13.59)"/><use xlink:href="#z" transform="matrix(12 0 0 -12 164.44 13.59)"/><use xlink:href="#z" transform="matrix(12 0 0 -12 170.44 13.59)"/><use xlink:href="#q" transform="matrix(12 0 0 -12 176.54 11)"/><use xlink:href="#q" transform="matrix(12 0 0 -12 179.54 11)"/><use xlink:href="#q" transform="matrix(12 0 0 -12 182.54 11)"/><use xlink:href="#q" transform="matrix(12 0 0 -12 185.54 11)"/><use xlink:href="#q" transform="matrix(12 0 0 -12 188.54 11)"/><use xlink:href="#q" transform="matrix(12 0 0 -12 191.54 11)"/><use xlink:href="#q" transform="matrix(12 0 0 -12 194.54 11)"/><use xlink:href="#q" transform="matrix(12 0 0 -12 197.54 11)"/><use xlink:href="#q" transform="matrix(12 0 0 -12 200.54 11)"/><use xlink:href="#q" transform="matrix(12 0 0 -12 203.54 11)"/><use xlink:href="#q" transform="matrix(12 0 0 -12 206.54 11)"/><use xlink:href="#q" transform="matrix(12 0 0 -12 209.54 11)"/><use xlink:href="#q" transform="matrix(12 0 0 -12 212.54 11)"/><use xlink:href="#q" transform="matrix(12 0 0 -12 215.54 11)"/><use xlink:href="#q" transform="matrix(12 0 0 -12 218.54 11)"/><use xlink:href="#q" transform="matrix(12 0 0 -12 221.54 11)"/><use xlink:href="#q" transform="matrix(12 0 0 -12 224.54 11)"/><use xlink:href="#q" transform="matrix(12 0 0 -12 227.54 11)"/><use xlink:href="#q" transform="matrix(12 0 0 -12 230.54 11)"/><use xlink:href="#q" transform="matrix(12 0 0 -12 233.54 11)"/><use xlink:href="#q" transform="matrix(12 0 0 -12 236.54 11)"/><use xlink:href="#q" transform="matrix(12 0 0 -12 239.54 11)"/><use xlink:href="#z" transform="matrix(12 0 0 -12 242.44 13.59)"/><use xlink:href="#z" transform="matrix(12 0 0 -12 248.44 13.59)"/><use xlink:href="#z" transform="matrix(12 0 0 -12 254.44 13.59)"/><use xlink:href="#q" transform="matrix(12 0 0 -12 260.54 11)"/><use xlink:href="#q" transform="matrix(12 0 0 -12 263.54 11)"/><use xlink:href="#q" transform="matrix(12 0 0 -12 266.54 11)"/><use xlink:href="#q" transform="matrix(12 0 0 -12 269.54 11)"/><use xlink:href="#q" transform="matrix(12 0 0 -12 272.54 11)"/><use xlink:href="#q" transform="matrix(12 0 0 -12 275.54 11)"/><use xlink:href="#q" transform="matrix(12 0 0 -12 278.54 11)"/><use xlink:href="#q" transform="matrix(12 0 0 -12 281.54 11)"/><use xlink:href="#q" transform="matrix(12 0 0 -12 284.54 11)"/><use xlink:href="#q" transform="matrix(12 0 0 -12 287.54 11)"/><use xlink:href="#q" transform="matrix(12 0 0 -12 290.54 11)"/><use xlink:href="#q" transform="matrix(12 0 0 -12 293.54 11)"/><use xlink:href="#q" transform="matrix(12 0 0 -12 296.54 11)"/><use xlink:href="#q" transform="matrix(12 0 0 -12 299.54 11)"/><use xlink:href="#q" transform="matrix(12 0 0 -12 302.54 11)"/><use xlink:href="#q" transform="matrix(12 0 0 -12 305.54 11)"/><use xlink:href="#q" transform="matrix(12 0 0 -12 308.54 11)"/><use xlink:href="#q" transform="matrix(12 0 0 -12 311.54 11)"/><use xlink:href="#z" transform="matrix(12 0 0 -12 314.44 13.59)"/><use xlink:href="#z" transform="matrix(12 0 0 -12 320.44 13.59)"/><use xlink:href="#z" transform="matrix(12 0 0 -12 326.44 13.59)"/><use xlink:href="#q" transform="matrix(12 0 0 -12 332.54 11)"/><use xlink:href="#q" transform="matrix(12 0 0 -12 335.54 11)"/><use xlink:href="#q" transform="matrix(12 0 0 -12 338.54 11)"/><use xlink:href="#q" transform="matrix(12 0 0 -12 341.54 11)"/><use xlink:href="#q" transform="matrix(12 0 0 -12 344.54 11)"/><use xlink:href="#q" transform="matrix(12 0 0 -12 347.54 11)"/><use xlink:href="#q" transform="matrix(12 0 0 -12 350.54 11)"/><use xlink:href="#q" transform="matrix(12 0 0 -12 353.54 11)"/><use xlink:href="#q" transform="matrix(12 0 0 -12 356.54 11)"/><use xlink:href="#q" transform="matrix(12 0 0 -12 359.54 11)"/><use xlink:href="#q" transform="matrix(12 0 0 -12 362.54 11)"/><use xlink:href="#z" transform="matrix(12 0 0 -12 365.44 13.59)"/><use xlink:href="#z" transform="matrix(12 0 0 -12 371.44 13.59)"/><use xlink:href="#z" transform="matrix(12 0 0 -12 377.44 13.59)"/><symbol id="J"><path d="M.188.626V.364h.146C.372.364.397.37.41.381c.017.015.026.042.028.08h.018V.23H.438a.252.252 0 0 1-.014.062.061.061 0 0 1-.028.027.147.147 0 0 1-.062.01H.188V.11C.188.081.19.063.192.057A.032.032 0 0 1 .206.042.086.086 0 0 1 .243.036h.112C.393.036.42.04.437.044a.122.122 0 0 1 .049.03c.02.02.04.051.062.092h.02L.51 0H0v.018h.023c.016 0 .03.004.045.011a.04.04 0 0 1 .02.024.22.22 0 0 1 .007.064v.43C.095.589.09.615.082.625.07.638.051.644.023.644H0v.018h.51L.518.517h-.02A.223.223 0 0 1 .477.59a.077.077 0 0 1-.037.03.221.221 0 0 1-.069.007H.188z"/></symbol><symbol id="K"><path d="M.156.365c.032.033.052.052.057.056.015.013.03.022.048.03.017.006.033.01.05.01A.112.112 0 0 0 .383.435a.12.12 0 0 0 .04-.07C.458.403.487.43.51.441A.15.15 0 0 0 .58.46.11.11 0 0 0 .643.442a.12.12 0 0 0 .044-.06.27.27 0 0 0 .01-.089V.101C.698.073.7.054.705.043A.043.043 0 0 1 .722.025.093.093 0 0 1 .765.018V0h-.22v.018h.009c.019 0 .034.003.045.01a.044.044 0 0 1 .016.026A.313.313 0 0 1 .617.1v.192a.163.163 0 0 1-.013.078C.59.39.57.4.542.4A.116.116 0 0 1 .49.39.278.278 0 0 1 .427.34V.1c0-.03.002-.05.005-.057a.044.044 0 0 1 .02-.02A.114.114 0 0 1 .5.019V0H.274v.018c.025 0 .042.003.05.008.01.006.017.015.02.027A.26.26 0 0 1 .347.1v.192C.347.33.34.356.33.373a.069.069 0 0 1-.06.03A.108.108 0 0 1 .218.39.201.201 0 0 1 .156.341V.1c0-.03.002-.048.006-.057A.045.045 0 0 1 .18.024.122.122 0 0 1 .229.018V0H.007v.018c.02 0 .035.002.043.006a.044.044 0 0 1 .019.02c.004.01.006.03.006.057v.171a.62.62 0 0 1-.004.095C.069.377.065.385.06.39A.03.03 0 0 1 .04.396.094.094 0 0 1 .007.388L0 .406.135.46h.02V.365z"/></symbol><symbol id="L"><path d="M.188.626v-.26H.31c.028 0 .048.006.06.018.014.012.022.036.027.073h.018V.232H.396a.128.128 0 0 1-.01.057.06.06 0 0 1-.027.027.105.105 0 0 1-.05.01H.19V.116A.22.22 0 0 1 .194.051.044.044 0 0 1 .215.03.093.093 0 0 1 .26.018h.024V0H0v.018h.023c.028 0 .048.008.06.024.008.01.012.035.012.075v.428A.22.22 0 0 1 .088.61a.044.044 0 0 1-.02.021.09.09 0 0 1-.045.012H0v.018h.493L.499.517H.482a.194.194 0 0 1-.03.067.094.094 0 0 1-.041.032.22.22 0 0 1-.077.01H.188z"/></symbol><symbol id="M"><path d="M.579.692.596.483H.579a.286.286 0 0 1-.067.118.21.21 0 0 1-.152.057.216.216 0 0 1-.193-.1.36.36 0 0 1-.055-.201c0-.063.013-.12.037-.173A.26.26 0 0 1 .245.07.233.233 0 0 1 .438.042.282.282 0 0 1 .502.07V.26a.17.17 0 0 1-.007.065.048.048 0 0 1-.024.024.13.13 0 0 1-.055.008v.018h.256V.358H.66C.635.358.618.349.608.333A.171.171 0 0 1 .598.26V.06A.485.485 0 0 0 .367 0C.238 0 .141.041.075.123A.329.329 0 0 0 0 .336C0 .394.014.45.042.503A.359.359 0 0 0 .179.65.335.335 0 0 0 .35.692.335.335 0 0 0 .416.687.595.595 0 0 0 .5.66.135.135 0 0 1 .537.65c.006 0 .011.002.015.008.005.006.008.017.009.033h.018z"/></symbol><symbol id="N"><path d="M.279.708.039 0H0l.24.708h.039z"/></symbol><symbol id="O"><path d="M.445.338A.212.212 0 0 0 .548.29a.146.146 0 0 0 .048-.11.165.165 0 0 0-.032-.095A.18.18 0 0 0 .48.021.5.5 0 0 0 .313 0H0v.018h.025c.028 0 .047.009.06.026.007.012.01.036.01.073v.428c0 .04-.004.067-.013.078C.069.637.05.644.025.644H0v.018h.286A.565.565 0 0 0 .415.65.205.205 0 0 0 .526.588.152.152 0 0 0 .535.396a.178.178 0 0 0-.09-.058M.19.364A.409.409 0 0 1 .282.357c.047 0 .083.005.107.016.024.01.042.026.055.047a.132.132 0 0 1 .019.07.127.127 0 0 1-.047.098C.384.616.338.63.277.63A.332.332 0 0 1 .19.62V.364m0-.316A.492.492 0 0 1 .301.035c.06 0 .104.013.135.04C.467.1.482.133.482.172c0 .026-.007.05-.02.074a.14.14 0 0 1-.069.056.295.295 0 0 1-.117.02A1.165 1.165 0 0 1 .189.32V.048z"/></symbol><use xlink:href="#y" transform="matrix(10 0 0 -10 61.611 9.651)"/><use xlink:href="#q" transform="matrix(10 0 0 -10 67.92 9.5)"/><use xlink:href="#q" transform="matrix(10 0 0 -10 70.42 9.5)"/><use xlink:href="#q" transform="matrix(10 0 0 -10 72.92 9.5)"/><use xlink:href="#q" transform="matrix(10 0 0 -10 75.42 9.5)"/><use xlink:href="#q" transform="matrix(10 0 0 -10 77.92 9.5)"/><use xlink:href="#q" transform="matrix(10 0 0 -10 80.42 9.5)"/><use xlink:href="#q" transform="matrix(10 0 0 -10 82.92 9.5)"/><use xlink:href="#q" transform="matrix(10 0 0 -10 85.42 9.5)"/><use xlink:href="#q" transform="matrix(10 0 0 -10 87.92 9.5)"/><use xlink:href="#q" transform="matrix(10 0 0 -10 90.42 9.5)"/><use xlink:href="#q" transform="matrix(10 0 0 -10 92.92 9.5)"/><use xlink:href="#q" transform="matrix(10 0 0 -10 95.42 9.5)"/><use xlink:href="#q" transform="matrix(10 0 0 -10 97.92 9.5)"/><use xlink:href="#q" transform="matrix(10 0 0 -10 100.42 9.5)"/><use xlink:href="#q" transform="matrix(10 0 0 -10 102.92 9.5)"/><use xlink:href="#q" transform="matrix(10 0 0 -10 105.42 9.5)"/><use xlink:href="#q" transform="matrix(10 0 0 -10 107.92 9.5)"/><use xlink:href="#q" transform="matrix(10 0 0 -10 110.42 9.5)"/><use xlink:href="#q" transform="matrix(10 0 0 -10 112.92 9.5)"/><use xlink:href="#q" transform="matrix(10 0 0 -10 115.42 9.5)"/><use xlink:href="#q" transform="matrix(10 0 0 -10 117.92 9.5)"/><use xlink:href="#q" transform="matrix(10 0 0 -10 120.42 9.5)"/><use xlink:href="#q" transform="matrix(10 0 0 -10 122.92 9.5)"/><use xlink:href="#q" transform="matrix(10 0 0 -10 125.42 9.5)"/><use xlink:href="#q" transform="matrix(10 0 0 -10 127.92 9.5)"/><use xlink:href="#q" transform="matrix(10 0 0 -10 130.42 9.5)"/><use xlink:href="#q" transform="matrix(10 0 0 -10 132.92 9.5)"/><use xlink:href="#q" transform="matrix(10 0 0 -10 135.42 9.5)"/><use xlink:href="#q" transform="matrix(10 0 0 -10 137.92 9.5)"/><use xlink:href="#q" transform="matrix(10 0 0 -10 140.42 9.5)"/><use xlink:href="#q" transform="matrix(10 0 0 -10 142.92 9.5)"/><use xlink:href="#q" transform="matrix(10 0 0 -10 145.42 9.5)"/><use xlink:href="#q" transform="matrix(10 0 0 -10 147.92 9.5)"/><use xlink:href="#q" transform="matrix(10 0 0 -10 150.42 9.5)"/><use xlink:href="#q" transform="matrix(10 0 0 -10 152.92 9.5)"/><use xlink:href="#q" transform="matrix(10 0 0 -10 155.42 9.5)"/><use xlink:href="#q" transform="matrix(10 0 0 -10 157.92 9.5)"/><use xlink:href="#J" transform="matrix(10 0 0 -10 160.625 9.5)"/><use xlink:href="#K" transform="matrix(10 0 0 -10 166.611 9.5)"/><use xlink:href="#q" transform="matrix(10 0 0 -10 174.306 9.5)"/><use xlink:href="#q" transform="matrix(10 0 0 -10 176.806 9.5)"/><use xlink:href="#q" transform="matrix(10 0 0 -10 179.306 9.5)"/><use xlink:href="#q" transform="matrix(10 0 0 -10 181.806 9.5)"/><use xlink:href="#q" transform="matrix(10 0 0 -10 184.306 9.5)"/><use xlink:href="#q" transform="matrix(10 0 0 -10 186.806 9.5)"/><use xlink:href="#q" transform="matrix(10 0 0 -10 189.306 9.5)"/><use xlink:href="#q" transform="matrix(10 0 0 -10 191.806 9.5)"/><use xlink:href="#q" transform="matrix(10 0 0 -10 194.306 9.5)"/><use xlink:href="#q" transform="matrix(10 0 0 -10 196.806 9.5)"/><use xlink:href="#q" transform="matrix(10 0 0 -10 199.306 9.5)"/><use xlink:href="#q" transform="matrix(10 0 0 -10 201.806 9.5)"/><use xlink:href="#q" transform="matrix(10 0 0 -10 204.306 9.5)"/><use xlink:href="#q" transform="matrix(10 0 0 -10 206.806 9.5)"/><use xlink:href="#q" transform="matrix(10 0 0 -10 209.306 9.5)"/><use xlink:href="#q" transform="matrix(10 0 0 -10 211.806 9.5)"/><use xlink:href="#q" transform="matrix(10 0 0 -10 214.306 9.5)"/><use xlink:href="#q" transform="matrix(10 0 0 -10 216.806 9.5)"/><use xlink:href="#q" transform="matrix(10 0 0 -10 219.306 9.5)"/><use xlink:href="#q" transform="matrix(10 0 0 -10 221.806 9.5)"/><use xlink:href="#q" transform="matrix(10 0 0 -10 224.306 9.5)"/><use xlink:href="#q" transform="matrix(10 0 0 -10 226.806 9.5)"/><use xlink:href="#q" transform="matrix(10 0 0 -10 229.306 9.5)"/><use xlink:href="#q" transform="matrix(10 0 0 -10 231.806 9.5)"/><use xlink:href="#q" transform="matrix(10 0 0 -10 234.306 9.5)"/><use xlink:href="#q" transform="matrix(10 0 0 -10 236.806 9.5)"/><use xlink:href="#q" transform="matrix(10 0 0 -10 239.306 9.5)"/><use xlink:href="#q" transform="matrix(10 0 0 -10 241.806 9.5)"/><use xlink:href="#q" transform="matrix(10 0 0 -10 244.306 9.5)"/><use xlink:href="#q" transform="matrix(10 0 0 -10 246.806 9.5)"/><use xlink:href="#L" transform="matrix(10 0 0 -10 249.467 9.5)"/><use xlink:href="#q" transform="matrix(10 0 0 -10 254.868 9.5)"/><use xlink:href="#q" transform="matrix(10 0 0 -10 257.368 9.5)"/><use xlink:href="#q" transform="matrix(10 0 0 -10 259.868 9.5)"/><use xlink:href="#q" transform="matrix(10 0 0 -10 262.368 9.5)"/><use xlink:href="#q" transform="matrix(10 0 0 -10 264.868 9.5)"/><use xlink:href="#q" transform="matrix(10 0 0 -10 267.368 9.5)"/><use xlink:href="#q" transform="matrix(10 0 0 -10 269.868 9.5)"/><use xlink:href="#q" transform="matrix(10 0 0 -10 272.368 9.5)"/><use xlink:href="#q" transform="matrix(10 0 0 -10 274.868 9.5)"/><use xlink:href="#q" transform="matrix(10 0 0 -10 277.368 9.5)"/><use xlink:href="#q" transform="matrix(10 0 0 -10 279.868 9.5)"/><use xlink:href="#q" transform="matrix(10 0 0 -10 282.368 9.5)"/><use xlink:href="#q" transform="matrix(10 0 0 -10 284.868 9.5)"/><use xlink:href="#q" transform="matrix(10 0 0 -10 287.368 9.5)"/><use xlink:href="#q" transform="matrix(10 0 0 -10 289.868 9.5)"/><use xlink:href="#q" transform="matrix(10 0 0 -10 292.368 9.5)"/><use xlink:href="#q" transform="matrix(10 0 0 -10 294.868 9.5)"/><use xlink:href="#q" transform="matrix(10 0 0 -10 297.368 9.5)"/><use xlink:href="#q" transform="matrix(10 0 0 -10 299.868 9.5)"/><use xlink:href="#q" transform="matrix(10 0 0 -10 302.368 9.5)"/><use xlink:href="#q" transform="matrix(10 0 0 -10 304.868 9.5)"/><use xlink:href="#q" transform="matrix(10 0 0 -10 307.368 9.5)"/><use xlink:href="#q" transform="matrix(10 0 0 -10 309.868 9.5)"/><use xlink:href="#M" transform="matrix(10 0 0 -10 312.72 9.651)"/><use xlink:href="#N" transform="matrix(10 0 0 -10 319.605 9.637)"/><use xlink:href="#O" transform="matrix(10 0 0 -10 322.534 9.5)"/><use xlink:href="#q" transform="matrix(10 0 0 -10 329.038 9.5)"/><use xlink:href="#q" transform="matrix(10 0 0 -10 331.538 9.5)"/><use xlink:href="#q" transform="matrix(10 0 0 -10 334.038 9.5)"/><use xlink:href="#q" transform="matrix(10 0 0 -10 336.538 9.5)"/><use xlink:href="#q" transform="matrix(10 0 0 -10 339.038 9.5)"/><use xlink:href="#q" transform="matrix(10 0 0 -10 341.538 9.5)"/><use xlink:href="#q" transform="matrix(10 0 0 -10 344.038 9.5)"/><use xlink:href="#q" transform="matrix(10 0 0 -10 346.538 9.5)"/><use xlink:href="#q" transform="matrix(10 0 0 -10 349.038 9.5)"/><use xlink:href="#q" transform="matrix(10 0 0 -10 351.538 9.5)"/><use xlink:href="#q" transform="matrix(10 0 0 -10 354.038 9.5)"/><use xlink:href="#q" transform="matrix(10 0 0 -10 356.538 9.5)"/><use xlink:href="#q" transform="matrix(10 0 0 -10 359.038 9.5)"/><use xlink:href="#q" transform="matrix(10 0 0 -10 361.538 9.5)"/><use xlink:href="#q" transform="matrix(10 0 0 -10 364.038 9.5)"/><use xlink:href="#q" transform="matrix(10 0 0 -10 366.538 9.5)"/><use xlink:href="#y" transform="matrix(10 0 0 -10 369.4 9.651)"/><symbol id="P"><path d="M.284.018V0H0v.018h.023c.028 0 .048.008.06.024.008.01.012.035.012.075v.428A.22.22 0 0 1 .088.61a.044.044 0 0 1-.02.021.093.093 0 0 1-.045.012H0v.018h.284V.644H.26C.233.644.213.636.2.62.194.61.189.585.189.545V.117A.22.22 0 0 1 .195.051.044.044 0 0 1 .215.03.09.09 0 0 1 .26.018h.024z"/></symbol><symbol id="Q"><path d="M.701.677V.66A.108.108 0 0 1 .648.637.203.203 0 0 1 .602.563L.372 0H.352L.105.57a.315.315 0 0 1-.027.055.083.083 0 0 1-.03.023A.133.133 0 0 1 0 .659v.018h.27V.66C.24.656.22.651.21.644a.036.036 0 0 1-.013-.03A.22.22 0 0 1 .22.54L.388.15l.156.384a.258.258 0 0 1 .023.078c0 .01-.004.019-.014.027a.092.092 0 0 1-.048.019L.497.659v.018h.204z"/></symbol><symbol id="R"><path d="M.01.548A.268.268 0 0 0 .082.65a.162.162 0 0 0 .107.036.149.149 0 0 0 .123-.051.127.127 0 0 0 .032-.083c0-.048-.03-.098-.091-.15A.197.197 0 0 0 .345.336.177.177 0 0 0 .376.231.22.22 0 0 0 .322.082C.274.027.205 0 .115 0 .071 0 .04.006.024.017.008.027 0 .04 0 .052c0 .01.004.018.011.025a.04.04 0 0 0 .028.01.084.084 0 0 0 .025-.003.285.285 0 0 0 .038-.018.245.245 0 0 1 .04-.018.135.135 0 0 1 .039-.006c.033 0 .062.013.086.04a.127.127 0 0 1 .037.09A.176.176 0 0 1 .26.29a.199.199 0 0 1-.057.035.184.184 0 0 1-.075.016H.111v.015a.2.2 0 0 1 .077.028.147.147 0 0 1 .057.055.145.145 0 0 1 .018.07.108.108 0 0 1-.11.113C.103.621.06.594.026.54L.01.548z"/></symbol><symbol id="S"><path d="M.156.46v-.1c.037.067.076.1.115.1A.062.062 0 0 0 .315.444.05.05 0 0 0 .333.406.045.045 0 0 0 .32.374.04.04 0 0 0 .29.361C.279.36.266.366.251.377.237.39.227.395.221.395.213.395.207.39.2.385A.235.235 0 0 1 .156.319V.104C.156.08.159.061.165.048A.05.05 0 0 1 .187.026.099.099 0 0 1 .234.018V0h-.23v.018c.024 0 .04.003.052.01a.042.042 0 0 1 .017.025.251.251 0 0 1 .002.048v.173a.663.663 0 0 1-.003.093.035.035 0 0 1-.012.022.032.032 0 0 1-.02.007.097.097 0 0 1-.035-.008L0 .406.135.46h.02z"/></symbol><symbol id="T"><path d="M.314.064A.23.23 0 0 0 .25.014.157.157 0 0 0 .183 0a.167.167 0 0 0-.128.061A.229.229 0 0 0 0 .219C0 .283.02.34.06.395c.04.053.093.08.156.08.04 0 .072-.013.098-.038V.52A.633.633 0 0 1 .31.614C.308.625.304.634.3.638a.03.03 0 0 1-.02.006.103.103 0 0 1-.033-.008L.239.653l.134.055h.022V.191c0-.052 0-.085.003-.096C.4.083.404.075.41.07A.03.03 0 0 1 .429.064c.009 0 .02.003.035.008L.469.055.336 0H.314v.064m0 .034v.23A.156.156 0 0 1 .296.39.1.1 0 0 1 .257.43.092.092 0 0 1 .21.444.1.1 0 0 1 .134.406C.104.372.089.322.089.257.09.192.104.141.132.106.161.071.192.054.228.054c.03 0 .058.015.086.044z"/></symbol><use xlink:href="#P" transform="matrix(10 0 0 -10 58.749 144)"/><use xlink:href="#q" transform="matrix(10 0 0 -10 61.83 144)"/><use xlink:href="#q" transform="matrix(10 0 0 -10 64.33 144)"/><use xlink:href="#q" transform="matrix(10 0 0 -10 66.83 144)"/><use xlink:href="#q" transform="matrix(10 0 0 -10 69.33 144)"/><use xlink:href="#q" transform="matrix(10 0 0 -10 71.83 144)"/><use xlink:href="#q" transform="matrix(10 0 0 -10 74.33 144)"/><use xlink:href="#q" transform="matrix(10 0 0 -10 76.83 144)"/><use xlink:href="#q" transform="matrix(10 0 0 -10 79.33 144)"/><use xlink:href="#q" transform="matrix(10 0 0 -10 81.83 144)"/><use xlink:href="#q" transform="matrix(10 0 0 -10 84.33 144)"/><use xlink:href="#q" transform="matrix(10 0 0 -10 86.83 144)"/><use xlink:href="#q" transform="matrix(10 0 0 -10 89.33 144)"/><use xlink:href="#q" transform="matrix(10 0 0 -10 91.83 144)"/><use xlink:href="#q" transform="matrix(10 0 0 -10 94.33 144)"/><use xlink:href="#q" transform="matrix(10 0 0 -10 96.83 144)"/><use xlink:href="#q" transform="matrix(10 0 0 -10 99.33 144)"/><use xlink:href="#q" transform="matrix(10 0 0 -10 101.83 144)"/><use xlink:href="#q" transform="matrix(10 0 0 -10 104.33 144)"/><use xlink:href="#q" transform="matrix(10 0 0 -10 106.83 144)"/><use xlink:href="#q" transform="matrix(10 0 0 -10 109.33 144)"/><use xlink:href="#q" transform="matrix(10 0 0 -10 111.83 144)"/><use xlink:href="#q" transform="matrix(10 0 0 -10 114.33 144)"/><use xlink:href="#q" transform="matrix(10 0 0 -10 116.83 144)"/><use xlink:href="#q" transform="matrix(10 0 0 -10 119.33 144)"/><use xlink:href="#q" transform="matrix(10 0 0 -10 121.83 144)"/><use xlink:href="#q" transform="matrix(10 0 0 -10 124.33 144)"/><use xlink:href="#q" transform="matrix(10 0 0 -10 126.83 144)"/><use xlink:href="#q" transform="matrix(10 0 0 -10 129.33 144)"/><use xlink:href="#q" transform="matrix(10 0 0 -10 131.83 144)"/><use xlink:href="#q" transform="matrix(10 0 0 -10 134.33 144)"/><use xlink:href="#q" transform="matrix(10 0 0 -10 136.83 144)"/><use xlink:href="#q" transform="matrix(10 0 0 -10 139.33 144)"/><use xlink:href="#q" transform="matrix(10 0 0 -10 141.83 144)"/><use xlink:href="#q" transform="matrix(10 0 0 -10 144.33 144)"/><use xlink:href="#q" transform="matrix(10 0 0 -10 146.83 144)"/><use xlink:href="#q" transform="matrix(10 0 0 -10 149.33 144)"/><use xlink:href="#q" transform="matrix(10 0 0 -10 151.83 144)"/><use xlink:href="#q" transform="matrix(10 0 0 -10 154.33 144)"/><use xlink:href="#q" transform="matrix(10 0 0 -10 156.83 144)"/><use xlink:href="#q" transform="matrix(10 0 0 -10 159.33 144)"/><use xlink:href="#i" transform="matrix(10 0 0 -10 162.123 144)"/><use xlink:href="#i" transform="matrix(10 0 0 -10 164.901 144)"/><use xlink:href="#i" transform="matrix(10 0 0 -10 167.679 144)"/><use xlink:href="#q" transform="matrix(10 0 0 -10 170.164 144)"/><use xlink:href="#q" transform="matrix(10 0 0 -10 172.664 144)"/><use xlink:href="#q" transform="matrix(10 0 0 -10 175.164 144)"/><use xlink:href="#q" transform="matrix(10 0 0 -10 177.664 144)"/><use xlink:href="#q" transform="matrix(10 0 0 -10 180.164 144)"/><use xlink:href="#q" transform="matrix(10 0 0 -10 182.664 144)"/><use xlink:href="#q" transform="matrix(10 0 0 -10 185.164 144)"/><use xlink:href="#q" transform="matrix(10 0 0 -10 187.664 144)"/><use xlink:href="#q" transform="matrix(10 0 0 -10 190.164 144)"/><use xlink:href="#q" transform="matrix(10 0 0 -10 192.664 144)"/><use xlink:href="#q" transform="matrix(10 0 0 -10 195.164 144)"/><use xlink:href="#q" transform="matrix(10 0 0 -10 197.664 144)"/><use xlink:href="#q" transform="matrix(10 0 0 -10 200.164 144)"/><use xlink:href="#q" transform="matrix(10 0 0 -10 202.664 144)"/><use xlink:href="#q" transform="matrix(10 0 0 -10 205.164 144)"/><use xlink:href="#q" transform="matrix(10 0 0 -10 207.664 144)"/><use xlink:href="#q" transform="matrix(10 0 0 -10 210.164 144)"/><use xlink:href="#q" transform="matrix(10 0 0 -10 212.664 144)"/><use xlink:href="#q" transform="matrix(10 0 0 -10 215.164 144)"/><use xlink:href="#q" transform="matrix(10 0 0 -10 217.664 144)"/><use xlink:href="#q" transform="matrix(10 0 0 -10 220.164 144)"/><use xlink:href="#q" transform="matrix(10 0 0 -10 222.664 144)"/><use xlink:href="#q" transform="matrix(10 0 0 -10 225.164 144)"/><use xlink:href="#q" transform="matrix(10 0 0 -10 227.664 144)"/><use xlink:href="#q" transform="matrix(10 0 0 -10 230.164 144)"/><use xlink:href="#q" transform="matrix(10 0 0 -10 232.664 144)"/><use xlink:href="#q" transform="matrix(10 0 0 -10 235.164 144)"/><use xlink:href="#q" transform="matrix(10 0 0 -10 237.664 144)"/><use xlink:href="#q" transform="matrix(10 0 0 -10 240.164 144)"/><use xlink:href="#q" transform="matrix(10 0 0 -10 242.664 144)"/><use xlink:href="#P" transform="matrix(10 0 0 -10 245.413 144)"/><use xlink:href="#Q" transform="matrix(10 0 0 -10 248.582 144.151)"/><use xlink:href="#q" transform="matrix(10 0 0 -10 255.535 144)"/><use xlink:href="#q" transform="matrix(10 0 0 -10 258.035 144)"/><use xlink:href="#q" transform="matrix(10 0 0 -10 260.535 144)"/><use xlink:href="#q" transform="matrix(10 0 0 -10 263.035 144)"/><use xlink:href="#q" transform="matrix(10 0 0 -10 265.535 144)"/><use xlink:href="#q" transform="matrix(10 0 0 -10 268.035 144)"/><use xlink:href="#q" transform="matrix(10 0 0 -10 270.535 144)"/><use xlink:href="#q" transform="matrix(10 0 0 -10 273.035 144)"/><use xlink:href="#q" transform="matrix(10 0 0 -10 275.535 144)"/><use xlink:href="#q" transform="matrix(10 0 0 -10 278.035 144)"/><use xlink:href="#q" transform="matrix(10 0 0 -10 280.535 144)"/><use xlink:href="#q" transform="matrix(10 0 0 -10 283.035 144)"/><use xlink:href="#q" transform="matrix(10 0 0 -10 285.535 144)"/><use xlink:href="#q" transform="matrix(10 0 0 -10 288.035 144)"/><use xlink:href="#q" transform="matrix(10 0 0 -10 290.535 144)"/><use xlink:href="#q" transform="matrix(10 0 0 -10 293.035 144)"/><use xlink:href="#q" transform="matrix(10 0 0 -10 295.535 144)"/><use xlink:href="#q" transform="matrix(10 0 0 -10 298.035 144)"/><use xlink:href="#q" transform="matrix(10 0 0 -10 300.535 144)"/><use xlink:href="#q" transform="matrix(10 0 0 -10 303.035 144)"/><use xlink:href="#q" transform="matrix(10 0 0 -10 305.535 144)"/><use xlink:href="#q" transform="matrix(10 0 0 -10 308.035 144)"/><use xlink:href="#Q" transform="matrix(10 0 0 -10 310.442 144.151)"/><use xlink:href="#N" transform="matrix(10 0 0 -10 317.59 144.137)"/><use xlink:href="#R" transform="matrix(10 0 0 -10 320.76 144.117)"/><use xlink:href="#S" transform="matrix(10 0 0 -10 325.417 144)"/><use xlink:href="#T" transform="matrix(10 0 0 -10 329.016 144.137)"/><use xlink:href="#q" transform="matrix(10 0 0 -10 333.684 144)"/><use xlink:href="#q" transform="matrix(10 0 0 -10 336.184 144)"/><use xlink:href="#q" transform="matrix(10 0 0 -10 338.684 144)"/><use xlink:href="#q" transform="matrix(10 0 0 -10 341.184 144)"/><use xlink:href="#q" transform="matrix(10 0 0 -10 343.684 144)"/><use xlink:href="#q" transform="matrix(10 0 0 -10 346.184 144)"/><use xlink:href="#q" transform="matrix(10 0 0 -10 348.684 144)"/><use xlink:href="#q" transform="matrix(10 0 0 -10 351.184 144)"/><use xlink:href="#q" transform="matrix(10 0 0 -10 353.684 144)"/><use xlink:href="#q" transform="matrix(10 0 0 -10 356.184 144)"/><use xlink:href="#q" transform="matrix(10 0 0 -10 358.684 144)"/><use xlink:href="#q" transform="matrix(10 0 0 -10 361.184 144)"/><use xlink:href="#q" transform="matrix(10 0 0 -10 363.684 144)"/><use xlink:href="#q" transform="matrix(10 0 0 -10 366.184 144)"/><use xlink:href="#q" transform="matrix(10 0 0 -10 368.684 144)"/><use xlink:href="#q" transform="matrix(10 0 0 -10 371.184 144)"/><use xlink:href="#P" transform="matrix(10 0 0 -10 373.933 144)"/></svg>