<svg xmlns="http://www.w3.org/2000/svg" xmlns:xlink="http://www.w3.org/1999/xlink" width="550" height="178.333" viewBox="0 0 412.5 133.75"><path d="M-165.75 760.25h612v-792h-612z" fill="#fff"/><symbol id="a"><path d="M.469.44A.415.415 0 0 0 .348.434a.459.459 0 0 0-.097.02.554.554 0 0 0-.125.078.344.344 0 0 0-.11.178.677.677 0 0 0-.013.096C0 .842.003.877.012.911a.55.55 0 0 0 .153.257 1.843 1.843 0 0 0 .162.136.194.194 0 0 1-.003.023.33.33 0 0 0-.011.076l-.002.03a.924.924 0 0 0-.001.121.345.345 0 0 0 .031.144.615.615 0 0 0 .039.075.4.4 0 0 0 .048.062c.016.018.032.026.047.026.007 0 .015-.004.024-.014a.405.405 0 0 0 .05-.087.544.544 0 0 0 .042-.168c0-.034-.001-.065-.004-.092a.415.415 0 0 0-.067-.182.402.402 0 0 0-.033-.048 9.105 9.105 0 0 0-.033-.04.22.22 0 0 0-.038-.038.517.517 0 0 1-.038-.03A16.911 16.911 0 0 0 .41.966a.361.361 0 0 0 .14-.02.207.207 0 0 0 .03-.015A.224.224 0 0 0 .657.84.31.31 0 0 0 .684.735.276.276 0 0 0 .643.57.319.319 0 0 0 .494.446 22.623 22.623 0 0 0 .52.272.508.508 0 0 0 .527.174.148.148 0 0 0 .512.111.283.283 0 0 0 .486.072.164.164 0 0 0 .405.013.236.236 0 0 0 .283.006a.234.234 0 0 0-.07.023.175.175 0 0 0-.056.044.116.116 0 0 0-.027.07.175.175 0 0 0 .003.048.14.14 0 0 0 .017.044C.158.248.17.26.183.267a.11.11 0 0 0 .087.01.137.137 0 0 0 .035-.019A.099.099 0 0 0 .343.19.101.101 0 0 0 .32.12.157.157 0 0 0 .232.065.09.09 0 0 1 .27.04a.166.166 0 0 1 .154.013.183.183 0 0 1 .063.065C.496.136.5.158.5.186a.702.702 0 0 1-.02.175L.469.44m.02 1.267c-.025 0-.048-.012-.068-.037a.298.298 0 0 1-.048-.092.567.567 0 0 1-.021-.252.748.748 0 0 1 .134.136.41.41 0 0 1 .048.081.155.155 0 0 1 .002.133.072.072 0 0 1-.018.022.043.043 0 0 1-.028.01M.488.48c.028.01.05.023.067.04A.152.152 0 0 1 .59.57a.155.155 0 0 1 .013.056.433.433 0 0 1 0 .05.332.332 0 0 1-.008.045.132.132 0 0 1-.075.093.172.172 0 0 1-.088.014L.488.48M.406.827A.155.155 0 0 1 .338.81.123.123 0 0 1 .27.691.158.158 0 0 1 .297.62.23.23 0 0 1 .322.59.11.11 0 0 1 .35.57.016.016 0 0 0 .346.564.016.016 0 0 0 .343.561.016.016 0 0 1 .34.557a.245.245 0 0 0-.055.036.257.257 0 0 0-.03.03.747.747 0 0 0-.02.026.119.119 0 0 0-.012.026.25.25 0 0 0-.01.03.278.278 0 0 0 0 .081.226.226 0 0 0 .016.048.247.247 0 0 0 .074.09.248.248 0 0 0 .043.025.868.868 0 0 0 .039.013l-.03.181A1.039 1.039 0 0 1 .142.938.715.715 0 0 1 .086.833.216.216 0 0 1 .07.73.246.246 0 0 1 .109.612.316.316 0 0 1 .32.47a.315.315 0 0 1 .143.003 36.857 36.857 0 0 1-.056.34L.406.826z"/></symbol><use xlink:href="#a" transform="matrix(20.5 0 0 -20.5 5.242 102.834)"/><symbol id="b"><path d="M.072.4V.251L.17.283v.149L.072.4M.043.494v.163h.029V.504L.17.536v.146h.029V.545l.039.013V.454L.199.441V.293l.039.012V.202L.199.189V.026H.17V.18L.072.148V0H.043v.138L0 .124v.104l.043.014v.149L0 .377V.48l.043.014z"/></symbol><use xlink:href="#b" transform="matrix(20.5 0 0 -20.5 24.943 80.216)"/><symbol id="c"><path d="M.325.131V.065c0-.01.002-.018.007-.023A.046.046 0 0 1 .348.03.07.07 0 0 1 .372.026V0H.155v.026A.07.07 0 0 1 .179.03a.037.037 0 0 1 .016.011C.2.046.203.053.203.063v.068H.018L0 .15a2.475 2.475 0 0 1 .086.128.402.402 0 0 1 .052.147l.013.066h.173A.439.439 0 0 0 .277.422 2.59 2.59 0 0 0 .126.247 3.761 3.761 0 0 1 .048.159h.155v.123l.122.134V.159h.072V.131H.325z"/></symbol><use xlink:href="#c" transform="matrix(20.5 0 0 -20.5 38.56 93.602)"/><symbol id="d"><path d="M.38.174A.365.365 0 0 0 .34.058a.143.143 0 0 0-.04-.041.092.092 0 0 0-.053-.016A.111.111 0 0 0 .2.01a.231.231 0 0 0-.036.019.805.805 0 0 1-.032.019.071.071 0 0 1-.034.008A.077.077 0 0 1 .05.04.082.082 0 0 1 .022 0h-.02a.137.137 0 0 0 .01.077c.011.03.026.054.045.073.018.02.036.034.053.044a1.056 1.056 0 0 1 .125.091c.01.012.017.024.02.035a.147.147 0 0 1-.002.085.105.105 0 0 1-.02.036.08.08 0 0 1-.03.023.068.068 0 0 1-.033.009.16.16 0 0 1-.065-.031.031.031 0 0 1-.01-.019C.094.418.096.414.102.41A.199.199 0 0 0 .144.379a.065.065 0 0 0 .019-.06A.074.074 0 0 0 .128.27.063.063 0 0 0 .096.262a.078.078 0 0 0-.042.01.085.085 0 0 0-.026.025.126.126 0 0 0-.013.033.144.144 0 0 0-.002.033c0 .02.006.037.018.053.012.017.026.03.044.042a.229.229 0 0 0 .123.038.65.65 0 0 0 .058-.003A.176.176 0 0 0 .32.475.134.134 0 0 0 .37.429.145.145 0 0 0 .393.345.092.092 0 0 0 .367.282.17.17 0 0 0 .305.24a1.581 1.581 0 0 1-.19-.076C.106.158.1.152.1.147c.02.01.042.013.064.012A.268.268 0 0 0 .27.132.092.092 0 0 1 .294.123a.06.06 0 0 1 .043.015c.011.01.02.024.026.041.005 0 .008 0 .008-.002S.375.174.38.174z"/></symbol><use xlink:href="#d" transform="matrix(20.5 0 0 -20.5 38.555 83.475)"/><path stroke-width=".384" stroke-miterlimit="10" fill="none" stroke="#000" d="M66.348 73.287v20.5M118.452 73.287v20.5M157.53 73.287v20.5M196.608 73.287v20.5M235.687 73.287v20.5M283.306 73.287v20.5M330.926 73.287v20.5M378.546 73.287v20.5M409.98 73.287v20.5M407.418 73.287v20.5M.172 73.287h410M.172 78.412h410M.172 83.537h410M.172 88.662h410M.172 93.787h410"/><path stroke-width=".554" stroke-miterlimit="10" fill="none" stroke="#000" d="M57.188 58.766v-2.563h43.99v2.563M110.146 58.766v-2.563h21.995v2.563M147.089 58.766v-2.563h21.567v2.563M186.594 58.766v-2.563h23.062v2.563M225.672 59.193V56.63h20.927v2.563M252.151 58.766v-2.563h43.563v2.563M302.12 58.766v-2.563h48.474v2.563M364.26 58.766v-2.563h28.402v2.563M58.255 42.75v-2.563H209.23v2.563M225.672 42.323V39.76h166.562v2.563"/><symbol id="e"><path d="M.28.543A.444.444 0 0 0 .214.361 5.325 5.325 0 0 0 .087.166.589.589 0 0 1 .04.087.205.205 0 0 1 .019 0H0v.266h.019a.214.214 0 0 1 .064.019A.174.174 0 0 1 .15.33a.29.29 0 0 1 .034.039.461.461 0 0 1 .082.271.36.36 0 0 1-.031.139.257.257 0 0 1-.017.038l.011.007A.34.34 0 0 0 .273.708.46.46 0 0 0 .28.543z"/></symbol><use xlink:href="#e" transform="matrix(20.5 0 0 -20.5 56.547 89.481)"/><path stroke-width=".384" stroke-miterlimit="10" fill="none" stroke="#000" d="M56.739 71.578v17.084"/><symbol id="f"><path d="M.009.131a.161.161 0 0 0 .03.05.232.232 0 0 0 .106.067c.02.007.042.01.063.01.021 0 .04-.004.056-.011A.091.091 0 0 0 .302.219.078.078 0 0 0 .319.178a.096.096 0 0 0-.006-.05.152.152 0 0 0-.031-.05.217.217 0 0 0-.048-.041A.206.206 0 0 0 .175.01.201.201 0 0 0 .113 0a.133.133 0 0 0-.056.011.101.101 0 0 0-.038.028.084.084 0 0 0-.017.042.105.105 0 0 0 .007.05z"/></symbol><use xlink:href="#f" transform="matrix(20.5 0 0 -20.5 56.526 73.43)"/><symbol id="g"><path d="M.536.579A.073.073 0 0 0 .52.534.077.077 0 0 0 .501.517.054.054 0 0 0 .475.51C.463.51.455.515.449.524a.053.053 0 0 0-.007.025c0 .006.002.012.005.017a.087.087 0 0 0 .014.013.274.274 0 0 1 .032.029c0 .006-.002.01-.007.01a.045.045 0 0 1-.012.003A.075.075 0 0 1 .44.614.103.103 0 0 1 .4.569.583.583 0 0 1 .36.452h.096V.43H.355a.397.397 0 0 1-.01-.027L.337.373A.812.812 0 0 1 .325.33 1.747 1.747 0 0 0 .302.263.89.89 0 0 0 .277.197a.57.57 0 0 0-.1-.15.155.155 0 0 0-.113-.046.044.044 0 0 0-.021.006.076.076 0 0 0-.02.016.08.08 0 0 0-.016.023A.05.05 0 0 0 0 .072l.003.023a.067.067 0 0 0 .01.02c.005.007.01.013.017.017a.046.046 0 0 0 .024.006C.069.138.079.133.086.125.093.115.096.104.097.09a.058.058 0 0 0-.01-.025A.094.094 0 0 0 .06.044C.056.042.054.039.054.037A.024.024 0 0 1 .062.03C.063.029.065.029.068.029c.01 0 .02.004.03.013a.144.144 0 0 1 .025.032.31.31 0 0 1 .038.087.44.44 0 0 1 .018.06 1.705 1.705 0 0 1 .027.097L.221.37l.017.06H.152v.022h.095a.405.405 0 0 0 .052.094.22.22 0 0 0 .079.075c.03.015.062.023.097.023.015 0 .03-.007.042-.02A.063.063 0 0 0 .536.58m.192-.18c0 .012-.002.02-.005.023C.72.426.714.428.707.428A.056.056 0 0 1 .679.42.16.16 0 0 1 .607.327.586.586 0 0 0 .598.302a.243.243 0 0 1-.011-.05l.002-.01A.124.124 0 0 1 .595.226.079.079 0 0 1 .606.212.024.024 0 0 1 .622.206c.011 0 .023.009.035.027A.55.55 0 0 1 .728.4M.407.323a.41.41 0 0 0 .07.11C.5.457.523.468.548.468A.09.09 0 0 0 .569.465.044.044 0 0 0 .583.459.178.178 0 0 0 .608.438.119.119 0 0 0 .625.407a.121.121 0 0 0 .034.032C.669.445.68.45.694.457a.117.117 0 0 0 .042.008c.023 0 .04-.008.051-.022A.155.155 0 0 0 .81.377L.809.365A.192.192 0 0 0 .788.28.286.286 0 0 0 .724.2.17.17 0 0 0 .683.179a.097.097 0 0 0-.045-.01.073.073 0 0 0-.028.007.279.279 0 0 0-.036.02.145.145 0 0 1-.012.016L.495.05l.07-.007v-.02H.304v.02L.39.05l.07.164.026.062a1.409 1.409 0 0 1 .042.1l.01.023C.541.405.54.413.536.42.533.429.527.433.519.433.51.433.5.427.488.417a.297.297 0 0 1-.053-.07.193.193 0 0 0-.016-.026H.413a.015.015 0 0 1-.006.002z"/></symbol><use xlink:href="#g" transform="matrix(20.5 0 0 -20.5 47.92 111.85)"/><symbol id="h"><path d="M.393 0 .137.557V.115C.137.075.14.049.15.039.162.025.18.019.207.019H.23V0H0v.018h.023c.028 0 .048.009.06.025.007.01.01.035.01.072v.432c0 .03-.003.05-.009.064a.053.053 0 0 1-.025.023.13.13 0 0 1-.059.01v.018h.188l.24-.518.236.518h.188V.644H.829C.8.644.78.636.769.619.76.609.758.584.758.547V.115c0-.04.004-.066.013-.076C.784.025.803.019.83.019h.023V0H.57v.018h.024c.028 0 .048.009.06.025.006.01.01.035.01.072v.442L.41 0H.393z"/></symbol><symbol id="i"><path d="M.216.474A.198.198 0 0 0 .38.397.237.237 0 0 0 .432.246c0-.04-.01-.081-.03-.122A.21.21 0 0 0 .324.031.208.208 0 0 0 .211 0a.19.19 0 0 0-.16.08A.25.25 0 0 0 0 .234c0 .04.01.082.03.122a.208.208 0 0 0 .186.12M.201.441A.102.102 0 0 1 .15.427.107.107 0 0 1 .107.373a.26.26 0 0 1-.016-.1C.09.21.104.154.129.106.155.058.19.035.232.035.264.035.29.048.31.074.33.1.34.144.34.208.34.288.325.35.29.396A.106.106 0 0 1 .2.442z"/></symbol><symbol id="j"><path d="M.151.602V.455h.105V.42H.15V.13c0-.029.004-.048.013-.058A.04.04 0 0 1 .196.057c.01 0 .021.003.031.01.01.006.018.016.023.03h.02A.155.155 0 0 0 .22.023.105.105 0 0 0 .157 0a.088.088 0 0 0-.044.012.077.077 0 0 0-.032.036.19.19 0 0 0-.01.072v.3H0v.017c.018.007.036.019.055.036a.29.29 0 0 1 .081.129h.015z"/></symbol><symbol id="k"><path d="M.116.694A.046.046 0 0 0 .15.68.046.046 0 0 0 .165.645.048.048 0 0 0 .15.61.046.046 0 0 0 .116.595.048.048 0 0 0 .08.61a.048.048 0 0 0-.015.035C.066.659.07.67.08.68c.01.01.022.014.036.014M.156.46V.101c0-.028.002-.047.006-.056A.045.045 0 0 1 .18.025.098.098 0 0 1 .224.017V0H.007v.018C.029.018.043.02.05.024a.042.042 0 0 1 .017.02c.005.01.007.03.007.057v.172a.61.61 0 0 1-.004.095C.069.378.065.385.06.389A.03.03 0 0 1 .04.396.098.098 0 0 1 .007.388L0 .406.135.46h.021z"/></symbol><symbol id="l"><path d="M0 .46h.21V.444H.197C.184.443.174.44.167.433A.033.033 0 0 1 .157.41c0-.012.004-.025.011-.04L.272.12l.104.256A.122.122 0 0 1 .388.42.016.016 0 0 1 .384.43.026.026 0 0 1 .37.44a.123.123 0 0 1-.034.003V.46h.146V.443C.465.442.454.438.447.433a.125.125 0 0 1-.03-.05L.257 0h-.02L.079.377a.14.14 0 0 1-.02.038.08.08 0 0 1-.025.02A.122.122 0 0 1 0 .443V.46z"/></symbol><symbol id="m"><path d="M.07.292A.23.23 0 0 1 .117.136.147.147 0 0 1 .232.08c.03 0 .055.008.077.024a.18.18 0 0 1 .054.083l.015-.01a.234.234 0 0 0-.06-.122A.16.16 0 0 0 .196 0c-.053 0-.1.02-.138.063A.242.242 0 0 0 0 .23c0 .077.02.137.059.18.039.042.088.064.148.064.05 0 .09-.017.123-.05A.18.18 0 0 0 .378.292H.07m0 .029h.207a.191.191 0 0 1-.01.06.096.096 0 0 1-.037.043.09.09 0 0 1-.05.016.101.101 0 0 1-.073-.032A.136.136 0 0 1 .07.321z"/></symbol><symbol id="n"><path d="M.271.474V.322H.255C.243.37.227.402.208.419a.106.106 0 0 1-.074.026.082.082 0 0 1-.055-.018C.065.415.058.402.058.387.058.37.063.353.073.34A.174.174 0 0 1 .135.298L.206.263c.066-.032.1-.075.1-.127A.12.12 0 0 0 .258.037.16.16 0 0 0 .156 0a.355.355 0 0 0-.094.015.095.095 0 0 1-.026.005C.028.02.022.015.018.007H.002v.16h.016A.182.182 0 0 1 .07.063.126.126 0 0 1 .157.03c.022 0 .04.006.054.02.015.013.022.029.022.047a.075.075 0 0 1-.024.057.407.407 0 0 1-.094.058.28.28 0 0 0-.093.063.11.11 0 0 0-.022.07c0 .038.013.068.038.093a.135.135 0 0 0 .098.037A.23.23 0 0 0 .2.463.151.151 0 0 1 .233.456a.02.02 0 0 1 .012.003.047.047 0 0 1 .01.015h.016z"/></symbol><symbol id="o"><path d="M.055.475A.051.051 0 0 0 .093.458.051.051 0 0 0 .11.42.053.053 0 0 0 .093.382.052.052 0 0 0 .055.366.053.053 0 0 0 .001.42c0 .015.005.028.016.038.01.011.023.017.038.017m0-.366A.052.052 0 0 0 .092.093.053.053 0 0 0 .109.054.053.053 0 0 0 .093.016.053.053 0 0 0 .054 0 .053.053 0 0 0 0 .054C0 .07.005.082.016.093c.01.01.023.016.038.016z"/></symbol><use xlink:href="#h" transform="matrix(11 0 0 -11 2.917 53.64)"/><use xlink:href="#i" transform="matrix(11 0 0 -11 12.886 53.791)"/><use xlink:href="#j" transform="matrix(11 0 0 -11 18.123 53.721)"/><use xlink:href="#k" transform="matrix(11 0 0 -11 21.394 53.64)"/><use xlink:href="#l" transform="matrix(11 0 0 -11 24.219 53.791)"/><use xlink:href="#m" transform="matrix(11 0 0 -11 30.035 53.791)"/><use xlink:href="#n" transform="matrix(11 0 0 -11 35.046 53.791)"/><use xlink:href="#o" transform="matrix(11 0 0 -11 39.736 53.791)"/><symbol id="p"><path d="M.396.692V.463H.378a.282.282 0 0 1-.032.105.179.179 0 0 1-.151.085.118.118 0 0 1-.084-.03.094.094 0 0 1-.033-.071c0-.02.007-.039.02-.055A.54.54 0 0 1 .244.399.951.951 0 0 0 .369.322.18.18 0 0 0 .44.184C.44.134.42.091.382.054A.211.211 0 0 0 .231 0a.318.318 0 0 0-.117.022.275.275 0 0 1-.06.016.026.026 0 0 1-.02-.008C.03.025.028.015.025 0H.006v.227h.018A.324.324 0 0 1 .06.12.165.165 0 0 1 .124.062.205.205 0 0 1 .221.038c.04 0 .073.01.096.032a.1.1 0 0 1 .036.076.102.102 0 0 1-.014.05.144.144 0 0 1-.041.046C.285.252.25.272.194.304A1.047 1.047 0 0 0 .073.38a.206.206 0 0 0-.054.063.162.162 0 0 0 .036.198.194.194 0 0 0 .139.051.28.28 0 0 0 .112-.025.115.115 0 0 1 .038-.013c.009 0 .016.003.02.008.006.005.01.015.014.03h.018z"/></symbol><symbol id="q"><path d="M.422.46V.19c0-.052.002-.084.004-.095C.428.083.432.075.438.07A.03.03 0 0 1 .457.064c.01 0 .021.003.034.008L.498.055.364 0H.342v.095A.407.407 0 0 0 .254.016.134.134 0 0 0 .19 0a.104.104 0 0 0-.065.021.114.114 0 0 0-.039.057.338.338 0 0 0-.01.096v.2a.098.098 0 0 1-.007.044.044.044 0 0 1-.02.019A.113.113 0 0 1 0 .443V.46h.157v-.3C.157.12.164.094.178.08A.077.077 0 0 1 .231.06c.014 0 .03.004.047.013.018.009.04.026.064.05v.254c0 .025-.005.042-.014.051C.318.438.299.442.27.443V.46h.152z"/></symbol><symbol id="r"><path d="M.156.384c.044.06.09.09.14.09.046 0 .086-.02.12-.059a.236.236 0 0 0 .052-.16.248.248 0 0 0-.08-.193.218.218 0 0 0-.23-.048.366.366 0 0 0-.082.043V.52c0 .05-.002.082-.004.094C.069.625.066.634.06.638a.03.03 0 0 1-.02.006.1.1 0 0 1-.034-.008L0 .653l.134.055h.022V.384m0-.031V.085A.194.194 0 0 1 .208.048.13.13 0 0 1 .262.036c.03 0 .057.016.083.048.025.033.038.08.038.143a.2.2 0 0 1-.038.131C.319.39.29.405.258.405A.113.113 0 0 1 .206.392a.224.224 0 0 1-.05-.04z"/></symbol><symbol id="s"><path d="M.002.617.14.672H.16V.568c.023.04.046.067.069.082a.13.13 0 0 0 .074.024.142.142 0 0 0 .112-.052A.25.25 0 0 0 .47.454.28.28 0 0 0 .403.262.176.176 0 0 0 .265.2a.172.172 0 0 0-.062.01.146.146 0 0 0-.044.03V.104c0-.031.001-.05.005-.059a.043.043 0 0 1 .02-.02.122.122 0 0 1 .05-.007V0H0v.018h.012c.018 0 .033.003.046.01.006.004.011.01.014.018a.196.196 0 0 1 .006.06V.53a.23.23 0 0 1-.004.055.033.033 0 0 1-.013.018.04.04 0 0 1-.023.006A.088.088 0 0 1 .008.6L.002.617M.16.539V.372c0-.036.001-.06.004-.071A.092.092 0 0 1 .196.25.104.104 0 0 1 .264.229c.032 0 .059.013.079.039a.22.22 0 0 1 .04.14c0 .068-.016.12-.046.157a.093.093 0 0 1-.12.027.272.272 0 0 1-.058-.053z"/></symbol><symbol id="t"><path d="M.156.694V.367a.37.37 0 0 0 .086.076.133.133 0 0 0 .064.017A.104.104 0 0 0 .37.44a.124.124 0 0 0 .04-.066.467.467 0 0 0 .01-.115V.101C.42.073.423.053.428.043A.038.038 0 0 1 .444.024.094.094 0 0 1 .487.018V0h-.22v.018h.01C.3.018.314.02.322.027a.052.052 0 0 1 .017.028C.34.06.34.075.34.101V.26C.34.31.337.34.332.355a.062.062 0 0 1-.064.046.113.113 0 0 1-.05-.012.238.238 0 0 1-.062-.052V.101c0-.03.002-.05.005-.057a.045.045 0 0 1 .02-.02.114.114 0 0 1 .048-.006V0H.007v.018c.02 0 .035.003.047.009.006.003.011.01.015.018.004.01.006.028.006.056v.405A.633.633 0 0 1 .071.6C.07.612.065.62.061.624A.03.03 0 0 1 .04.63.12.12 0 0 1 .007.623L0 .64l.134.054h.022z"/></symbol><symbol id="u"><path d="M.156.46v-.1c.037.067.076.1.115.1A.062.062 0 0 0 .315.444.05.05 0 0 0 .333.406.045.045 0 0 0 .32.374.04.04 0 0 0 .29.361C.279.36.266.366.251.377.237.39.227.395.221.395.213.395.207.39.2.385A.235.235 0 0 1 .156.319V.104C.156.08.159.061.165.048A.05.05 0 0 1 .187.026.099.099 0 0 1 .234.018V0h-.23v.018c.024 0 .04.003.052.01a.042.042 0 0 1 .017.025.251.251 0 0 1 .002.048v.173a.663.663 0 0 1-.003.093.035.035 0 0 1-.012.022.032.032 0 0 1-.02.007.097.097 0 0 1-.035-.008L0 .406.135.46h.02z"/></symbol><symbol id="v"><path d="M.249.074A.737.737 0 0 0 .163.012.132.132 0 0 0 .106 0C.076 0 .05.01.03.032A.117.117 0 0 0 0 .115c0 .022.005.04.015.057a.194.194 0 0 0 .069.062c.033.02.088.044.165.072v.017c0 .045-.007.075-.021.092C.214.432.193.44.166.44A.07.07 0 0 1 .117.423.05.05 0 0 1 .1.385V.357C.1.342.097.33.089.322A.039.039 0 0 0 .058.31a.039.039 0 0 0-.03.013.05.05 0 0 0-.01.034c0 .028.013.054.042.078A.186.186 0 0 0 .18.47.21.21 0 0 0 .279.45.092.092 0 0 0 .321.402.267.267 0 0 0 .33.316V.165c0-.043 0-.07.002-.08C.334.077.336.07.34.068A.02.02 0 0 1 .353.062c.005 0 .01.001.014.003l.04.036V.074C.37.024.334 0 .301 0a.047.047 0 0 0-.038.017C.254.028.249.047.249.074m0 .031v.17a.964.964 0 0 1-.095-.04.164.164 0 0 1-.055-.046.087.087 0 0 1-.017-.05c0-.024.007-.044.021-.06A.064.064 0 0 1 .151.058C.176.057.21.073.25.105z"/></symbol><use xlink:href="#p" transform="matrix(11 0 0 -11 3.849 34.802)"/><use xlink:href="#q" transform="matrix(11 0 0 -11 9.29 34.786)"/><use xlink:href="#r" transform="matrix(11 0 0 -11 14.753 34.786)"/><use xlink:href="#s" transform="matrix(11 0 0 -11 20.242 36.988)"/><use xlink:href="#t" transform="matrix(11 0 0 -11 25.85 34.635)"/><use xlink:href="#u" transform="matrix(11 0 0 -11 31.35 34.635)"/><use xlink:href="#v" transform="matrix(11 0 0 -11 35.335 34.737)"/><use xlink:href="#n" transform="matrix(11 0 0 -11 40.362 34.786)"/><use xlink:href="#m" transform="matrix(11 0 0 -11 44.514 34.786)"/><use xlink:href="#n" transform="matrix(11 0 0 -11 49.525 34.786)"/><use xlink:href="#o" transform="matrix(11 0 0 -11 54.214 34.786)"/><use xlink:href="#f" transform="matrix(20.5 0 0 -20.5 73.396 75.993)"/><path stroke-width=".384" stroke-miterlimit="10" fill="none" stroke="#000" d="M73.608 74.14v20.928"/><use xlink:href="#f" transform="matrix(20.5 0 0 -20.5 83.005 78.555)"/><path stroke-width=".384" stroke-miterlimit="10" fill="none" stroke="#000" d="M83.218 76.703v18.365"/><use xlink:href="#f" transform="matrix(20.5 0 0 -20.5 98.808 81.118)"/><use xlink:href="#b" transform="matrix(20.5 0 0 -20.5 92.208 85.34)"/><path stroke-width=".384" stroke-miterlimit="10" fill="none" stroke="#000" d="M99.02 79.266v15.802"/><use xlink:href="#f" transform="matrix(20.5 0 0 -20.5 108.63 78.555)"/><path stroke-width=".384" stroke-miterlimit="10" fill="none" stroke="#000" d="M108.843 76.703v18.365"/><path d="M109.035 93.787H73.417v2.562h35.618"/><symbol id="w"><path d="M.27.018V0a.466.466 0 0 0-.232.254.538.538 0 0 0 .037.475.43.43 0 0 0 .195.18V.887a.28.28 0 0 1-.1-.091A.42.42 0 0 1 .114.65 1.029 1.029 0 0 1 .11.276.498.498 0 0 1 .141.168.35.35 0 0 1 .27.018z"/></symbol><symbol id="x"><path d="M0 0z"/></symbol><symbol id="y"><path d="M0 .888v.02A.456.456 0 0 0 .231.654.535.535 0 0 0 .195.18.427.427 0 0 0 0 0v.018C.04.041.073.071.099.11a.403.403 0 0 1 .057.146A1.034 1.034 0 0 1 .16.63.355.355 0 0 1 0 .888z"/></symbol><use xlink:href="#w" transform="matrix(10 0 0 -10 71.478 78.201)"/><use xlink:href="#x" transform="matrix(10 0 0 -10 74.398 76.063)"/><use xlink:href="#x" transform="matrix(10 0 0 -10 76.898 76.063)"/><use xlink:href="#y" transform="matrix(10 0 0 -10 79.622 78.201)"/><use xlink:href="#w" transform="matrix(10 0 0 -10 90.056 82.899)"/><use xlink:href="#x" transform="matrix(10 0 0 -10 92.976 80.76)"/><use xlink:href="#x" transform="matrix(10 0 0 -10 95.476 80.76)"/><use xlink:href="#x" transform="matrix(10 0 0 -10 97.976 80.76)"/><use xlink:href="#x" transform="matrix(10 0 0 -10 100.476 80.76)"/><use xlink:href="#x" transform="matrix(10 0 0 -10 102.976 80.76)"/><use xlink:href="#y" transform="matrix(10 0 0 -10 105.7 82.899)"/><symbol id="z"><path d="M0 .051c0 .014.005.026.015.035a.05.05 0 0 0 .037.015.05.05 0 0 0 .037-.015.046.046 0 0 0 .015-.035.05.05 0 0 0-.015-.036A.05.05 0 0 0 .052 0a.05.05 0 0 0-.037.015A.05.05 0 0 0 0 .051z"/></symbol><use xlink:href="#z" transform="matrix(20.5 0 0 -20.5 134.698 82.037)"/><path stroke-width=".384" stroke-miterlimit="10" fill="none" stroke="#000" d="M125.926 84.39v17.084"/><use xlink:href="#f" transform="matrix(20.5 0 0 -20.5 125.714 86.243)"/><use xlink:href="#e" transform="matrix(20.5 0 0 -20.5 147.302 94.606)"/><path stroke-width=".384" stroke-miterlimit="10" fill="none" stroke="#000" d="M147.494 76.703v17.084"/><use xlink:href="#f" transform="matrix(20.5 0 0 -20.5 147.282 78.555)"/><use xlink:href="#z" transform="matrix(20.5 0 0 -20.5 173.776 82.037)"/><path stroke-width=".384" stroke-miterlimit="10" fill="none" stroke="#000" d="M165.004 81.828v17.084"/><use xlink:href="#f" transform="matrix(20.5 0 0 -20.5 164.792 83.68)"/><use xlink:href="#e" transform="matrix(20.5 0 0 -20.5 186.38 94.606)"/><path stroke-width=".384" stroke-miterlimit="10" fill="none" stroke="#000" d="M186.572 76.703v17.084"/><use xlink:href="#f" transform="matrix(20.5 0 0 -20.5 186.36 78.555)"/><use xlink:href="#z" transform="matrix(20.5 0 0 -20.5 212.854 82.037)"/><path stroke-width=".384" stroke-miterlimit="10" fill="none" stroke="#000" d="M204.082 84.39v17.084"/><use xlink:href="#f" transform="matrix(20.5 0 0 -20.5 203.87 86.243)"/><use xlink:href="#e" transform="matrix(20.5 0 0 -20.5 225.458 102.294)"/><path stroke-width=".384" stroke-miterlimit="10" fill="none" stroke="#000" d="M225.65 84.39v17.084"/><use xlink:href="#f" transform="matrix(20.5 0 0 -20.5 225.438 86.243)"/><use xlink:href="#f" transform="matrix(20.5 0 0 -20.5 242.735 83.68)"/><path stroke-width=".384" stroke-miterlimit="10" fill="none" stroke="#000" d="M242.947 81.828v20.927"/><use xlink:href="#f" transform="matrix(20.5 0 0 -20.5 252.771 83.68)"/><path stroke-width=".384" stroke-miterlimit="10" fill="none" stroke="#000" d="M252.983 81.828v20.927"/><use xlink:href="#f" transform="matrix(20.5 0 0 -20.5 263.021 86.243)"/><path stroke-width=".384" stroke-miterlimit="10" fill="none" stroke="#000" d="M263.233 84.39v18.365"/><use xlink:href="#f" transform="matrix(20.5 0 0 -20.5 273.058 88.805)"/><path stroke-width=".384" stroke-miterlimit="10" fill="none" stroke="#000" d="M273.27 86.953v15.802"/><path d="M273.462 101.474h-30.707v2.563h30.707"/><use xlink:href="#w" transform="matrix(10 0 0 -10 271.566 90.373)"/><use xlink:href="#x" transform="matrix(10 0 0 -10 274.486 88.234)"/><use xlink:href="#x" transform="matrix(10 0 0 -10 276.986 88.234)"/><use xlink:href="#y" transform="matrix(10 0 0 -10 279.71 90.373)"/><use xlink:href="#f" transform="matrix(20.5 0 0 -20.5 290.354 91.368)"/><path stroke-width=".384" stroke-miterlimit="10" fill="none" stroke="#000" d="M296.723 87.807V72.005"/><use xlink:href="#f" transform="matrix(20.5 0 0 -20.5 300.391 91.368)"/><path stroke-width=".384" stroke-miterlimit="10" fill="none" stroke="#000" d="M306.76 87.807V72.005"/><use xlink:href="#f" transform="matrix(20.5 0 0 -20.5 310.641 93.93)"/><path stroke-width=".384" stroke-miterlimit="10" fill="none" stroke="#000" d="M317.01 90.37V72.005"/><use xlink:href="#f" transform="matrix(20.5 0 0 -20.5 320.677 96.493)"/><path stroke-width=".384" stroke-miterlimit="10" fill="none" stroke="#000" d="M327.046 92.932V72.005"/><path d="M327.238 70.724H296.53v2.563h30.707"/><use xlink:href="#w" transform="matrix(10 0 0 -10 308.51 95.925)"/><use xlink:href="#x" transform="matrix(10 0 0 -10 311.429 93.787)"/><use xlink:href="#x" transform="matrix(10 0 0 -10 313.929 93.787)"/><use xlink:href="#y" transform="matrix(10 0 0 -10 316.654 95.925)"/><use xlink:href="#z" transform="matrix(20.5 0 0 -20.5 353.578 97.412)"/><path stroke-width=".384" stroke-miterlimit="10" fill="none" stroke="#000" d="M350.962 95.495V78.412"/><use xlink:href="#f" transform="matrix(20.5 0 0 -20.5 344.594 99.055)"/><use xlink:href="#b" transform="matrix(20.5 0 0 -20.5 337.995 103.278)"/><symbol id="A"><path d="M.014.786c0-.025.006-.05.018-.077a.42.42 0 0 1 .04-.071L.126.563A1.008 1.008 0 0 0 .207.429a1.002 1.002 0 0 0 .034-.1A.658.658 0 0 0 .258.17.517.517 0 0 0 .227 0L.215.002a.605.605 0 0 1 .021.25.413.413 0 0 1-.074.186.27.27 0 0 1-.055.054.173.173 0 0 1-.033.017.176.176 0 0 1-.06.015H0v.262h.014z"/></symbol><use xlink:href="#A" transform="matrix(20.5 0 0 -20.5 370.437 91.204)"/><path stroke-width=".384" stroke-miterlimit="10" fill="none" stroke="#000" d="M370.608 92.932V75.85"/><use xlink:href="#f" transform="matrix(20.5 0 0 -20.5 364.24 96.493)"/><use xlink:href="#w" transform="matrix(10 0 0 -10 362.535 98.488)"/><use xlink:href="#x" transform="matrix(10 0 0 -10 365.455 96.349)"/><use xlink:href="#x" transform="matrix(10 0 0 -10 367.955 96.349)"/><use xlink:href="#y" transform="matrix(10 0 0 -10 370.68 98.488)"/><use xlink:href="#z" transform="matrix(20.5 0 0 -20.5 394.578 92.287)"/><path stroke-width=".384" stroke-miterlimit="10" fill="none" stroke="#000" d="M391.962 90.37V73.287"/><use xlink:href="#f" transform="matrix(20.5 0 0 -20.5 385.594 93.93)"/><path d="M59.75 65.385c19.219-10.036 54.24-4.27 69.188 11.318-15.155-14.324-50.176-20.09-69.188-11.318M150.505 70.724c6.62-3.63 13.88-1.708 17.51 4.911-3.976-5.386-11.236-7.308-17.51-4.911M189.797 70.724c6.833-3.417 14.094-.854 17.51 5.98-3.83-5.622-11.09-8.184-17.51-5.98M228.661 76.703c4.698-5.338 11.959-5.766 17.297-1.068-5.26-3.419-12.52-2.992-17.297 1.068M255.995 75.635c10.25-8.755 27.76-8.541 38.01.214-10.257-7.474-27.767-7.688-38.01-.214M303.828 95.495c4.912 6.62 13.24 8.114 20.073 3.63-6.605 3.224-14.933 1.729-20.073-3.63M348.031 101.474c12.172 7.688 31.177 5.338 41-5.125-9.982 9.192-28.987 11.541-41 5.125"/><symbol id="B"><path d="M0 0v.716h.095V.084h.352V0H0z"/></symbol><symbol id="C"><path d="M.384.179.475.167a.222.222 0 0 0-.08-.123A.24.24 0 0 0 .248 0a.238.238 0 0 0-.18.07A.275.275 0 0 0 0 .267C0 .354.022.422.067.47a.228.228 0 0 0 .175.072c.07 0 .126-.024.17-.07a.281.281 0 0 0 .066-.2.82.82 0 0 0 0-.023H.09A.2.2 0 0 1 .139.118.144.144 0 0 1 .248.072c.032 0 .06.009.082.026.023.017.04.044.054.08M.096.322h.29a.176.176 0 0 1-.034.098.135.135 0 0 1-.109.05.14.14 0 0 1-.102-.04.161.161 0 0 1-.045-.108z"/></symbol><symbol id="D"><path d="M.368.076A.27.27 0 0 0 .178 0C.12 0 .075.014.045.042A.139.139 0 0 0 0 .148a.142.142 0 0 0 .063.12c.018.013.04.023.063.03A.628.628 0 0 0 .204.31a.803.803 0 0 1 .157.03v.023C.361.4.353.424.336.439.314.46.281.47.236.47.195.47.164.462.145.447.125.433.11.407.1.371L.015.382a.21.21 0 0 0 .039.09c.018.022.043.04.077.051A.342.342 0 0 0 .25.542c.044 0 .08-.005.108-.016a.141.141 0 0 0 .061-.04.136.136 0 0 0 .027-.059.495.495 0 0 0 .005-.08V.228C.45.147.45.096.455.074A.2.2 0 0 1 .478.012H.386a.186.186 0 0 0-.018.064M.361.272A.645.645 0 0 0 .217.239.332.332 0 0 1 .141.22a.076.076 0 0 1-.047-.07C.094.127.103.108.12.092.138.077.164.07.198.07s.064.007.09.022a.138.138 0 0 1 .059.06c.01.02.014.05.014.089v.032z"/></symbol><symbol id="E"><path d="M.368.012v.065A.161.161 0 0 0 .223 0 .205.205 0 0 0 .11.034a.227.227 0 0 0-.08.095A.334.334 0 0 0 0 .271c0 .051.009.098.026.14a.204.204 0 0 0 .193.131.171.171 0 0 0 .143-.071v.257H.45V.012H.368M.09.27C.09.204.104.154.132.12a.127.127 0 0 1 .1-.049c.038 0 .07.016.097.047.027.032.04.08.04.144C.37.334.357.386.33.42a.126.126 0 0 1-.2.002C.103.39.09.34.09.271z"/></symbol><symbol id="F"><path d="M0 0v.088h.27V0H0z"/></symbol><symbol id="G"><path d="M0 .167.087.18A.122.122 0 0 1 .127.1.143.143 0 0 1 .221.072c.04 0 .07.008.09.025.02.016.03.036.03.058C.34.175.33.19.313.202a.381.381 0 0 1-.09.03.854.854 0 0 0-.134.041.134.134 0 0 0-.056.05.133.133 0 0 0-.02.07c0 .023.006.044.016.064.011.02.026.036.044.049.013.01.032.018.055.025A.298.298 0 0 0 .312.524.145.145 0 0 0 .382.477a.184.184 0 0 0 .03-.08L.325.384a.094.094 0 0 1-.034.062.123.123 0 0 1-.08.023C.172.47.144.463.126.45.108.436.1.42.1.403.1.39.103.38.11.373A.078.078 0 0 1 .144.348C.153.345.179.338.222.326.284.31.327.296.352.286A.13.13 0 0 0 .41.238.148.148 0 0 0 .405.081.166.166 0 0 0 .33.021.272.272 0 0 0 .221 0a.245.245 0 0 0-.154.042A.196.196 0 0 0 0 .167z"/></symbol><symbol id="H"><path d="M0 0v.716h.088V.459A.196.196 0 0 0 .243.53a.208.208 0 0 0 .1-.023.13.13 0 0 0 .06-.062.286.286 0 0 0 .02-.116V0H.333v.329c0 .044-.01.075-.028.095-.02.02-.046.03-.08.03A.142.142 0 0 1 .15.435.113.113 0 0 1 .103.38.252.252 0 0 1 .088.284V0H0z"/></symbol><symbol id="I"><path d="M.24.085.253.008A.326.326 0 0 0 .187 0a.15.15 0 0 0-.075.015.085.085 0 0 0-.037.04.317.317 0 0 0-.01.104v.298H0v.068h.064v.129l.088.053V.525H.24V.457H.152V.154c0-.025.001-.041.004-.049A.038.038 0 0 1 .171.088a.06.06 0 0 1 .03-.006l.04.003z"/></symbol><symbol id="J"><path d="M0 .418v.1h.1v-.1H0M0 0v.1h.1V0H0z"/></symbol><use xlink:href="#B" transform="matrix(9 0 0 -9 3.91 17.5)"/><use xlink:href="#C" transform="matrix(9 0 0 -9 8.585 17.605)"/><use xlink:href="#D" transform="matrix(9 0 0 -9 13.587 17.605)"/><use xlink:href="#E" transform="matrix(9 0 0 -9 18.575 17.605)"/><use xlink:href="#F" transform="matrix(9 0 0 -9 23.559 15.566)"/><use xlink:href="#G" transform="matrix(9 0 0 -9 26.547 17.605)"/><use xlink:href="#H" transform="matrix(9 0 0 -9 31.363 17.5)"/><use xlink:href="#C" transform="matrix(9 0 0 -9 36.106 17.605)"/><use xlink:href="#C" transform="matrix(9 0 0 -9 41.111 17.605)"/><use xlink:href="#I" transform="matrix(9 0 0 -9 45.946 17.562)"/><use xlink:href="#J" transform="matrix(9 0 0 -9 49.1 17.5)"/><symbol id="K"><path d="M.517 0H0v.041h.517V0z"/></symbol><use xlink:href="#x" transform="matrix(12 0 0 -12 50.785 17.5)"/><use xlink:href="#x" transform="matrix(12 0 0 -12 53.785 17.5)"/><use xlink:href="#x" transform="matrix(12 0 0 -12 56.785 17.5)"/><use xlink:href="#x" transform="matrix(12 0 0 -12 59.785 17.5)"/><use xlink:href="#x" transform="matrix(12 0 0 -12 62.785 17.5)"/><use xlink:href="#x" transform="matrix(12 0 0 -12 65.785 17.5)"/><use xlink:href="#x" transform="matrix(12 0 0 -12 68.785 17.5)"/><use xlink:href="#K" transform="matrix(12 0 0 -12 71.686 20.09)"/><use xlink:href="#K" transform="matrix(12 0 0 -12 77.686 20.09)"/><use xlink:href="#K" transform="matrix(12 0 0 -12 83.686 20.09)"/><use xlink:href="#x" transform="matrix(12 0 0 -12 89.785 17.5)"/><use xlink:href="#x" transform="matrix(12 0 0 -12 92.785 17.5)"/><use xlink:href="#x" transform="matrix(12 0 0 -12 95.785 17.5)"/><use xlink:href="#x" transform="matrix(12 0 0 -12 98.785 17.5)"/><use xlink:href="#x" transform="matrix(12 0 0 -12 101.785 17.5)"/><use xlink:href="#x" transform="matrix(12 0 0 -12 104.785 17.5)"/><use xlink:href="#x" transform="matrix(12 0 0 -12 107.785 17.5)"/><use xlink:href="#x" transform="matrix(12 0 0 -12 110.785 17.5)"/><use xlink:href="#x" transform="matrix(12 0 0 -12 113.785 17.5)"/><use xlink:href="#x" transform="matrix(12 0 0 -12 116.785 17.5)"/><use xlink:href="#x" transform="matrix(12 0 0 -12 119.785 17.5)"/><use xlink:href="#x" transform="matrix(12 0 0 -12 122.785 17.5)"/><use xlink:href="#x" transform="matrix(12 0 0 -12 125.785 17.5)"/><use xlink:href="#x" transform="matrix(12 0 0 -12 128.785 17.5)"/><use xlink:href="#x" transform="matrix(12 0 0 -12 131.785 17.5)"/><use xlink:href="#x" transform="matrix(12 0 0 -12 134.785 17.5)"/><use xlink:href="#x" transform="matrix(12 0 0 -12 137.785 17.5)"/><use xlink:href="#x" transform="matrix(12 0 0 -12 140.785 17.5)"/><use xlink:href="#x" transform="matrix(12 0 0 -12 143.785 17.5)"/><use xlink:href="#x" transform="matrix(12 0 0 -12 146.785 17.5)"/><use xlink:href="#x" transform="matrix(12 0 0 -12 149.785 17.5)"/><use xlink:href="#x" transform="matrix(12 0 0 -12 152.785 17.5)"/><use xlink:href="#x" transform="matrix(12 0 0 -12 155.785 17.5)"/><use xlink:href="#x" transform="matrix(12 0 0 -12 158.785 17.5)"/><use xlink:href="#K" transform="matrix(12 0 0 -12 161.686 20.09)"/><use xlink:href="#K" transform="matrix(12 0 0 -12 167.686 20.09)"/><use xlink:href="#K" transform="matrix(12 0 0 -12 173.686 20.09)"/><use xlink:href="#x" transform="matrix(12 0 0 -12 179.785 17.5)"/><use xlink:href="#x" transform="matrix(12 0 0 -12 182.785 17.5)"/><use xlink:href="#x" transform="matrix(12 0 0 -12 185.785 17.5)"/><use xlink:href="#x" transform="matrix(12 0 0 -12 188.785 17.5)"/><use xlink:href="#x" transform="matrix(12 0 0 -12 191.785 17.5)"/><use xlink:href="#x" transform="matrix(12 0 0 -12 194.785 17.5)"/><use xlink:href="#x" transform="matrix(12 0 0 -12 197.785 17.5)"/><use xlink:href="#K" transform="matrix(12 0 0 -12 200.686 20.09)"/><use xlink:href="#K" transform="matrix(12 0 0 -12 206.686 20.09)"/><use xlink:href="#K" transform="matrix(12 0 0 -12 212.686 20.09)"/><use xlink:href="#x" transform="matrix(12 0 0 -12 218.785 17.5)"/><use xlink:href="#x" transform="matrix(12 0 0 -12 221.785 17.5)"/><use xlink:href="#x" transform="matrix(12 0 0 -12 224.785 17.5)"/><use xlink:href="#x" transform="matrix(12 0 0 -12 227.785 17.5)"/><use xlink:href="#x" transform="matrix(12 0 0 -12 230.785 17.5)"/><use xlink:href="#x" transform="matrix(12 0 0 -12 233.785 17.5)"/><use xlink:href="#x" transform="matrix(12 0 0 -12 236.785 17.5)"/><use xlink:href="#K" transform="matrix(12 0 0 -12 239.686 20.09)"/><use xlink:href="#K" transform="matrix(12 0 0 -12 245.686 20.09)"/><use xlink:href="#K" transform="matrix(12 0 0 -12 251.686 20.09)"/><use xlink:href="#x" transform="matrix(12 0 0 -12 257.785 17.5)"/><use xlink:href="#x" transform="matrix(12 0 0 -12 260.785 17.5)"/><use xlink:href="#K" transform="matrix(12 0 0 -12 263.686 20.09)"/><use xlink:href="#K" transform="matrix(12 0 0 -12 269.686 20.09)"/><use xlink:href="#K" transform="matrix(12 0 0 -12 275.686 20.09)"/><use xlink:href="#x" transform="matrix(12 0 0 -12 281.785 17.5)"/><use xlink:href="#x" transform="matrix(12 0 0 -12 284.785 17.5)"/><use xlink:href="#K" transform="matrix(12 0 0 -12 287.686 20.09)"/><use xlink:href="#K" transform="matrix(12 0 0 -12 293.686 20.09)"/><use xlink:href="#K" transform="matrix(12 0 0 -12 299.686 20.09)"/><use xlink:href="#x" transform="matrix(12 0 0 -12 305.785 17.5)"/><use xlink:href="#x" transform="matrix(12 0 0 -12 308.785 17.5)"/><use xlink:href="#K" transform="matrix(12 0 0 -12 311.686 20.09)"/><use xlink:href="#K" transform="matrix(12 0 0 -12 317.686 20.09)"/><use xlink:href="#K" transform="matrix(12 0 0 -12 323.686 20.09)"/><use xlink:href="#x" transform="matrix(12 0 0 -12 329.785 17.5)"/><use xlink:href="#x" transform="matrix(12 0 0 -12 332.785 17.5)"/><use xlink:href="#x" transform="matrix(12 0 0 -12 335.785 17.5)"/><use xlink:href="#K" transform="matrix(12 0 0 -12 338.686 20.09)"/><use xlink:href="#K" transform="matrix(12 0 0 -12 344.686 20.09)"/><use xlink:href="#K" transform="matrix(12 0 0 -12 350.686 20.09)"/><use xlink:href="#m" transform="matrix(12 0 0 -12 40.695 128.664)"/><use xlink:href="#o" transform="matrix(12 0 0 -12 46.607 128.664)"/><use xlink:href="#x" transform="matrix(12 0 0 -12 48.91 128.5)"/><use xlink:href="#x" transform="matrix(12 0 0 -12 51.91 128.5)"/><use xlink:href="#x" transform="matrix(12 0 0 -12 54.91 128.5)"/><use xlink:href="#x" transform="matrix(12 0 0 -12 57.91 128.5)"/><use xlink:href="#x" transform="matrix(12 0 0 -12 60.91 128.5)"/><use xlink:href="#x" transform="matrix(12 0 0 -12 63.91 128.5)"/><use xlink:href="#x" transform="matrix(12 0 0 -12 66.91 128.5)"/><use xlink:href="#x" transform="matrix(12 0 0 -12 69.91 128.5)"/><use xlink:href="#k" transform="matrix(12 0 0 -12 73.26 128.5)"/><use xlink:href="#x" transform="matrix(12 0 0 -12 76.243 128.5)"/><use xlink:href="#x" transform="matrix(12 0 0 -12 79.243 128.5)"/><use xlink:href="#x" transform="matrix(12 0 0 -12 82.243 128.5)"/><use xlink:href="#x" transform="matrix(12 0 0 -12 85.243 128.5)"/><use xlink:href="#x" transform="matrix(12 0 0 -12 88.243 128.5)"/><use xlink:href="#x" transform="matrix(12 0 0 -12 91.243 128.5)"/><use xlink:href="#x" transform="matrix(12 0 0 -12 94.243 128.5)"/><use xlink:href="#x" transform="matrix(12 0 0 -12 97.243 128.5)"/><use xlink:href="#x" transform="matrix(12 0 0 -12 100.243 128.5)"/><use xlink:href="#x" transform="matrix(12 0 0 -12 103.243 128.5)"/><use xlink:href="#x" transform="matrix(12 0 0 -12 106.243 128.5)"/><use xlink:href="#x" transform="matrix(12 0 0 -12 109.243 128.5)"/><use xlink:href="#x" transform="matrix(12 0 0 -12 112.243 128.5)"/><use xlink:href="#x" transform="matrix(12 0 0 -12 115.243 128.5)"/><use xlink:href="#x" transform="matrix(12 0 0 -12 118.243 128.5)"/><use xlink:href="#x" transform="matrix(12 0 0 -12 121.243 128.5)"/><use xlink:href="#x" transform="matrix(12 0 0 -12 124.243 128.5)"/><use xlink:href="#x" transform="matrix(12 0 0 -12 127.243 128.5)"/><use xlink:href="#x" transform="matrix(12 0 0 -12 130.243 128.5)"/><use xlink:href="#x" transform="matrix(12 0 0 -12 133.243 128.5)"/><use xlink:href="#x" transform="matrix(12 0 0 -12 136.243 128.5)"/><use xlink:href="#x" transform="matrix(12 0 0 -12 139.243 128.5)"/><use xlink:href="#x" transform="matrix(12 0 0 -12 142.243 128.5)"/><use xlink:href="#x" transform="matrix(12 0 0 -12 145.243 128.5)"/><use xlink:href="#x" transform="matrix(12 0 0 -12 148.243 128.5)"/><use xlink:href="#x" transform="matrix(12 0 0 -12 151.243 128.5)"/><use xlink:href="#x" transform="matrix(12 0 0 -12 154.243 128.5)"/><use xlink:href="#x" transform="matrix(12 0 0 -12 157.243 128.5)"/><use xlink:href="#x" transform="matrix(12 0 0 -12 160.243 128.5)"/><use xlink:href="#k" transform="matrix(12 0 0 -12 163.594 128.5)"/><use xlink:href="#l" transform="matrix(12 0 0 -12 166.676 128.664)"/><use xlink:href="#x" transform="matrix(12 0 0 -12 172.576 128.5)"/><use xlink:href="#x" transform="matrix(12 0 0 -12 175.576 128.5)"/><use xlink:href="#x" transform="matrix(12 0 0 -12 178.576 128.5)"/><use xlink:href="#x" transform="matrix(12 0 0 -12 181.576 128.5)"/><use xlink:href="#x" transform="matrix(12 0 0 -12 184.576 128.5)"/><use xlink:href="#x" transform="matrix(12 0 0 -12 187.576 128.5)"/><use xlink:href="#x" transform="matrix(12 0 0 -12 190.576 128.5)"/><use xlink:href="#x" transform="matrix(12 0 0 -12 193.576 128.5)"/><use xlink:href="#x" transform="matrix(12 0 0 -12 196.576 128.5)"/><use xlink:href="#x" transform="matrix(12 0 0 -12 199.576 128.5)"/><use xlink:href="#k" transform="matrix(12 0 0 -12 202.928 128.5)"/><use xlink:href="#x" transform="matrix(12 0 0 -12 205.91 128.5)"/><use xlink:href="#x" transform="matrix(12 0 0 -12 208.91 128.5)"/><use xlink:href="#x" transform="matrix(12 0 0 -12 211.91 128.5)"/><use xlink:href="#x" transform="matrix(12 0 0 -12 214.91 128.5)"/><use xlink:href="#x" transform="matrix(12 0 0 -12 217.91 128.5)"/><use xlink:href="#x" transform="matrix(12 0 0 -12 220.91 128.5)"/><use xlink:href="#x" transform="matrix(12 0 0 -12 223.91 128.5)"/><use xlink:href="#x" transform="matrix(12 0 0 -12 226.91 128.5)"/><use xlink:href="#x" transform="matrix(12 0 0 -12 229.91 128.5)"/><use xlink:href="#x" transform="matrix(12 0 0 -12 232.91 128.5)"/><use xlink:href="#x" transform="matrix(12 0 0 -12 235.91 128.5)"/><use xlink:href="#x" transform="matrix(12 0 0 -12 238.91 128.5)"/><use xlink:href="#k" transform="matrix(12 0 0 -12 242.262 128.5)"/><use xlink:href="#k" transform="matrix(12 0 0 -12 245.595 128.5)"/><use xlink:href="#i" transform="matrix(8 0 0 -8 248.852 124.36)"/><symbol id="L"><path d="M.701.677V.66A.108.108 0 0 1 .648.637.203.203 0 0 1 .602.563L.372 0H.352L.105.57a.315.315 0 0 1-.027.055.083.083 0 0 1-.03.023A.133.133 0 0 1 0 .659v.018h.27V.66C.24.656.22.651.21.644a.036.036 0 0 1-.013-.03A.22.22 0 0 1 .22.54L.388.15l.156.384a.258.258 0 0 1 .023.078c0 .01-.004.019-.014.027a.092.092 0 0 1-.048.019L.497.659v.018h.204z"/></symbol><use xlink:href="#x" transform="matrix(12 0 0 -12 252.582 128.5)"/><use xlink:href="#x" transform="matrix(12 0 0 -12 255.582 128.5)"/><use xlink:href="#x" transform="matrix(12 0 0 -12 258.582 128.5)"/><use xlink:href="#L" transform="matrix(12 0 0 -12 261.47 128.682)"/><use xlink:href="#x" transform="matrix(12 0 0 -12 269.814 128.5)"/><use xlink:href="#x" transform="matrix(12 0 0 -12 272.814 128.5)"/><use xlink:href="#x" transform="matrix(12 0 0 -12 275.814 128.5)"/><use xlink:href="#x" transform="matrix(12 0 0 -12 278.814 128.5)"/><use xlink:href="#x" transform="matrix(12 0 0 -12 281.814 128.5)"/><use xlink:href="#x" transform="matrix(12 0 0 -12 284.814 128.5)"/><use xlink:href="#x" transform="matrix(12 0 0 -12 287.814 128.5)"/><use xlink:href="#k" transform="matrix(12 0 0 -12 291.166 128.5)"/><use xlink:href="#x" transform="matrix(12 0 0 -12 294.148 128.5)"/><use xlink:href="#x" transform="matrix(12 0 0 -12 297.148 128.5)"/><use xlink:href="#x" transform="matrix(12 0 0 -12 300.148 128.5)"/><use xlink:href="#x" transform="matrix(12 0 0 -12 303.148 128.5)"/><use xlink:href="#x" transform="matrix(12 0 0 -12 306.148 128.5)"/><use xlink:href="#k" transform="matrix(12 0 0 -12 309.5 128.5)"/><use xlink:href="#l" transform="matrix(12 0 0 -12 312.58 128.664)"/><use xlink:href="#x" transform="matrix(12 0 0 -12 318.481 128.5)"/><use xlink:href="#x" transform="matrix(12 0 0 -12 321.481 128.5)"/><use xlink:href="#x" transform="matrix(12 0 0 -12 324.481 128.5)"/><use xlink:href="#x" transform="matrix(12 0 0 -12 327.481 128.5)"/><use xlink:href="#x" transform="matrix(12 0 0 -12 330.481 128.5)"/><use xlink:href="#x" transform="matrix(12 0 0 -12 333.481 128.5)"/><use xlink:href="#x" transform="matrix(12 0 0 -12 336.481 128.5)"/><use xlink:href="#x" transform="matrix(12 0 0 -12 339.481 128.5)"/><use xlink:href="#L" transform="matrix(12 0 0 -12 342.37 128.682)"/><use xlink:href="#x" transform="matrix(12 0 0 -12 350.713 128.5)"/><symbol id="M"><path d="M.188.626V.364h.146C.372.364.397.37.41.381c.017.015.026.042.028.08h.018V.23H.438a.252.252 0 0 1-.014.062.061.061 0 0 1-.028.027.147.147 0 0 1-.062.01H.188V.11C.188.081.19.063.192.057A.032.032 0 0 1 .206.042.086.086 0 0 1 .243.036h.112C.393.036.42.04.437.044a.122.122 0 0 1 .049.03c.02.02.04.051.062.092h.02L.51 0H0v.018h.023c.016 0 .03.004.045.011a.04.04 0 0 1 .02.024.22.22 0 0 1 .007.064v.43C.095.589.09.615.082.625.07.638.051.644.023.644H0v.018h.51L.518.517h-.02A.223.223 0 0 1 .477.59a.077.077 0 0 1-.037.03.221.221 0 0 1-.069.007H.188z"/></symbol><symbol id="N"><path d="M.156.365c.032.033.052.052.057.056.015.013.03.022.048.03.017.006.033.01.05.01A.112.112 0 0 0 .383.435a.12.12 0 0 0 .04-.07C.458.403.487.43.51.441A.15.15 0 0 0 .58.46.11.11 0 0 0 .643.442a.12.12 0 0 0 .044-.06.27.27 0 0 0 .01-.089V.101C.698.073.7.054.705.043A.043.043 0 0 1 .722.025.093.093 0 0 1 .765.018V0h-.22v.018h.009c.019 0 .034.003.045.01a.044.044 0 0 1 .016.026A.313.313 0 0 1 .617.1v.192a.163.163 0 0 1-.013.078C.59.39.57.4.542.4A.116.116 0 0 1 .49.39.278.278 0 0 1 .427.34V.1c0-.03.002-.05.005-.057a.044.044 0 0 1 .02-.02A.114.114 0 0 1 .5.019V0H.274v.018c.025 0 .042.003.05.008.01.006.017.015.02.027A.26.26 0 0 1 .347.1v.192C.347.33.34.356.33.373a.069.069 0 0 1-.06.03A.108.108 0 0 1 .218.39.201.201 0 0 1 .156.341V.1c0-.03.002-.048.006-.057A.045.045 0 0 1 .18.024.122.122 0 0 1 .229.018V0H.007v.018c.02 0 .035.002.043.006a.044.044 0 0 1 .019.02c.004.01.006.03.006.057v.171a.62.62 0 0 1-.004.095C.069.377.065.385.06.39A.03.03 0 0 1 .04.396.094.094 0 0 1 .007.388L0 .406.135.46h.02V.365z"/></symbol><symbol id="O"><path d="M.45.222H.193L.148.117A.165.165 0 0 1 .132.06c0-.01.005-.02.014-.027C.156.025.176.02.208.018V0H0v.018c.028.005.046.011.054.02a.3.3 0 0 1 .055.094l.233.545h.017l.23-.55A.258.258 0 0 1 .64.04.105.105 0 0 1 .704.018V0H.442v.018C.468.02.486.024.495.031.505.04.51.048.51.06a.202.202 0 0 1-.02.067L.45.222M.437.258.324.525.208.258h.228z"/></symbol><symbol id="P"><path d="M.188.626v-.26H.31c.028 0 .048.006.06.018.014.012.022.036.027.073h.018V.232H.396a.128.128 0 0 1-.01.057.06.06 0 0 1-.027.027.105.105 0 0 1-.05.01H.19V.116A.22.22 0 0 1 .194.051.044.044 0 0 1 .215.03.093.093 0 0 1 .26.018h.024V0H0v.018h.023c.028 0 .048.008.06.024.008.01.012.035.012.075v.428A.22.22 0 0 1 .088.61a.044.044 0 0 1-.02.021.09.09 0 0 1-.045.012H0v.018h.493L.499.517H.482a.194.194 0 0 1-.03.067.094.094 0 0 1-.041.032.22.22 0 0 1-.077.01H.188z"/></symbol><use xlink:href="#M" transform="matrix(10 0 0 -10 73.955 15.5)"/><use xlink:href="#N" transform="matrix(10 0 0 -10 79.941 15.5)"/><use xlink:href="#x" transform="matrix(10 0 0 -10 87.636 15.5)"/><use xlink:href="#x" transform="matrix(10 0 0 -10 90.136 15.5)"/><use xlink:href="#x" transform="matrix(10 0 0 -10 92.636 15.5)"/><use xlink:href="#x" transform="matrix(10 0 0 -10 95.136 15.5)"/><use xlink:href="#x" transform="matrix(10 0 0 -10 97.636 15.5)"/><use xlink:href="#x" transform="matrix(10 0 0 -10 100.136 15.5)"/><use xlink:href="#x" transform="matrix(10 0 0 -10 102.636 15.5)"/><use xlink:href="#x" transform="matrix(10 0 0 -10 105.136 15.5)"/><use xlink:href="#x" transform="matrix(10 0 0 -10 107.636 15.5)"/><use xlink:href="#x" transform="matrix(10 0 0 -10 110.136 15.5)"/><use xlink:href="#x" transform="matrix(10 0 0 -10 112.636 15.5)"/><use xlink:href="#x" transform="matrix(10 0 0 -10 115.136 15.5)"/><use xlink:href="#x" transform="matrix(10 0 0 -10 117.636 15.5)"/><use xlink:href="#x" transform="matrix(10 0 0 -10 120.136 15.5)"/><use xlink:href="#x" transform="matrix(10 0 0 -10 122.636 15.5)"/><use xlink:href="#x" transform="matrix(10 0 0 -10 125.136 15.5)"/><use xlink:href="#x" transform="matrix(10 0 0 -10 127.636 15.5)"/><use xlink:href="#x" transform="matrix(10 0 0 -10 130.136 15.5)"/><use xlink:href="#x" transform="matrix(10 0 0 -10 132.636 15.5)"/><use xlink:href="#x" transform="matrix(10 0 0 -10 135.136 15.5)"/><use xlink:href="#x" transform="matrix(10 0 0 -10 137.636 15.5)"/><use xlink:href="#x" transform="matrix(10 0 0 -10 140.136 15.5)"/><use xlink:href="#x" transform="matrix(10 0 0 -10 142.636 15.5)"/><use xlink:href="#x" transform="matrix(10 0 0 -10 145.136 15.5)"/><use xlink:href="#x" transform="matrix(10 0 0 -10 147.636 15.5)"/><use xlink:href="#x" transform="matrix(10 0 0 -10 150.136 15.5)"/><use xlink:href="#x" transform="matrix(10 0 0 -10 152.636 15.5)"/><use xlink:href="#x" transform="matrix(10 0 0 -10 155.136 15.5)"/><use xlink:href="#x" transform="matrix(10 0 0 -10 157.636 15.5)"/><use xlink:href="#x" transform="matrix(10 0 0 -10 160.136 15.5)"/><use xlink:href="#O" transform="matrix(10 0 0 -10 162.162 15.5)"/><use xlink:href="#N" transform="matrix(10 0 0 -10 169.389 15.5)"/><use xlink:href="#x" transform="matrix(10 0 0 -10 177.084 15.5)"/><use xlink:href="#x" transform="matrix(10 0 0 -10 179.584 15.5)"/><use xlink:href="#x" transform="matrix(10 0 0 -10 182.084 15.5)"/><use xlink:href="#x" transform="matrix(10 0 0 -10 184.584 15.5)"/><use xlink:href="#x" transform="matrix(10 0 0 -10 187.084 15.5)"/><use xlink:href="#x" transform="matrix(10 0 0 -10 189.584 15.5)"/><use xlink:href="#x" transform="matrix(10 0 0 -10 192.084 15.5)"/><use xlink:href="#x" transform="matrix(10 0 0 -10 194.584 15.5)"/><use xlink:href="#x" transform="matrix(10 0 0 -10 197.084 15.5)"/><use xlink:href="#x" transform="matrix(10 0 0 -10 199.584 15.5)"/><use xlink:href="#M" transform="matrix(10 0 0 -10 202.29 15.5)"/><use xlink:href="#N" transform="matrix(10 0 0 -10 208.275 15.5)"/><use xlink:href="#x" transform="matrix(10 0 0 -10 215.97 15.5)"/><use xlink:href="#x" transform="matrix(10 0 0 -10 218.47 15.5)"/><use xlink:href="#x" transform="matrix(10 0 0 -10 220.97 15.5)"/><use xlink:href="#x" transform="matrix(10 0 0 -10 223.47 15.5)"/><use xlink:href="#x" transform="matrix(10 0 0 -10 225.97 15.5)"/><use xlink:href="#x" transform="matrix(10 0 0 -10 228.47 15.5)"/><use xlink:href="#x" transform="matrix(10 0 0 -10 230.97 15.5)"/><use xlink:href="#x" transform="matrix(10 0 0 -10 233.47 15.5)"/><use xlink:href="#x" transform="matrix(10 0 0 -10 235.97 15.5)"/><use xlink:href="#P" transform="matrix(10 0 0 -10 238.631 15.5)"/><symbol id="Q"><path d="M.17.432.072.4V.251L.17.283v.149M0 .48l.043.014v.163h.029V.504L.17.536v.146h.029V.545l.039.013V.454L.199.441V.293l.039.012V.202L.199.189V.026H.17V.18L.072.148V0H.043v.138L0 .124v.104l.043.014v.149L0 .377V.48z"/></symbol><use xlink:href="#Q" transform="matrix(13 0 0 -13 244.425 13.394)"/><symbol id="R"><path d="M.144.292c.04 0 .074-.014.1-.042a.14.14 0 0 0 .04-.102.144.144 0 0 0-.043-.104A.14.14 0 0 0 .138 0 .137.137 0 0 0 0 .14a.15.15 0 0 0 .04.11.138.138 0 0 0 .104.042M.13.27A.055.055 0 0 1 .087.249C.075.234.069.21.069.179.069.127.08.085.103.053a.058.058 0 0 1 .05-.028c.018 0 .033.007.045.021.013.015.019.038.019.07A.21.21 0 0 1 .182.24C.168.26.151.27.13.27z"/></symbol><symbol id="S"><path d="M.445.338A.212.212 0 0 0 .548.29a.146.146 0 0 0 .048-.11.165.165 0 0 0-.032-.095A.18.18 0 0 0 .48.021.5.5 0 0 0 .313 0H0v.018h.025c.028 0 .047.009.06.026.007.012.01.036.01.073v.428c0 .04-.004.067-.013.078C.069.637.05.644.025.644H0v.018h.286A.565.565 0 0 0 .415.65.205.205 0 0 0 .526.588.152.152 0 0 0 .535.396a.178.178 0 0 0-.09-.058M.19.364A.409.409 0 0 1 .282.357c.047 0 .083.005.107.016.024.01.042.026.055.047a.132.132 0 0 1 .019.07.127.127 0 0 1-.047.098C.384.616.338.63.277.63A.332.332 0 0 1 .19.62V.364m0-.316A.492.492 0 0 1 .301.035c.06 0 .104.013.135.04C.467.1.482.133.482.172c0 .026-.007.05-.02.074a.14.14 0 0 1-.069.056.295.295 0 0 1-.117.02A1.165 1.165 0 0 1 .189.32V.048z"/></symbol><use xlink:href="#R" transform="matrix(10 0 0 -10 248.74 11.657)"/><use xlink:href="#x" transform="matrix(10 0 0 -10 251.699 15.5)"/><use xlink:href="#x" transform="matrix(10 0 0 -10 254.199 15.5)"/><use xlink:href="#x" transform="matrix(10 0 0 -10 256.699 15.5)"/><use xlink:href="#x" transform="matrix(10 0 0 -10 259.199 15.5)"/><use xlink:href="#x" transform="matrix(10 0 0 -10 261.699 15.5)"/><use xlink:href="#x" transform="matrix(10 0 0 -10 264.199 15.5)"/><use xlink:href="#S" transform="matrix(10 0 0 -10 266.865 15.5)"/><use xlink:href="#x" transform="matrix(10 0 0 -10 273.369 15.5)"/><use xlink:href="#x" transform="matrix(10 0 0 -10 275.869 15.5)"/><use xlink:href="#x" transform="matrix(10 0 0 -10 278.369 15.5)"/><use xlink:href="#x" transform="matrix(10 0 0 -10 280.869 15.5)"/><use xlink:href="#x" transform="matrix(10 0 0 -10 283.369 15.5)"/><use xlink:href="#x" transform="matrix(10 0 0 -10 285.869 15.5)"/><use xlink:href="#x" transform="matrix(10 0 0 -10 288.369 15.5)"/><use xlink:href="#M" transform="matrix(10 0 0 -10 291.074 15.5)"/><use xlink:href="#N" transform="matrix(10 0 0 -10 297.06 15.5)"/><use xlink:href="#x" transform="matrix(10 0 0 -10 304.755 15.5)"/><use xlink:href="#x" transform="matrix(10 0 0 -10 307.255 15.5)"/><use xlink:href="#x" transform="matrix(10 0 0 -10 309.755 15.5)"/><use xlink:href="#x" transform="matrix(10 0 0 -10 312.255 15.5)"/><use xlink:href="#O" transform="matrix(10 0 0 -10 314.28 15.5)"/><use xlink:href="#N" transform="matrix(10 0 0 -10 321.508 15.5)"/><use xlink:href="#x" transform="matrix(10 0 0 -10 329.203 15.5)"/><use xlink:href="#x" transform="matrix(10 0 0 -10 331.703 15.5)"/><use xlink:href="#x" transform="matrix(10 0 0 -10 334.203 15.5)"/><use xlink:href="#x" transform="matrix(10 0 0 -10 336.703 15.5)"/><use xlink:href="#x" transform="matrix(10 0 0 -10 339.203 15.5)"/><use xlink:href="#S" transform="matrix(10 0 0 -10 341.869 15.5)"/><use xlink:href="#v" transform="matrix(10 0 0 -10 125.356 35.093)"/><use xlink:href="#x" transform="matrix(10 0 0 -10 129.438 35)"/><use xlink:href="#x" transform="matrix(10 0 0 -10 131.938 35)"/><use xlink:href="#x" transform="matrix(10 0 0 -10 134.438 35)"/><use xlink:href="#x" transform="matrix(10 0 0 -10 136.938 35)"/><use xlink:href="#x" transform="matrix(10 0 0 -10 139.438 35)"/><use xlink:href="#x" transform="matrix(10 0 0 -10 141.938 35)"/><use xlink:href="#x" transform="matrix(10 0 0 -10 144.438 35)"/><use xlink:href="#x" transform="matrix(10 0 0 -10 146.938 35)"/><use xlink:href="#x" transform="matrix(10 0 0 -10 149.438 35)"/><use xlink:href="#x" transform="matrix(10 0 0 -10 151.938 35)"/><use xlink:href="#x" transform="matrix(10 0 0 -10 154.438 35)"/><use xlink:href="#x" transform="matrix(10 0 0 -10 156.938 35)"/><use xlink:href="#x" transform="matrix(10 0 0 -10 159.438 35)"/><use xlink:href="#x" transform="matrix(10 0 0 -10 161.938 35)"/><use xlink:href="#x" transform="matrix(10 0 0 -10 164.438 35)"/><use xlink:href="#x" transform="matrix(10 0 0 -10 166.938 35)"/><use xlink:href="#x" transform="matrix(10 0 0 -10 169.438 35)"/><use xlink:href="#x" transform="matrix(10 0 0 -10 171.938 35)"/><use xlink:href="#x" transform="matrix(10 0 0 -10 174.438 35)"/><use xlink:href="#x" transform="matrix(10 0 0 -10 176.938 35)"/><use xlink:href="#x" transform="matrix(10 0 0 -10 179.438 35)"/><use xlink:href="#x" transform="matrix(10 0 0 -10 181.938 35)"/><use xlink:href="#x" transform="matrix(10 0 0 -10 184.438 35)"/><use xlink:href="#x" transform="matrix(10 0 0 -10 186.938 35)"/><use xlink:href="#x" transform="matrix(10 0 0 -10 189.438 35)"/><use xlink:href="#x" transform="matrix(10 0 0 -10 191.938 35)"/><use xlink:href="#x" transform="matrix(10 0 0 -10 194.438 35)"/><use xlink:href="#x" transform="matrix(10 0 0 -10 196.938 35)"/><use xlink:href="#x" transform="matrix(10 0 0 -10 199.438 35)"/><use xlink:href="#x" transform="matrix(10 0 0 -10 201.938 35)"/><use xlink:href="#x" transform="matrix(10 0 0 -10 204.438 35)"/><use xlink:href="#x" transform="matrix(10 0 0 -10 206.938 35)"/><use xlink:href="#x" transform="matrix(10 0 0 -10 209.438 35)"/><use xlink:href="#x" transform="matrix(10 0 0 -10 211.938 35)"/><use xlink:href="#x" transform="matrix(10 0 0 -10 214.438 35)"/><use xlink:href="#x" transform="matrix(10 0 0 -10 216.938 35)"/><use xlink:href="#x" transform="matrix(10 0 0 -10 219.438 35)"/><use xlink:href="#x" transform="matrix(10 0 0 -10 221.938 35)"/><use xlink:href="#x" transform="matrix(10 0 0 -10 224.438 35)"/><use xlink:href="#x" transform="matrix(10 0 0 -10 226.938 35)"/><use xlink:href="#x" transform="matrix(10 0 0 -10 229.438 35)"/><use xlink:href="#x" transform="matrix(10 0 0 -10 231.938 35)"/><use xlink:href="#x" transform="matrix(10 0 0 -10 234.438 35)"/><use xlink:href="#x" transform="matrix(10 0 0 -10 236.938 35)"/><use xlink:href="#x" transform="matrix(10 0 0 -10 239.438 35)"/><use xlink:href="#x" transform="matrix(10 0 0 -10 241.938 35)"/><use xlink:href="#x" transform="matrix(10 0 0 -10 244.438 35)"/><use xlink:href="#x" transform="matrix(10 0 0 -10 246.938 35)"/><use xlink:href="#x" transform="matrix(10 0 0 -10 249.438 35)"/><use xlink:href="#x" transform="matrix(10 0 0 -10 251.938 35)"/><use xlink:href="#x" transform="matrix(10 0 0 -10 254.438 35)"/><use xlink:href="#x" transform="matrix(10 0 0 -10 256.938 35)"/><use xlink:href="#x" transform="matrix(10 0 0 -10 259.438 35)"/><use xlink:href="#x" transform="matrix(10 0 0 -10 261.938 35)"/><use xlink:href="#x" transform="matrix(10 0 0 -10 264.438 35)"/><use xlink:href="#x" transform="matrix(10 0 0 -10 266.938 35)"/><use xlink:href="#x" transform="matrix(10 0 0 -10 269.438 35)"/><use xlink:href="#x" transform="matrix(10 0 0 -10 271.938 35)"/><use xlink:href="#x" transform="matrix(10 0 0 -10 274.438 35)"/><use xlink:href="#x" transform="matrix(10 0 0 -10 276.938 35)"/><use xlink:href="#x" transform="matrix(10 0 0 -10 279.438 35)"/><use xlink:href="#x" transform="matrix(10 0 0 -10 281.938 35)"/><use xlink:href="#x" transform="matrix(10 0 0 -10 284.438 35)"/><use xlink:href="#x" transform="matrix(10 0 0 -10 286.938 35)"/><use xlink:href="#x" transform="matrix(10 0 0 -10 289.438 35)"/><use xlink:href="#x" transform="matrix(10 0 0 -10 291.938 35)"/><use xlink:href="#x" transform="matrix(10 0 0 -10 294.438 35)"/><use xlink:href="#r" transform="matrix(10 0 0 -10 296.914 35.137)"/><symbol id="T"><path d="m0 .597.161.079h.016v-.56C.177.08.18.057.182.048a.037.037 0 0 1 .02-.02A.164.164 0 0 1 .26.017V0H.01v.018c.032 0 .052.003.061.008.01.005.016.011.02.019a.262.262 0 0 1 .005.072v.357c0 .048-.002.08-.005.093A.038.038 0 0 1 .079.59a.032.032 0 0 1-.021.007.13.13 0 0 1-.05-.015L0 .597z"/></symbol><symbol id="U"><path d="M.437.127.391 0H0v.018c.115.105.196.19.243.257.047.066.07.127.07.182a.144.144 0 0 1-.039.104.123.123 0 0 1-.092.04.144.144 0 0 1-.088-.029A.165.165 0 0 1 .037.49H.02c.008.06.029.106.063.138a.176.176 0 0 0 .126.049.186.186 0 0 0 .134-.052.163.163 0 0 0 .054-.122.236.236 0 0 0-.023-.1.663.663 0 0 0-.117-.168 3.477 3.477 0 0 0-.152-.16h.173c.035 0 .06.001.074.004a.099.099 0 0 1 .038.015c.012.008.021.02.03.034h.018z"/></symbol><symbol id="V"><path d="M.156.366C.208.429.258.46.306.46A.107.107 0 0 0 .369.442.121.121 0 0 0 .41.382c.007-.02.01-.05.01-.09v-.19A.16.16 0 0 1 .428.042.04.04 0 0 1 .445.024.1.1 0 0 1 .49.018V0H.269v.018h.009c.02 0 .035.003.043.009A.05.05 0 0 1 .34.055C.34.06.34.075.34.101v.183c0 .04-.006.07-.016.089C.315.39.297.4.27.4.233.4.194.38.156.337V.1c0-.03.002-.049.005-.056A.047.047 0 0 1 .18.024.122.122 0 0 1 .229.018V0H.007v.018h.01c.023 0 .038.005.046.017C.071.046.075.069.075.1v.166a.677.677 0 0 1-.004.098C.07.377.065.385.061.39A.03.03 0 0 1 .04.396.094.094 0 0 1 .007.388L0 .406.135.46h.02V.366z"/></symbol><symbol id="W"><path d="M.377.184a.244.244 0 0 0-.07-.137A.17.17 0 0 0 .188 0a.172.172 0 0 0-.132.064A.251.251 0 0 0 0 .237c0 .07.02.127.063.171a.201.201 0 0 0 .15.066C.257.474.293.462.322.44.35.416.364.392.364.367a.04.04 0 0 0-.012-.03A.046.046 0 0 0 .32.324c-.02 0-.034.006-.044.019C.27.35.266.364.265.383a.063.063 0 0 1-.02.044.07.07 0 0 1-.048.014A.097.097 0 0 1 .12.405.192.192 0 0 1 .079.28c0-.054.013-.1.04-.142a.121.121 0 0 1 .106-.06c.032 0 .06.01.086.032A.22.22 0 0 1 .363.19L.377.184z"/></symbol><symbol id="X"><path d="M.01.548A.268.268 0 0 0 .082.65a.162.162 0 0 0 .107.036.149.149 0 0 0 .123-.051.127.127 0 0 0 .032-.083c0-.048-.03-.098-.091-.15A.197.197 0 0 0 .345.336.177.177 0 0 0 .376.231.22.22 0 0 0 .322.082C.274.027.205 0 .115 0 .071 0 .04.006.024.017.008.027 0 .04 0 .052c0 .01.004.018.011.025a.04.04 0 0 0 .028.01.084.084 0 0 0 .025-.003.285.285 0 0 0 .038-.018.245.245 0 0 1 .04-.018.135.135 0 0 1 .039-.006c.033 0 .062.013.086.04a.127.127 0 0 1 .037.09A.176.176 0 0 1 .26.29a.199.199 0 0 1-.057.035.184.184 0 0 1-.075.016H.111v.015a.2.2 0 0 1 .077.028.147.147 0 0 1 .057.055.145.145 0 0 1 .018.07.108.108 0 0 1-.11.113C.103.621.06.594.026.54L.01.548z"/></symbol><symbol id="Y"><path d="M0 .663h.208V.645h-.01C.184.645.173.642.165.635a.03.03 0 0 1-.01-.023C.154.599.16.582.17.559L.28.333l.1.248a.103.103 0 0 1 .008.04c0 .005-.001.01-.004.012a.025.025 0 0 1-.012.009.086.086 0 0 1-.03.003v.018h.146V.645A.07.07 0 0 1 .46.637.08.08 0 0 1 .44.615.305.305 0 0 1 .422.578L.24.13A.23.23 0 0 0 .17.033.135.135 0 0 0 .09 0a.068.068 0 0 0-.047.017.05.05 0 0 0-.02.038c0 .013.005.024.014.033C.046.096.058.1.073.1.084.1.1.097.117.09A.105.105 0 0 1 .142.081c.01 0 .02.005.031.015.012.01.024.03.035.059L.24.233.08.571a.27.27 0 0 1-.044.06A.11.11 0 0 1 0 .645v.018z"/></symbol><use xlink:href="#T" transform="matrix(10 0 0 -10 78.922 52)"/><use xlink:href="#x" transform="matrix(10 0 0 -10 82.75 52)"/><use xlink:href="#x" transform="matrix(10 0 0 -10 85.25 52)"/><use xlink:href="#x" transform="matrix(10 0 0 -10 87.75 52)"/><use xlink:href="#x" transform="matrix(10 0 0 -10 90.25 52)"/><use xlink:href="#x" transform="matrix(10 0 0 -10 92.75 52)"/><use xlink:href="#x" transform="matrix(10 0 0 -10 95.25 52)"/><use xlink:href="#x" transform="matrix(10 0 0 -10 97.75 52)"/><use xlink:href="#x" transform="matrix(10 0 0 -10 100.25 52)"/><use xlink:href="#x" transform="matrix(10 0 0 -10 102.75 52)"/><use xlink:href="#x" transform="matrix(10 0 0 -10 105.25 52)"/><use xlink:href="#x" transform="matrix(10 0 0 -10 107.75 52)"/><use xlink:href="#x" transform="matrix(10 0 0 -10 110.25 52)"/><use xlink:href="#x" transform="matrix(10 0 0 -10 112.75 52)"/><use xlink:href="#x" transform="matrix(10 0 0 -10 115.25 52)"/><use xlink:href="#U" transform="matrix(10 0 0 -10 117.965 52)"/><use xlink:href="#x" transform="matrix(10 0 0 -10 122.75 52)"/><use xlink:href="#x" transform="matrix(10 0 0 -10 125.25 52)"/><use xlink:href="#x" transform="matrix(10 0 0 -10 127.75 52)"/><use xlink:href="#x" transform="matrix(10 0 0 -10 130.25 52)"/><use xlink:href="#x" transform="matrix(10 0 0 -10 132.75 52)"/><use xlink:href="#x" transform="matrix(10 0 0 -10 135.25 52)"/><use xlink:href="#x" transform="matrix(10 0 0 -10 137.75 52)"/><use xlink:href="#x" transform="matrix(10 0 0 -10 140.25 52)"/><use xlink:href="#x" transform="matrix(10 0 0 -10 142.75 52)"/><use xlink:href="#U" transform="matrix(10 0 0 -10 145.465 52)"/><use xlink:href="#x" transform="matrix(10 0 0 -10 150.25 52)"/><use xlink:href="#k" transform="matrix(10 0 0 -10 153.043 52)"/><use xlink:href="#V" transform="matrix(10 0 0 -10 155.587 52)"/><use xlink:href="#j" transform="matrix(10 0 0 -10 160.626 52.073)"/><use xlink:href="#x" transform="matrix(10 0 0 -10 163.306 52)"/><use xlink:href="#W" transform="matrix(10 0 0 -10 166.148 52.137)"/><use xlink:href="#t" transform="matrix(10 0 0 -10 170.307 52)"/><use xlink:href="#x" transform="matrix(10 0 0 -10 175.244 52)"/><use xlink:href="#x" transform="matrix(10 0 0 -10 177.744 52)"/><use xlink:href="#x" transform="matrix(10 0 0 -10 180.244 52)"/><use xlink:href="#x" transform="matrix(10 0 0 -10 182.744 52)"/><use xlink:href="#x" transform="matrix(10 0 0 -10 185.244 52)"/><use xlink:href="#x" transform="matrix(10 0 0 -10 187.744 52)"/><use xlink:href="#x" transform="matrix(10 0 0 -10 190.244 52)"/><use xlink:href="#x" transform="matrix(10 0 0 -10 192.744 52)"/><use xlink:href="#U" transform="matrix(10 0 0 -10 195.459 52)"/><use xlink:href="#x" transform="matrix(10 0 0 -10 200.244 52)"/><use xlink:href="#x" transform="matrix(10 0 0 -10 202.744 52)"/><use xlink:href="#x" transform="matrix(10 0 0 -10 205.244 52)"/><use xlink:href="#x" transform="matrix(10 0 0 -10 207.744 52)"/><use xlink:href="#x" transform="matrix(10 0 0 -10 210.244 52)"/><use xlink:href="#x" transform="matrix(10 0 0 -10 212.744 52)"/><use xlink:href="#x" transform="matrix(10 0 0 -10 215.244 52)"/><use xlink:href="#x" transform="matrix(10 0 0 -10 217.744 52)"/><use xlink:href="#x" transform="matrix(10 0 0 -10 220.244 52)"/><use xlink:href="#x" transform="matrix(10 0 0 -10 222.744 52)"/><use xlink:href="#x" transform="matrix(10 0 0 -10 225.244 52)"/><use xlink:href="#x" transform="matrix(10 0 0 -10 227.744 52)"/><use xlink:href="#x" transform="matrix(10 0 0 -10 230.244 52)"/><use xlink:href="#X" transform="matrix(10 0 0 -10 233.15 52.117)"/><use xlink:href="#x" transform="matrix(10 0 0 -10 237.744 52)"/><use xlink:href="#x" transform="matrix(10 0 0 -10 240.244 52)"/><use xlink:href="#x" transform="matrix(10 0 0 -10 242.744 52)"/><use xlink:href="#x" transform="matrix(10 0 0 -10 245.244 52)"/><use xlink:href="#x" transform="matrix(10 0 0 -10 247.744 52)"/><use xlink:href="#x" transform="matrix(10 0 0 -10 250.244 52)"/><use xlink:href="#x" transform="matrix(10 0 0 -10 252.744 52)"/><use xlink:href="#x" transform="matrix(10 0 0 -10 255.244 52)"/><use xlink:href="#x" transform="matrix(10 0 0 -10 257.744 52)"/><use xlink:href="#x" transform="matrix(10 0 0 -10 260.244 52)"/><use xlink:href="#x" transform="matrix(10 0 0 -10 262.744 52)"/><use xlink:href="#x" transform="matrix(10 0 0 -10 265.244 52)"/><use xlink:href="#T" transform="matrix(10 0 0 -10 268.916 52)"/><use xlink:href="#x" transform="matrix(10 0 0 -10 272.744 52)"/><use xlink:href="#x" transform="matrix(10 0 0 -10 275.244 52)"/><use xlink:href="#x" transform="matrix(10 0 0 -10 277.744 52)"/><use xlink:href="#x" transform="matrix(10 0 0 -10 280.244 52)"/><use xlink:href="#x" transform="matrix(10 0 0 -10 282.744 52)"/><use xlink:href="#x" transform="matrix(10 0 0 -10 285.244 52)"/><use xlink:href="#x" transform="matrix(10 0 0 -10 287.744 52)"/><use xlink:href="#x" transform="matrix(10 0 0 -10 290.244 52)"/><use xlink:href="#x" transform="matrix(10 0 0 -10 292.744 52)"/><use xlink:href="#x" transform="matrix(10 0 0 -10 295.244 52)"/><use xlink:href="#x" transform="matrix(10 0 0 -10 297.744 52)"/><use xlink:href="#x" transform="matrix(10 0 0 -10 300.244 52)"/><use xlink:href="#x" transform="matrix(10 0 0 -10 302.744 52)"/><use xlink:href="#x" transform="matrix(10 0 0 -10 305.244 52)"/><use xlink:href="#x" transform="matrix(10 0 0 -10 307.744 52)"/><use xlink:href="#x" transform="matrix(10 0 0 -10 310.244 52)"/><use xlink:href="#x" transform="matrix(10 0 0 -10 312.744 52)"/><use xlink:href="#x" transform="matrix(10 0 0 -10 315.244 52)"/><use xlink:href="#x" transform="matrix(10 0 0 -10 317.744 52)"/><use xlink:href="#x" transform="matrix(10 0 0 -10 320.244 52)"/><use xlink:href="#T" transform="matrix(10 0 0 -10 323.916 52)"/><use xlink:href="#x" transform="matrix(10 0 0 -10 327.744 52)"/><use xlink:href="#x" transform="matrix(10 0 0 -10 330.244 52)"/><use xlink:href="#x" transform="matrix(10 0 0 -10 332.744 52)"/><use xlink:href="#x" transform="matrix(10 0 0 -10 335.244 52)"/><use xlink:href="#x" transform="matrix(10 0 0 -10 337.744 52)"/><use xlink:href="#x" transform="matrix(10 0 0 -10 340.244 52)"/><use xlink:href="#x" transform="matrix(10 0 0 -10 342.744 52)"/><use xlink:href="#x" transform="matrix(10 0 0 -10 345.244 52)"/><use xlink:href="#x" transform="matrix(10 0 0 -10 347.744 52)"/><use xlink:href="#x" transform="matrix(10 0 0 -10 350.244 52)"/><use xlink:href="#x" transform="matrix(10 0 0 -10 352.744 52)"/><use xlink:href="#x" transform="matrix(10 0 0 -10 355.244 52)"/><use xlink:href="#x" transform="matrix(10 0 0 -10 357.744 52)"/><use xlink:href="#x" transform="matrix(10 0 0 -10 360.244 52)"/><use xlink:href="#X" transform="matrix(10 0 0 -10 363.15 52.117)"/><use xlink:href="#x" transform="matrix(10 0 0 -10 367.744 52)"/><use xlink:href="#u" transform="matrix(10 0 0 -10 370.308 52)"/><use xlink:href="#t" transform="matrix(10 0 0 -10 373.637 52)"/><use xlink:href="#Y" transform="matrix(10 0 0 -10 378.633 54.158)"/><use xlink:href="#x" transform="matrix(10 0 0 -10 383.574 52)"/><use xlink:href="#W" transform="matrix(10 0 0 -10 386.416 52.137)"/><use xlink:href="#t" transform="matrix(10 0 0 -10 390.575 52)"/></svg>