<svg xmlns="http://www.w3.org/2000/svg" xmlns:xlink="http://www.w3.org/1999/xlink" width="562.333" height="172" viewBox="0 0 421.75 129"><path d="M-155.25 471h612v-792h-612z" fill="#fff"/><path stroke-width=".345" stroke-miterlimit="10" fill="none" stroke="#000" d="M7.898 9.366v77.259"/><symbol id="a"><path d="M.469.44A.415.415 0 0 0 .348.434a.459.459 0 0 0-.097.02.554.554 0 0 0-.125.078.344.344 0 0 0-.11.178.677.677 0 0 0-.013.096C0 .842.003.877.012.911a.55.55 0 0 0 .153.257 1.843 1.843 0 0 0 .162.136.194.194 0 0 1-.003.023.33.33 0 0 0-.011.076l-.002.03a.924.924 0 0 0-.001.121.345.345 0 0 0 .031.144.615.615 0 0 0 .039.075.4.4 0 0 0 .048.062c.016.018.032.026.047.026.007 0 .015-.004.024-.014a.405.405 0 0 0 .05-.087.544.544 0 0 0 .042-.168c0-.034-.001-.065-.004-.092a.415.415 0 0 0-.067-.182.402.402 0 0 0-.033-.048 9.105 9.105 0 0 0-.033-.04.22.22 0 0 0-.038-.038.517.517 0 0 1-.038-.03A16.911 16.911 0 0 0 .41.966a.361.361 0 0 0 .14-.02.207.207 0 0 0 .03-.015A.224.224 0 0 0 .657.84.31.31 0 0 0 .684.735.276.276 0 0 0 .643.57.319.319 0 0 0 .494.446 22.623 22.623 0 0 0 .52.272.508.508 0 0 0 .527.174.148.148 0 0 0 .512.111.283.283 0 0 0 .486.072.164.164 0 0 0 .405.013.236.236 0 0 0 .283.006a.234.234 0 0 0-.07.023.175.175 0 0 0-.056.044.116.116 0 0 0-.027.07.175.175 0 0 0 .003.048.14.14 0 0 0 .017.044C.158.248.17.26.183.267a.11.11 0 0 0 .087.01.137.137 0 0 0 .035-.019A.099.099 0 0 0 .343.19.101.101 0 0 0 .32.12.157.157 0 0 0 .232.065.09.09 0 0 1 .27.04a.166.166 0 0 1 .154.013.183.183 0 0 1 .063.065C.496.136.5.158.5.186a.702.702 0 0 1-.02.175L.469.44m.02 1.267c-.025 0-.048-.012-.068-.037a.298.298 0 0 1-.048-.092.567.567 0 0 1-.021-.252.748.748 0 0 1 .134.136.41.41 0 0 1 .048.081.155.155 0 0 1 .002.133.072.072 0 0 1-.018.022.043.043 0 0 1-.028.01M.488.48c.028.01.05.023.067.04A.152.152 0 0 1 .59.57a.155.155 0 0 1 .013.056.433.433 0 0 1 0 .05.332.332 0 0 1-.008.045.132.132 0 0 1-.075.093.172.172 0 0 1-.088.014L.488.48M.406.827A.155.155 0 0 1 .338.81.123.123 0 0 1 .27.691.158.158 0 0 1 .297.62.23.23 0 0 1 .322.59.11.11 0 0 1 .35.57.016.016 0 0 0 .346.564.016.016 0 0 0 .343.561.016.016 0 0 1 .34.557a.245.245 0 0 0-.055.036.257.257 0 0 0-.03.03.747.747 0 0 0-.02.026.119.119 0 0 0-.012.026.25.25 0 0 0-.01.03.278.278 0 0 0 0 .081.226.226 0 0 0 .016.048.247.247 0 0 0 .074.09.248.248 0 0 0 .043.025.868.868 0 0 0 .039.013l-.03.181A1.039 1.039 0 0 1 .142.938.715.715 0 0 1 .086.833.216.216 0 0 1 .07.73.246.246 0 0 1 .109.612.316.316 0 0 1 .32.47a.315.315 0 0 1 .143.003 36.857 36.857 0 0 1-.056.34L.406.826z"/></symbol><use xlink:href="#a" transform="matrix(18.45 0 0 -18.45 12.673 35.958)"/><symbol id="b"><path d="M.497.324A.426.426 0 0 0 .462.266.625.625 0 0 0 .007 0L0 .015a.839.839 0 0 1 .176.081c.03.017.055.036.076.058.054.057.095.12.123.19a.594.594 0 0 1 .033.304.258.258 0 0 1-.023.074.168.168 0 0 1-.046.06.112.112 0 0 1-.076.025.174.174 0 0 1-.058-.011.21.21 0 0 1-.055-.03.152.152 0 0 1-.041-.044.082.082 0 0 1-.013-.054c0-.003.003-.004.006-.003a.58.58 0 0 0 .042.011.16.16 0 0 0 .037.002.063.063 0 0 0 .038-.014.091.091 0 0 0 .026-.031.124.124 0 0 0 .011-.085.096.096 0 0 0-.03-.052.082.082 0 0 0-.059-.02.128.128 0 0 0-.114.071.122.122 0 0 0-.01.051c0 .029.002.054.009.076a.199.199 0 0 0 .092.121c.025.015.05.026.075.031A.234.234 0 0 0 .367.823.285.285 0 0 0 .501.731.267.267 0 0 0 .559.564a.47.47 0 0 0-.062-.24m.101.385c0 .015.004.028.015.038.01.01.024.016.039.016A.051.051 0 0 0 .691.749.048.048 0 0 0 .708.711.053.053 0 0 0 .654.655a.053.053 0 0 0-.056.054m0-.252a.05.05 0 0 0 .016.038c.01.01.024.015.039.016A.057.057 0 0 0 .692.497.048.048 0 0 0 .709.459.05.05 0 0 0 .694.42.052.052 0 0 0 .655.403a.053.053 0 0 0-.04.015.057.057 0 0 0-.017.039z"/></symbol><use xlink:href="#b" transform="matrix(18.45 0 0 -18.45 12.814 83.6)"/><symbol id="c"><path d="M.026.512V.271c.01.009.018.016.026.021a.11.11 0 0 0 .023.012.092.092 0 0 0 .023.007.192.192 0 0 0 .029.002.071.071 0 0 0 .034-.008.088.088 0 0 0 .026-.021.098.098 0 0 0 .023-.06c0-.01 0-.021-.003-.032a.173.173 0 0 0-.01-.028.08.08 0 0 0-.022-.03.518.518 0 0 1-.027-.025A1.082 1.082 0 0 0 .009.008L0 0v.591h.026V.512M.107.249a.038.038 0 0 1-.014.01.04.04 0 0 1-.038-.002.052.052 0 0 1-.018-.021.11.11 0 0 1-.011-.048V.051l.006.005a.097.097 0 0 1 .014.012l.018.016L.082.1c.01.009.017.018.024.028a.11.11 0 0 1 .015.038c.004.015.005.03.003.045a.07.07 0 0 1-.017.038z"/></symbol><use xlink:href="#c" transform="matrix(18.45 0 0 -18.45 30.595 21.506)"/><use xlink:href="#c" transform="matrix(18.45 0 0 -18.45 30.595 84.928)"/><symbol id="d"><path d="M.216.496a.283.283 0 0 0 .076-.01.187.187 0 0 0 .063-.028.127.127 0 0 0 .059-.11c0-.01-.003-.02-.008-.029a.113.113 0 0 0-.02-.024A.105.105 0 0 0 .36.279.056.056 0 0 0 .337.273a.132.132 0 0 0-.025.003.127.127 0 0 0-.028.012.08.08 0 0 0-.023.022.073.073 0 0 0-.009.038c0 .02.006.035.018.048a.06.06 0 0 0 .045.02c.012 0 .018.003.019.008A.02.02 0 0 1 .329.44a.11.11 0 0 1-.046.026.108.108 0 0 1-.065 0A.099.099 0 0 1 .169.437.167.167 0 0 1 .14.387.302.302 0 0 1 .126.322.634.634 0 0 1 .143.099.123.123 0 0 1 .178.05.09.09 0 0 1 .237.031a.144.144 0 0 1 .097.042.135.135 0 0 1 .033.046.125.125 0 0 1 .012.059h.028a.129.129 0 0 0-.023-.08.117.117 0 0 0-.012-.021.19.19 0 0 0-.031-.03.196.196 0 0 0-.037-.024A.176.176 0 0 0 .226 0a.22.22 0 0 0-.163.076.251.251 0 0 0-.047.08.278.278 0 0 0 .043.265c.02.023.042.04.069.054a.186.186 0 0 0 .088.021z"/></symbol><use xlink:href="#d" transform="matrix(18.45 0 0 -18.45 42.2 23.185)"/><use xlink:href="#d" transform="matrix(18.45 0 0 -18.45 42.2 81.994)"/><path stroke-width=".345" stroke-miterlimit="10" fill="none" stroke="#000" d="M244.865 9.366v77.259M420.563 9.366v77.259M418.257 9.366v77.259M7.725 9.366h413.01M7.725 13.978h413.01M7.725 18.59h413.01M7.725 23.203h413.01M7.725 27.816h413.01M7.725 68.175h413.01M7.725 72.788h413.01M7.725 77.4h413.01M7.725 82.012h413.01M7.725 86.625h413.01"/><path d="M5.419 9.366C-6.113 27.816 11.184 38.77.806 47.996h.769c9.686-6.92-2.998-24.793 3.92-37.247"/><path d="M5.419 86.625C-6.113 68.175 11.184 57.22.806 47.995h.769c9.686 6.92-2.998 24.793 3.92 37.246"/><path stroke-width=".553" stroke-miterlimit="10" fill="none" stroke="#000" d="m106.51 95.273 5.573 3.844"/><path stroke-width=".345" stroke-miterlimit="10" fill="none" stroke="#000" d="M65.329 13.21V.91"/><symbol id="e"><path d="M.009.131a.161.161 0 0 0 .03.05.232.232 0 0 0 .106.067c.02.007.042.01.063.01.021 0 .04-.004.056-.011A.091.091 0 0 0 .302.219.078.078 0 0 0 .319.178a.096.096 0 0 0-.006-.05.152.152 0 0 0-.031-.05.217.217 0 0 0-.048-.041A.206.206 0 0 0 .175.01.201.201 0 0 0 .113 0a.133.133 0 0 0-.056.011.101.101 0 0 0-.038.028.084.084 0 0 0-.017.042.105.105 0 0 0 .007.05z"/></symbol><use xlink:href="#e" transform="matrix(18.45 0 0 -18.45 59.597 16.413)"/><path stroke-width=".345" stroke-miterlimit="10" fill="none" stroke="#000" d="M59.788 21.666v12.3"/><use xlink:href="#e" transform="matrix(18.45 0 0 -18.45 59.597 23.332)"/><path stroke-width=".345" stroke-miterlimit="10" fill="none" stroke="#000" d="M65.329 55.875v-12.3M58.463 63.563h8.264M58.463 58.95h8.264"/><use xlink:href="#e" transform="matrix(18.45 0 0 -18.45 59.597 59.08)"/><path stroke-width=".345" stroke-miterlimit="10" fill="none" stroke="#000" d="M59.788 78.169v15.375"/><use xlink:href="#e" transform="matrix(18.45 0 0 -18.45 59.597 79.835)"/><path stroke-width=".345" stroke-miterlimit="10" fill="none" stroke="#000" d="M106.106 75.863v15.375"/><use xlink:href="#e" transform="matrix(18.45 0 0 -18.45 105.914 77.53)"/><path stroke-width=".345" stroke-miterlimit="10" fill="none" stroke="#000" d="M152.23 73.556v15.375"/><use xlink:href="#e" transform="matrix(18.45 0 0 -18.45 152.04 75.223)"/><path stroke-width=".345" stroke-miterlimit="10" fill="none" stroke="#000" d="M198.548 71.25v15.375"/><use xlink:href="#e" transform="matrix(18.45 0 0 -18.45 198.357 72.917)"/><path stroke-width=".345" stroke-miterlimit="10" fill="none" stroke="#000" d="M251.4 68.944v15.375"/><use xlink:href="#e" transform="matrix(18.45 0 0 -18.45 251.208 70.61)"/><path stroke-width=".345" stroke-miterlimit="10" fill="none" stroke="#000" d="M297.524 68.944v15.375"/><use xlink:href="#e" transform="matrix(18.45 0 0 -18.45 297.333 70.61)"/><path stroke-width=".345" stroke-miterlimit="10" fill="none" stroke="#000" d="M343.65 66.637v15.375"/><symbol id="f"><path d="M.32.226A.06.06 0 0 0 .327.201.15.15 0 0 0 .317.13.19.19 0 0 0 .275.063a.188.188 0 0 0-.051-.04.212.212 0 0 0-.117-.019.585.585 0 0 0-.051.01.158.158 0 0 0-.026.013A.07.07 0 0 0 0 .074.17.17 0 0 0 0 .1a.233.233 0 0 0 .01.041c.01.025.023.046.04.063a.29.29 0 0 0 .05.039.218.218 0 0 0 .2.003.05.05 0 0 0 .019-.02M.297.209a.039.039 0 0 1-.02.016.06.06 0 0 1-.025.003.104.104 0 0 1-.027-.006A.442.442 0 0 1 .14.179.825.825 0 0 1 .058.127a.108.108 0 0 1-.02-.02.066.066 0 0 1-.01-.023.037.037 0 0 1 .005-.025.034.034 0 0 1 .019-.016.053.053 0 0 1 .025-.002c.009 0 .018.003.028.006L.13.058c.011.005.021.01.03.016l.03.016a.524.524 0 0 1 .1.071.054.054 0 0 1 .01.023.033.033 0 0 1-.004.025z"/></symbol><use xlink:href="#f" transform="matrix(18.45 0 0 -18.45 343.483 68.396)"/><symbol id="g"><path d="M.314.064A.23.23 0 0 0 .25.014.157.157 0 0 0 .183 0a.167.167 0 0 0-.128.061A.229.229 0 0 0 0 .219C0 .283.02.34.06.395c.04.053.093.08.156.08.04 0 .072-.013.098-.038V.52A.633.633 0 0 1 .31.614C.308.625.304.634.3.638a.03.03 0 0 1-.02.006.103.103 0 0 1-.033-.008L.239.653l.134.055h.022V.191c0-.052 0-.085.003-.096C.4.083.404.075.41.07A.03.03 0 0 1 .429.064c.009 0 .02.003.035.008L.469.055.336 0H.314v.064m0 .034v.23A.156.156 0 0 1 .296.39.1.1 0 0 1 .257.43.092.092 0 0 1 .21.444.1.1 0 0 1 .134.406C.104.372.089.322.089.257.09.192.104.141.132.106.161.071.192.054.228.054c.03 0 .058.015.086.044z"/></symbol><symbol id="h"><path d="M.055.475A.051.051 0 0 0 .093.458.051.051 0 0 0 .11.42.053.053 0 0 0 .093.382.052.052 0 0 0 .055.366.053.053 0 0 0 .001.42c0 .015.005.028.016.038.01.011.023.017.038.017m0-.366A.052.052 0 0 0 .092.093.053.053 0 0 0 .109.054.053.053 0 0 0 .093.016.053.053 0 0 0 .054 0 .053.053 0 0 0 0 .054C0 .07.005.082.016.093c.01.01.023.016.038.016z"/></symbol><symbol id="i"><path d="M0 0z"/></symbol><symbol id="j"><path d="M.517 0H0v.041h.517V0z"/></symbol><use xlink:href="#g" transform="matrix(10.8 0 0 -10.8 36.134 125.548)"/><use xlink:href="#h" transform="matrix(10.8 0 0 -10.8 42.103 125.548)"/><use xlink:href="#i" transform="matrix(10.8 0 0 -10.8 44.175 125.4)"/><use xlink:href="#i" transform="matrix(10.8 0 0 -10.8 46.875 125.4)"/><use xlink:href="#i" transform="matrix(10.8 0 0 -10.8 49.575 125.4)"/><use xlink:href="#j" transform="matrix(10.8 0 0 -10.8 52.186 127.73)"/><use xlink:href="#j" transform="matrix(10.8 0 0 -10.8 57.586 127.73)"/><use xlink:href="#j" transform="matrix(10.8 0 0 -10.8 62.986 127.73)"/><use xlink:href="#j" transform="matrix(10.8 0 0 -10.8 68.386 127.73)"/><use xlink:href="#i" transform="matrix(10.8 0 0 -10.8 73.875 125.4)"/><use xlink:href="#i" transform="matrix(10.8 0 0 -10.8 76.575 125.4)"/><use xlink:href="#i" transform="matrix(10.8 0 0 -10.8 79.275 125.4)"/><use xlink:href="#i" transform="matrix(10.8 0 0 -10.8 81.975 125.4)"/><use xlink:href="#i" transform="matrix(10.8 0 0 -10.8 84.675 125.4)"/><use xlink:href="#i" transform="matrix(10.8 0 0 -10.8 87.375 125.4)"/><use xlink:href="#i" transform="matrix(10.8 0 0 -10.8 90.075 125.4)"/><use xlink:href="#i" transform="matrix(10.8 0 0 -10.8 92.775 125.4)"/><use xlink:href="#i" transform="matrix(10.8 0 0 -10.8 95.475 125.4)"/><use xlink:href="#j" transform="matrix(10.8 0 0 -10.8 98.086 127.73)"/><use xlink:href="#j" transform="matrix(10.8 0 0 -10.8 103.486 127.73)"/><use xlink:href="#j" transform="matrix(10.8 0 0 -10.8 108.886 127.73)"/><use xlink:href="#j" transform="matrix(10.8 0 0 -10.8 114.286 127.73)"/><use xlink:href="#i" transform="matrix(10.8 0 0 -10.8 119.775 125.4)"/><use xlink:href="#i" transform="matrix(10.8 0 0 -10.8 122.475 125.4)"/><use xlink:href="#i" transform="matrix(10.8 0 0 -10.8 125.175 125.4)"/><use xlink:href="#i" transform="matrix(10.8 0 0 -10.8 127.875 125.4)"/><use xlink:href="#i" transform="matrix(10.8 0 0 -10.8 130.575 125.4)"/><use xlink:href="#i" transform="matrix(10.8 0 0 -10.8 133.275 125.4)"/><use xlink:href="#i" transform="matrix(10.8 0 0 -10.8 135.975 125.4)"/><use xlink:href="#i" transform="matrix(10.8 0 0 -10.8 138.675 125.4)"/><use xlink:href="#i" transform="matrix(10.8 0 0 -10.8 141.375 125.4)"/><use xlink:href="#j" transform="matrix(10.8 0 0 -10.8 143.986 127.73)"/><use xlink:href="#j" transform="matrix(10.8 0 0 -10.8 149.386 127.73)"/><use xlink:href="#j" transform="matrix(10.8 0 0 -10.8 154.786 127.73)"/><use xlink:href="#j" transform="matrix(10.8 0 0 -10.8 160.186 127.73)"/><use xlink:href="#i" transform="matrix(10.8 0 0 -10.8 165.675 125.4)"/><use xlink:href="#i" transform="matrix(10.8 0 0 -10.8 168.375 125.4)"/><use xlink:href="#i" transform="matrix(10.8 0 0 -10.8 171.075 125.4)"/><use xlink:href="#i" transform="matrix(10.8 0 0 -10.8 173.775 125.4)"/><use xlink:href="#i" transform="matrix(10.8 0 0 -10.8 176.475 125.4)"/><use xlink:href="#i" transform="matrix(10.8 0 0 -10.8 179.175 125.4)"/><use xlink:href="#i" transform="matrix(10.8 0 0 -10.8 181.875 125.4)"/><use xlink:href="#i" transform="matrix(10.8 0 0 -10.8 184.575 125.4)"/><use xlink:href="#i" transform="matrix(10.8 0 0 -10.8 187.275 125.4)"/><use xlink:href="#i" transform="matrix(10.8 0 0 -10.8 189.975 125.4)"/><use xlink:href="#j" transform="matrix(10.8 0 0 -10.8 192.586 127.73)"/><use xlink:href="#j" transform="matrix(10.8 0 0 -10.8 197.986 127.73)"/><use xlink:href="#j" transform="matrix(10.8 0 0 -10.8 203.386 127.73)"/><use xlink:href="#j" transform="matrix(10.8 0 0 -10.8 208.786 127.73)"/><use xlink:href="#i" transform="matrix(10.8 0 0 -10.8 214.275 125.4)"/><use xlink:href="#i" transform="matrix(10.8 0 0 -10.8 216.975 125.4)"/><use xlink:href="#i" transform="matrix(10.8 0 0 -10.8 219.675 125.4)"/><use xlink:href="#i" transform="matrix(10.8 0 0 -10.8 222.375 125.4)"/><use xlink:href="#i" transform="matrix(10.8 0 0 -10.8 225.075 125.4)"/><use xlink:href="#i" transform="matrix(10.8 0 0 -10.8 227.775 125.4)"/><use xlink:href="#i" transform="matrix(10.8 0 0 -10.8 230.475 125.4)"/><use xlink:href="#i" transform="matrix(10.8 0 0 -10.8 233.175 125.4)"/><use xlink:href="#i" transform="matrix(10.8 0 0 -10.8 235.875 125.4)"/><use xlink:href="#i" transform="matrix(10.8 0 0 -10.8 238.575 125.4)"/><use xlink:href="#i" transform="matrix(10.8 0 0 -10.8 241.275 125.4)"/><use xlink:href="#i" transform="matrix(10.8 0 0 -10.8 243.975 125.4)"/><use xlink:href="#i" transform="matrix(10.8 0 0 -10.8 246.675 125.4)"/><use xlink:href="#j" transform="matrix(10.8 0 0 -10.8 249.285 127.73)"/><use xlink:href="#j" transform="matrix(10.8 0 0 -10.8 254.685 127.73)"/><use xlink:href="#j" transform="matrix(10.8 0 0 -10.8 260.085 127.73)"/><use xlink:href="#j" transform="matrix(10.8 0 0 -10.8 265.485 127.73)"/><use xlink:href="#i" transform="matrix(10.8 0 0 -10.8 270.975 125.4)"/><use xlink:href="#i" transform="matrix(10.8 0 0 -10.8 273.675 125.4)"/><use xlink:href="#i" transform="matrix(10.8 0 0 -10.8 276.375 125.4)"/><use xlink:href="#i" transform="matrix(10.8 0 0 -10.8 279.075 125.4)"/><use xlink:href="#i" transform="matrix(10.8 0 0 -10.8 281.775 125.4)"/><use xlink:href="#i" transform="matrix(10.8 0 0 -10.8 284.475 125.4)"/><use xlink:href="#i" transform="matrix(10.8 0 0 -10.8 287.175 125.4)"/><use xlink:href="#i" transform="matrix(10.8 0 0 -10.8 289.875 125.4)"/><use xlink:href="#j" transform="matrix(10.8 0 0 -10.8 292.485 127.73)"/><use xlink:href="#j" transform="matrix(10.8 0 0 -10.8 297.885 127.73)"/><use xlink:href="#j" transform="matrix(10.8 0 0 -10.8 303.285 127.73)"/><use xlink:href="#j" transform="matrix(10.8 0 0 -10.8 308.685 127.73)"/><use xlink:href="#i" transform="matrix(10.8 0 0 -10.8 314.175 125.4)"/><use xlink:href="#i" transform="matrix(10.8 0 0 -10.8 316.875 125.4)"/><use xlink:href="#i" transform="matrix(10.8 0 0 -10.8 319.575 125.4)"/><use xlink:href="#i" transform="matrix(10.8 0 0 -10.8 322.275 125.4)"/><use xlink:href="#i" transform="matrix(10.8 0 0 -10.8 324.975 125.4)"/><use xlink:href="#i" transform="matrix(10.8 0 0 -10.8 327.675 125.4)"/><use xlink:href="#i" transform="matrix(10.8 0 0 -10.8 330.375 125.4)"/><use xlink:href="#i" transform="matrix(10.8 0 0 -10.8 333.075 125.4)"/><use xlink:href="#i" transform="matrix(10.8 0 0 -10.8 335.775 125.4)"/><use xlink:href="#j" transform="matrix(10.8 0 0 -10.8 338.385 127.73)"/><use xlink:href="#j" transform="matrix(10.8 0 0 -10.8 343.786 127.73)"/><use xlink:href="#j" transform="matrix(10.8 0 0 -10.8 349.185 127.73)"/><use xlink:href="#j" transform="matrix(10.8 0 0 -10.8 354.585 127.73)"/><symbol id="k"><path d="M.405.688V.668A.32.32 0 0 1 .3.644.295.295 0 0 1 .22.585.38.38 0 0 1 .152.497.53.53 0 0 1 .11.38.248.248 0 0 0 .25.43.154.154 0 0 0 .369.375a.2.2 0 0 0 .05-.14.25.25 0 0 0-.05-.152A.189.189 0 0 0 .207 0a.161.161 0 0 0-.115.045A.297.297 0 0 0 0 .27a.438.438 0 0 0 .264.395c.04.014.078.021.113.021h.028M.102.346a.843.843 0 0 1-.01-.107C.093.208.099.174.11.137A.201.201 0 0 1 .162.05a.086.086 0 0 1 .06-.023c.028 0 .054.014.076.04a.173.173 0 0 1 .034.115.298.298 0 0 1-.034.144C.276.366.245.387.204.387A.118.118 0 0 1 .164.38.395.395 0 0 1 .102.346z"/></symbol><symbol id="l"><path d="M.063.676h.355V.657L.198 0H.143l.198.596H.159A.17.17 0 0 1 .08.583a.164.164 0 0 1-.066-.07L0 .52l.063.157z"/></symbol><use xlink:href="#k" transform="matrix(8.1 0 0 -8.1 106.548 101.645)"/><use xlink:href="#i" transform="matrix(8.1 0 0 -8.1 110.25 101.55)"/><use xlink:href="#i" transform="matrix(8.1 0 0 -8.1 112.275 101.55)"/><use xlink:href="#i" transform="matrix(8.1 0 0 -8.1 114.3 101.55)"/><use xlink:href="#i" transform="matrix(8.1 0 0 -8.1 116.325 101.55)"/><use xlink:href="#i" transform="matrix(8.1 0 0 -8.1 118.35 101.55)"/><use xlink:href="#i" transform="matrix(8.1 0 0 -8.1 120.375 101.55)"/><use xlink:href="#i" transform="matrix(8.1 0 0 -8.1 122.4 101.55)"/><use xlink:href="#i" transform="matrix(8.1 0 0 -8.1 124.425 101.55)"/><use xlink:href="#i" transform="matrix(8.1 0 0 -8.1 126.45 101.55)"/><use xlink:href="#i" transform="matrix(8.1 0 0 -8.1 128.475 101.55)"/><use xlink:href="#i" transform="matrix(8.1 0 0 -8.1 130.5 101.55)"/><use xlink:href="#i" transform="matrix(8.1 0 0 -8.1 132.525 101.55)"/><use xlink:href="#i" transform="matrix(8.1 0 0 -8.1 134.55 101.55)"/><use xlink:href="#i" transform="matrix(8.1 0 0 -8.1 136.575 101.55)"/><use xlink:href="#i" transform="matrix(8.1 0 0 -8.1 138.6 101.55)"/><use xlink:href="#i" transform="matrix(8.1 0 0 -8.1 140.625 101.55)"/><use xlink:href="#i" transform="matrix(8.1 0 0 -8.1 142.65 101.55)"/><use xlink:href="#i" transform="matrix(8.1 0 0 -8.1 144.675 101.55)"/><use xlink:href="#i" transform="matrix(8.1 0 0 -8.1 146.7 101.55)"/><use xlink:href="#i" transform="matrix(8.1 0 0 -8.1 148.725 101.55)"/><use xlink:href="#i" transform="matrix(8.1 0 0 -8.1 150.75 101.55)"/><use xlink:href="#k" transform="matrix(8.1 0 0 -8.1 153.123 101.645)"/><use xlink:href="#i" transform="matrix(8.1 0 0 -8.1 156.825 101.55)"/><use xlink:href="#i" transform="matrix(8.1 0 0 -8.1 158.85 101.55)"/><use xlink:href="#i" transform="matrix(8.1 0 0 -8.1 160.875 101.55)"/><use xlink:href="#i" transform="matrix(8.1 0 0 -8.1 162.9 101.55)"/><use xlink:href="#i" transform="matrix(8.1 0 0 -8.1 164.925 101.55)"/><use xlink:href="#i" transform="matrix(8.1 0 0 -8.1 166.95 101.55)"/><use xlink:href="#i" transform="matrix(8.1 0 0 -8.1 168.975 101.55)"/><use xlink:href="#i" transform="matrix(8.1 0 0 -8.1 171 101.55)"/><use xlink:href="#i" transform="matrix(8.1 0 0 -8.1 173.025 101.55)"/><use xlink:href="#i" transform="matrix(8.1 0 0 -8.1 175.05 101.55)"/><use xlink:href="#i" transform="matrix(8.1 0 0 -8.1 177.075 101.55)"/><use xlink:href="#i" transform="matrix(8.1 0 0 -8.1 179.1 101.55)"/><use xlink:href="#i" transform="matrix(8.1 0 0 -8.1 181.125 101.55)"/><use xlink:href="#i" transform="matrix(8.1 0 0 -8.1 183.15 101.55)"/><use xlink:href="#i" transform="matrix(8.1 0 0 -8.1 185.175 101.55)"/><use xlink:href="#i" transform="matrix(8.1 0 0 -8.1 187.2 101.55)"/><use xlink:href="#i" transform="matrix(8.1 0 0 -8.1 189.225 101.55)"/><use xlink:href="#i" transform="matrix(8.1 0 0 -8.1 191.25 101.55)"/><use xlink:href="#i" transform="matrix(8.1 0 0 -8.1 193.275 101.55)"/><use xlink:href="#i" transform="matrix(8.1 0 0 -8.1 195.3 101.55)"/><use xlink:href="#i" transform="matrix(8.1 0 0 -8.1 197.325 101.55)"/><use xlink:href="#i" transform="matrix(8.1 0 0 -8.1 199.35 101.55)"/><use xlink:href="#i" transform="matrix(8.1 0 0 -8.1 201.375 101.55)"/><use xlink:href="#i" transform="matrix(8.1 0 0 -8.1 203.4 101.55)"/><use xlink:href="#i" transform="matrix(8.1 0 0 -8.1 205.425 101.55)"/><use xlink:href="#i" transform="matrix(8.1 0 0 -8.1 207.45 101.55)"/><use xlink:href="#i" transform="matrix(8.1 0 0 -8.1 209.475 101.55)"/><use xlink:href="#i" transform="matrix(8.1 0 0 -8.1 211.5 101.55)"/><use xlink:href="#i" transform="matrix(8.1 0 0 -8.1 213.525 101.55)"/><use xlink:href="#i" transform="matrix(8.1 0 0 -8.1 215.55 101.55)"/><use xlink:href="#i" transform="matrix(8.1 0 0 -8.1 217.575 101.55)"/><use xlink:href="#i" transform="matrix(8.1 0 0 -8.1 219.6 101.55)"/><use xlink:href="#i" transform="matrix(8.1 0 0 -8.1 221.625 101.55)"/><use xlink:href="#i" transform="matrix(8.1 0 0 -8.1 223.65 101.55)"/><use xlink:href="#i" transform="matrix(8.1 0 0 -8.1 225.675 101.55)"/><use xlink:href="#i" transform="matrix(8.1 0 0 -8.1 227.7 101.55)"/><use xlink:href="#i" transform="matrix(8.1 0 0 -8.1 229.725 101.55)"/><use xlink:href="#i" transform="matrix(8.1 0 0 -8.1 231.75 101.55)"/><use xlink:href="#i" transform="matrix(8.1 0 0 -8.1 233.775 101.55)"/><use xlink:href="#i" transform="matrix(8.1 0 0 -8.1 235.8 101.55)"/><use xlink:href="#i" transform="matrix(8.1 0 0 -8.1 237.825 101.55)"/><use xlink:href="#i" transform="matrix(8.1 0 0 -8.1 239.85 101.55)"/><use xlink:href="#i" transform="matrix(8.1 0 0 -8.1 241.875 101.55)"/><use xlink:href="#i" transform="matrix(8.1 0 0 -8.1 243.9 101.55)"/><use xlink:href="#i" transform="matrix(8.1 0 0 -8.1 245.925 101.55)"/><use xlink:href="#i" transform="matrix(8.1 0 0 -8.1 247.95 101.55)"/><use xlink:href="#i" transform="matrix(8.1 0 0 -8.1 249.975 101.55)"/><use xlink:href="#k" transform="matrix(8.1 0 0 -8.1 252.348 101.645)"/><use xlink:href="#i" transform="matrix(8.1 0 0 -8.1 256.05 101.55)"/><use xlink:href="#i" transform="matrix(8.1 0 0 -8.1 258.075 101.55)"/><use xlink:href="#i" transform="matrix(8.1 0 0 -8.1 260.1 101.55)"/><use xlink:href="#i" transform="matrix(8.1 0 0 -8.1 262.125 101.55)"/><use xlink:href="#i" transform="matrix(8.1 0 0 -8.1 264.15 101.55)"/><use xlink:href="#i" transform="matrix(8.1 0 0 -8.1 266.175 101.55)"/><use xlink:href="#i" transform="matrix(8.1 0 0 -8.1 268.2 101.55)"/><use xlink:href="#i" transform="matrix(8.1 0 0 -8.1 270.225 101.55)"/><use xlink:href="#i" transform="matrix(8.1 0 0 -8.1 272.25 101.55)"/><use xlink:href="#i" transform="matrix(8.1 0 0 -8.1 274.275 101.55)"/><use xlink:href="#i" transform="matrix(8.1 0 0 -8.1 276.3 101.55)"/><use xlink:href="#i" transform="matrix(8.1 0 0 -8.1 278.325 101.55)"/><use xlink:href="#i" transform="matrix(8.1 0 0 -8.1 280.35 101.55)"/><use xlink:href="#i" transform="matrix(8.1 0 0 -8.1 282.375 101.55)"/><use xlink:href="#i" transform="matrix(8.1 0 0 -8.1 284.4 101.55)"/><use xlink:href="#i" transform="matrix(8.1 0 0 -8.1 286.425 101.55)"/><use xlink:href="#i" transform="matrix(8.1 0 0 -8.1 288.45 101.55)"/><use xlink:href="#i" transform="matrix(8.1 0 0 -8.1 290.475 101.55)"/><use xlink:href="#i" transform="matrix(8.1 0 0 -8.1 292.5 101.55)"/><use xlink:href="#i" transform="matrix(8.1 0 0 -8.1 294.525 101.55)"/><use xlink:href="#i" transform="matrix(8.1 0 0 -8.1 296.55 101.55)"/><use xlink:href="#l" transform="matrix(8.1 0 0 -8.1 298.875 101.66)"/><symbol id="m"><path d="M.45.244v-.07H.36V0H.28v.175H0v.062l.307.439h.054V.244H.45m-.17 0v.329L.048.244H.28z"/></symbol><use xlink:href="#m" transform="matrix(8.1 0 0 -8.1 252.352 108.75)"/><symbol id="n"><path d="M.17.432.072.4V.251L.17.283v.149M0 .48l.043.014v.163h.029V.504L.17.536v.146h.029V.545l.039.013V.454L.199.441V.293l.039.012V.202L.199.189V.026H.17V.18L.072.148V0H.043v.138L0 .124v.104l.043.014v.149L0 .377V.48z"/></symbol><use xlink:href="#n" transform="matrix(11.7 0 0 -11.7 299.601 111.58)"/></svg>