<svg xmlns="http://www.w3.org/2000/svg" xmlns:xlink="http://www.w3.org/1999/xlink" width="416pt" height="62pt" viewBox="0 0 416 62"><path d="M-161 343h612v-792h-612z" fill="#fff"/><symbol id="a"><path d="M.469.44A.415.415 0 0 0 .348.434a.459.459 0 0 0-.097.02.554.554 0 0 0-.125.078.344.344 0 0 0-.11.178.677.677 0 0 0-.013.096C0 .842.003.877.012.911a.55.55 0 0 0 .153.257 1.843 1.843 0 0 0 .162.136.194.194 0 0 1-.003.023.33.33 0 0 0-.011.076l-.002.03a.924.924 0 0 0-.001.121.345.345 0 0 0 .031.144.615.615 0 0 0 .039.075.4.4 0 0 0 .048.062c.016.018.032.026.047.026.007 0 .015-.004.024-.014a.405.405 0 0 0 .05-.087.544.544 0 0 0 .042-.168c0-.034-.001-.065-.004-.092a.415.415 0 0 0-.067-.182.402.402 0 0 0-.033-.048 9.105 9.105 0 0 0-.033-.04.22.22 0 0 0-.038-.038.517.517 0 0 1-.038-.03A16.911 16.911 0 0 0 .41.966a.361.361 0 0 0 .14-.02.207.207 0 0 0 .03-.015A.224.224 0 0 0 .657.84.31.31 0 0 0 .684.735.276.276 0 0 0 .643.57.319.319 0 0 0 .494.446 22.623 22.623 0 0 0 .52.272.508.508 0 0 0 .527.174.148.148 0 0 0 .512.111.283.283 0 0 0 .486.072.164.164 0 0 0 .405.013.236.236 0 0 0 .283.006a.234.234 0 0 0-.07.023.175.175 0 0 0-.056.044.116.116 0 0 0-.027.07.175.175 0 0 0 .003.048.14.14 0 0 0 .017.044C.158.248.17.26.183.267a.11.11 0 0 0 .087.01.137.137 0 0 0 .035-.019A.099.099 0 0 0 .343.19.101.101 0 0 0 .32.12.157.157 0 0 0 .232.065.09.09 0 0 1 .27.04a.166.166 0 0 1 .154.013.183.183 0 0 1 .063.065C.496.136.5.158.5.186a.702.702 0 0 1-.02.175L.469.44m.02 1.267c-.025 0-.048-.012-.068-.037a.298.298 0 0 1-.048-.092.567.567 0 0 1-.021-.252.748.748 0 0 1 .134.136.41.41 0 0 1 .048.081.155.155 0 0 1 .002.133.072.072 0 0 1-.018.022.043.043 0 0 1-.028.01M.488.48c.028.01.05.023.067.04A.152.152 0 0 1 .59.57a.155.155 0 0 1 .013.056.433.433 0 0 1 0 .05.332.332 0 0 1-.008.045.132.132 0 0 1-.075.093.172.172 0 0 1-.088.014L.488.48M.406.827A.155.155 0 0 1 .338.81.123.123 0 0 1 .27.691.158.158 0 0 1 .297.62.23.23 0 0 1 .322.59.11.11 0 0 1 .35.57.016.016 0 0 0 .346.564.016.016 0 0 0 .343.561.016.016 0 0 1 .34.557a.245.245 0 0 0-.055.036.257.257 0 0 0-.03.03.747.747 0 0 0-.02.026.119.119 0 0 0-.012.026.25.25 0 0 0-.01.03.278.278 0 0 0 0 .081.226.226 0 0 0 .016.048.247.247 0 0 0 .074.09.248.248 0 0 0 .043.025.868.868 0 0 0 .039.013l-.03.181A1.039 1.039 0 0 1 .142.938.715.715 0 0 1 .086.833.216.216 0 0 1 .07.73.246.246 0 0 1 .109.612.316.316 0 0 1 .32.47a.315.315 0 0 1 .143.003 36.857 36.857 0 0 1-.056.34L.406.826z"/></symbol><use xlink:href="#a" transform="matrix(20.5 0 0 -20.5 6.576 41.985)"/><path stroke-width=".384" stroke-miterlimit="10" fill="none" stroke="#000" d="M88.608 12.438v20.5M91.171 12.438v20.5M155.447 12.438v20.5M158.01 12.438v20.5M221.218 12.438v20.5M223.78 12.438v20.5M283.572 12.438v20.5M286.135 12.438v20.5M345.926 12.438v20.5M348.489 12.438v20.5M414.73 12.438v20.5M412.168 12.438v20.5M1.505 12.438h413.417M1.505 17.563h413.417M1.505 22.688h413.417M1.505 27.813h413.417M1.505 32.938h413.417"/><symbol id="b"><path d="M.001.135a.08.08 0 0 0 .012.049.14.14 0 0 0 .042.042.239.239 0 0 0 .063.029.276.276 0 0 0 .08.011.402.402 0 0 0 .08-.008.235.235 0 0 0 .07-.025.16.16 0 0 0 .05-.043.108.108 0 0 0 .023-.06.077.077 0 0 0-.013-.049.13.13 0 0 0-.04-.042A.266.266 0 0 0 .226 0a.402.402 0 0 0-.082.008.249.249 0 0 0-.07.025.15.15 0 0 0-.05.042.108.108 0 0 0-.024.06m.125.019a.532.532 0 0 1 .01-.051.173.173 0 0 1 .018-.042.093.093 0 0 1 .028-.028.082.082 0 0 1 .074-.002c.01.005.019.012.025.02a.07.07 0 0 1 .014.027C.3.088.3.097.298.106a.382.382 0 0 1-.01.051.152.152 0 0 1-.02.042.086.086 0 0 1-.072.039A.063.063 0 0 1 .164.23.074.074 0 0 1 .128.183.072.072 0 0 1 .126.154z"/></symbol><use xlink:href="#b" transform="matrix(20.5 0 0 -20.5 41.41 20.268)"/><use xlink:href="#b" transform="matrix(20.5 0 0 -20.5 33.936 22.831)"/><symbol id="c"><path d="M.026.512V.271c.01.009.018.016.026.021a.11.11 0 0 0 .023.012.092.092 0 0 0 .023.007.192.192 0 0 0 .029.002.071.071 0 0 0 .034-.008.088.088 0 0 0 .026-.021.098.098 0 0 0 .023-.06c0-.01 0-.021-.003-.032a.173.173 0 0 0-.01-.028.08.08 0 0 0-.022-.03.518.518 0 0 1-.027-.025A1.082 1.082 0 0 0 .009.008L0 0v.591h.026V.512M.107.249a.038.038 0 0 1-.014.01.04.04 0 0 1-.038-.002.052.052 0 0 1-.018-.021.11.11 0 0 1-.011-.048V.051l.006.005a.097.097 0 0 1 .014.012l.018.016L.082.1c.01.009.017.018.024.028a.11.11 0 0 1 .015.038c.004.015.005.03.003.045a.07.07 0 0 1-.017.038z"/></symbol><use xlink:href="#c" transform="matrix(20.5 0 0 -20.5 27.984 20.802)"/><use xlink:href="#b" transform="matrix(20.5 0 0 -20.5 74.51 22.831)"/><use xlink:href="#b" transform="matrix(20.5 0 0 -20.5 74.51 38.206)"/><use xlink:href="#c" transform="matrix(20.5 0 0 -20.5 68.557 38.739)"/><symbol id="d"><path d="M.393 0 .137.557V.115C.137.075.14.049.15.039.162.025.18.019.207.019H.23V0H0v.018h.023c.028 0 .048.009.06.025.007.01.01.035.01.072v.432c0 .03-.003.05-.009.064a.053.053 0 0 1-.025.023.13.13 0 0 1-.059.01v.018h.188l.24-.518.236.518h.188V.644H.829C.8.644.78.636.769.619.76.609.758.584.758.547V.115c0-.04.004-.066.013-.076C.784.025.803.019.83.019h.023V0H.57v.018h.024c.028 0 .048.009.06.025.006.01.01.035.01.072v.442L.41 0H.393z"/></symbol><symbol id="e"><path d="M.063.676h.355V.657L.198 0H.143l.198.596H.159A.17.17 0 0 1 .08.583a.164.164 0 0 1-.066-.07L0 .52l.063.157z"/></symbol><use xlink:href="#d" transform="matrix(11.10417 0 0 -11.10417 71.304 55.36)"/><use xlink:href="#e" transform="matrix(11.10417 0 0 -11.10417 81.406 55.511)"/><symbol id="f"><path d="M.156.365c.032.033.052.052.057.056.015.013.03.022.048.03.017.006.033.01.05.01A.112.112 0 0 0 .383.435a.12.12 0 0 0 .04-.07C.458.403.487.43.51.441A.15.15 0 0 0 .58.46.11.11 0 0 0 .643.442a.12.12 0 0 0 .044-.06.27.27 0 0 0 .01-.089V.101C.698.073.7.054.705.043A.043.043 0 0 1 .722.025.093.093 0 0 1 .765.018V0h-.22v.018h.009c.019 0 .034.003.045.01a.044.044 0 0 1 .016.026A.313.313 0 0 1 .617.1v.192a.163.163 0 0 1-.013.078C.59.39.57.4.542.4A.116.116 0 0 1 .49.39.278.278 0 0 1 .427.34V.1c0-.03.002-.05.005-.057a.044.044 0 0 1 .02-.02A.114.114 0 0 1 .5.019V0H.274v.018c.025 0 .042.003.05.008.01.006.017.015.02.027A.26.26 0 0 1 .347.1v.192C.347.33.34.356.33.373a.069.069 0 0 1-.06.03A.108.108 0 0 1 .218.39.201.201 0 0 1 .156.341V.1c0-.03.002-.048.006-.057A.045.045 0 0 1 .18.024.122.122 0 0 1 .229.018V0H.007v.018c.02 0 .035.002.043.006a.044.044 0 0 1 .019.02c.004.01.006.03.006.057v.171a.62.62 0 0 1-.004.095C.069.377.065.385.06.39A.03.03 0 0 1 .04.396.094.094 0 0 1 .007.388L0 .406.135.46h.02V.365z"/></symbol><symbol id="g"><path d="M.437.127.391 0H0v.018c.115.105.196.19.243.257.047.066.07.127.07.182a.144.144 0 0 1-.039.104.123.123 0 0 1-.092.04.144.144 0 0 1-.088-.029A.165.165 0 0 1 .037.49H.02c.008.06.029.106.063.138a.176.176 0 0 0 .126.049.186.186 0 0 0 .134-.052.163.163 0 0 0 .054-.122.236.236 0 0 0-.023-.1.663.663 0 0 0-.117-.168 3.477 3.477 0 0 0-.152-.16h.173c.035 0 .06.001.074.004a.099.099 0 0 1 .038.015c.012.008.021.02.03.034h.018z"/></symbol><use xlink:href="#f" transform="matrix(11.10417 0 0 -11.10417 35.764 55.36)"/><use xlink:href="#g" transform="matrix(11.10417 0 0 -11.10417 44.547 55.36)"/><path d="m68.984 51.73-4.27-2.136v4.27l4.27-2.135M52.328 51.73l4.271 2.135v-4.271l-4.27 2.135"/><path stroke-width=".854" stroke-miterlimit="10" fill="none" stroke="#000" d="M66.53 51.73H55.058"/><use xlink:href="#b" transform="matrix(20.5 0 0 -20.5 105.686 20.268)"/><use xlink:href="#b" transform="matrix(20.5 0 0 -20.5 98.212 22.831)"/><use xlink:href="#b" transform="matrix(20.5 0 0 -20.5 138.358 22.831)"/><use xlink:href="#b" transform="matrix(20.5 0 0 -20.5 138.358 38.206)"/><use xlink:href="#d" transform="matrix(11.10417 0 0 -11.10417 97.356 55.146)"/><use xlink:href="#g" transform="matrix(11.10417 0 0 -11.10417 107.284 55.146)"/><use xlink:href="#f" transform="matrix(11.10417 0 0 -11.10417 136.129 55.36)"/><use xlink:href="#e" transform="matrix(11.10417 0 0 -11.10417 145.085 55.511)"/><path d="m132.406 51.73-4.27-2.136v4.27l4.27-2.135M115.964 51.73l4.27 2.135v-4.271l-4.27 2.135"/><path stroke-width=".854" stroke-miterlimit="10" fill="none" stroke="#000" d="M130.025 51.73h-11.472"/><use xlink:href="#b" transform="matrix(20.5 0 0 -20.5 171.03 17.706)"/><use xlink:href="#b" transform="matrix(20.5 0 0 -20.5 171.03 22.831)"/><use xlink:href="#c" transform="matrix(20.5 0 0 -20.5 165.078 18.239)"/><use xlink:href="#b" transform="matrix(20.5 0 0 -20.5 204.129 22.831)"/><use xlink:href="#b" transform="matrix(20.5 0 0 -20.5 204.129 35.644)"/><use xlink:href="#c" transform="matrix(20.5 0 0 -20.5 198.177 36.176)"/><symbol id="h"><path d="M.01.548A.268.268 0 0 0 .082.65a.162.162 0 0 0 .107.036.149.149 0 0 0 .123-.051.127.127 0 0 0 .032-.083c0-.048-.03-.098-.091-.15A.197.197 0 0 0 .345.336.177.177 0 0 0 .376.231.22.22 0 0 0 .322.082C.274.027.205 0 .115 0 .071 0 .04.006.024.017.008.027 0 .04 0 .052c0 .01.004.018.011.025a.04.04 0 0 0 .028.01.084.084 0 0 0 .025-.003.285.285 0 0 0 .038-.018.245.245 0 0 1 .04-.018.135.135 0 0 1 .039-.006c.033 0 .062.013.086.04a.127.127 0 0 1 .037.09A.176.176 0 0 1 .26.29a.199.199 0 0 1-.057.035.184.184 0 0 1-.075.016H.111v.015a.2.2 0 0 1 .077.028.147.147 0 0 1 .057.055.145.145 0 0 1 .018.07.108.108 0 0 1-.11.113C.103.621.06.594.026.54L.01.548z"/></symbol><use xlink:href="#f" transform="matrix(11.10417 0 0 -11.10417 168.587 55.36)"/><use xlink:href="#h" transform="matrix(11.10417 0 0 -11.10417 177.582 55.49)"/><symbol id="i"><path d="M.405.688V.668A.32.32 0 0 1 .3.644.295.295 0 0 1 .22.585.38.38 0 0 1 .152.497.53.53 0 0 1 .11.38.248.248 0 0 0 .25.43.154.154 0 0 0 .369.375a.2.2 0 0 0 .05-.14.25.25 0 0 0-.05-.152A.189.189 0 0 0 .207 0a.161.161 0 0 0-.115.045A.297.297 0 0 0 0 .27a.438.438 0 0 0 .264.395c.04.014.078.021.113.021h.028M.102.346a.843.843 0 0 1-.01-.107C.093.208.099.174.11.137A.201.201 0 0 1 .162.05a.086.086 0 0 1 .06-.023c.028 0 .054.014.076.04a.173.173 0 0 1 .034.115.298.298 0 0 1-.034.144C.276.366.245.387.204.387A.118.118 0 0 1 .164.38.395.395 0 0 1 .102.346z"/></symbol><use xlink:href="#d" transform="matrix(11.10417 0 0 -11.10417 201.137 55.36)"/><use xlink:href="#i" transform="matrix(11.10417 0 0 -11.10417 211.304 55.49)"/><path d="m199.885 51.73-4.27-2.136v4.27l4.27-2.135M183.23 51.73l4.27 2.135v-4.271l-4.27 2.135"/><path stroke-width=".854" stroke-miterlimit="10" fill="none" stroke="#000" d="M197.418 51.73h-11.472"/><use xlink:href="#b" transform="matrix(20.5 0 0 -20.5 230.822 17.706)"/><use xlink:href="#b" transform="matrix(20.5 0 0 -20.5 230.822 22.831)"/><use xlink:href="#b" transform="matrix(20.5 0 0 -20.5 267.124 22.831)"/><use xlink:href="#b" transform="matrix(20.5 0 0 -20.5 267.124 35.644)"/><use xlink:href="#d" transform="matrix(11.10417 0 0 -11.10417 229.111 55.36)"/><use xlink:href="#h" transform="matrix(11.10417 0 0 -11.10417 239.25 55.49)"/><use xlink:href="#f" transform="matrix(11.10417 0 0 -11.10417 265.535 55.573)"/><use xlink:href="#i" transform="matrix(11.10417 0 0 -11.10417 274.557 55.703)"/><path d="m262.453 51.943-4.27-2.136v4.271l4.27-2.135M245.797 51.943l4.27 2.135v-4.27l-4.27 2.135"/><path stroke-width=".854" stroke-miterlimit="10" fill="none" stroke="#000" d="M260.033 51.943h-11.472"/><use xlink:href="#b" transform="matrix(20.5 0 0 -20.5 293.176 15.143)"/><use xlink:href="#b" transform="matrix(20.5 0 0 -20.5 293.176 22.831)"/><use xlink:href="#b" transform="matrix(20.5 0 0 -20.5 327.342 22.831)"/><use xlink:href="#b" transform="matrix(20.5 0 0 -20.5 327.342 33.081)"/><symbol id="j"><path d="M.188.31V.117C.188.076.193.05.202.04.215.025.233.018.258.018h.026V0H0v.018h.025c.028 0 .048.01.06.027.006.01.01.034.01.072v.428C.095.587.09.612.082.623.069.637.05.644.025.644H0v.018h.243c.059 0 .106-.006.14-.018A.191.191 0 0 0 .469.582.159.159 0 0 0 .504.479.173.173 0 0 0 .451.347C.415.313.365.297.3.297A.426.426 0 0 0 .188.31m0 .028a.723.723 0 0 1 .08-.01c.034 0 .064.013.088.04.025.026.037.06.037.101a.182.182 0 0 1-.018.08.12.12 0 0 1-.05.055.144.144 0 0 1-.073.019.289.289 0 0 1-.064-.01V.338z"/></symbol><symbol id="k"><path d="M.45.244v-.07H.36V0H.28v.175H0v.062l.307.439h.054V.244H.45m-.17 0v.329L.048.244H.28z"/></symbol><use xlink:href="#j" transform="matrix(11.10417 0 0 -11.10417 292.533 55.36)"/><use xlink:href="#k" transform="matrix(11.10417 0 0 -11.10417 298.699 55.36)"/><symbol id="l"><path d="M.386.674.348.59h-.2L.106.502A.349.349 0 0 0 .311.406.216.216 0 0 0 .375.25.22.22 0 0 0 .354.153.257.257 0 0 0 .229.027.264.264 0 0 0 .114 0C.074 0 .045.007.027.02.009.034 0 .049 0 .065c0 .01.004.017.011.024a.04.04 0 0 0 .029.01.056.056 0 0 0 .022-.003.198.198 0 0 0 .032-.02A.13.13 0 0 1 .168.05c.039 0 .072.015.1.043A.144.144 0 0 1 .313.2c0 .04-.013.077-.039.112a.247.247 0 0 1-.106.08.432.432 0 0 1-.145.026l.127.257h.237z"/></symbol><use xlink:href="#j" transform="matrix(11.10417 0 0 -11.10417 326.06 55.36)"/><use xlink:href="#l" transform="matrix(11.10417 0 0 -11.10417 332.582 55.49)"/><path d="m323.099 51.73-4.27-2.136v4.27l4.27-2.135M306.443 51.73l4.27 2.135v-4.271l-4.27 2.135"/><path stroke-width=".854" stroke-miterlimit="10" fill="none" stroke="#000" d="M320.637 51.73h-11.472"/><use xlink:href="#b" transform="matrix(20.5 0 0 -20.5 360.868 15.143)"/><use xlink:href="#b" transform="matrix(20.5 0 0 -20.5 360.868 22.831)"/><symbol id="m"><path d="M.072.4V.251L.17.283v.149L.072.4M.043.494v.163h.029V.504L.17.536v.146h.029V.545l.039.013V.454L.199.441V.293l.039.012V.202L.199.189V.026H.17V.18L.072.148V0H.043v.138L0 .124v.104l.043.014v.149L0 .377V.48l.043.014z"/></symbol><use xlink:href="#m" transform="matrix(20.5 0 0 -20.5 354.276 19.366)"/><use xlink:href="#b" transform="matrix(20.5 0 0 -20.5 387.134 22.831)"/><use xlink:href="#b" transform="matrix(20.5 0 0 -20.5 387.134 33.081)"/><use xlink:href="#m" transform="matrix(20.5 0 0 -20.5 380.542 37.304)"/><symbol id="n"><path d="M.243 0v.244H0v.04h.243v.242h.04V.284h.243v-.04H.282V0H.243z"/></symbol><use xlink:href="#n" transform="matrix(11.10417 0 0 -11.10417 355.544 54.381)"/><use xlink:href="#k" transform="matrix(11.10417 0 0 -11.10417 361.78 55.146)"/><symbol id="o"><path d="M.144.292c.04 0 .074-.014.1-.042a.14.14 0 0 0 .04-.102.144.144 0 0 0-.043-.104A.14.14 0 0 0 .138 0 .137.137 0 0 0 0 .14a.15.15 0 0 0 .04.11.138.138 0 0 0 .104.042M.13.27A.055.055 0 0 1 .087.249C.075.234.069.21.069.179.069.127.08.085.103.053a.058.058 0 0 1 .05-.028c.018 0 .033.007.045.021.013.015.019.038.019.07A.21.21 0 0 1 .182.24C.168.26.151.27.13.27z"/></symbol><use xlink:href="#o" transform="matrix(11.10417 0 0 -11.10417 390.095 51.092)"/><use xlink:href="#l" transform="matrix(11.10417 0 0 -11.10417 393.912 55.49)"/><path d="m386.52 51.302-4.27-2.135v4.27l4.27-2.135M370.078 51.302l4.271 2.136v-4.271l-4.27 2.135"/><path stroke-width=".854" stroke-miterlimit="10" fill="none" stroke="#000" d="M384.132 51.302H372.66"/></svg>